<?xml version='1.0' encoding='UTF-8' standalone='no'?>
<svg xmlns:cc="http://creativecommons.org/ns#" xmlns:dc="http://purl.org/dc/elements/1.1/" height="60.601002" xmlns:rdf="http://www.w3.org/1999/02/22-rdf-syntax-ns#" xmlns:svg="http://www.w3.org/2000/svg" version="1.1" viewBox="0 0 60.601004 60.601004" width="60.601002" xmlns="http://www.w3.org/2000/svg">
  <defs/>
  <metadata>
    <rdf:RDF>
      <cc:Work rdf:about="">
        <dc:format>image/svg+xml</dc:format>
        <dc:type rdf:resource="http://purl.org/dc/dcmitype/StillImage"/>
        <dc:title>病院; Hospital</dc:title>
        <dc:source>http://www.ecomo.or.jp/barrierfree/pictogram/data/zukigo_panfu_jis110.pdf</dc:source>
      </cc:Work>
    </rdf:RDF>
  </metadata>
  <path d="m 7.7855016,56.031754 c -1.7775001,0 -3.2162502,-1.44 -3.2162502,-3.215 l 0,-45.0312526 c 0,-1.7762501 1.4387501,-3.2162502 3.2162502,-3.2162502 l 45.0300024,0 c 1.77625,0 3.21625,1.4400001 3.21625,3.2162502 l 0,45.0312526 c 0,1.775 -1.44,3.215 -3.21625,3.215 l -45.0300024,0 z" style="fill:#ffffff;stroke:#000;stroke-width:0.60625005"/>
  <path d="m 32.713003,28.693002 0,-4.825 -4.825001,0 0,4.825 -4.825,0 0,4.825001 4.825,0 0,4.82375 4.825001,0 0,-4.82375 4.825,0 0,-4.825001 -4.825,0 z m 18.493751,-5.62875 0,19.298751 -41.8137524,0 0,-19.298751 c 4.0675004,-0.66125 8.1987504,-1.13 12.3850004,-1.4 l 0,-6.035 8.523751,-3.1025 8.5225,3.10125 0,6.0525 c 4.09625,0.2725 8.140001,0.73625 12.122501,1.38375 l 0.26,0" style="fill:#000;stroke:none"/>
</svg>
