<?xml version='1.0' encoding='UTF-8' standalone='no'?>
<svg xmlns:cc="http://creativecommons.org/ns#" xmlns:dc="http://purl.org/dc/elements/1.1/" height="60.601002" xmlns:rdf="http://www.w3.org/1999/02/22-rdf-syntax-ns#" xmlns:svg="http://www.w3.org/2000/svg" version="1.1" viewBox="0 0 60.601004 60.601004" width="60.601002" xmlns="http://www.w3.org/2000/svg">
  <defs/>
  <metadata>
    <rdf:RDF>
      <cc:Work rdf:about="">
        <dc:format>image/svg+xml</dc:format>
        <dc:type rdf:resource="http://purl.org/dc/dcmitype/StillImage"/>
        <dc:title>男性; Men</dc:title>
        <dc:source>http://www.ecomo.or.jp/barrierfree/pictogram/data/zukigo_panfu_jis110.pdf</dc:source>
      </cc:Work>
    </rdf:RDF>
  </metadata>
  <path d="m 7.7773759,56.04113 c -1.7775001,0 -3.2175003,-1.44 -3.2175003,-3.2175 l 0,-45.0462539 c 0,-1.7775001 1.4400002,-3.2175002 3.2175003,-3.2175002 l 45.0462541,0 c 1.7775,0 3.2175,1.4400001 3.2175,3.2175002 l 0,45.0462539 c 0,1.7775 -1.44,3.2175 -3.2175,3.2175 l -45.0462541,0 z" style="fill:#ffffff;stroke:#000;stroke-width:0.60625005;stroke-linecap:butt;stroke-linejoin:miter;stroke-miterlimit:4;stroke-dasharray:none;stroke-opacity:1;fill-opacity:1"/>
  <path d="m 30.284878,14.694878 c 1.77625,0 3.2175,-1.44 3.2175,-3.21625 0,-1.7775004 -1.44125,-3.2175005 -3.2175,-3.2175005 -1.77625,0 -3.21625,1.4400001 -3.21625,3.2175005 0,1.77625 1.44,3.21625 3.21625,3.21625" style="fill:#000;fill-opacity:1;fill-rule:nonzero;stroke:none"/>
  <path d="m 35.113628,16.102378 c -1.565,-0.29 -3.18,-0.4425 -4.82875,-0.4425 -1.650001,0 -3.263751,0.1525 -4.828751,0.4425 -2.65,0.49 -4.46875,2.875 -4.3275,5.49625 l 0.59875,11.105001 2.60625,0 0,-10.615001 0.805,0 0,29.591253 3.5375,0 1.287501,-18.333752 0.64375,0 1.285,18.333752 3.53875,0 0,-29.591253 0.805,0 0,10.615001 2.60625,0 0.59875,-11.105001 c 0.14,-2.62125 -1.67875,-5.00625 -4.3275,-5.49625" style="fill:#000;fill-opacity:1;fill-rule:nonzero;stroke:none"/>
</svg>
