<?xml version='1.0' encoding='UTF-8' standalone='no'?>
<svg xmlns:cc="http://creativecommons.org/ns#" xmlns:dc="http://purl.org/dc/elements/1.1/" height="60.601002" xmlns:rdf="http://www.w3.org/1999/02/22-rdf-syntax-ns#" xmlns:svg="http://www.w3.org/2000/svg" version="1.1" viewBox="0 0 60.601004 60.601004" width="60.601002" xmlns="http://www.w3.org/2000/svg">
  <defs/>
  <metadata>
    <rdf:RDF>
      <cc:Work rdf:about="">
        <dc:format>image/svg+xml</dc:format>
        <dc:type rdf:resource="http://purl.org/dc/dcmitype/StillImage"/>
        <dc:title>女性; Women</dc:title>
        <dc:source>http://www.ecomo.or.jp/barrierfree/pictogram/data/zukigo_panfu_jis110.pdf</dc:source>
      </cc:Work>
    </rdf:RDF>
  </metadata>
  <path d="m 7.7773759,56.04113 c -1.7762501,0 -3.2175003,-1.44 -3.2175003,-3.2175 l 0,-45.0462539 c 0,-1.7775001 1.4412502,-3.2175002 3.2175003,-3.2175002 l 45.0475041,0 c 1.77625,0 3.21625,1.4400001 3.21625,3.2175002 l 0,45.0462539 c 0,1.7775 -1.44,3.2175 -3.21625,3.2175 l -45.0475041,0 z" style="fill:#ffffff;stroke:#000;stroke-width:0.60625005;stroke-linecap:butt;stroke-linejoin:miter;stroke-miterlimit:4;stroke-dasharray:none;stroke-opacity:1;fill-opacity:1"/>
  <path d="m 30.307377,14.856128 c 1.775,0 3.215,-1.43875 3.215,-3.215 0,-1.7762504 -1.44,-3.2150005 -3.215,-3.2150005 -1.775,0 -3.215,1.4387501 -3.215,3.2150005 0,1.77625 1.44,3.215 3.215,3.215" style="fill:#000;fill-opacity:1;fill-rule:nonzero;stroke:none"/>
  <path d="m 34.731127,21.608628 2.4975,9.325001 2.41125,0 -1.94375,-11.030001 c -0.30125,-1.69625 -1.56375,-3.145 -3.345,-3.5875 -1.295,-0.3225 -2.65,-0.49625 -4.04375,-0.49625 -1.39375,0 -2.748751,0.17375 -4.043751,0.49625 -1.78125,0.4425 -3.045,1.89125 -3.345,3.5875 l -1.94375,11.030001 2.41125,0 2.4975,-9.325001 1.005,3.74875 c -2.3075,3.431251 -3.655,7.561251 -3.655,12.007501 l 4.19125,0 1.265001,14.458751 3.235,0 1.26375,-14.458751 4.1925,0 c 0,-4.44625 -1.34625,-8.5775 -3.655,-12.008751 l 1.005,-3.7475" style="fill:#000;fill-opacity:1;fill-rule:nonzero;stroke:none"/>
</svg>
