<?xml version='1.0' encoding='UTF-8' standalone='no'?>
<svg xmlns:cc="http://creativecommons.org/ns#" xmlns:dc="http://purl.org/dc/elements/1.1/" height="60.601002" xmlns:rdf="http://www.w3.org/1999/02/22-rdf-syntax-ns#" xmlns:svg="http://www.w3.org/2000/svg" version="1.1" viewBox="0 0 60.601004 60.601004" width="60.601002" xmlns="http://www.w3.org/2000/svg">
  <defs/>
  <metadata>
    <rdf:RDF>
      <cc:Work rdf:about="">
        <dc:format>image/svg+xml</dc:format>
        <dc:type rdf:resource="http://purl.org/dc/dcmitype/StillImage"/>
        <dc:title>障害のある人が使える設備; Accessible facility</dc:title>
        <dc:source>http://www.ecomo.or.jp/barrierfree/pictogram/data/zukigo_panfu_jis110.pdf</dc:source>
      </cc:Work>
    </rdf:RDF>
  </metadata>
  <path d="m 7.8092509,56.00363 c -1.7737501,0 -3.2125003,-1.4375 -3.2125003,-3.21125 l 0,-44.9812539 c 0,-1.7750001 1.4387502,-3.2137502 3.2125003,-3.2137502 l 44.9812531,0 c 1.775001,0 3.213751,1.4387501 3.213751,3.2137502 l 0,44.9812539 c 0,1.77375 -1.43875,3.21125 -3.213751,3.21125 l -44.9812531,0 z" style="fill:#ffffff;stroke:#000;stroke-width:0.60625005;stroke-linecap:butt;stroke-linejoin:miter;stroke-miterlimit:4;stroke-dasharray:none;stroke-opacity:1;fill-opacity:1"/>
  <path d="m 25.259251,16.883628 0.7725,8.365001 8.495001,0 0,2.70375 -8.301251,0 0.2575,2.51 11.970001,0 5.40625,12.742501 4.568751,-1.93125 0.965,2.18875 -6.821251,2.95875 -5.6625,-13.256251 -12.936251,0 -1.545,-18.018751 c -0.2575,-0.45 -0.385,-0.965 -0.385,-1.48125 0,-1.8 1.415,-3.281251 3.21625,-3.281251 1.8025,0 3.28375,1.481251 3.28375,3.281251 0,1.73875 -1.48125,3.21875 -3.28375,3.21875 z M 39.224252,42.62488 c -2.0575,4.56875 -6.6275,7.722501 -11.905001,7.722501 -7.1425,0 -12.998751,-5.791251 -12.998751,-12.998751 0,-5.148751 3.02375,-9.588751 7.400001,-11.712501 l 0.2575,2.96 c -2.96,1.8025 -4.955001,5.02 -4.955001,8.752501 0,5.66375 4.633751,10.29625 10.296251,10.29625 5.277501,0 9.590001,-3.925 10.232501,-8.94625 l 1.6725,3.92625" style="fill:#000;fill-opacity:1;fill-rule:nonzero;stroke:none"/>
</svg>
