<?xml version='1.0' encoding='UTF-8' standalone='no'?>
<svg xmlns:cc="http://creativecommons.org/ns#" xmlns:dc="http://purl.org/dc/elements/1.1/" height="60.601002" xmlns:rdf="http://www.w3.org/1999/02/22-rdf-syntax-ns#" xmlns:svg="http://www.w3.org/2000/svg" version="1.1" viewBox="0 0 60.601004 60.601004" width="60.601002" xmlns="http://www.w3.org/2000/svg">
  <defs/>
  <metadata>
    <rdf:RDF>
      <cc:Work rdf:about="">
        <dc:format>image/svg+xml</dc:format>
        <dc:type rdf:resource="http://purl.org/dc/dcmitype/StillImage"/>
        <dc:title>車椅子スロープ; Accessible slope</dc:title>
        <dc:source>http://www.ecomo.or.jp/barrierfree/pictogram/data/zukigo_panfu_jis110.pdf</dc:source>
      </cc:Work>
    </rdf:RDF>
  </metadata>
  <path d="m 7.8105009,56.004255 c -1.7737501,0 -3.2137503,-1.43875 -3.2137503,-3.21375 l 0,-44.9812539 c 0,-1.7750001 1.4400002,-3.2125002 3.2137503,-3.2125002 l 44.9812531,0 c 1.775001,0 3.212501,1.4375001 3.212501,3.2125002 l 0,44.9812539 c 0,1.775 -1.4375,3.21375 -3.212501,3.21375 l -44.9812531,0 z" style="fill:#ffffff;stroke:#000;stroke-width:0.60625005;stroke-linecap:butt;stroke-linejoin:miter;stroke-miterlimit:4;stroke-dasharray:none;stroke-opacity:1;fill-opacity:1"/>
  <path d="m 22.999252,14.376753 0.7475,8.098751 8.223751,0 0,2.615 -8.036251,0 0.2475,2.43 11.587501,0 5.23375,12.335001 4.423751,-1.86875 0.93375,2.11875 -6.603751,2.865 -5.4825,-12.833751 -12.520001,0 -1.495,-17.442501 c -0.25,-0.43625 -0.375,-0.93375 -0.375,-1.4325 0,-1.7437504 1.37,-3.1775005 3.115,-3.1775005 1.745,0 3.1775,1.4337501 3.1775,3.1775005 0,1.68125 -1.4325,3.115 -3.1775,3.115 z m 13.518751,24.918752 c -1.99375,4.4225 -6.41625,7.475001 -11.525001,7.475001 -6.915,0 -12.583751,-5.607501 -12.583751,-12.583751 0,-4.985001 2.92875,-9.281251 7.165001,-11.337501 l 0.2475,2.865 c -2.865,1.74375 -4.796251,4.85875 -4.796251,8.472501 0,5.4825 4.485001,9.96625 9.967501,9.96625 5.108751,0 9.281251,-3.79875 9.905001,-8.65875 l 1.62,3.80125" style="fill:#000;fill-opacity:1;fill-rule:nonzero;stroke:none"/>
  <path d="m 7.5792509,52.969255 44.7200031,0 0,-9.998751 -44.7200031,9.998751" style="fill:#000;fill-opacity:1;fill-rule:nonzero;stroke:none"/>
</svg>
