<?xml version='1.0' encoding='UTF-8' standalone='no'?>
<svg xmlns:cc="http://creativecommons.org/ns#" xmlns:dc="http://purl.org/dc/elements/1.1/" height="60.601002" xmlns:rdf="http://www.w3.org/1999/02/22-rdf-syntax-ns#" xmlns:svg="http://www.w3.org/2000/svg" version="1.1" viewBox="0 0 60.601004 60.601004" width="60.601002" xmlns="http://www.w3.org/2000/svg">
  <defs/>
  <metadata>
    <rdf:RDF>
      <cc:Work rdf:about="">
        <dc:format>image/svg+xml</dc:format>
        <dc:type rdf:resource="http://purl.org/dc/dcmitype/StillImage"/>
        <dc:title>飲料水; Drinking water</dc:title>
        <dc:source>http://www.ecomo.or.jp/barrierfree/pictogram/data/zukigo_panfu_jis110.pdf</dc:source>
      </cc:Work>
    </rdf:RDF>
  </metadata>
  <path d="m 7.7861259,56.03238 c -1.7775001,0 -3.2175003,-1.44 -3.2175003,-3.21625 l 0,-45.0312539 c 0,-1.7762501 1.4400002,-3.2162502 3.2175003,-3.2162502 l 45.0300041,0 c 1.77625,0 3.21625,1.4400001 3.21625,3.2162502 l 0,45.0312539 c 0,1.77625 -1.44,3.21625 -3.21625,3.21625 l -45.0300041,0 z" style="fill:#ffffff;stroke:#000;stroke-width:0.60625005;stroke-linecap:butt;stroke-linejoin:miter;stroke-miterlimit:4;stroke-dasharray:none;stroke-opacity:1;fill-opacity:1"/>
  <path d="m 30.984878,48.97113 -9.736251,0 -1.8325,-14.918751 c 0.8225,-0.28125 1.4575,-0.96125 1.67625,-1.80875 0.28625,1.12 1.30375,1.9475 2.5125,1.9475 1.208751,0 2.225001,-0.8275 2.511251,-1.9475 0.28875,1.12 1.30375,1.9475 2.51375,1.9475 1.20875,0 2.225,-0.8275 2.5125,-1.9475 0.2175,0.8475 0.85375,1.5275 1.675,1.80875 l -1.8325,14.918751 z m 2.59125,-21.097502 -0.595,4.845001 c -0.70125,-0.2025 -1.27375,-0.7125 -1.55875,-1.375 l -0.56125,0 c -0.37125,0.86375 -1.23,1.47 -2.23125,1.47 -1.00125,0 -1.86,-0.60625 -2.2325,-1.47 l -0.56,0 c -0.37375,0.86375 -1.231251,1.47 -2.232501,1.47 -1.00125,0 -1.86,-0.60625 -2.2325,-1.47 l -0.56,0 c -0.28625,0.6625 -0.8575,1.1725 -1.56,1.375 l -0.595,-4.845001 -2.07375,0 2.84375,23.156252 13.378751,0 2.84375,-23.156252 -2.07375,0" style="fill:#000;fill-opacity:1;fill-rule:nonzero;stroke:none"/>
  <path d="m 43.091128,16.113628 0,-2.41875 3.35625,0 c 0.17625,-0.45125 0.2725,-0.94125 0.2725,-1.4525 0,-0.5125 -0.09625,-1.0025 -0.2725,-1.4525 l -9.615001,0 c -0.1775,0.45 -0.275,0.94 -0.275,1.4525 0,0.51125 0.0975,1.00125 0.275,1.4525 l 3.355001,0 0,2.41875 -10.888751,0 c -2.47375,0 -4.5125,1.855 -4.80375,4.25 l -0.428751,3.493751 4.113751,0 0.27125,-2.215001 c 0.10875,-0.8975 0.8725,-1.59375 1.8,-1.59375 0.25125,0 0.49125,0.05125 0.71,0.14375 l 7.886251,3.348751 c 0.47875,0.20375 1.00625,0.31625 1.56,0.31625 l 7.04,0 0,-7.743751 -4.35625,0" style="fill:#000;fill-opacity:1;fill-rule:nonzero;stroke:none"/>
</svg>
