<?xml version='1.0' encoding='UTF-8' standalone='no'?>
<svg xmlns:cc="http://creativecommons.org/ns#" xmlns:dc="http://purl.org/dc/elements/1.1/" height="60.601002" xmlns:rdf="http://www.w3.org/1999/02/22-rdf-syntax-ns#" xmlns:svg="http://www.w3.org/2000/svg" version="1.1" viewBox="0 0 60.601004 60.601004" width="60.601002" xmlns="http://www.w3.org/2000/svg">
  <defs/>
  <metadata>
    <rdf:RDF>
      <cc:Work rdf:about="">
        <dc:format>image/svg+xml</dc:format>
        <dc:type rdf:resource="http://purl.org/dc/dcmitype/StillImage"/>
        <dc:title>喫煙所[火災予防条例]</dc:title>
        <dc:source>http://www.ecomo.or.jp/barrierfree/pictogram/data/zukigo_panfu_jis110.pdf</dc:source>
      </cc:Work>
    </rdf:RDF>
  </metadata>
  <path d="m 55.56375,55.563749 0,-50.5264933 -50.5264943,0 0,50.5264933 50.5264943,0 z" style="fill:#ffffff;stroke:#000;stroke-width:0.2855103;stroke-linecap:butt;stroke-linejoin:miter;stroke-miterlimit:4;stroke-dasharray:none;stroke-opacity:1"/>
  <path d="m 14.785814,37.561883 -1.164117,-6.758058 1.464344,-0.247246 1.164117,6.758058 -1.464344,0.247246" style="fill:#000;fill-opacity:1;fill-rule:nonzero;stroke:none"/>
  <path d="m 12.304524,37.990149 -1.165588,-6.75953 1.467287,-0.247246 1.164117,6.75953 -1.465816,0.247246" style="fill:#000;fill-opacity:1;fill-rule:nonzero;stroke:none"/>
  <path d="m 16.905066,35.230707 33.860933,-5.833829 -0.507737,-2.943405 -33.859462,5.836772 -0.328189,-1.908798 35.766788,-6.164962 1.164117,6.75953 -35.766789,6.16349 -0.329661,-1.908798" style="fill:#000;fill-opacity:1;fill-rule:nonzero;stroke:none"/>
  <path d="m 17.175859,23.894181 c 1.075815,-0.122151 1.911742,-1.036079 1.911742,-2.144271 0,-1.192079 -0.966909,-2.157516 -2.16046,-2.157516 l 0,0.0015 c -2.014761,0 -3.651294,-1.635062 -3.651294,-3.652766 0,-2.019176 1.636533,-3.654237 3.651294,-3.654237 l 0,0.0029 c 1.193551,0 2.16046,-0.966909 2.16046,-2.158988 l 0,-0.750568 1.49525,0 0,0.750568 c 0,2.017705 -1.636534,3.654238 -3.65571,3.654238 l 0,-0.0029 c -1.189135,0 -2.157516,0.966909 -2.157516,2.158988 0,1.192079 0.968381,2.157516 2.157516,2.157516 l 0,-0.0029 c 2.019176,0 3.65571,1.636533 3.65571,3.654237 0,1.864648 -1.396646,3.402577 -3.200954,3.626276 l 0,-0.0015 c -1.483476,0.178076 -2.631404,1.437853 -2.631404,2.968424 0,0.169246 0.01324,0.335548 0.04121,0.498907 l 0.130981,0.746153 -1.468759,0.254605 -0.120679,-0.679927 c -0.05004,-0.266378 -0.07506,-0.540115 -0.07506,-0.819738 0,-2.279667 1.70276,-4.163447 3.90737,-4.447485 l 0.0103,-0.0015" style="fill:#000;fill-opacity:1;fill-rule:nonzero;stroke:none"/>
  <path d="m 12.882903,23.32316 c 0.425322,-0.394416 0.693172,-0.95955 0.693172,-1.586495 0,-1.19208 -0.963965,-2.158988 -2.157516,-2.158988 l 0,0.0029 c -2.0191761,0 -3.6527659,-1.636533 -3.6527659,-3.654237 0,-2.016233 1.6335898,-3.652766 3.6527659,-3.652766 l 0,0.0029 c 1.193551,0 2.157516,-0.966908 2.157516,-2.158987 l 0,-0.7373234 1.49525,0 0,0.7373234 c 0,2.017704 -1.63359,3.652765 -3.652766,3.652765 l 0,-0.0029 c -1.192079,0 -2.1575161,0.96838 -2.1575161,2.158988 0,1.192079 0.9654371,2.158987 2.1575161,2.158987 l 0,-0.0015 c 2.019176,0 3.652766,1.635061 3.652766,3.652766 0,0.996342 -0.398832,1.899968 -1.046381,2.55929 l -0.0059,-0.0088 c -1.10672,1.000758 -1.79842,2.448913 -1.79842,4.056013 0,0.320831 0.02649,0.632832 0.07947,0.936002 l 0.133925,0.75204 -1.476118,0.238416 -0.153057,-0.902153 c -0.0471,-0.326718 -0.07211,-0.660795 -0.07211,-0.999286 0,-1.982384 0.828568,-3.771974 2.156044,-5.040582 l -0.0059,-0.0044" style="fill:#000;fill-opacity:1;fill-rule:nonzero;stroke:none"/>
</svg>
