<?xml version='1.0' encoding='UTF-8' standalone='no'?>
<svg xmlns:cc="http://creativecommons.org/ns#" xmlns:dc="http://purl.org/dc/elements/1.1/" height="60.601002" xmlns:rdf="http://www.w3.org/1999/02/22-rdf-syntax-ns#" xmlns:svg="http://www.w3.org/2000/svg" version="1.1" viewBox="0 0 60.601004 60.601004" width="60.601002" xmlns="http://www.w3.org/2000/svg">
  <defs/>
  <metadata>
    <rdf:RDF>
      <cc:Work rdf:about="">
        <dc:format>image/svg+xml</dc:format>
        <dc:type rdf:resource="http://purl.org/dc/dcmitype/StillImage"/>
        <dc:title>チェックイン／受付; Check-in/Reception</dc:title>
        <dc:source>http://www.ecomo.or.jp/barrierfree/pictogram/data/zukigo_panfu_jis110.pdf</dc:source>
      </cc:Work>
    </rdf:RDF>
  </metadata>
  <path d="m 7.7705009,56.04988 c -1.7775001,0 -3.2187503,-1.44125 -3.2187503,-3.21875 l 0,-45.0612539 c 0,-1.7775001 1.4412502,-3.2187502 3.2187503,-3.2187502 l 45.0600041,0 c 1.7775,0 3.21875,1.4412501 3.21875,3.2187502 l 0,45.0612539 c 0,1.7775 -1.44125,3.21875 -3.21875,3.21875 l -45.0600041,0 z" style="fill:#ffffff;stroke:#000;stroke-width:0.60625005;stroke-linecap:butt;stroke-linejoin:miter;stroke-miterlimit:4;stroke-dasharray:none;stroke-opacity:1;fill-opacity:1"/>
  <path d="m 40.389252,16.706128 c 1.56375,0 2.83125,-1.26875 2.83125,-2.8325 0,-1.56375 -1.2675,-2.83125 -2.83125,-2.83125 -1.565,0 -2.8325,1.2675 -2.8325,2.83125 0,1.56375 1.2675,2.8325 2.8325,2.8325" style="fill:#000;fill-opacity:1;fill-rule:nonzero;stroke:none"/>
  <path d="m 51.460503,30.867379 -4.47875,0 0.44875,-8.560001 c 0.155,-2.19125 -1.39875,-4.17 -3.608751,-4.4975 -1.12,-0.165 -2.2675,-0.25375 -3.4325,-0.25375 -1.82125,0 -3.59125,0.21125 -5.29125,0.6075 -0.18375,0.0425 -0.33375,0.17 -0.41125,0.3375 l -5.322501,11.401251 2.95,0 2.807501,-4.855 0.41125,5.82 -26.4287524,0 0,1.93 26.5637524,0 1.16125,16.478751 3.07625,0 0,-16.146251 0.965,0 0,16.146251 3.0775,0 1.15625,-16.478751 6.356251,0 0,-1.93" style="fill:#000;fill-opacity:1;fill-rule:nonzero;stroke:none"/>
  <path d="m 20.143001,16.706128 c 1.565,0 2.83375,-1.26875 2.83375,-2.8325 0,-1.56375 -1.26875,-2.83125 -2.83375,-2.83125 -1.5625,0 -2.83125,1.2675 -2.83125,2.83125 0,1.56375 1.26875,2.8325 2.83125,2.8325" style="fill:#000;fill-opacity:1;fill-rule:nonzero;stroke:none"/>
  <path d="m 16.416751,22.022378 0.90875,3.935 c -0.8475,1.21375 -1.55625,2.533751 -2.105,3.932501 l 9.847501,0.0012 c -0.54875,-1.4 -1.2575,-2.720001 -2.10625,-3.935001 l 0.90875,-3.93375 1.5525,2.69 c 0.2775,0.48 0.79625,0.805 1.39125,0.805 0.64625,0 1.2,-0.3825 1.4575,-0.93 l 2.26625,-4.86375 -2.41,0 -1.08625,2.04375 -1.71,-3.085 c -0.0825,-0.14875 -0.2175,-0.2675 -0.38125,-0.3225 -1.50625,-0.52 -3.123751,-0.80375 -4.807501,-0.80375 -1.2275,0 -2.42,0.1525 -3.56125,0.43625 -1.5675,0.39 -2.68,1.665 -2.945,3.16 l -1.54875,8.750001 2.2275,0 2.10125,-7.880001" style="fill:#000;fill-opacity:1;fill-rule:nonzero;stroke:none"/>
</svg>
