<?xml version='1.0' encoding='UTF-8' standalone='no'?>
<svg xmlns:cc="http://creativecommons.org/ns#" xmlns:dc="http://purl.org/dc/elements/1.1/" height="60.601002" xmlns:rdf="http://www.w3.org/1999/02/22-rdf-syntax-ns#" xmlns:svg="http://www.w3.org/2000/svg" version="1.1" viewBox="0 0 60.601004 60.601004" width="60.601002" xmlns="http://www.w3.org/2000/svg">
  <defs/>
  <metadata>
    <rdf:RDF>
      <cc:Work rdf:about="">
        <dc:format>image/svg+xml</dc:format>
        <dc:type rdf:resource="http://purl.org/dc/dcmitype/StillImage"/>
        <dc:title>忘れ物取扱所; Lost and found</dc:title>
        <dc:source>http://www.ecomo.or.jp/barrierfree/pictogram/data/zukigo_panfu_jis110.pdf</dc:source>
      </cc:Work>
    </rdf:RDF>
  </metadata>
  <path d="m 7.7792509,56.03863 c -1.7775001,0 -3.2162503,-1.43875 -3.2162503,-3.2175 l 0,-45.0412539 c 0,-1.7775001 1.4387502,-3.2175002 3.2162503,-3.2175002 l 45.0412541,0 c 1.7775,0 3.2175,1.4400001 3.2175,3.2175002 l 0,45.0412539 c 0,1.77875 -1.44,3.2175 -3.2175,3.2175 l -45.0412541,0 z" style="fill:#ffffff;stroke:#000;stroke-width:0.60625005;stroke-linecap:butt;stroke-linejoin:miter;stroke-miterlimit:4;stroke-dasharray:none;stroke-opacity:1;fill-opacity:1"/>
  <path d="m 29.688003,38.261129 c 0.6925,0 1.3425,0.27 1.83125,0.76 0.49,0.48875 0.76,1.13875 0.76,1.83125 l 0,0.90125 -5.18375,0 0,-0.90125 c 0,-1.42875 1.16375,-2.59125 2.5925,-2.59125 z m 7.517501,6.397501 c -0.3425,-1.640001 -1.792501,-2.877501 -3.530001,-2.903751 l 0,-0.9025 c 0,-2.20125 -1.78625,-3.9875 -3.9875,-3.9875 -2.20375,0 -3.98875,1.78625 -3.98875,3.9875 l 0,0.9025 c -1.7375,0.02625 -3.187501,1.25375 -3.531251,2.895001 -0.47375,2.17125 -0.72875,4.41 -0.72875,6.735 l 16.496252,0 c 0,-2.31625 -0.25625,-4.56 -0.73,-6.72625" style="fill:#000;fill-opacity:1;fill-rule:nonzero;stroke:none"/>
  <path d="m 9.5455009,30.622379 0,1.111263 3.8750001,0 0,-1.111263 -3.8750001,0 z" style="fill:#000;fill-opacity:1;fill-rule:nonzero;stroke:none"/>
  <path d="m 0,0 0,-4.914 -4.025,0 4.339,-21.117 1.202,0 4.339,21.117 -4.025,0 0,4.914 c 0,1.046 0.835,1.882 1.83,1.882 1.045,0 1.88,-0.836 1.88,-1.882 l 0,-0.627 1.778,0 0,0.627 C 7.318,2.038 5.698,3.659 3.66,3.659 1.673,3.659 0,2.038 0,0" style="stroke:none;fill-opacity:1;fill:#000;fill-rule:nonzero" transform="matrix(0.000000,1.250000,1.250000,0.000000,46.924254,30.034879)"/>
  <path d="m 29.688003,21.024878 c -1.285,0 -2.32625,1.04125 -2.32625,2.32625 0,1.285 1.04125,2.32625 2.32625,2.32625 1.28375,0 2.32625,-1.04125 2.32625,-2.32625 0,-1.285 -1.0425,-2.32625 -2.32625,-2.32625" style="fill:#000;fill-opacity:1;fill-rule:nonzero;stroke:none"/>
  <path d="m 29.908003,11.667377 c 0.49125,0 2.07125,0.0825 2.07125,1.2925 0,0.88125 -0.82,1.49625 -2.42,2.7675 -1.27125,1.005 -1.66125,1.86625 -1.66125,3.015001 l 0,1.19 3.32125,0 0,-0.39 c 0,-1.23125 0.51375,-1.722501 1.97,-2.830001 1.90625,-1.45625 2.60375,-2.37875 2.60375,-3.815 0,-2.255 -2.07125,-4.2850002 -5.72125,-4.2850002 -1.37375,0 -3.855,0.3075 -5.31125,2.3175002 -0.8,1.08625 -0.8825,2.03 -0.9425,2.85 l 3.6,0 c 0.23,-1.16 0.8525,-2.1125 2.49,-2.1125" style="fill:#000;fill-opacity:1;fill-rule:nonzero;stroke:none"/>
</svg>
