<?xml version='1.0' encoding='UTF-8' standalone='no'?>
<svg xmlns:cc="http://creativecommons.org/ns#" xmlns:dc="http://purl.org/dc/elements/1.1/" height="60.601002" xmlns:rdf="http://www.w3.org/1999/02/22-rdf-syntax-ns#" xmlns:svg="http://www.w3.org/2000/svg" version="1.1" viewBox="0 0 60.601004 60.601004" width="60.601002" xmlns="http://www.w3.org/2000/svg">
  <defs/>
  <metadata>
    <rdf:RDF>
      <cc:Work rdf:about="">
        <dc:format>image/svg+xml</dc:format>
        <dc:type rdf:resource="http://purl.org/dc/dcmitype/StillImage"/>
        <dc:title>ホテル／宿泊施設; Hotel/Accommodation</dc:title>
        <dc:source>http://www.ecomo.or.jp/barrierfree/pictogram/data/zukigo_panfu_jis110.pdf</dc:source>
      </cc:Work>
    </rdf:RDF>
  </metadata>
  <path d="m 7.7861259,56.031755 c -1.7775001,0 -3.2162503,-1.44 -3.2162503,-3.21625 l 0,-45.0300039 c 0,-1.7762501 1.4387502,-3.2162502 3.2162503,-3.2162502 l 45.0287541,0 c 1.77625,0 3.21625,1.4400001 3.21625,3.2162502 l 0,45.0300039 c 0,1.77625 -1.44,3.21625 -3.21625,3.21625 l -45.0287541,0 z" style="fill:#ffffff;stroke:#000;stroke-width:0.60625005;stroke-linecap:butt;stroke-linejoin:miter;stroke-miterlimit:4;stroke-dasharray:none;stroke-opacity:1;fill-opacity:1"/>
  <path d="m 0,0 c 0,1.505 -1.219,2.724 -2.724,2.724 -1.504,0 -2.723,-1.219 -2.723,-2.724 0,-1.504 1.219,-2.723 2.723,-2.723 C -1.219,-2.723 0,-1.504 0,0" style="stroke:none;fill-opacity:1;fill:#000;fill-rule:nonzero" transform="matrix(0.000000,1.250000,1.250000,0.000000,19.188627,32.138004)"/>
  <path d="m 0,0 c 0,1.505 -1.219,2.724 -2.724,2.724 -1.504,0 -2.723,-1.219 -2.723,-2.724 0,-1.504 1.219,-2.723 2.723,-2.723 C -1.219,-2.723 0,-1.504 0,0" style="stroke:none;fill-opacity:1;fill:#000;fill-rule:nonzero" transform="matrix(0.000000,1.250000,1.250000,0.000000,19.188627,32.138004)"/>
  <path d="m 14.092376,32.928004 c 1.3125,0.13375 2.58875,0.5375 3.735,1.18875 1.16875,0.66375 2.19,1.57375 2.986251,2.65625 l -0.155,0.425 -6.566251,0 0,-4.27 z m 9.903751,-1.1025 c 0.15375,-0.42875 0.5575,-0.71625 1.00625,-0.71625 0.03125,0 0.07875,0.0038 0.09375,0.005 l 3.27375,0.30125 -2.105,5.7825 -4.2275,0 1.95875,-5.3725 z m 1.8,6.65875 24.345002,0 0,-3.54875 c 0,-1.61375 -1.23625,-2.93875 -2.8125,-3.08125 l -18.501252,-1.6975 -3.61875,-0.3325 c -0.06875,-0.0063 -0.13625,-0.01 -0.20625,-0.01 -1.025,0 -1.89625,0.65375 -2.2225,1.5675 l -1.44875,3.975 c -1.837501,-2.13375 -4.430001,-3.46875 -7.238751,-3.72125 l 0,-7.832501 -3.09625,0 0,26.452502 3.09625,0 0,-6.07875 32.952503,0 0,6.07875 3.09625,0 0,-10.80625 -36.048753,0 0,-0.965001 11.703751,0" style="fill:#000;fill-opacity:1;fill-rule:nonzero;stroke:none"/>
  <path d="m 42.706128,30.461754 1.6075,0.14625 0,-11.725001 5.542501,0 -2.830001,-7.07625 -7.07625,0 -2.83125,7.07625 5.5875,0 0,11.578751" style="fill:#000;fill-opacity:1;fill-rule:nonzero;stroke:none"/>
</svg>
