<?xml version='1.0' encoding='UTF-8' standalone='no'?>
<svg xmlns:cc="http://creativecommons.org/ns#" xmlns:dc="http://purl.org/dc/elements/1.1/" height="60.601002" xmlns:rdf="http://www.w3.org/1999/02/22-rdf-syntax-ns#" xmlns:svg="http://www.w3.org/2000/svg" version="1.1" viewBox="0 0 60.601004 60.601004" width="60.601002" xmlns="http://www.w3.org/2000/svg">
  <defs/>
  <metadata>
    <rdf:RDF>
      <cc:Work rdf:about="">
        <dc:format>image/svg+xml</dc:format>
        <dc:type rdf:resource="http://purl.org/dc/dcmitype/StillImage"/>
        <dc:title>手荷物一時預かり所; Baggage storage</dc:title>
        <dc:source>http://www.ecomo.or.jp/barrierfree/pictogram/data/zukigo_panfu_jis110.pdf</dc:source>
      </cc:Work>
    </rdf:RDF>
  </metadata>
  <path d="m 7.7848759,56.031755 c -1.7762501,0 -3.2162503,-1.44 -3.2162503,-3.21625 l 0,-45.0300039 c 0,-1.7762501 1.4400002,-3.2162502 3.2162503,-3.2162502 l 45.0300041,0 c 1.77625,0 3.2175,1.4400001 3.2175,3.2162502 l 0,45.0300039 c 0,1.77625 -1.44125,3.21625 -3.2175,3.21625 l -45.0300041,0 z" style="fill:#ffffff;stroke:#000;stroke-width:0.60625005;stroke-linecap:butt;stroke-linejoin:miter;stroke-miterlimit:4;stroke-dasharray:none;stroke-opacity:1;fill-opacity:1"/>
  <path d="m 11.681126,27.056753 0,1.96 37.237503,0 0,-1.96 -37.237503,0 z" style="fill:#000;fill-opacity:1;fill-rule:nonzero;stroke:none"/>
  <path d="m 11.681126,47.826755 0,1.95875 37.237503,0 0,-1.95875 -37.237503,0 z" style="fill:#000;fill-opacity:1;fill-rule:nonzero;stroke:none"/>
  <path d="m 17.974877,13.194253 c 0.5325,-0.53375 1.24,-0.8275 1.99375,-0.8275 0.75375,0 1.4625,0.29375 1.99375,0.8275 0.53375,0.53125 0.82625,1.24 0.82625,1.9925 l 0,0.90625 -5.64,0 0,-0.90625 c 0,-0.7525 0.29375,-1.46125 0.82625,-1.9925 z m 6.11,2.9025 0,-0.91 c 0,-1.1 -0.4275,-2.1325 -1.205,-2.91 -0.7775,-0.7775 -1.81125,-1.20625 -2.91125,-1.20625 -1.09875,0 -2.13375,0.42875 -2.91125,1.20625 -0.7775,0.7775 -1.205,1.81 -1.205,2.91 l 0,0.91 c -1.6975,0.07375 -3.1,1.29125 -3.4375,2.90625 -0.47875,2.182501 -0.733751,4.432501 -0.733751,6.766251 l 16.575002,0 c 0,-2.3275 -0.2575,-4.5825 -0.7325,-6.757501 -0.33875,-1.615 -1.7425,-2.83875 -3.438751,-2.915" style="fill:#000;fill-opacity:1;fill-rule:nonzero;stroke:none"/>
  <path d="m 37.417378,12.603003 c 0.7975,-0.1625 1.61375,-0.24625 2.42625,-0.24625 0.8075,0 1.62375,0.085 2.42625,0.2475 l 0,1.79625 -4.8525,0 0,-1.7975 z m 11.497501,2.88625 c 0,-0.6 -0.48625,-1.08875 -1.08875,-1.08875 l -4.267501,0 0,-2.82375 -0.085,-0.02 -0.5475,-0.12875 c -1.0125,-0.23875 -2.04875,-0.36 -3.0825,-0.36 -1.04,0 -2.0775,0.12125 -3.08375,0.36 l -0.54625,0.12875 -0.085,0.02 0,2.82375 -4.27125,-0.0013 c -0.60125,0 -1.090001,0.48875 -1.090001,1.08875 l 0,9.191251 c 0,0.6025 0.487501,1.09 1.088751,1.09 l 15.972501,0 c 0.6025,0 1.09,-0.48625 1.09,-1.08875 l -0.0038,-9.191251" style="fill:#000;fill-opacity:1;fill-rule:nonzero;stroke:none"/>
  <path d="m 38.637378,33.964254 c 0.5325,-0.53375 1.24125,-0.825 1.99375,-0.825 0.7525,0 1.46125,0.29125 1.995,0.825 0.53125,0.5325 0.825,1.24125 0.825,1.99375 l 0,0.905 -5.64,0 0,-0.905 c 0,-0.7525 0.29375,-1.46125 0.82625,-1.99375 z m 9.548751,5.82 c -0.3375,-1.615 -1.74125,-2.84125 -3.437501,-2.91625 l 0,-0.91 c 0,-1.09875 -0.42875,-2.13375 -1.20625,-2.91 -0.7775,-0.77875 -1.81125,-1.205 -2.91125,-1.205 -1.09875,0 -2.13375,0.42625 -2.91,1.205 -0.77875,0.77625 -1.20625,1.81125 -1.20625,2.91 l 0,0.91 c -1.6975,0.07375 -3.09875,1.29125 -3.4375,2.905 -0.4775,2.182501 -0.732501,4.432501 -0.732501,6.767501 l 16.573752,0 c 0,-2.32625 -0.2575,-4.5825 -0.7325,-6.756251" style="fill:#000;fill-opacity:1;fill-rule:nonzero;stroke:none"/>
  <path d="m 18.332377,33.373004 c 0.7975,-0.16125 1.6125,-0.245 2.425,-0.245 0.80875,0 1.62375,0.08375 2.42625,0.24625 l 0,1.795 -4.85125,0 0,-1.79625 z m 10.408751,1.7975 -4.267501,0 0,-2.82375 -0.085,-0.02 -0.5475,-0.1275 c -1.0125,-0.23875 -2.05,-0.36 -3.08375,-0.36 -1.03875,0 -2.07625,0.12125 -3.0825,0.36 l -0.5475,0.1275 -0.085,0.02 0,2.8225 -4.27125,0 c -0.60125,0 -1.088751,0.48875 -1.088751,1.09 l -0.0012,9.190001 c 0,0.6025 0.488751,1.09 1.088751,1.09 l 15.973751,0.0013 c 0.6025,0 1.09,-0.4875 1.09,-1.09 l -0.0038,-9.190001 c 0,-0.6025 -0.4875,-1.09 -1.08875,-1.09" style="fill:#000;fill-opacity:1;fill-rule:nonzero;stroke:none"/>
</svg>
