<?xml version='1.0' encoding='UTF-8' standalone='no'?>
<svg xmlns:cc="http://creativecommons.org/ns#" xmlns:dc="http://purl.org/dc/elements/1.1/" height="60.601002" xmlns:rdf="http://www.w3.org/1999/02/22-rdf-syntax-ns#" xmlns:svg="http://www.w3.org/2000/svg" version="1.1" viewBox="0 0 60.601004 60.601004" width="60.601002" xmlns="http://www.w3.org/2000/svg">
  <defs/>
  <metadata>
    <rdf:RDF>
      <cc:Work rdf:about="">
        <dc:format>image/svg+xml</dc:format>
        <dc:type rdf:resource="http://purl.org/dc/dcmitype/StillImage"/>
        <dc:title>コインロッカー; Coin lockers</dc:title>
        <dc:source>http://www.ecomo.or.jp/barrierfree/pictogram/data/zukigo_panfu_jis110.pdf</dc:source>
      </cc:Work>
    </rdf:RDF>
  </metadata>
  <path d="m 7.7786259,56.03988 c -1.7762501,0 -3.2175003,-1.44125 -3.2175003,-3.2175 l 0,-45.0437539 c 0,-1.7762501 1.4412502,-3.2175002 3.2175003,-3.2175002 l 45.0437541,0 c 1.7775,0 3.2175,1.4412501 3.2175,3.2175002 l 0,45.0437539 c 0,1.77625 -1.44,3.2175 -3.2175,3.2175 l -45.0437541,0 z" style="fill:#ffffff;stroke:#000;stroke-width:0.60625005;stroke-linecap:butt;stroke-linejoin:miter;stroke-miterlimit:4;stroke-dasharray:none;stroke-opacity:1;fill-opacity:1"/>
  <path d="m 42.156128,26.626128 0,19.987502 -23.712502,0 0,-19.987502 23.712502,0 z m 0,19.987502 z m -27.143752,-23.417502 0,26.848752 30.575002,0 0,-26.848752 -30.575002,0 z" style="fill:#000;fill-opacity:1;fill-rule:nonzero;stroke:none"/>
  <path d="m 32.837378,32.144878 c 0,0 0,-1.295 0,-1.88625 -0.835,-0.1775 -1.6875,-0.2675 -2.5375,-0.2675 -0.8525,0 -1.70375,0.09 -2.535,0.26625 l -0.0012,1.8875 5.07375,0 z m -6.1425,0 0,-2.7375 0.5475,-0.13 c 0.9975,-0.235 2.02625,-0.35625 3.0575,-0.35625 1.02625,0 2.05625,0.12125 3.06,0.35625 l 0.5475,0.13 0,2.7375 4.37875,0 c 0.60125,0 1.090001,0.48875 1.090001,1.09 l 0.0025,9.192501 c 0,0.6025 -0.487501,1.09 -1.088751,1.09 l -15.978751,-0.0012 c -0.60125,0 -1.09,-0.4875 -1.09,-1.08875 l 0.0013,-9.193751 c 0,-0.60125 0.48875,-1.09 1.08875,-1.09 l 4.383751,0.0012" style="fill:#000;fill-opacity:1;fill-rule:nonzero;stroke:none"/>
  <path d="m 20.786127,16.412377 c 0,0.49875 0.40375,0.9025 0.9025,0.9025 0.4975,0 0.9025,-0.40375 0.9025,-0.9025 l 0,-2.54625 c 0,-0.49875 -0.405,-0.90375 -0.9025,-0.90375 -0.49875,0 -0.9025,0.405 -0.9025,0.90375 l 0,2.54625 z m 6.01625,3.5375 -5.65125,0.99625 c -0.11875,0.02125 -0.24,0.035 -0.365,0.035 -1.1625,0 -2.105,-0.9425 -2.105,-2.10625 l 0,-7.4725 c 0,-1.1625 0.9425,-2.1062506 2.105,-2.1062506 0.125,0 0.24625,0.01375 0.365,0.035 l 5.65125,0.9962506 0,2.05125 12.630001,0 3.315001,1.99 0,1.54125 -3.315001,1.98875 -1.45625,-1.455 -1.455,1.455 -1.455,-1.455 -1.45625,1.455 -1.45625,-1.455 -1.455,1.455 -3.896251,0 0,2.05125" style="fill:#000;fill-opacity:1;fill-rule:nonzero;stroke:none"/>
</svg>
