<?xml version='1.0' encoding='UTF-8' standalone='no'?>
<svg xmlns:cc="http://creativecommons.org/ns#" xmlns:dc="http://purl.org/dc/elements/1.1/" height="60.601002" xmlns:rdf="http://www.w3.org/1999/02/22-rdf-syntax-ns#" xmlns:svg="http://www.w3.org/2000/svg" version="1.1" viewBox="0 0 60.601004 60.601004" width="60.601002" xmlns="http://www.w3.org/2000/svg">
  <defs/>
  <metadata>
    <rdf:RDF>
      <cc:Work rdf:about="">
        <dc:format>image/svg+xml</dc:format>
        <dc:type rdf:resource="http://purl.org/dc/dcmitype/StillImage"/>
        <dc:title>休憩所／待合室; Lounge/Waiting room</dc:title>
        <dc:source>http://www.ecomo.or.jp/barrierfree/pictogram/data/zukigo_panfu_jis110.pdf</dc:source>
      </cc:Work>
    </rdf:RDF>
  </metadata>
  <path d="m 7.7861259,56.03238 c -1.7762501,0 -3.2175003,-1.44 -3.2175003,-3.2175 l 0,-45.0300039 c 0,-1.7762501 1.4412502,-3.2162502 3.2175003,-3.2162502 l 45.0300041,0 c 1.77625,0 3.21625,1.4400001 3.21625,3.2162502 l 0,45.0300039 c 0,1.7775 -1.44,3.2175 -3.21625,3.2175 l -45.0300041,0 z" style="fill:#ffffff;stroke:#000;stroke-width:0.60625005;stroke-linecap:butt;stroke-linejoin:miter;stroke-miterlimit:4;stroke-dasharray:none;stroke-opacity:1;fill-opacity:1"/>
  <path d="m 35.301128,19.136127 c 1.56375,0 2.83,-1.2675 2.83,-2.83 0,-1.56375 -1.26625,-2.83125 -2.83,-2.83125 -1.5625,0 -2.83125,1.2675 -2.83125,2.83125 0,1.5625 1.26875,2.83 2.83125,2.83" style="fill:#000;fill-opacity:1;fill-rule:nonzero;stroke:none"/>
  <path d="m 27.873627,13.474877 c -1.5625,0 -2.83125,1.2675 -2.83125,2.83125 0,1.5625 1.26875,2.83 2.83125,2.83 1.5625,0 2.83,-1.2675 2.83,-2.83 0,-1.56375 -1.2675,-2.83125 -2.83,-2.83125" style="fill:#000;fill-opacity:1;fill-rule:nonzero;stroke:none"/>
  <path d="m 29.843628,20.149877 c -0.3925,-0.08625 -0.80125,-0.1325 -1.22,-0.1325 -0.79,0 -1.5425,0.16125 -2.22625,0.44875 l -11.696251,4.72625 0,2.393751 8.125,-1.875001 -0.535,3.385001 -6.45875,-0.79375 c -0.1575,-0.01875 -0.31875,-0.025 -0.48375,-0.01625 -1.11375,0.0575 -2.03875,0.7625 -2.43125,1.7325 l -4.1312507,10.197501 3.0412507,0.815 2.13625,-3.702501 0,7.927501 3.3275,0 1.04625,-9.895001 6.360001,0 c 1.77875,0 3.25375,-1.30375 3.52125,-3.0075 l 1.875,-11.840001 c 0.02625,-0.16625 -0.08125,-0.3275 -0.25,-0.36375" style="fill:#000;fill-opacity:1;fill-rule:nonzero;stroke:none"/>
  <path d="m 48.604879,32.152378 c -0.185,-0.94875 -0.965,-1.68375 -1.93625,-1.8025 l -5.697501,-0.7 -0.75875,-4.797501 c -0.43125,-2.73875 -2.80125,-4.835 -5.66125,-4.835 -0.42,0 -0.82875,0.04625 -1.22125,0.1325 -0.1675,0.03625 -0.275,0.1975 -0.24875,0.36375 l 1.87375,11.840001 c 0.26875,1.70375 1.74375,3.0075 3.5225,3.0075 l 6.122501,0.0012 3.40625,9.893751 3.145,0 -2.54625,-13.103751" style="fill:#000;fill-opacity:1;fill-rule:nonzero;stroke:none"/>
  <path d="m 19.944877,36.647378 0,1.96125 23.047501,0 0,-1.96125 -23.047501,0 z" style="fill:#000;fill-opacity:1;fill-rule:nonzero;stroke:none"/>
</svg>
