<?xml version='1.0' encoding='UTF-8' standalone='no'?>
<svg xmlns:cc="http://creativecommons.org/ns#" xmlns:dc="http://purl.org/dc/elements/1.1/" height="60.601002" xmlns:rdf="http://www.w3.org/1999/02/22-rdf-syntax-ns#" xmlns:svg="http://www.w3.org/2000/svg" version="1.1" viewBox="0 0 60.601004 60.601004" width="60.601002" xmlns="http://www.w3.org/2000/svg">
  <defs/>
  <metadata>
    <rdf:RDF>
      <cc:Work rdf:about="">
        <dc:format>image/svg+xml</dc:format>
        <dc:type rdf:resource="http://purl.org/dc/dcmitype/StillImage"/>
        <dc:title>ミーティングポイント; Meeting point</dc:title>
        <dc:source>http://www.ecomo.or.jp/barrierfree/pictogram/data/zukigo_panfu_jis110.pdf</dc:source>
      </cc:Work>
    </rdf:RDF>
  </metadata>
  <path d="m 7.7861259,56.03113 c -1.7762501,0 -3.2175003,-1.44 -3.2175003,-3.21625 l 0,-45.0300039 c 0,-1.7762501 1.4412502,-3.2150002 3.2175003,-3.2150002 l 45.0300041,0 c 1.77625,0 3.21625,1.4387501 3.21625,3.2150002 l 0,45.0300039 c 0,1.77625 -1.44,3.21625 -3.21625,3.21625 l -45.0300041,0 z" style="fill:#ffffff;stroke:#000;stroke-width:0.60625005;stroke-linecap:butt;stroke-linejoin:miter;stroke-miterlimit:4;stroke-dasharray:none;stroke-opacity:1"/>
  <path d="m 45.463627,30.904879 -0.23,-1.305 c 0.35375,-0.12125 0.72,-0.21875 1.1,-0.28625 0.38,-0.06625 0.7575,-0.10125 1.13125,-0.10625 l 0.23,1.30375 -2.23125,0.39375 z m -2.69375,0.475 -1.52625,-8.656251 c 1.6025,1.74375 2.85625,3.812501 3.66375,6.091251 -0.215,0.07625 -0.42625,0.16 -0.63,0.25375 l 0.35,1.985 -1.8575,0.32625 z m 9.862501,4.29875 -0.88625,-5.0175 c -0.08,-0.46375 -0.521251,-0.7725 -0.983751,-0.69 l -2.23,0.3925 -0.35,-1.9825 c -0.3025,-0.02375 -0.6075,-0.03125 -0.915,-0.01875 -0.87625,-4.508751 -3.36125,-8.442501 -6.83375,-11.181251 -0.11,-0.08625 -0.24625,-0.1375 -0.3975,-0.1375 -0.0175,0 -0.03625,0.0013 -0.055,0.0013 -1.617501,0.135 -3.050001,0.9175 -4.041251,2.085 l -7.72375,9.205001 -7.723751,-9.205001 c -0.9825,-1.16 -2.40125,-1.9375 -4.0025,-2.08125 -0.01,-0.0013 -0.02,-0.0013 -0.03,-0.0013 -0.15875,0 -0.29,0.11625 -0.31625,0.26625 l -5.737501,32.540003 3.06625,0 4.000001,-12.308751 4.72375,12.308751 3.0725,0 -5.12125,-20.540002 1.285,-3.9525 5.795001,5.40375 0.98875,-0.57 0.99,0.57 5.795,-5.40375 1.28375,3.9525 -5.12125,20.540002 3.0725,0 4.72375,-12.308751 4.000001,12.308751 3.0675,0 -2.0775,-11.781251 7.993751,-1.408751 c 0.46125,-0.08125 0.77,-0.5225 0.68875,-0.985" style="fill:#000;fill-opacity:1;fill-rule:nonzero;stroke:none"/>
  <path d="m 36.456127,17.089878 c 1.51125,0 2.73625,-1.225 2.73625,-2.73625 0,-1.51 -1.225,-2.73375 -2.73625,-2.73375 -1.51,0 -2.735,1.22375 -2.735,2.73375 0,1.51125 1.225,2.73625 2.735,2.73625" style="fill:#000;fill-opacity:1;fill-rule:nonzero;stroke:none"/>
  <path d="m 19.981126,17.096128 c 1.51,0 2.73375,-1.2225 2.73375,-2.7325 0,-1.51 -1.22375,-2.735 -2.73375,-2.735 -1.51,0 -2.73375,1.225 -2.73375,2.735 0,1.51 1.22375,2.7325 2.73375,2.7325" style="fill:#000;fill-opacity:1;fill-rule:nonzero;stroke:none"/>
</svg>
