<?xml version='1.0' encoding='UTF-8' standalone='no'?>
<svg xmlns:cc="http://creativecommons.org/ns#" xmlns:dc="http://purl.org/dc/elements/1.1/" height="60.601002" xmlns:rdf="http://www.w3.org/1999/02/22-rdf-syntax-ns#" xmlns:svg="http://www.w3.org/2000/svg" version="1.1" viewBox="0 0 60.601004 60.601004" width="60.601002" xmlns="http://www.w3.org/2000/svg">
  <defs/>
  <metadata>
    <rdf:RDF>
      <cc:Work rdf:about="">
        <dc:format>image/svg+xml</dc:format>
        <dc:type rdf:resource="http://purl.org/dc/dcmitype/StillImage"/>
        <dc:title>銀行・両替; Bank, money exchange</dc:title>
        <dc:source>http://www.ecomo.or.jp/barrierfree/pictogram/data/zukigo_panfu_jis110.pdf</dc:source>
      </cc:Work>
    </rdf:RDF>
  </metadata>
  <path d="m 7.7942509,56.021755 c -1.7762501,0 -3.2150003,-1.44 -3.2150003,-3.215 l 0,-45.0137539 c 0,-1.7750001 1.4387502,-3.2137502 3.2150003,-3.2137502 l 45.0125041,0 c 1.775,0 3.215,1.4387501 3.215,3.2137502 l 0,45.0137539 c 0,1.775 -1.44,3.215 -3.215,3.215 l -45.0125041,0 z" style="fill:#ffffff;stroke:#000;stroke-width:0.60625005;stroke-linecap:butt;stroke-linejoin:miter;stroke-miterlimit:4;stroke-dasharray:none;stroke-opacity:1;fill-opacity:1"/>
  <path d="m 47.984254,30.300504 -3.20875,0 c -1.2125,-1.00125 -2.76625,-1.6075 -4.478751,-1.6075 -1.6725,0 -3.2225,0.60625 -4.44125,1.6075 l -23.237502,0 0,-16.076251 35.366253,0 0,16.076251 z m 2.045,-18.121251 -39.456253,0 0,20.165001 23.567502,0 c -0.5675,1.0125 -0.895,2.17375 -0.895,3.4 0,3.935001 3.20625,7.048751 7.05125,7.048751 3.936251,0 7.050001,-3.11375 7.050001,-7.048751 0,-1.22625 -0.3175,-2.3875 -0.87625,-3.4 l 3.55875,0 0,-20.165001" style="fill:#000;fill-opacity:1;fill-rule:nonzero;stroke:none"/>
  <path d="m 0,0 c 0,3.118 -2.527,5.645 -5.644,5.645 -3.118,0 -5.645,-2.527 -5.645,-5.645 0,-3.116 2.527,-5.643 5.645,-5.643 C -2.527,-5.643 0,-3.116 0,0" style="stroke:none;fill-opacity:1;fill:#000;fill-rule:nonzero" transform="matrix(0.000000,1.250000,1.250000,0.000000,30.300503,29.334253)"/>
  <path d="m 22.263002,37.100504 c 3.93625,0 7.048751,3.205 7.048751,7.050001 0,3.93625 -3.112501,7.0475 -7.048751,7.0475 -3.845,0 -7.050001,-3.11125 -7.050001,-7.0475 0,-3.845001 3.205001,-7.050001 7.050001,-7.050001" style="fill:#000;fill-opacity:1;fill-rule:nonzero;stroke:none"/>
  <path d="m 31.896753,22.216753 1.3475,0 0,1.1 -1.92375,0 -0.0975,0.17875 0,0.67375 2.02125,0 0,1.1 -2.02125,0 0,2.0225 -1.84375,0 0,-2.0225 -2.02125,0 0,-1.1 2.02125,0 0,-0.67375 -0.11,-0.17875 -1.91125,0 0,-1.1 1.375,0 -2.3925,-4.525 1.93875,0 2.0775,4.235 2.11875,-4.235 1.80125,0 -2.38,4.525" style="fill:#ffffff;fill-opacity:1;fill-rule:nonzero;stroke:none"/>
  <path d="m 25.289252,47.043005 c -0.4325,0.2225 -1.285,0.38 -2.00625,0.38 -1.37,0 -2.3425,-0.69125 -2.80375,-1.745 l 4.03875,0 0,-0.99875 -4.305,0 c -0.02125,-0.16875 -0.035,-0.34125 -0.035,-0.52 0,-0.21375 0.01625,-0.42125 0.04625,-0.6225 l 4.29375,0 0,-0.99875 -3.9975,0 c 0.47875,-1.0225 1.43625,-1.695 2.72375,-1.695 0.655,0 1.28375,0.0925 1.98,0.485 l 0.13,-1.545001 c -0.66875,-0.2625 -1.46875,-0.38 -2.07125,-0.38 -2.4675,0 -4.18,1.10875 -4.781251,3.135001 l -1.83625,0 0,0.99875 1.64,0 c -0.02625,0.2425 -0.04125,0.49375 -0.04125,0.75375 0,0.13375 0.005,0.2625 0.01125,0.38875 l -1.61,0 0,0.99875 1.76,0 c 0.53625,2.14875 2.381251,3.1875 4.857501,3.1875 0.695,0 1.41625,-0.1325 2.085,-0.29 l -0.07875,-1.5325" style="fill:#ffffff;fill-opacity:1;fill-rule:nonzero;stroke:none"/>
  <path d="m 40.778003,38.668004 0,-1.87875 c 0.6175,0.22875 1.04875,0.51125 1.04875,0.97375 0,0.4575 -0.4725,0.74625 -1.04875,0.905 z m -1.9775,-4.87875 c 0,-0.55 0.41375,-0.85125 0.92375,-1.00625 l 0,1.85125 c -0.54875,-0.20625 -0.92375,-0.45375 -0.92375,-0.845 z m 5.4175,3.79375 c 0,-1.70625 -1.8925,-2.19875 -3.44,-2.625 l 0,-2.32125 c 0.0175,-0.0013 0.03625,-0.0013 0.05375,-0.0013 0.84625,0 1.6925,0.13625 2.4525,0.37 l 0.225,-1.417501 c -0.8375,-0.2 -1.75375,-0.29875 -2.73125,-0.3075 l 0,-0.38875 -1.05375,0 0,0.43125 c -1.7775,0.18125 -3.315,0.93375 -3.315,2.585001 0,1.63875 1.7925,2.12375 3.315,2.55375 l 0,2.365 c -0.05875,0.0012 -0.11625,0.0037 -0.17,0.0037 -0.95125,0 -1.90125,-0.21125 -2.73,-0.5325 l -0.225,1.555 c 1.1925,0.21 1.78,0.33375 3.0925,0.33375 0.01125,0 0.02125,0 0.0325,0 l 0,0.43 1.05375,0 0,-0.4825 c 1.93875,-0.1925 3.44,-0.9525 3.44,-2.55125" style="fill:#ffffff;fill-opacity:1;fill-rule:nonzero;stroke:none"/>
</svg>
