<?xml version='1.0' encoding='UTF-8' standalone='no'?>
<svg xmlns:cc="http://creativecommons.org/ns#" xmlns:dc="http://purl.org/dc/elements/1.1/" height="60.601002" xmlns:rdf="http://www.w3.org/1999/02/22-rdf-syntax-ns#" xmlns:svg="http://www.w3.org/2000/svg" version="1.1" viewBox="0 0 60.601004 60.601004" width="60.601002" xmlns="http://www.w3.org/2000/svg">
  <defs/>
  <metadata>
    <rdf:RDF>
      <cc:Work rdf:about="">
        <dc:format>image/svg+xml</dc:format>
        <dc:type rdf:resource="http://purl.org/dc/dcmitype/StillImage"/>
        <dc:title>電話; Telephone</dc:title>
        <dc:source>http://www.ecomo.or.jp/barrierfree/pictogram/data/zukigo_panfu_jis110.pdf</dc:source>
      </cc:Work>
    </rdf:RDF>
  </metadata>
  <path d="m 7.7861277,56.032378 c -1.77625,0 -3.2175,-1.44125 -3.2175,-3.2175 l 0,-45.0300003 c 0,-1.7775 1.44125,-3.21625 3.2175,-3.21625 l 45.0300003,0 c 1.77625,0 3.21625,1.43875 3.21625,3.21625 l 0,45.0300003 c 0,1.77625 -1.44,3.2175 -3.21625,3.2175 l -45.0300003,0 z" style="fill:#ffffff;stroke:#000;stroke-width:0.60625005;stroke-linecap:butt;stroke-linejoin:miter;stroke-miterlimit:4;stroke-dasharray:none;stroke-opacity:1;fill-opacity:1"/>
  <path d="m 34.60738,16.324876 c 0,-2.1275 -0.28,-4.17625 -0.7775,-6.14875 l -3.24875,0 0,12.3625 3.24875,0.0075 c 0.5075,-1.99 0.7775,-4.07375 0.7775,-6.22125" style="fill:#000;fill-opacity:1;fill-rule:nonzero;stroke:none"/>
  <path d="m 30.58113,38.053627 0,12.37 3.24875,0 c 0.5075,-1.99 0.7775,-4.07625 0.7775,-6.22375 0,-2.12625 -0.2975,-4.16875 -0.795,-6.14 l -3.23125,-0.0063" style="fill:#000;fill-opacity:1;fill-rule:nonzero;stroke:none"/>
  <path d="m 21.291129,30.299877 c 0,7.4775 2.3175,14.41125 6.27625,20.125 l 1.415,-0.0012 0,-12.3625 c -1.51625,-2.22375 -2.38875,-4.8575 -2.38875,-7.76125 0,-2.90375 0.8725,-5.53625 2.38875,-7.76125 l 0,-12.3625 -1.415,-0.0013 c -3.95875,5.71375 -6.27625,12.64875 -6.27625,20.125" style="fill:#000;fill-opacity:1;fill-rule:nonzero;stroke:none"/>
</svg>
