<?xml version='1.0' encoding='UTF-8' standalone='no'?>
<svg xmlns:cc="http://creativecommons.org/ns#" xmlns:dc="http://purl.org/dc/elements/1.1/" height="60.601002" xmlns:rdf="http://www.w3.org/1999/02/22-rdf-syntax-ns#" xmlns:svg="http://www.w3.org/2000/svg" version="1.1" viewBox="0 0 60.601004 60.601004" width="60.601002" xmlns="http://www.w3.org/2000/svg">
  <defs/>
  <metadata>
    <rdf:RDF>
      <cc:Work rdf:about="">
        <dc:format>image/svg+xml</dc:format>
        <dc:type rdf:resource="http://purl.org/dc/dcmitype/StillImage"/>
        <dc:title>ファックス; Fax</dc:title>
        <dc:source>http://www.ecomo.or.jp/barrierfree/pictogram/data/zukigo_panfu_jis110.pdf</dc:source>
      </cc:Work>
    </rdf:RDF>
  </metadata>
  <path d="m 7.7855027,56.031753 c -1.77625,0 -3.21625,-1.44 -3.21625,-3.2175 l 0,-45.0287503 c 0,-1.77625 1.44,-3.21625 3.21625,-3.21625 l 45.0300003,0 c 1.77625,0 3.21625,1.44 3.21625,3.21625 l 0,45.0287503 c 0,1.7775 -1.44,3.2175 -3.21625,3.2175 l -45.0300003,0 z" style="fill:#ffffff;fill-opacity:1;stroke:#000;stroke-width:0.60625005;stroke-linecap:butt;stroke-linejoin:miter;stroke-miterlimit:4;stroke-dasharray:none;stroke-opacity:1"/>
  <path d="m 26.861754,25.603001 6.09375,0 0,1.7225 -3.6675,0 0,1.9975 3.51,0 0,1.72125 -3.51,0 0,3.6675 -2.42625,0 0,-9.10875" style="fill:#000;fill-opacity:1;fill-rule:nonzero;stroke:none"/>
  <path d="m 37.860505,27.483001 -0.02625,0 -1.175,3.56125 2.28375,0 -1.0825,-3.56125 z m -1.4875,-1.88 2.97375,0 3.51,9.10875 -2.66125,0 -0.6775,-1.945 -3.42,0 -0.7175,1.945 -2.465,0 3.4575,-9.10875" style="fill:#000;fill-opacity:1;fill-rule:nonzero;stroke:none"/>
  <path d="m 46.040505,29.921752 -2.63625,-4.31875 2.83125,0 1.52625,3.0025 1.56625,-3.0025 2.66125,0 -2.66125,4.31875 2.9225,4.79 -2.89625,0 -1.76125,-3.35375 -1.74875,3.35375 -2.7525,0 2.94875,-4.79" style="fill:#000;fill-opacity:1;fill-rule:nonzero;stroke:none"/>
  <path d="m 25.396754,16.325501 c 0,-2.12625 -0.28125,-4.1775 -0.7775,-6.14875 l -3.25,0 0,12.3625 3.25,0.0063 c 0.50625,-1.99 0.7775,-4.0725 0.7775,-6.22" style="fill:#000;fill-opacity:1;fill-rule:nonzero;stroke:none"/>
  <path d="m 21.369254,38.054252 0,12.37 3.25,0 c 0.50625,-1.99125 0.7775,-4.07625 0.7775,-6.22375 0,-2.1275 -0.2975,-4.16875 -0.795,-6.14 l -3.2325,-0.0063" style="fill:#000;fill-opacity:1;fill-rule:nonzero;stroke:none"/>
  <path d="m 12.079253,30.300502 c 0,7.47625 2.3175,14.41125 6.2775,20.12375 l 1.41375,0 0,-12.36375 c -1.515,-2.22375 -2.3875,-4.85625 -2.3875,-7.76 0,-2.90375 0.8725,-5.53625 2.3875,-7.76125 l 0,-12.3625 -1.41375,-0.0012 c -3.96,5.7125 -6.2775,12.64875 -6.2775,20.125" style="fill:#000;fill-opacity:1;fill-rule:nonzero;stroke:none"/>
</svg>
