<?xml version='1.0' encoding='UTF-8' standalone='no'?>
<svg xmlns:cc="http://creativecommons.org/ns#" xmlns:dc="http://purl.org/dc/elements/1.1/" height="60.601002" xmlns:rdf="http://www.w3.org/1999/02/22-rdf-syntax-ns#" xmlns:svg="http://www.w3.org/2000/svg" version="1.1" viewBox="0 0 60.601004 60.601004" width="60.601002" xmlns="http://www.w3.org/2000/svg">
  <defs/>
  <metadata>
    <rdf:RDF>
      <cc:Work rdf:about="">
        <dc:format>image/svg+xml</dc:format>
        <dc:type rdf:resource="http://purl.org/dc/dcmitype/StillImage"/>
        <dc:title>カート; Cart</dc:title>
        <dc:source>http://www.ecomo.or.jp/barrierfree/pictogram/data/zukigo_panfu_jis110.pdf</dc:source>
      </cc:Work>
    </rdf:RDF>
  </metadata>
  <path d="m 7.7786277,56.040503 c -1.77625,0 -3.2175,-1.44125 -3.2175,-3.2175 l 0,-45.0437503 c 0,-1.7775 1.44125,-3.21875 3.2175,-3.21875 l 45.0437503,0 c 1.77625,0 3.2175,1.44125 3.2175,3.21875 l 0,45.0437503 c 0,1.77625 -1.44125,3.2175 -3.2175,3.2175 l -45.0437503,0 z" style="fill:#ffffff;stroke:#000;stroke-width:0.60625005;stroke-linecap:butt;stroke-linejoin:miter;stroke-miterlimit:4;stroke-dasharray:none;stroke-opacity:1;fill-opacity:1"/>
  <path d="m 38.16113,20.958001 c 0,-0.835 -0.67625,-1.51125 -1.51125,-1.51125 l -2.62,0 0,17.63625 2.62375,0 c 0.835,0 1.5125,-0.6775 1.5125,-1.5125 l -0.005,-14.6125" style="fill:#000;fill-opacity:1;fill-rule:nonzero;stroke:none"/>
  <path d="m 17.108629,19.445501 -2.625,0 c -0.83625,0 -1.5125,0.67625 -1.5125,1.51125 l -0.0012,14.6125 c 0,0.83625 0.6775,1.5125 1.5125,1.5125 l 2.62625,0 0,-17.63625" style="fill:#000;fill-opacity:1;fill-rule:nonzero;stroke:none"/>
  <path d="m 23.083629,17.624251 c 0.81625,-0.15 1.65,-0.22625 2.485,-0.22625 0.83,0 1.66375,0.07625 2.48625,0.2275 l 0,1.82 -4.97125,0 0,-1.82125 z m 6.42,1.82125 0,-2.9875 -0.44375,-0.1025 c -1.14625,-0.27 -2.32125,-0.40625 -3.49125,-0.40625 -1.17625,0 -2.35125,0.13625 -3.49,0.405 l -0.44375,0.10625 0,2.985 -3.0775,0 0,17.63625 14.02375,0.0012 0,-17.63625 -3.0775,-0.0013" style="fill:#000;fill-opacity:1;fill-rule:nonzero;stroke:none"/>
  <path d="m 16.764879,42.551752 c -1.41875,0 -2.56875,1.14875 -2.56875,2.5675 0,1.41875 1.15,2.57 2.56875,2.57 1.41875,0 2.56875,-1.15125 2.56875,-2.57 0,-1.41875 -1.15,-2.5675 -2.56875,-2.5675" style="fill:#000;fill-opacity:1;fill-rule:nonzero;stroke:none"/>
  <path d="m 41.33863,42.551752 c -1.41875,0 -2.5675,1.14875 -2.5675,2.5675 0,1.41875 1.14875,2.57 2.5675,2.57 1.42,0 2.57,-1.15125 2.57,-2.57 0,-1.41875 -1.15,-2.5675 -2.57,-2.5675" style="fill:#000;fill-opacity:1;fill-rule:nonzero;stroke:none"/>
  <path d="m 41.91613,13.141751 0,25.2275 -28.94625,0 0,3.21625 32.16375,0 0,-25.225 4.10375,0 0,-3.21875 -7.32125,0" style="fill:#000;fill-opacity:1;fill-rule:nonzero;stroke:none"/>
</svg>
