<?xml version='1.0' encoding='UTF-8' standalone='no'?>
<svg xmlns:cc="http://creativecommons.org/ns#" xmlns:dc="http://purl.org/dc/elements/1.1/" height="60.601002" xmlns:rdf="http://www.w3.org/1999/02/22-rdf-syntax-ns#" xmlns:svg="http://www.w3.org/2000/svg" version="1.1" viewBox="0 0 60.601004 60.601004" width="60.601002" xmlns="http://www.w3.org/2000/svg">
  <defs/>
  <metadata>
    <rdf:RDF>
      <cc:Work rdf:about="">
        <dc:format>image/svg+xml</dc:format>
        <dc:type rdf:resource="http://purl.org/dc/dcmitype/StillImage"/>
        <dc:title>エレベーター; Elevator</dc:title>
        <dc:source>http://www.ecomo.or.jp/barrierfree/pictogram/data/zukigo_panfu_jis110.pdf</dc:source>
      </cc:Work>
    </rdf:RDF>
  </metadata>
  <path d="m 7.7805027,56.038003 c -1.77625,0 -3.2175,-1.44 -3.2175,-3.2175 l 0,-45.0400003 c 0,-1.77625 1.44125,-3.2175 3.2175,-3.2175 l 45.0412503,0 c 1.775,0 3.21625,1.44125 3.21625,3.2175 l 0,45.0400003 c 0,1.7775 -1.44125,3.2175 -3.21625,3.2175 l -45.0412503,0 z" style="fill:#ffffff;stroke:#000;stroke-width:0.60625005;stroke-linecap:butt;stroke-linejoin:miter;stroke-miterlimit:4;stroke-dasharray:none;stroke-opacity:1;fill-opacity:1"/>
  <path d="m 41.130505,26.979253 0,21.6875 -21.8,0 0,-21.6875 21.8,0 z m 0,21.6875 z m -24.37125,-24.26125 0,26.83375 26.94375,0 0,-26.83375 -26.94375,0 z" style="fill:#000;fill-opacity:1;fill-rule:nonzero;stroke:none"/>
  <path d="m 29.404254,16.806751 0,-3.0675 -4.90375,4.9025 0,-10.4175003 -2.45,0 0,10.4175003 -4.90375,-4.9025 0,3.0675 6.1275,6.12875 6.13,-6.12875" style="fill:#000;fill-opacity:1;fill-rule:nonzero;stroke:none"/>
  <path d="m 36.011755,12.19675 0,10.4175 2.45125,0 0,-10.4175 4.90375,4.905 0,-3.06875 -6.12875,-6.1287503 -6.12875,6.1287503 0,3.06875 4.9025,-4.905" style="fill:#000;fill-opacity:1;fill-rule:nonzero;stroke:none"/>
  <path d="m 20.785504,40.456752 0.83625,0 0,6.94625 1.34,0 0.48625,-6.94625 0.245,0 0.4875,6.94625 1.34,0 0,-6.94625 0.835,0 0.24375,-4.65625 c 0.0675,-0.9425 -0.60125,-1.795 -1.5525,-1.935 -0.48125,-0.07125 -0.97375,-0.11 -1.47625,-0.11 -0.50125,0 -0.995,0.03875 -1.47625,0.11 -0.95125,0.14 -1.62,0.9925 -1.55375,1.935 l 0.245,4.65625" style="fill:#000;fill-opacity:1;fill-rule:nonzero;stroke:none"/>
  <path d="m 23.570504,33.230502 c 0.6725,0 1.2175,-0.545 1.2175,-1.21875 0,-0.67375 -0.545,-1.2175 -1.2175,-1.2175 -0.67375,0 -1.22,0.54375 -1.22,1.2175 0,0.67375 0.54625,1.21875 1.22,1.21875" style="fill:#000;fill-opacity:1;fill-rule:nonzero;stroke:none"/>
  <path d="m 27.509254,40.456752 0.835,0 0,6.94625 1.34125,0 0.4875,-6.94625 0.24375,0 0.48625,6.94625 1.34125,0 0,-6.94625 0.83625,0 0.245,-4.65625 c 0.065,-0.9425 -0.60375,-1.795 -1.5525,-1.935 -0.48375,-0.07125 -0.97625,-0.11 -1.4775,-0.11 -0.5025,0 -0.99625,0.03875 -1.4775,0.11 -0.95,0.14 -1.62,0.9925 -1.55375,1.935 l 0.245,4.65625" style="fill:#000;fill-opacity:1;fill-rule:nonzero;stroke:none"/>
  <path d="m 30.295505,33.230502 c 0.67375,0 1.2175,-0.545 1.2175,-1.21875 0,-0.67375 -0.54375,-1.2175 -1.2175,-1.2175 -0.67375,0 -1.21875,0.54375 -1.21875,1.2175 0,0.67375 0.545,1.21875 1.21875,1.21875" style="fill:#000;fill-opacity:1;fill-rule:nonzero;stroke:none"/>
  <path d="m 34.234255,40.456752 0.83625,0 0,6.94625 1.34,0 0.4875,-6.94625 0.24375,0 0.4875,6.94625 1.34,0 0,-6.94625 0.83625,0 0.24375,-4.65625 c 0.0675,-0.9425 -0.60125,-1.795 -1.55125,-1.935 -0.48375,-0.07125 -0.97625,-0.11 -1.4775,-0.11 -0.5025,0 -0.99625,0.03875 -1.4775,0.11 -0.95,0.14 -1.61875,0.9925 -1.5525,1.935 l 0.24375,4.65625" style="fill:#000;fill-opacity:1;fill-rule:nonzero;stroke:none"/>
  <path d="m 37.019255,33.230502 c 0.6725,0 1.21875,-0.545 1.21875,-1.21875 0,-0.67375 -0.54625,-1.2175 -1.21875,-1.2175 -0.67375,0 -1.21875,0.54375 -1.21875,1.2175 0,0.67375 0.545,1.21875 1.21875,1.21875" style="fill:#000;fill-opacity:1;fill-rule:nonzero;stroke:none"/>
</svg>
