<?xml version='1.0' encoding='UTF-8' standalone='no'?>
<svg xmlns:cc="http://creativecommons.org/ns#" xmlns:dc="http://purl.org/dc/elements/1.1/" height="60.601002" xmlns:rdf="http://www.w3.org/1999/02/22-rdf-syntax-ns#" xmlns:svg="http://www.w3.org/2000/svg" version="1.1" viewBox="0 0 60.601004 60.601004" width="60.601002" xmlns="http://www.w3.org/2000/svg">
  <defs/>
  <metadata>
    <rdf:RDF>
      <cc:Work rdf:about="">
        <dc:format>image/svg+xml</dc:format>
        <dc:type rdf:resource="http://purl.org/dc/dcmitype/StillImage"/>
        <dc:title>エスカレーター; Excalator</dc:title>
        <dc:source>http://www.ecomo.or.jp/barrierfree/pictogram/data/zukigo_panfu_jis110.pdf</dc:source>
      </cc:Work>
    </rdf:RDF>
  </metadata>
  <path d="m 7.7861277,56.032378 c -1.7775,0 -3.2175,-1.44 -3.2175,-3.21625 l 0,-45.0300003 c 0,-1.7775 1.44,-3.2175 3.2175,-3.2175 l 45.0300003,0 c 1.77625,0 3.21625,1.44 3.21625,3.2175 l 0,45.0300003 c 0,1.77625 -1.44,3.21625 -3.21625,3.21625 l -45.0300003,0 z" style="fill:#ffffff;fill-opacity:1;stroke:#000;stroke-width:0.60625005;stroke-linecap:butt;stroke-linejoin:miter;stroke-miterlimit:4;stroke-dasharray:none;stroke-opacity:1"/>
  <path d="m 26.953629,17.748626 c 1.145,0 2.07375,-0.93 2.07375,-2.075 0,-1.145 -0.92875,-2.0725 -2.07375,-2.0725 -1.145,0 -2.07375,0.9275 -2.07375,2.0725 0,1.145 0.92875,2.075 2.07375,2.075" style="fill:#000;fill-opacity:1;fill-rule:nonzero;stroke:none"/>
  <path d="m 51.076131,22.946126 c 0,2.9825 -2.45625,5.205 -5.44,5.205 l -3.79875,0 -18.58875,18.535 -8.26,0.0062 c -2.98375,0 -5.3237503,-2.2225 -5.3237503,-5.205 0,-2.9825 2.3400003,-5.32375 5.3237503,-5.32375 l 3.77,0 5.83,-5.78625 -1.18625,-9.48375 c -0.01375,-0.095 -0.02,-0.19125 -0.02,-0.29 0,-1.07875 0.8025,-1.975 1.8425,-2.11375 0.565,-0.075 1.1425,-0.12 1.72875,-0.12 0.585,0 1.1625,0.04625 1.72875,0.12125 1.04,0.14 1.84125,1.03375 1.84125,2.1125 0,0.09875 -0.0063,0.195 -0.01875,0.29 l -0.51625,4.12125 7.44875,-7.39375 8.19875,-0.0013 c 2.98375,0 5.44,2.3425 5.44,5.32625" style="fill:#000;fill-opacity:1;fill-rule:nonzero;stroke:none"/>
  <path d="m 19.819879,38.737377 18.67625,-18.54375 7.14,0.0025 c 0.795,0 1.53125,0.3 2.0775,0.845 0.50875,0.51 0.79,1.18625 0.79,1.905 0,1.5 -1.2325,2.63125 -2.8675,2.63125 l -4.86375,0 -18.58875,18.5375 -7.1975,0.0037 c -0.7925,0 -1.5075,-0.27875 -2.015,-0.785 -0.47875,-0.48 -0.7325,-1.11875 -0.7325,-1.84625 0,-0.75625 0.28,-1.4525 0.79,-1.96125 0.5075,-0.5075 1.20375,-0.78875 1.96,-0.78875 l 4.83125,0" style="fill:#ffffff;fill-opacity:1;fill-rule:nonzero;stroke:none"/>
</svg>
