<?xml version='1.0' encoding='UTF-8' standalone='no'?>
<svg xmlns:cc="http://creativecommons.org/ns#" xmlns:dc="http://purl.org/dc/elements/1.1/" height="60.601002" xmlns:rdf="http://www.w3.org/1999/02/22-rdf-syntax-ns#" xmlns:svg="http://www.w3.org/2000/svg" version="1.1" viewBox="0 0 60.601004 60.601004" width="60.601002" xmlns="http://www.w3.org/2000/svg">
  <defs/>
  <metadata>
    <rdf:RDF>
      <cc:Work rdf:about="">
        <dc:format>image/svg+xml</dc:format>
        <dc:type rdf:resource="http://purl.org/dc/dcmitype/StillImage"/>
        <dc:title>下りエスカレーター; Escalator, down</dc:title>
        <dc:source>http://www.ecomo.or.jp/barrierfree/pictogram/data/zukigo_panfu_jis110.pdf</dc:source>
      </cc:Work>
    </rdf:RDF>
  </metadata>
  <path d="m 0,0 c 0,-1.421 -1.152,-2.573 -2.573,-2.573 l -36.024,0 c -1.421,0 -2.574,1.152 -2.574,2.573 l 0,36.024 c 0,1.421 1.153,2.573 2.574,2.573 l 36.024,0 C -1.152,38.597 0,37.445 0,36.024 L 0,0 Z" style="stroke-linejoin:miter;stroke-opacity:1;stroke:#000;stroke-linecap:butt;stroke-miterlimit:4;stroke-dasharray:none;stroke-width:0.48500001;fill:#ffffff;fill-opacity:1" transform="matrix(0.000000,1.250000,1.250000,0.000000,7.785501,56.032380)"/>
  <path d="m 0,0 -1.642,1.643 0,-5.25 -5.579,5.577 -1.312,-1.312 5.578,-5.578 -5.251,0.001 1.643,-1.644 6.563,0 L 0,0" style="stroke:none;fill-opacity:1;fill:#000;fill-rule:nonzero" transform="matrix(0.000000,1.250000,1.250000,0.000000,44.501752,47.073630)"/>
  <path d="m 0,0 c 0,0.916 -0.743,1.66 -1.659,1.66 -0.917,0 -1.659,-0.744 -1.659,-1.66 0,-0.916 0.742,-1.658 1.659,-1.658 C -0.743,-1.658 0,-0.916 0,0" style="stroke:none;fill-opacity:1;fill:#000;fill-rule:nonzero" transform="matrix(0.000000,1.250000,1.250000,0.000000,26.953001,17.748628)"/>
  <path d="m 0,0 c 2.386,0 4.164,-1.966 4.164,-4.352 l 0,-3.04 14.828,-14.871 0.006,-6.607 c 0,-2.387 -1.779,-4.259 -4.165,-4.259 -2.386,0 -4.258,1.872 -4.258,4.259 l 0,3.016 -4.63,4.664 -7.587,-0.95 c -0.076,-0.01 -0.153,-0.016 -0.232,-0.016 -0.863,0 -1.58,0.643 -1.691,1.474 -0.06,0.453 -0.095,0.914 -0.095,1.383 0,0.469 0.036,0.931 0.096,1.383 0.112,0.832 0.827,1.474 1.69,1.474 0.079,0 0.156,-0.005 0.232,-0.015 l 3.298,-0.413 -5.916,5.958 -0.001,6.56 C -4.261,-1.966 -2.386,0 0,0" style="stroke:none;fill-opacity:1;fill:#000;fill-rule:nonzero" transform="matrix(0.000000,1.250000,1.250000,0.000000,51.076754,22.946128)"/>
  <path d="m 0,0 -14.835,14.941 0.002,5.712 c 0,0.636 0.24,1.225 0.677,1.662 0.407,0.407 0.948,0.632 1.523,0.632 1.2,0 2.105,-0.987 2.105,-2.294 l 0,-3.891 L 4.302,1.891 4.305,-3.867 C 4.305,-4.501 4.082,-5.074 3.677,-5.479 3.294,-5.863 2.783,-6.065 2.2,-6.065 1.595,-6.065 1.038,-5.841 0.631,-5.434 0.225,-5.027 0,-4.47 0,-3.865 L 0,0" style="stroke:none;fill-opacity:1;fill:#ffffff;fill-rule:nonzero" transform="matrix(0.000000,1.250000,1.250000,0.000000,19.820502,38.737379)"/>
</svg>
