<?xml version='1.0' encoding='UTF-8' standalone='no'?>
<svg xmlns:cc="http://creativecommons.org/ns#" xmlns:dc="http://purl.org/dc/elements/1.1/" height="60.601002" xmlns:rdf="http://www.w3.org/1999/02/22-rdf-syntax-ns#" xmlns:svg="http://www.w3.org/2000/svg" version="1.1" viewBox="0 0 60.601004 60.601004" width="60.601002" xmlns="http://www.w3.org/2000/svg">
  <defs/>
  <metadata>
    <rdf:RDF>
      <cc:Work rdf:about="">
        <dc:format>image/svg+xml</dc:format>
        <dc:type rdf:resource="http://purl.org/dc/dcmitype/StillImage"/>
        <dc:title>階段; Stairs</dc:title>
        <dc:source>http://www.ecomo.or.jp/barrierfree/pictogram/data/zukigo_panfu_jis110.pdf</dc:source>
      </cc:Work>
    </rdf:RDF>
  </metadata>
  <path d="m 7.7861277,56.030503 c -1.77625,0 -3.21625,-1.43875 -3.21625,-3.21625 l 0,-45.0287503 c 0,-1.77625 1.44,-3.215 3.21625,-3.215 l 45.0287503,0 c 1.7775,0 3.21625,1.43875 3.21625,3.215 l 0,45.0287503 c 0,1.7775 -1.43875,3.21625 -3.21625,3.21625 l -45.0287503,0 z" style="fill:#ffffff;fill-opacity:1;stroke:#000;stroke-width:0.60625005;stroke-linecap:butt;stroke-linejoin:miter;stroke-miterlimit:4;stroke-dasharray:none;stroke-opacity:1"/>
  <path d="m 52.331131,32.199252 -8.33,0 0,3.375 -7.365,0 0,3.3775 -7.36375,0 0,3.37625 -7.36625,0 0,3.3775 -7.36375,0 0,3.37625 -6.2712503,0 0,4.0525 10.3225003,0 0,-3.37625 7.365,0 0,-3.3775 7.365,0 0,-3.37625 7.365,0 0,-3.37625 7.365,0 0,-3.3775 4.2775,0 0,-4.05125" style="fill:#000;fill-opacity:1;fill-rule:nonzero;stroke:none"/>
  <path d="m 18.459879,18.536751 c 1.2275,0 2.2225,-0.99375 2.2225,-2.2225 0,-1.22625 -0.995,-2.22 -2.2225,-2.22 -1.22625,0 -2.22125,0.99375 -2.22125,2.22 0,1.22875 0.995,2.2225 2.22125,2.2225" style="fill:#000;fill-opacity:1;fill-rule:nonzero;stroke:none"/>
  <path d="m 26.564879,37.964252 -5.76625,-4.8375 1.18875,-8.455 c 1.2775,1.5125 2.11625,3.4075 2.315,5.49 l 1.81875,-0.4875 c -0.0875,-3.28375 -1.4475,-6.25 -3.605,-8.425 -1.46875,-1.48125 -3.3575,-1.9625 -4.68375,-2.0975 -0.01125,-0.0013 -0.0225,-0.0013 -0.03375,-0.0013 -0.16375,0 -0.29875,0.1175 -0.32875,0.27375 -0.66125,3.54 -2.82125,6.5525 -5.79875,8.35375 l 0.94625,1.64 c 1.59,-0.6775 3.0075,-1.67625 4.175,-2.91625 l 0,18.07875 2.39625,0 1.0575,-7.52125 5.88,3.39375 0.43875,-2.48875" style="fill:#000;fill-opacity:1;fill-rule:nonzero;stroke:none"/>
  <path d="m 38.26613,11.831751 c 1.22625,0 2.2225,-0.995 2.2225,-2.2225003 0,-1.22625 -0.99625,-2.22125 -2.2225,-2.22125 -1.2275,0 -2.22125,0.995 -2.22125,2.22125 0,1.2275003 0.99375,2.2225003 2.22125,2.2225003" style="fill:#000;fill-opacity:1;fill-rule:nonzero;stroke:none"/>
  <path d="m 42.66613,23.123001 -4.26125,-2.46125 0.39625,-2.035 c 0.14625,-0.76125 0.22375,-1.5475 0.22375,-2.3525 0,-1.22875 -0.17875,-2.41375 -0.5125,-3.5325 -0.04125,-0.13875 -0.16875,-0.24 -0.32125,-0.24 -0.0025,0 -0.0063,0.0012 -0.01125,0.0012 -4.765,0.1625 -8.57875,4.0775 -8.57875,8.8825 0,0.23625 0.01,0.47 0.02875,0.70125 l 1.8625,0.33 c -0.0013,-0.04875 -0.0025,-0.09625 -0.0025,-0.1425 0,-1.98375 0.88125,-3.76125 2.27375,-4.96375 l -1.075,20.515 2.38125,0 2.5375,-13.05875 2.345,1.0925 -1.60875,6.0075 1.69375,1.69375 3.5325,-7.575 c 0.13375,-0.28625 0.20875,-0.60375 0.20875,-0.93875 0,-0.82125 -0.44625,-1.54 -1.1125,-1.92375" style="fill:#000;fill-opacity:1;fill-rule:nonzero;stroke:none"/>
</svg>
