<?xml version="1.0" encoding="UTF-8"?>
<svg width="60.601" height="60.601" version="1.1" viewBox="0 0 60.601 60.601" xmlns="http://www.w3.org/2000/svg" xmlns:cc="http://creativecommons.org/ns#" xmlns:dc="http://purl.org/dc/elements/1.1/" xmlns:rdf="http://www.w3.org/1999/02/22-rdf-syntax-ns#">
 <metadata>
  <rdf:RDF>
   <cc:Work rdf:about="">
    <dc:format>image/svg+xml</dc:format>
    <dc:type rdf:resource="http://purl.org/dc/dcmitype/StillImage"/>
    <dc:title>ベビーケアルーム; Baby care room</dc:title>
    <dc:source>http://www.mlit.go.jp/common/001245686.pdf</dc:source>
   </cc:Work>
  </rdf:RDF>
 </metadata>
 <path transform="matrix(0 1.25 1.25 0 7.7793 56.039)" d="m0 0c0-1.422-1.153-2.574-2.573-2.574h-36.035c-1.423 0-2.574 1.152-2.574 2.574v36.034c0 1.421 1.151 2.574 2.574 2.574h36.035c1.42 0 2.573-1.153 2.573-2.574v-36.034z" style="fill:#fff;stroke-width:.485;stroke:#000"/>
 <path d="m34.668 18.598c-1.7911 0-3.2422-1.4511-3.2422-3.2422 0-1.7911 1.451-3.2422 3.2422-3.2422 1.7855 0 3.2365 1.4511 3.2365 3.2422 0 1.7911-1.451 3.2422-3.2365 3.2422" style="fill:#000"/>
 <path d="m37.836 43.096h-17.18v-2.596h17.18z" style="fill:#000"/>
 <path d="m23.842 39.525c-1.4737 0-2.6754-1.196-2.6754-2.6697 0-1.4794 1.2017-2.681 2.6754-2.681 1.4794 0 2.6754 1.2016 2.6754 2.681 0 1.4737-1.196 2.6697-2.6754 2.6697" style="fill:#000"/>
 <path d="m30.372 28.869 5.9289-2.1652v-4.3872c0-2.3863 1.2923-4.4722 3.2138-5.5945 0.0737-0.04527 0.15872-0.06802 0.24374-0.06802 0.15304 0 0.2834 0.06802 0.37409 0.17004l8.5249 10.157c0.66318 0.79353 1.06 1.8025 1.06 2.9191 0 0.21539-0.0116 0.42511-0.0396 0.62918l-2.9304 20.825h-3.5653v-20.694l-3.1912-2.9758-0.017 0.18138c-0.0737 0.6745-0.54982 1.2243-1.1846 1.4l-7.1192 1.9102z" style="fill:#000"/>
 <path d="m31.454 34.259c-0.0963-0.20972-0.14176-0.44212-0.14176-0.68585 0-0.7652 0.52713-1.417 1.2413-1.5984l3.5256-0.95225 1.1053 1.9328-2.3183 0.93524 0.99759 1.7458c0.22106 0.38543 0.35143 0.82755 0.35143 1.298 0 1.434-1.162 2.596-2.5904 2.596h-5.9742c-0.13597 0-0.24939-0.08503-0.30041-0.19839-0.18706-0.43645-0.29474-0.91824-0.29474-1.4227 0-0.21539 0.017-0.41946 0.0509-0.6235l1.0089-5.7022 1.9442 0.36276v3.0438h1.7288z" style="fill:#000"/>
 <path d="m19.047 29.379c0 0.09069-0.0737 0.1587-0.1587 0.1587h-6.0366c-0.0907 0-0.1587-0.06805-0.1587-0.1587v-2.4713h2.4203v-0.96924h-2.4203v-1.4624h2.4203v-0.96926h-2.4203v-1.4624h2.4203v-0.96925h-2.4203c0-1.1393 0.32875-2.2503 0.95225-3.1968h4.4438c0.6235 0.95225 0.95791 2.0575 0.95791 3.1968zm0.45345-11.676v-2.1822h-7.2666v2.1822c-0.53281 1.0089-0.83888 2.1539-0.83888 3.3726v8.3038c0 0.80488 0.65183 1.4567 1.4567 1.4567h6.0366c0.79921 0 1.451-0.65184 1.451-1.4567v-8.3038c0-1.2187-0.30609-2.3636-0.8389-3.3726" style="fill:#000"/>
 <path d="m18.803 13.848c0-0.53847-0.36843-0.99192-0.86723-1.1223l-0.43079-0.11898c-0.14162-0.03972-0.27773-0.11333-0.38543-0.22673-0.15304-0.14738-0.23805-0.34009-0.25506-0.5328-0.0116-0.14177-0.0226-0.28341-0.0226-0.43079v-1.298c0-0.53847-0.43644-0.97492-0.97491-0.97492-0.53848 0-0.97493 0.43645-0.97493 0.97492v1.298c0 0.14738-0.0116 0.28907-0.0226 0.43079-0.017 0.19271-0.102 0.38543-0.2494 0.5328-0.11333 0.11333-0.24939 0.18704-0.3911 0.22673l-0.43078 0.11898c-0.49879 0.1303-0.86156 0.58381-0.86156 1.1223v0.86156h5.8665z" style="fill:#000"/>
</svg>
