<?xml version='1.0' encoding='UTF-8' standalone='no'?>
<svg xmlns:cc="http://creativecommons.org/ns#" xmlns:dc="http://purl.org/dc/elements/1.1/" height="60.601002" xmlns:rdf="http://www.w3.org/1999/02/22-rdf-syntax-ns#" xmlns:svg="http://www.w3.org/2000/svg" version="1.1" viewBox="0 0 60.601004 60.601004" width="60.601002" xmlns="http://www.w3.org/2000/svg">
  <defs/>
  <metadata>
    <rdf:RDF>
      <cc:Work rdf:about="">
        <dc:format>image/svg+xml</dc:format>
        <dc:type rdf:resource="http://purl.org/dc/dcmitype/StillImage"/>
        <dc:title>乳幼児用設備; Nursery</dc:title>
        <dc:source>http://www.ecomo.or.jp/barrierfree/pictogram/data/zukigo_panfu_jis110.pdf</dc:source>
      </cc:Work>
    </rdf:RDF>
  </metadata>
  <path d="m 0,0 c 0,-1.422 -1.153,-2.574 -2.573,-2.574 l -36.035,0 c -1.423,0 -2.574,1.152 -2.574,2.574 l 0,36.034 c 0,1.421 1.151,2.574 2.574,2.574 l 36.035,0 C -1.153,38.608 0,37.455 0,36.034 L 0,0 Z" style="stroke-linejoin:miter;stroke-opacity:1;stroke:#000;stroke-linecap:butt;stroke-miterlimit:4;stroke-dasharray:none;stroke-width:0.48500001;fill:#ffffff;fill-opacity:1" transform="matrix(0.000000,1.250000,1.250000,0.000000,7.779251,56.039255)"/>
  <path d="m 0,0 c 0,2.239 -1.814,4.054 -4.053,4.054 -2.239,0 -4.053,-1.815 -4.053,-4.054 0,-2.238 1.814,-4.053 4.053,-4.053 C -1.814,-4.053 0,-2.238 0,0" style="stroke:none;fill-opacity:1;fill:#000;fill-rule:nonzero" transform="matrix(0.000000,1.250000,1.250000,0.000000,30.266753,21.969253)"/>
  <path d="m 0,0 c -1.009,-0.847 -1.708,-2.069 -1.855,-3.484 -0.074,-0.716 -0.114,-1.442 -0.114,-2.178 0,-0.736 0.04,-1.462 0.114,-2.178 0.147,-1.415 0.846,-2.637 1.855,-3.484 l 6.357,-5.334 2.026,1.7 -4.235,4.702 2.261,0 0,9.188 -2.261,0 4.235,4.702 -2.026,1.7 L 0,0" style="stroke:none;fill-opacity:1;fill:#000;fill-rule:nonzero" transform="matrix(0.000000,1.250000,1.250000,0.000000,37.380503,25.444253)"/>
  <path d="m 0,0 3.406,-3.405 2.302,2.302 3.063,-2.759 1.911,1.911 -3.205,3.818 C 6.858,2.605 5.93,3.074 4.891,3.074 4.065,3.074 3.308,2.777 2.72,2.283 L 0,0" style="stroke:none;fill-opacity:1;fill:#000;fill-rule:nonzero" transform="matrix(0.000000,1.250000,1.250000,0.000000,36.045503,35.820504)"/>
  <path d="m 0,0 -3.406,-3.405 2.72,-2.283 c 0.588,-0.494 1.345,-0.791 2.171,-0.791 1.039,0 1.967,0.47 2.586,1.208 L 7.276,-1.453 5.365,0.458 2.302,-2.301 0,0" style="stroke:none;fill-opacity:1;fill:#000;fill-rule:nonzero" transform="matrix(0.000000,1.250000,1.250000,0.000000,28.816752,40.078004)"/>
</svg>
