<?xml version='1.0' encoding='UTF-8' standalone='no'?>
<svg xmlns:cc="http://creativecommons.org/ns#" xmlns:dc="http://purl.org/dc/elements/1.1/" height="60.601002" xmlns:rdf="http://www.w3.org/1999/02/22-rdf-syntax-ns#" xmlns:svg="http://www.w3.org/2000/svg" version="1.1" viewBox="0 0 60.601004 60.601004" width="60.601002" xmlns="http://www.w3.org/2000/svg">
  <defs/>
  <metadata>
    <rdf:RDF>
      <cc:Work rdf:about="">
        <dc:format>image/svg+xml</dc:format>
        <dc:type rdf:resource="http://purl.org/dc/dcmitype/StillImage"/>
        <dc:title>クローク; Cloakroom</dc:title>
        <dc:source>http://www.ecomo.or.jp/barrierfree/pictogram/data/zukigo_panfu_jis110.pdf</dc:source>
      </cc:Work>
    </rdf:RDF>
  </metadata>
  <path d="m 0,0 c 0,-1.421 -1.152,-2.573 -2.573,-2.573 l -36.024,0 c -1.422,0 -2.574,1.152 -2.574,2.573 l 0,36.024 c 0,1.421 1.152,2.574 2.574,2.574 l 36.024,0 C -1.152,38.598 0,37.445 0,36.024 L 0,0 Z" style="stroke-linejoin:miter;stroke-opacity:1;stroke:#000;stroke-linecap:butt;stroke-miterlimit:4;stroke-dasharray:none;stroke-width:0.48500001;fill:#ffffff;fill-opacity:1" transform="matrix(0.000000,1.250000,1.250000,0.000000,7.784876,56.032380)"/>
  <path d="m 0,0 c -0.56,0.561 -0.868,1.305 -0.868,2.097 0,0.792 0.308,1.537 0.868,2.096 0.56,0.561 1.304,0.869 2.096,0.869 l 0.957,0 0,-5.929 -0.957,0 C 1.304,-0.867 0.56,-0.559 0,0 Z M 6.135,10.075 C 4.435,9.719 3.143,8.243 3.058,6.457 l -0.962,0 C 0.932,6.457 -0.163,6.004 -0.987,5.18 -1.81,4.357 -2.264,3.262 -2.264,2.097 c 0,-2.405 1.956,-4.361 4.36,-4.361 l 0.962,0 c 0.083,-1.786 1.367,-3.26 3.068,-3.615 2.304,-0.506 4.68,-0.775 7.145,-0.775 l 0,17.502 c -2.457,0 -4.838,-0.271 -7.136,-0.773" style="stroke:none;fill-opacity:1;fill:#000;fill-rule:nonzero" transform="matrix(0.000000,1.250000,1.250000,0.000000,27.688627,33.243629)"/>
  <path d="m 0,0 c -1.51,-3.571 -2.325,-7.348 -2.426,-11.241 l -1.982,0 c -0.24,0 -0.464,-0.119 -0.601,-0.321 0,0 -1.066,-1.5 -1.066,-1.499 -0.306,-0.443 -0.809,-0.707 -1.346,-0.707 -0.438,0 -0.848,0.17 -1.157,0.479 -0.309,0.309 -0.479,0.719 -0.479,1.156 0,0.437 0.17,0.847 0.479,1.156 0.279,0.279 0.639,0.443 1.027,0.473 l 0,1.787 c -0.864,-0.032 -1.673,-0.382 -2.288,-0.998 -0.646,-0.646 -1.002,-1.505 -1.002,-2.418 0,-0.912 0.356,-1.77 1.002,-2.416 0.647,-0.647 1.505,-1.003 2.418,-1.003 1.122,0 2.175,0.552 2.813,1.477 l 0.704,0.996 0.039,0.054 1.443,0 c 0.115,-3.85 0.927,-7.586 2.422,-11.12 0.525,-1.242 1.138,-2.462 1.818,-3.619 0.63,-0.021 1.278,0.13 1.86,0.479 0.476,0.286 0.895,0.639 1.17,1.08 -0.645,1.084 -1.218,2.214 -1.714,3.386 -1.439,3.402 -2.169,7.017 -2.169,10.746 0,3.729 0.73,7.344 2.169,10.746 C 3.63,-0.154 4.203,0.976 4.848,2.06 4.573,2.5 4.154,2.853 3.678,3.139 3.096,3.488 2.448,3.639 1.818,3.619 1.138,2.461 0.525,1.241 0,0" style="stroke:none;fill-opacity:1;fill:#000;fill-rule:nonzero" transform="matrix(0.000000,1.250000,1.250000,0.000000,45.476128,23.266128)"/>
</svg>
