<?xml version='1.0' encoding='UTF-8' standalone='no'?>
<svg xmlns:cc="http://creativecommons.org/ns#" xmlns:dc="http://purl.org/dc/elements/1.1/" height="60.601002" xmlns:rdf="http://www.w3.org/1999/02/22-rdf-syntax-ns#" xmlns:svg="http://www.w3.org/2000/svg" version="1.1" viewBox="0 0 60.601004 60.601004" width="60.601002" xmlns="http://www.w3.org/2000/svg">
  <defs/>
  <metadata>
    <rdf:RDF>
      <cc:Work rdf:about="">
        <dc:format>image/svg+xml</dc:format>
        <dc:type rdf:resource="http://purl.org/dc/dcmitype/StillImage"/>
        <dc:title>更衣室; Dressing room</dc:title>
        <dc:source>http://www.ecomo.or.jp/barrierfree/pictogram/data/zukigo_panfu_jis110.pdf</dc:source>
      </cc:Work>
    </rdf:RDF>
  </metadata>
  <path d="m 0,0 c 0,-1.42 -1.153,-2.572 -2.573,-2.572 l -36.021,0 c -1.421,0 -2.573,1.152 -2.573,2.572 l 0,36.022 c 0,1.421 1.152,2.573 2.573,2.573 l 36.021,0 C -1.153,38.595 0,37.443 0,36.022 L 0,0 Z" style="stroke-linejoin:miter;stroke-opacity:1;stroke:#000;stroke-linecap:butt;stroke-miterlimit:4;stroke-dasharray:none;stroke-width:0.48500001;fill:#ffffff;fill-opacity:1" transform="matrix(0.000000,1.250000,1.250000,0.000000,7.786126,56.029880)"/>
  <path d="m 0,0 c -0.86,-2.034 -1.328,-4.184 -1.394,-6.399 l -1.144,0 c -0.17,0 -0.32,-0.086 -0.407,-0.217 L -3.56,-7.48 c -0.162,-0.235 -0.43,-0.375 -0.714,-0.375 -0.232,0 -0.45,0.09 -0.614,0.254 -0.164,0.164 -0.254,0.382 -0.254,0.614 0,0.231 0.09,0.449 0.254,0.613 0.164,0.163 0.382,0.254 0.614,0.254 l 0,1.176 c -0.547,0 -1.059,-0.213 -1.445,-0.599 -0.386,-0.385 -0.599,-0.899 -0.599,-1.444 0,-1.127 0.917,-2.044 2.044,-2.044 0.67,0 1.299,0.33 1.681,0.883 l -0.003,-0.005 0.409,0.577 0.795,0 c 0.075,-2.191 0.54,-4.317 1.392,-6.329 0.302,-0.715 0.655,-1.418 1.046,-2.085 0.364,-0.011 0.738,0.075 1.071,0.276 0.275,0.165 0.516,0.368 0.675,0.622 -0.372,0.624 -0.702,1.275 -0.988,1.95 -0.828,1.959 -1.248,4.041 -1.248,6.189 0,2.148 0.42,4.23 1.248,6.189 C 2.09,-0.088 2.42,0.562 2.792,1.186 2.633,1.44 2.392,1.643 2.117,1.808 1.784,2.009 1.41,2.096 1.046,2.084 0.655,1.418 0.302,0.715 0,0" style="stroke:none;fill-opacity:1;fill:#000;fill-rule:nonzero" transform="matrix(0.000000,1.250000,1.250000,0.000000,47.827379,18.674878)"/>
  <path d="m 0,0 c 0,1.137 -0.922,2.06 -2.06,2.06 -1.138,0 -2.06,-0.923 -2.06,-2.06 0,-1.139 0.922,-2.06 2.06,-2.06 C -0.922,-2.06 0,-1.139 0,0" style="stroke:none;fill-opacity:1;fill:#000;fill-rule:nonzero" transform="matrix(0.000000,1.250000,1.250000,0.000000,19.078627,20.384878)"/>
  <path d="m 0,0 c -0.186,-1.002 -0.284,-2.036 -0.284,-3.092 0,-1.057 0.098,-2.09 0.284,-3.093 0.314,-1.698 1.841,-2.861 3.52,-2.771 l 7.112,0.382 0,1.646 -6.798,0 0,0.564 18.952,0 0,2.241 -11.742,0.825 0,0.412 11.742,0.824 0,2.241 -18.952,0 0,0.565 6.798,0 0,1.644 L 3.52,2.772 C 1.841,2.862 0.314,1.697 0,0" style="stroke:none;fill-opacity:1;fill:#000;fill-rule:nonzero" transform="matrix(0.000000,1.250000,1.250000,0.000000,22.943627,21.512378)"/>
</svg>
