<?xml version='1.0' encoding='UTF-8' standalone='no'?>
<svg xmlns:cc="http://creativecommons.org/ns#" xmlns:dc="http://purl.org/dc/elements/1.1/" height="60.601002" xmlns:rdf="http://www.w3.org/1999/02/22-rdf-syntax-ns#" xmlns:svg="http://www.w3.org/2000/svg" version="1.1" viewBox="0 0 60.601004 60.601004" width="60.601002" xmlns="http://www.w3.org/2000/svg">
  <defs/>
  <metadata>
    <rdf:RDF>
      <cc:Work rdf:about="">
        <dc:format>image/svg+xml</dc:format>
        <dc:type rdf:resource="http://purl.org/dc/dcmitype/StillImage"/>
        <dc:title>更衣室(女性); Dressing room (women)</dc:title>
        <dc:source>http://www.ecomo.or.jp/barrierfree/pictogram/data/zukigo_panfu_jis110.pdf</dc:source>
      </cc:Work>
    </rdf:RDF>
  </metadata>
  <path d="m 7.7867527,56.031753 c -1.7775,0 -3.2175,-1.44 -3.2175,-3.21625 l 0,-45.0300003 c 0,-1.77625 1.44,-3.21625 3.2175,-3.21625 l 45.0300003,0 c 1.775,0 3.215,1.44 3.215,3.21625 l 0,45.0300003 c 0,1.77625 -1.44,3.21625 -3.215,3.21625 l -45.0300003,0 z" style="fill:#ffffff;fill-opacity:1;stroke:#000;stroke-width:0.60625005;stroke-linecap:butt;stroke-linejoin:miter;stroke-miterlimit:4;stroke-dasharray:none;stroke-opacity:1"/>
  <path d="m 47.829256,18.625501 c -2.5425,-1.075 -5.23,-1.66 -8,-1.74375 l 0,-1.42875 c 0,-0.21125 -0.1075,-0.39875 -0.27125,-0.50875 l -1.07875,-0.76875 c -0.295,-0.2025 -0.47,-0.53625 -0.47,-0.8925 0,-0.29 0.1125,-0.5625 0.3175,-0.7675 0.20625,-0.205 0.47875,-0.3175 0.7675,-0.3175 0.29,0 0.56125,0.1125 0.7675,0.3175 0.20375,0.205 0.31625,0.4775 0.31625,0.7675 l 1.47,0 c 0,-0.6825 -0.265,-1.32375 -0.7475,-1.80625 -0.4825,-0.4825 -1.12375,-0.7475 -1.80625,-0.7475 -1.40875,0 -2.555,1.145 -2.555,2.55375 0,0.83875 0.41375,1.62375 1.10375,2.1025 l -0.0063,-0.0037 0.7225,0.50875 0,0.99625 c -2.74,0.0925 -5.39875,0.675 -7.91375,1.73875 -0.89375,0.3775 -1.7725,0.82 -2.60625,1.3075 -0.01375,0.45625 0.095,0.9225 0.34625,1.34125 0.205,0.34125 0.46,0.64375 0.77625,0.8425 0.78125,-0.465 1.595,-0.87875 2.43875,-1.23375 2.44875,-1.0375 5.0525,-1.56125 7.73625,-1.56125 2.685,0 5.28875,0.52375 7.7375,1.56125 0.845,0.355 1.6575,0.76875 2.4375,1.23375 0.3175,-0.19875 0.57125,-0.50125 0.7775,-0.8425 0.25125,-0.41875 0.36,-0.885 0.345,-1.34125 -0.8325,-0.4875 -1.71125,-0.93 -2.605,-1.3075" style="fill:#000;fill-opacity:1;fill-rule:nonzero;stroke:none"/>
  <path d="m 19.078004,20.383001 c 1.42125,0 2.57375,-1.1525 2.57375,-2.57375 0,-1.4225 -1.1525,-2.575 -2.57375,-2.575 -1.4225,0 -2.57625,1.1525 -2.57625,2.575 0,1.42125 1.15375,2.57375 2.57625,2.57375" style="fill:#000;fill-opacity:1;fill-rule:nonzero;stroke:none"/>
  <path d="m 22.619254,25.791751 2.00125,7.46625 1.93125,0 -1.5575,-8.8325 c -0.24125,-1.3575 -1.2525,-2.51875 -2.6775,-2.8725 -1.0375,-0.25875 -2.1225,-0.39625 -3.23875,-0.39625 -1.1175,0 -2.20125,0.1375 -3.23875,0.39625 -1.425,0.35375 -2.4375,1.515 -2.67875,2.8725 l -1.55625,8.8325 1.93125,0 2,-7.46625 0.805,3.00125 c -1.84875,2.7475 -2.9275,6.05625 -2.9275,9.615 l 3.35625,0 1.01375,11.57875 2.58875,0 1.01375,-11.57875 3.3575,0 c 0,-3.56 -1.08,-6.8675 -2.9275,-9.61625 l 0.80375,-3" style="fill:#000;fill-opacity:1;fill-rule:nonzero;stroke:none"/>
</svg>
