<?xml version='1.0' encoding='UTF-8' standalone='no'?>
<svg xmlns:cc="http://creativecommons.org/ns#" xmlns:dc="http://purl.org/dc/elements/1.1/" height="60.601002" xmlns:rdf="http://www.w3.org/1999/02/22-rdf-syntax-ns#" xmlns:svg="http://www.w3.org/2000/svg" version="1.1" viewBox="0 0 60.601004 60.601004" width="60.601002" xmlns="http://www.w3.org/2000/svg">
  <defs/>
  <metadata>
    <rdf:RDF>
      <cc:Work rdf:about="">
        <dc:format>image/svg+xml</dc:format>
        <dc:type rdf:resource="http://purl.org/dc/dcmitype/StillImage"/>
        <dc:title>シャワー; Shower</dc:title>
        <dc:source>http://www.ecomo.or.jp/barrierfree/pictogram/data/zukigo_panfu_jis110.pdf</dc:source>
      </cc:Work>
    </rdf:RDF>
  </metadata>
  <path d="m 7.7786277,56.039253 c -1.77625,0 -3.2175,-1.44 -3.2175,-3.2175 l 0,-45.0425003 c 0,-1.7775 1.44125,-3.2175 3.2175,-3.2175 l 45.0437503,0 c 1.77625,0 3.2175,1.44 3.2175,3.2175 l 0,45.0425003 c 0,1.7775 -1.44125,3.2175 -3.2175,3.2175 l -45.0437503,0 z" style="fill:#ffffff;stroke:#000;stroke-width:0.60625005;stroke-linecap:butt;stroke-linejoin:miter;stroke-miterlimit:4;stroke-dasharray:none;stroke-opacity:1;fill-opacity:1"/>
  <path d="m 25.239878,19.168001 c -0.0013,-0.36375 0.29375,-0.6625 0.65875,-0.66375 0.17625,-0.0012 0.3425,0.06625 0.46875,0.19125 0.125,0.125 0.195,0.29 0.19625,0.4675 0.0012,0.365 -0.29375,0.6625 -0.65875,0.665 -0.365,0.0012 -0.66375,-0.295 -0.665,-0.66" style="fill:#000;fill-opacity:1;fill-rule:nonzero;stroke:none"/>
  <path d="m 23.261128,21.165501 c 0,-0.1775 0.0675,-0.34375 0.19125,-0.47 0.125,-0.125 0.29,-0.195 0.4675,-0.195 0.1775,-0.0012 0.3425,0.06625 0.46875,0.19125 0.125,0.125 0.195,0.29 0.19625,0.4675 0,0.17625 -0.0675,0.3425 -0.1925,0.46875 -0.125,0.125 -0.29,0.195 -0.4675,0.195 -0.365,0.0012 -0.6625,-0.2925 -0.66375,-0.6575" style="fill:#000;fill-opacity:1;fill-rule:nonzero;stroke:none"/>
  <path d="m 21.282378,23.160501 c 0,-0.17625 0.0675,-0.3425 0.1925,-0.4675 0.12375,-0.12625 0.29,-0.19625 0.46625,-0.19625 0.1775,-0.0012 0.34375,0.0675 0.46875,0.1925 0.12625,0.12375 0.19625,0.28875 0.19625,0.46625 0,0.17625 -0.0675,0.34375 -0.1925,0.46875 -0.12375,0.125 -0.29,0.195 -0.4675,0.19625 -0.17625,0 -0.3425,-0.0675 -0.4675,-0.1925 -0.12625,-0.125 -0.195,-0.29 -0.19625,-0.4675" style="fill:#000;fill-opacity:1;fill-rule:nonzero;stroke:none"/>
  <path d="m 19.303628,25.158001 c -0.0012,-0.365 0.29375,-0.66375 0.65875,-0.665 0.1775,0 0.3425,0.0675 0.46875,0.19125 0.12625,0.125 0.19625,0.29 0.19625,0.46625 0.0012,0.1775 -0.0675,0.345 -0.1925,0.47 -0.12375,0.125 -0.28875,0.195 -0.4675,0.195 -0.36375,0.0025 -0.6625,-0.29375 -0.66375,-0.6575" style="fill:#000;fill-opacity:1;fill-rule:nonzero;stroke:none"/>
  <path d="m 17.323628,27.154251 c -0.0012,-0.36625 0.29375,-0.66375 0.66,-0.665 0.17625,-0.0012 0.3425,0.0675 0.4675,0.19125 0.125,0.12375 0.19625,0.29 0.19625,0.46625 0.0012,0.1775 -0.0675,0.34375 -0.1925,0.47 -0.12375,0.125 -0.28875,0.19375 -0.46625,0.19625 -0.365,0 -0.66375,-0.295 -0.665,-0.65875" style="fill:#000;fill-opacity:1;fill-rule:nonzero;stroke:none"/>
  <path d="m 15.344878,29.149251 c 0,-0.17625 0.0675,-0.3425 0.1925,-0.46875 0.12375,-0.125 0.29,-0.195 0.4675,-0.19625 0.36375,-0.0012 0.66125,0.295 0.66375,0.66 0.0013,0.365 -0.295,0.6625 -0.66,0.66375 -0.17625,0 -0.3425,-0.0675 -0.4675,-0.19125 -0.12625,-0.125 -0.195,-0.29 -0.19625,-0.4675" style="fill:#000;fill-opacity:1;fill-rule:nonzero;stroke:none"/>
  <path d="m 13.367378,31.145502 c 0,-0.17625 0.0675,-0.3425 0.19125,-0.46875 0.125,-0.12625 0.29,-0.195 0.4675,-0.195 0.17625,-0.0012 0.3425,0.0675 0.46875,0.19125 0.125,0.125 0.195,0.29 0.19625,0.4675 0,0.17625 -0.06875,0.34375 -0.1925,0.46875 -0.125,0.125 -0.29,0.195 -0.4675,0.19625 -0.365,0 -0.6625,-0.295 -0.66375,-0.66" style="fill:#000;fill-opacity:1;fill-rule:nonzero;stroke:none"/>
  <path d="m 11.387378,33.141752 c 0,-0.17625 0.0675,-0.3425 0.1925,-0.46875 0.12375,-0.125 0.28875,-0.195 0.46625,-0.195 0.365,-0.0025 0.6625,0.29375 0.665,0.6575 0,0.1775 -0.0675,0.34375 -0.1925,0.46875 -0.12375,0.12625 -0.29,0.195 -0.4675,0.19625 -0.365,0.0025 -0.6625,-0.29375 -0.66375,-0.65875" style="fill:#000;fill-opacity:1;fill-rule:nonzero;stroke:none"/>
  <path d="m 9.4086277,35.138002 c -0.00125,-0.17625 0.06625,-0.34375 0.19125,-0.46875 0.125,-0.125 0.29,-0.195 0.4675003,-0.195 0.36375,-0.0025 0.6625,0.29375 0.66375,0.65875 0.0013,0.17625 -0.0675,0.3425 -0.1925,0.4675 -0.12375,0.12625 -0.28875,0.19625 -0.46625,0.1975 -0.3650003,0 -0.6625003,-0.295 -0.6637503,-0.66" style="fill:#000;fill-opacity:1;fill-rule:nonzero;stroke:none"/>
  <path d="m 23.436128,17.195501 c 0.06125,-0.36 0.40375,-0.60125 0.765,-0.54 0.35875,0.06125 0.60125,0.405 0.53875,0.76375 -0.02875,0.175 -0.125,0.32625 -0.27,0.42875 -0.14375,0.1025 -0.32,0.14125 -0.49375,0.11125 -0.35875,-0.06125 -0.60125,-0.40375 -0.54,-0.76375" style="fill:#000;fill-opacity:1;fill-rule:nonzero;stroke:none"/>
  <path d="m 21.141128,18.818001 c 0.03,-0.17375 0.125,-0.3275 0.27,-0.42875 0.145,-0.10125 0.32,-0.1425 0.49375,-0.11125 0.36,0.06125 0.6025,0.40375 0.54,0.76375 -0.06125,0.35875 -0.40375,0.6025 -0.76375,0.54 -0.17375,-0.03 -0.325,-0.12625 -0.4275,-0.27 -0.1025,-0.14375 -0.1425,-0.32 -0.1125,-0.49375" style="fill:#000;fill-opacity:1;fill-rule:nonzero;stroke:none"/>
  <path d="m 18.846128,20.440501 c 0.03,-0.175 0.125,-0.3275 0.27,-0.42875 0.14375,-0.1025 0.32,-0.14125 0.49375,-0.1125 0.36,0.0625 0.6025,0.405 0.54,0.765 -0.06125,0.36 -0.405,0.60125 -0.76375,0.54 -0.36,-0.0625 -0.6025,-0.405 -0.54,-0.76375" style="fill:#000;fill-opacity:1;fill-rule:nonzero;stroke:none"/>
  <path d="m 16.549878,22.061751 c 0.06125,-0.35875 0.405,-0.60125 0.76375,-0.54 0.36,0.0625 0.6025,0.405 0.54,0.76375 -0.02875,0.175 -0.125,0.3275 -0.27,0.42875 -0.14375,0.1025 -0.31875,0.1425 -0.49375,0.11125 -0.17375,-0.02875 -0.32625,-0.125 -0.4275,-0.26875 -0.1025,-0.145 -0.1425,-0.32 -0.1125,-0.495" style="fill:#000;fill-opacity:1;fill-rule:nonzero;stroke:none"/>
  <path d="m 14.254878,23.684251 c 0.06125,-0.35875 0.40375,-0.6025 0.76375,-0.54 0.36,0.0625 0.6025,0.405 0.54,0.765 -0.06125,0.35875 -0.40375,0.6 -0.76375,0.54 -0.36,-0.0625 -0.6025,-0.405 -0.54,-0.765" style="fill:#000;fill-opacity:1;fill-rule:nonzero;stroke:none"/>
  <path d="m 11.958628,25.306751 c 0.06125,-0.36 0.40375,-0.60125 0.76375,-0.54 0.175,0.03 0.32625,0.125 0.4275,0.27 0.1025,0.145 0.1425,0.32 0.1125,0.49375 -0.03,0.175 -0.12625,0.32625 -0.27,0.42875 -0.14375,0.10125 -0.32,0.14125 -0.49375,0.11125 -0.35875,-0.06125 -0.60125,-0.40375 -0.54,-0.76375" style="fill:#000;fill-opacity:1;fill-rule:nonzero;stroke:none"/>
  <path d="m 9.6623777,26.929251 c 0.03125,-0.175 0.12625,-0.32625 0.27,-0.42875 0.1450003,-0.10125 0.3200003,-0.14125 0.4950003,-0.11125 0.35875,0.06125 0.60125,0.40375 0.53875,0.765 -0.06125,0.35875 -0.40375,0.60125 -0.76375,0.53875 -0.3587503,-0.06125 -0.6012503,-0.40375 -0.5400003,-0.76375" style="fill:#000;fill-opacity:1;fill-rule:nonzero;stroke:none"/>
  <path d="m 21.721128,15.175501 c 0.06,-0.16625 0.18125,-0.3 0.34,-0.375 0.16,-0.075 0.34,-0.08375 0.50625,-0.02375 0.16625,0.06 0.3,0.18 0.375,0.34 0.075,0.16 0.08375,0.34 0.025,0.50625 -0.06,0.16625 -0.18125,0.3 -0.34,0.375 -0.16125,0.075 -0.34125,0.08375 -0.5075,0.02375 -0.16625,-0.05875 -0.29875,-0.18125 -0.375,-0.34 -0.075,-0.16 -0.0825,-0.33875 -0.02375,-0.50625" style="fill:#000;fill-opacity:1;fill-rule:nonzero;stroke:none"/>
  <path d="m 19.179878,16.374251 c 0.05875,-0.16625 0.18,-0.29875 0.34,-0.37375 0.16,-0.07625 0.34,-0.08375 0.50625,-0.025 0.3425,0.12375 0.5225,0.50375 0.4,0.84625 -0.125,0.34375 -0.505,0.5225 -0.8475,0.39875 -0.16625,-0.06 -0.29875,-0.18 -0.375,-0.34 -0.07625,-0.16 -0.08375,-0.34 -0.02375,-0.50625" style="fill:#000;fill-opacity:1;fill-rule:nonzero;stroke:none"/>
  <path d="m 16.636128,17.574251 c 0.06,-0.16625 0.18,-0.3 0.34,-0.375 0.16,-0.075 0.34,-0.08375 0.50625,-0.025 0.34375,0.12375 0.5225,0.50375 0.4,0.8475 -0.125,0.3425 -0.50375,0.52125 -0.8475,0.39875 -0.165,-0.06 -0.29875,-0.18125 -0.375,-0.34 -0.075,-0.16125 -0.08375,-0.34 -0.02375,-0.50625" style="fill:#000;fill-opacity:1;fill-rule:nonzero;stroke:none"/>
  <path d="m 14.094878,18.773001 c 0.12375,-0.34375 0.5025,-0.5225 0.84625,-0.39875 0.3425,0.1225 0.5225,0.5025 0.4,0.84625 -0.06,0.16625 -0.18125,0.3 -0.34125,0.375 -0.16,0.075 -0.34,0.08375 -0.505,0.02375 -0.16625,-0.06 -0.3,-0.18 -0.37625,-0.34125 -0.075,-0.15875 -0.08375,-0.33875 -0.02375,-0.505" style="fill:#000;fill-opacity:1;fill-rule:nonzero;stroke:none"/>
  <path d="m 11.551128,19.971751 c 0.06,-0.16625 0.18125,-0.29875 0.34125,-0.37375 0.16,-0.07625 0.33875,-0.085 0.505,-0.025 0.1675,0.06 0.3,0.18 0.37625,0.34 0.075,0.16 0.08375,0.34 0.02375,0.50625 -0.06,0.16625 -0.18125,0.3 -0.34,0.375 -0.16,0.075 -0.34,0.08375 -0.50625,0.02375 -0.16625,-0.06 -0.29875,-0.18125 -0.375,-0.34 -0.075,-0.16 -0.08375,-0.34 -0.025,-0.50625" style="fill:#000;fill-opacity:1;fill-rule:nonzero;stroke:none"/>
  <path d="m 27.119878,21.075501 c -0.065,-0.35875 0.17375,-0.70375 0.53375,-0.7675 0.1725,-0.0325 0.34875,0.0063 0.495,0.10625 0.145,0.10125 0.24125,0.2525 0.27375,0.42625 0.06375,0.35875 -0.175,0.70375 -0.53375,0.77 -0.17375,0.03 -0.35,-0.0075 -0.49625,-0.10875 -0.14375,-0.1 -0.24125,-0.2525 -0.2725,-0.42625" style="fill:#000;fill-opacity:1;fill-rule:nonzero;stroke:none"/>
  <path d="m 25.517378,23.385501 c -0.03125,-0.175 0.0062,-0.35 0.1075,-0.495 0.1,-0.145 0.25125,-0.2425 0.425,-0.27375 0.175,-0.03125 0.35,0.0063 0.495,0.10625 0.145,0.10125 0.2425,0.25375 0.275,0.42625 0.03125,0.175 -0.0075,0.35 -0.10875,0.49625 -0.10125,0.145 -0.25125,0.24125 -0.425,0.27375 -0.17375,0.03 -0.35125,-0.0075 -0.495,-0.1075 -0.145,-0.10125 -0.2425,-0.2525 -0.27375,-0.42625" style="fill:#000;fill-opacity:1;fill-rule:nonzero;stroke:none"/>
  <path d="m 23.914878,25.695501 c -0.03125,-0.175 0.0062,-0.35 0.1075,-0.495 0.1,-0.145 0.25125,-0.24375 0.42625,-0.275 0.35875,-0.06375 0.70375,0.175 0.7675,0.53375 0.065,0.35875 -0.17375,0.70375 -0.5325,0.7675 -0.35875,0.06625 -0.70375,-0.1725 -0.76875,-0.53125" style="fill:#000;fill-opacity:1;fill-rule:nonzero;stroke:none"/>
  <path d="m 22.312378,28.004251 c -0.065,-0.35875 0.175,-0.70375 0.53375,-0.76875 0.35875,-0.065 0.70375,0.17375 0.76875,0.5325 0.065,0.36 -0.175,0.70375 -0.53375,0.77 -0.35875,0.06375 -0.70375,-0.175 -0.76875,-0.53375" style="fill:#000;fill-opacity:1;fill-rule:nonzero;stroke:none"/>
  <path d="m 20.711128,30.313002 c -0.0325,-0.1725 0.0075,-0.34875 0.1075,-0.495 0.10125,-0.145 0.2525,-0.24125 0.42625,-0.27375 0.35875,-0.06375 0.7025,0.175 0.76875,0.53375 0.03125,0.17375 -0.0075,0.35 -0.1075,0.495 -0.10125,0.145 -0.2525,0.24375 -0.425,0.27375 -0.17625,0.03125 -0.35125,-0.0063 -0.49625,-0.1075 -0.145,-0.10125 -0.2425,-0.25125 -0.27375,-0.42625" style="fill:#000;fill-opacity:1;fill-rule:nonzero;stroke:none"/>
  <path d="m 19.108628,32.623002 c -0.0325,-0.17375 0.0063,-0.35 0.1075,-0.495 0.1,-0.145 0.25125,-0.2425 0.425,-0.27375 0.35875,-0.065 0.70375,0.175 0.77,0.53375 0.03125,0.1725 -0.0075,0.34875 -0.1075,0.495 -0.10125,0.145 -0.2525,0.2425 -0.4275,0.27375 -0.35875,0.06375 -0.7025,-0.175 -0.7675,-0.53375" style="fill:#000;fill-opacity:1;fill-rule:nonzero;stroke:none"/>
  <path d="m 17.506128,34.931752 c -0.065,-0.35875 0.175,-0.7025 0.53375,-0.76875 0.35875,-0.065 0.70375,0.175 0.76875,0.53375 0.065,0.36 -0.175,0.70375 -0.53375,0.76875 -0.35875,0.06625 -0.70375,-0.17375 -0.76875,-0.53375" style="fill:#000;fill-opacity:1;fill-rule:nonzero;stroke:none"/>
  <path d="m 15.903628,37.241752 c -0.065,-0.36 0.17375,-0.70375 0.53375,-0.76875 0.35875,-0.065 0.70375,0.175 0.76875,0.53375 0.065,0.35875 -0.175,0.70375 -0.53375,0.76875 -0.35875,0.065 -0.70375,-0.175 -0.76875,-0.53375" style="fill:#000;fill-opacity:1;fill-rule:nonzero;stroke:none"/>
  <path d="m 14.301128,39.551752 c -0.065,-0.35875 0.17375,-0.705 0.5325,-0.76875 0.36,-0.065 0.705,0.17375 0.77,0.53375 0.065,0.3575 -0.175,0.70375 -0.53375,0.7675 -0.35875,0.065 -0.70375,-0.17375 -0.76875,-0.5325" style="fill:#000;fill-opacity:1;fill-rule:nonzero;stroke:none"/>
  <path d="m 12.698628,41.860502 c -0.065,-0.35875 0.17375,-0.70375 0.5325,-0.76875 0.35875,-0.065 0.705,0.17375 0.77,0.53375 0.065,0.35875 -0.175,0.70375 -0.53375,0.76875 -0.35875,0.065 -0.70375,-0.175 -0.76875,-0.53375" style="fill:#000;fill-opacity:1;fill-rule:nonzero;stroke:none"/>
  <path d="m 29.073628,22.915501 c -0.12625,-0.3425 0.05,-0.72375 0.39125,-0.85 0.16625,-0.06125 0.34625,-0.05375 0.50625,0.02 0.16,0.07375 0.2825,0.205 0.34375,0.37125 0.12625,0.3425 -0.04875,0.72375 -0.3925,0.85 -0.34125,0.12625 -0.7225,-0.04875 -0.84875,-0.39125" style="fill:#000;fill-opacity:1;fill-rule:nonzero;stroke:none"/>
  <path d="m 27.896128,25.468001 c -0.06125,-0.16625 -0.05375,-0.34625 0.02,-0.50625 0.07375,-0.16125 0.205,-0.2825 0.37125,-0.34375 0.1675,-0.06125 0.34625,-0.055 0.50625,0.02 0.16125,0.07375 0.2825,0.205 0.34375,0.37125 0.12625,0.3425 -0.04875,0.72375 -0.39125,0.85 -0.16625,0.06125 -0.345,0.05375 -0.50625,-0.02 -0.16,-0.07375 -0.2825,-0.20625 -0.34375,-0.37125" style="fill:#000;fill-opacity:1;fill-rule:nonzero;stroke:none"/>
  <path d="m 26.719878,28.020501 c -0.06125,-0.16625 -0.055,-0.34625 0.02,-0.50625 0.0725,-0.16125 0.20625,-0.2825 0.37125,-0.34375 0.16625,-0.06125 0.34625,-0.055 0.50625,0.02 0.16,0.07375 0.2825,0.205 0.34375,0.37125 0.06125,0.16625 0.05375,0.34625 -0.02,0.50625 -0.075,0.16125 -0.20625,0.2825 -0.3725,0.34375 -0.3425,0.12625 -0.7225,-0.05 -0.84875,-0.39125" style="fill:#000;fill-opacity:1;fill-rule:nonzero;stroke:none"/>
  <path d="m 25.541128,30.571752 c -0.125,-0.34125 0.05,-0.7225 0.3925,-0.84875 0.16625,-0.06125 0.34625,-0.05375 0.50625,0.02 0.16,0.07375 0.2825,0.20625 0.34375,0.3725 0.12625,0.34125 -0.05,0.7225 -0.39125,0.84875 -0.34375,0.12625 -0.72375,-0.05 -0.85125,-0.3925" style="fill:#000;fill-opacity:1;fill-rule:nonzero;stroke:none"/>
  <path d="m 24.366128,33.125502 c -0.12625,-0.34375 0.04875,-0.72375 0.39125,-0.85 0.34125,-0.12625 0.72375,0.04875 0.85,0.39125 0.12625,0.3425 -0.05,0.72375 -0.3925,0.85 -0.3425,0.12625 -0.72375,-0.05 -0.84875,-0.39125" style="fill:#000;fill-opacity:1;fill-rule:nonzero;stroke:none"/>
  <path d="m 23.188628,35.678002 c -0.12625,-0.3425 0.05,-0.72375 0.39125,-0.85 0.3425,-0.12625 0.72375,0.05 0.85,0.39125 0.06125,0.16625 0.055,0.34625 -0.02,0.50625 -0.07375,0.16 -0.205,0.2825 -0.37125,0.34375 -0.3425,0.12625 -0.72375,-0.05 -0.85,-0.39125" style="fill:#000;fill-opacity:1;fill-rule:nonzero;stroke:none"/>
  <path d="m 22.012378,38.230502 c -0.12625,-0.3425 0.04875,-0.7225 0.39125,-0.85 0.3425,-0.12625 0.7225,0.05 0.85,0.39125 0.06125,0.16625 0.0525,0.34625 -0.02,0.50625 -0.075,0.16125 -0.20625,0.2825 -0.3725,0.34375 -0.3425,0.12625 -0.72375,-0.04875 -0.84875,-0.39125" style="fill:#000;fill-opacity:1;fill-rule:nonzero;stroke:none"/>
  <path d="m 20.834878,40.783002 c -0.12625,-0.3425 0.05,-0.725 0.39125,-0.85 0.34375,-0.12625 0.72375,0.04875 0.85125,0.39125 0.06125,0.16625 0.05375,0.34625 -0.02,0.50625 -0.075,0.16 -0.20625,0.2825 -0.3725,0.34375 -0.3425,0.12625 -0.72375,-0.04875 -0.85,-0.39125" style="fill:#000;fill-opacity:1;fill-rule:nonzero;stroke:none"/>
  <path d="m 19.657378,43.335502 c -0.12625,-0.3425 0.04875,-0.72375 0.39125,-0.85 0.34125,-0.12625 0.72375,0.05 0.85,0.39125 0.06125,0.16625 0.0525,0.34625 -0.02,0.50625 -0.075,0.16125 -0.20625,0.2825 -0.3725,0.345 -0.3425,0.125 -0.72375,-0.05125 -0.84875,-0.3925" style="fill:#000;fill-opacity:1;fill-rule:nonzero;stroke:none"/>
  <path d="m 18.479878,45.886752 c -0.125,-0.34125 0.05,-0.7225 0.3925,-0.84875 0.3425,-0.12625 0.72375,0.04875 0.85,0.39125 0.06125,0.16625 0.05375,0.34625 -0.02,0.50625 -0.07375,0.16125 -0.20625,0.28375 -0.3725,0.34375 -0.3425,0.12625 -0.7225,-0.04875 -0.85,-0.3925" style="fill:#000;fill-opacity:1;fill-rule:nonzero;stroke:none"/>
  <path d="m 17.303628,48.440503 c -0.12625,-0.3425 0.05,-0.72375 0.3925,-0.85 0.34125,-0.12625 0.7225,0.05 0.84875,0.39125 0.06125,0.16625 0.055,0.34625 -0.02,0.50625 -0.07375,0.16 -0.205,0.2825 -0.3725,0.34375 -0.34125,0.12625 -0.7225,-0.05 -0.84875,-0.39125" style="fill:#000;fill-opacity:1;fill-rule:nonzero;stroke:none"/>
  <path d="m 11.096128,44.170502 c -0.065,-0.36 0.175,-0.70375 0.53375,-0.76875 0.35875,-0.065 0.70375,0.17375 0.76875,0.5325 0.065,0.35875 -0.17375,0.705 -0.53375,0.76875 -0.35875,0.06625 -0.70375,-0.17375 -0.76875,-0.5325" style="fill:#000;fill-opacity:1;fill-rule:nonzero;stroke:none"/>
  <path d="m 44.229879,36.988002 0,13.582501 3.767751,0 0,-13.582501 -3.767751,0 z" style="fill:#000;fill-opacity:1;fill-rule:nonzero;stroke:none"/>
  <path d="m 44.229879,35.700502 3.7675,0 0,-3.0975 c 0,-11.9925 -9.62625,-21.7375 -21.57375,-21.93125 l -2.13875,2.135 c 0.95625,1.60125 2.10375,3.11125 3.4825,4.49 1.3925,1.3925 2.91875,2.57 4.53875,3.53125 l 2.14,-2.1475 c 0.80125,0.4875 1.57,0.9875 2.30875,1.595 2.16875,1.78875 3.92125,3.945 5.20875,6.41 1.245,2.385 2.0075,4.95875 2.26625,7.65 l 0,1.365" style="fill:#000;fill-opacity:1;fill-rule:nonzero;stroke:none"/>
</svg>
