<?xml version='1.0' encoding='UTF-8' standalone='no'?>
<svg xmlns:cc="http://creativecommons.org/ns#" xmlns:dc="http://purl.org/dc/elements/1.1/" height="60.601002" xmlns:rdf="http://www.w3.org/1999/02/22-rdf-syntax-ns#" xmlns:svg="http://www.w3.org/2000/svg" version="1.1" viewBox="0 0 60.601004 60.601004" width="60.601002" xmlns="http://www.w3.org/2000/svg">
  <defs/>
  <metadata>
    <rdf:RDF>
      <cc:Work rdf:about="">
        <dc:format>image/svg+xml</dc:format>
        <dc:type rdf:resource="http://purl.org/dc/dcmitype/StillImage"/>
        <dc:title>浴室; Bath</dc:title>
        <dc:source>http://www.ecomo.or.jp/barrierfree/pictogram/data/zukigo_panfu_jis110.pdf</dc:source>
      </cc:Work>
    </rdf:RDF>
  </metadata>
  <path d="m 4.5692527,52.814253 c 0,1.77625 1.44,3.2175 3.215,3.2175 l 45.0312503,0 c 1.775,0 3.21625,-1.44125 3.21625,-3.2175 l 0,-45.0287503 c 0,-1.77625 -1.44125,-3.21625 -3.21625,-3.21625 l -45.0312503,0 c -1.775,0 -3.215,1.44 -3.215,3.21625 l 0,45.0287503 z" style="fill:#ffffff;stroke:#000;stroke-width:0.60625005;stroke-linecap:butt;stroke-linejoin:miter;stroke-miterlimit:4;stroke-dasharray:none;stroke-opacity:1;fill-opacity:1"/>
  <path d="m 42.306755,22.993001 c 1.59875,0 2.895,-1.29625 2.895,-2.895 0,-1.59875 -1.29625,-2.895 -2.895,-2.895 -1.59875,0 -2.895,1.29625 -2.895,2.895 0,1.59875 1.29625,2.895 2.895,2.895" style="fill:#000;fill-opacity:1;fill-rule:nonzero;stroke:none"/>
  <path d="m 45.534255,40.338002 c -0.0725,0.31125 -0.35,0.54375 -0.68375,0.54375 l -29.0275,0 c -0.3325,0 -0.61125,-0.2325 -0.6825,-0.54375 l -2.7675,-11.9925 c 0.58125,0.3975 1.28375,0.6325 2.04375,0.6325 1.395,0 2.605,-0.78625 3.2125,-1.94125 0.60625,1.155 1.8175,1.94125 3.21125,1.94125 1.39375,0 2.60625,-0.78625 3.2125,-1.94125 0.60625,1.155 1.81875,1.94125 3.2125,1.94125 1.39375,0 2.60375,-0.78625 3.2125,-1.94125 0.285,0.5425 0.70625,1.00375 1.215,1.34 l -1.215,0.56875 0,2.445 7.52875,-2.15875 -0.34875,3.99625 -6.08375,-0.96375 c -0.165,-0.02625 -0.3325,-0.04 -0.50375,-0.04 -0.42625,0 -0.8325,0.08375 -1.20375,0.235 l -11.43125,4.6175 1.53375,2.6575 10.77,-2.485 8.93125,2.3925 c 0.26125,0.05875 0.53125,0.08875 0.81,0.08875 1.93375,0 3.52,-1.48375 3.6825,-3.37625 l 0.67625,-7.72 c 0.4675,0.22 0.9875,0.34375 1.53875,0.34375 0.6975,0 1.34875,-0.1975 1.9025,-0.53875 l -2.74625,11.89875 z m 3.67875,-15.93625 -0.61375,2.66125 c -0.64625,0.39875 -1.4075,0.63 -2.22125,0.63 -0.50375,0 -0.98625,-0.0875 -1.435,-0.25 l 0.18625,-2.1275 c 0.0012,-0.01875 0.0025,-0.0375 0.0025,-0.05625 0,-0.205 -0.09625,-0.38875 -0.24625,-0.50625 -0.71,-0.55875 -1.605,-0.89125 -2.57875,-0.89125 -0.63125,0 -1.23,0.14125 -1.7675,0.39125 l -7.32,3.41375 c -0.96625,-0.1075 -1.8325,-0.53875 -2.49125,-1.1825 l -0.50125,0 c -0.76375,0.7475 -1.80875,1.20875 -2.96125,1.20875 -1.15375,0 -2.1975,-0.46125 -2.96125,-1.20875 l -0.50125,0 c -0.765,0.7475 -1.80875,1.20875 -2.9625,1.20875 -1.15375,0 -2.1975,-0.46125 -2.96125,-1.20875 l -0.50125,0 c -0.7625,0.7475 -1.80875,1.20875 -2.96125,1.20875 -0.875,0 -1.6875,-0.265 -2.36125,-0.72 l -0.59375,-2.57125 -3.2000003,0 3.9925003,17.29625 c 0.31625,1.37375 1.5475,2.4 3.01875,2.4 l 30.12875,0 c 1.47125,0 2.7025,-1.02625 3.0175,-2.4 l 3.9925,-17.29625 -3.19875,0" style="fill:#000;fill-opacity:1;fill-rule:nonzero;stroke:none"/>
</svg>
