<?xml version='1.0' encoding='UTF-8' standalone='no'?>
<svg xmlns:cc="http://creativecommons.org/ns#" xmlns:dc="http://purl.org/dc/elements/1.1/" height="60.601002" xmlns:rdf="http://www.w3.org/1999/02/22-rdf-syntax-ns#" xmlns:svg="http://www.w3.org/2000/svg" version="1.1" viewBox="0 0 60.601004 60.601004" width="60.601002" xmlns="http://www.w3.org/2000/svg">
  <defs/>
  <metadata>
    <rdf:RDF>
      <cc:Work rdf:about="">
        <dc:format>image/svg+xml</dc:format>
        <dc:type rdf:resource="http://purl.org/dc/dcmitype/StillImage"/>
        <dc:title>水飲み場; Water fountain</dc:title>
        <dc:source>http://www.ecomo.or.jp/barrierfree/pictogram/data/zukigo_panfu_jis110.pdf</dc:source>
      </cc:Work>
    </rdf:RDF>
  </metadata>
  <path d="m 7.7842527,56.032378 c -1.77625,0 -3.215,-1.44 -3.215,-3.2175 l 0,-45.0300003 c 0,-1.77625 1.43875,-3.21625 3.215,-3.21625 l 45.0312503,0 c 1.77625,0 3.21625,1.44 3.21625,3.21625 l 0,45.0300003 c 0,1.7775 -1.44,3.2175 -3.21625,3.2175 l -45.0312503,0 z" style="fill:#ffffff;fill-opacity:1;stroke:#000;stroke-width:0.60625005;stroke-linecap:butt;stroke-linejoin:miter;stroke-miterlimit:4;stroke-dasharray:none;stroke-opacity:1"/>
  <path d="m 35.204255,20.951126 c -0.27,-0.06875 -0.54625,0.09375 -0.61625,0.365 -0.06875,0.27125 0.09375,0.54625 0.365,0.61625 0.27125,0.07 0.5475,-0.09375 0.61625,-0.36375 0.07,-0.27125 -0.09375,-0.5475 -0.365,-0.6175" style="fill:#000;fill-opacity:1;fill-rule:nonzero;stroke:none"/>
  <path d="m 36.096755,19.519876 c -0.225,-0.165 -0.54125,-0.1175 -0.7075,0.1075 -0.16625,0.225 -0.1175,0.5425 0.1075,0.70875 0.225,0.165 0.5425,0.11875 0.70875,-0.1075 0.165,-0.225 0.11625,-0.54125 -0.10875,-0.70875" style="fill:#000;fill-opacity:1;fill-rule:nonzero;stroke:none"/>
  <path d="m 42.706755,18.783626 c -0.34,-0.15625 -0.74,-0.0075 -0.89625,0.3325 -0.15625,0.33875 -0.0075,0.73875 0.33125,0.895 0.34,0.15625 0.74,0.0075 0.895,-0.33125 0.15625,-0.33875 0.0075,-0.74 -0.33,-0.89625" style="fill:#000;fill-opacity:1;fill-rule:nonzero;stroke:none"/>
  <path d="m 40.684255,17.737376 c -0.3525,0.03125 -0.6125,0.34375 -0.58,0.6975 0.0325,0.35125 0.34625,0.61125 0.6975,0.58 0.3525,-0.0325 0.61375,-0.345 0.58125,-0.6975 -0.0325,-0.35375 -0.345,-0.61375 -0.69875,-0.58" style="fill:#000;fill-opacity:1;fill-rule:nonzero;stroke:none"/>
  <path d="m 38.768005,17.566126 c -0.3325,0.04875 -0.5625,0.35625 -0.515,0.68875 0.0475,0.3325 0.3575,0.5625 0.69,0.515 0.33125,-0.0475 0.5625,-0.35625 0.51375,-0.68875 -0.04875,-0.3325 -0.35625,-0.5625 -0.68875,-0.515" style="fill:#000;fill-opacity:1;fill-rule:nonzero;stroke:none"/>
  <path d="m 37.005505,18.182376 c -0.3125,0.0575 -0.51875,0.35625 -0.46125,0.66875 0.0575,0.31125 0.35625,0.5175 0.66875,0.46 0.31125,-0.0575 0.5175,-0.35625 0.46,-0.66875 -0.0575,-0.31125 -0.3575,-0.5175 -0.6675,-0.46" style="fill:#000;fill-opacity:1;fill-rule:nonzero;stroke:none"/>
  <path d="m 34.883005,22.612376 c -0.255,0.05 -0.4225,0.29875 -0.37125,0.555 0.05,0.25625 0.29875,0.4225 0.55375,0.3725 0.25625,-0.05 0.42375,-0.29875 0.37375,-0.555 -0.05,-0.25625 -0.29875,-0.42375 -0.55625,-0.3725" style="fill:#000;fill-opacity:1;fill-rule:nonzero;stroke:none"/>
  <path d="m 32.695505,24.188626 0,1.57 c 0,0.77 0.33875,1.46125 0.87375,1.9325 l 7.76375,6.46875 4.2275,0 0,-9.97125 -12.865,0" style="fill:#000;fill-opacity:1;fill-rule:nonzero;stroke:none"/>
  <path d="m 33.636755,12.132376 c -1.775,-0.0625 -3.265,1.32625 -3.32625,3.10125 -0.0625,1.775 1.32625,3.26375 3.10125,3.325 1.775,0.0625 3.265,-1.32625 3.32625,-3.1 0.0625,-1.775 -1.32625,-3.265 -3.10125,-3.32625" style="fill:#000;fill-opacity:1;fill-rule:nonzero;stroke:none"/>
  <path d="m 30.765505,20.651126 c 0,-1.98 -0.895,-3.75 -2.3025,-4.93 -0.08375,-0.0675 -0.18875,-0.1075 -0.30375,-0.1075 -0.11,0 -0.21,0.03625 -0.29125,0.09625 l -11.20375,8.4425 c -0.97125,0.73375 -1.6,1.89875 -1.6,3.21 0,0.23875 0.02125,0.47125 0.06125,0.69875 l 3.74,21.21375 3.5375,0 0,-21.0925 4.83375,-2.82 0.2525,2.2275 c 0.09125,0.7725 0.52375,1.44125 1.14375,1.8475 l 4.32375,2.80625 2.21375,-1.2825 -4.405,-3.6975 0,-6.6125" style="fill:#000;fill-opacity:1;fill-rule:nonzero;stroke:none"/>
</svg>
