<?xml version='1.0' encoding='UTF-8' standalone='no'?>
<svg xmlns:cc="http://creativecommons.org/ns#" xmlns:dc="http://purl.org/dc/elements/1.1/" height="60.601002" xmlns:rdf="http://www.w3.org/1999/02/22-rdf-syntax-ns#" xmlns:svg="http://www.w3.org/2000/svg" version="1.1" viewBox="0 0 60.601004 60.601004" width="60.601002" xmlns="http://www.w3.org/2000/svg">
  <title>高齢者優先設備; Priority facilities for elderly people</title>
  <defs/>
  <metadata>
    <rdf:RDF>
      <cc:Work rdf:about="">
        <dc:format>image/svg+xml</dc:format>
        <dc:type rdf:resource="http://purl.org/dc/dcmitype/StillImage"/>
        <dc:title>高齢者優先設備; Priority facilities for elderly people</dc:title>
        <dc:source>http://www.ecomo.or.jp/barrierfree/pictogram/data/zukigo_panfu_jis110.pdf</dc:source>
      </cc:Work>
    </rdf:RDF>
  </metadata>
  <path d="m 55.766128,52.584253 c 0,1.7575 -1.425,3.1825 -3.1825,3.1825 l -44.5662503,0 c -1.7575,0 -3.1825,-1.425 -3.1825,-3.1825 l 0,-44.5662503 c 0,-1.75875 1.425,-3.18375 3.1825,-3.18375 l 44.5662503,0 c 1.7575,0 3.1825,1.425 3.1825,3.18375 l 0,44.5662503 z" style="fill:#ffffff;stroke:#000;stroke-width:0.60625005;stroke-linecap:butt;stroke-linejoin:miter;stroke-miterlimit:4;stroke-dasharray:none;stroke-opacity:1;fill-opacity:1"/>
  <path d="m 30.292378,14.836751 c 1.75875,0 3.18375,-1.425 3.18375,-3.18375 0,-1.7575003 -1.425,-3.1825003 -3.18375,-3.1825003 -1.7575,0 -3.1825,1.425 -3.1825,3.1825003 0,1.75875 1.425,3.18375 3.1825,3.18375" style="fill:#000;fill-opacity:1;fill-rule:nonzero;stroke:none"/>
  <path d="m 20.902372,31.066752 c -1.40625,0 -2.5475,1.14125 -2.5475,2.5475 l 0,17.82625 0.95625,0 0,-17.82625 c 0,-0.87875 0.7125,-1.5925 1.59125,-1.5925 0.87875,0 1.59125,0.71375 1.59125,1.5925 l 0,1.5925 0.955,0 0,-1.5925 c 0,-1.40625 -1.14,-2.5475 -2.54625,-2.5475" style="fill:#000;fill-opacity:1;fill-rule:nonzero;stroke:none"/>
  <path d="m 34.151128,16.076751 c -1.25875,-0.18875 -2.5475,-0.28375 -3.85875,-0.28375 -1.31,0 -2.59875,0.095 -3.8575,0.28375 -1.96,0.2925 -3.445,1.77625 -3.8325,3.6075 l -2.285,10.7475 2.66125,0 1.79875,-6.71625 1.695,27.72875 3.3425,0 0,-17.18875 0.955,0 0,17.18875 3.3425,0 1.15,-18.78625 1.9925,0 0.8175,-11.6925 c 0.17,-2.38125 -1.51875,-4.53 -3.92125,-4.88875" style="fill:#000;fill-opacity:1;fill-rule:nonzero;stroke:none"/>
</svg>
