<?xml version='1.0' encoding='UTF-8' standalone='no'?>
<svg xmlns:cc="http://creativecommons.org/ns#" xmlns:dc="http://purl.org/dc/elements/1.1/" height="60.601002" xmlns:osb="http://www.openswatchbook.org/uri/2009/osb" xmlns:rdf="http://www.w3.org/1999/02/22-rdf-syntax-ns#" xmlns:svg="http://www.w3.org/2000/svg" version="1.1" viewBox="0 0 60.601004 60.601004" width="60.601002" xmlns="http://www.w3.org/2000/svg">
  <title>障害のある人・けが人優先設備; Priority facilities for injured people</title>
  <defs>
    <linearGradient osb:paint="solid">
      <stop offset="0" style="stop-color:#000000;stop-opacity:1;"/>
    </linearGradient>
  </defs>
  <metadata>
    <rdf:RDF>
      <cc:Work rdf:about="">
        <dc:format>image/svg+xml</dc:format>
        <dc:type rdf:resource="http://purl.org/dc/dcmitype/StillImage"/>
        <dc:title>障害のある人・けが人優先設備; Priority facilities for injured people</dc:title>
        <dc:source>http://www.ecomo.or.jp/barrierfree/pictogram/data/zukigo_panfu_jis110.pdf</dc:source>
      </cc:Work>
    </rdf:RDF>
  </metadata>
  <path d="m 7.7848777,56.032378 c -1.775,0 -3.21625,-1.44125 -3.21625,-3.21875 l 0,-45.0275003 c 0,-1.77625 1.44125,-3.2175 3.21625,-3.2175 l 45.0287503,0 c 1.7775,0 3.21875,1.44125 3.21875,3.2175 l 0,45.0275003 c 0,1.7775 -1.44125,3.21875 -3.21875,3.21875 l -45.0287503,0 z" style="fill:#ffffff;stroke:#000;stroke-width:0.60625005;stroke-linecap:butt;stroke-linejoin:miter;stroke-miterlimit:4;stroke-dasharray:none;stroke-opacity:1;fill-opacity:1"/>
  <path d="m 30.29363,14.671126 c 1.775,0 3.215,-1.44 3.215,-3.21625 0,-1.7762503 -1.44,-3.2150003 -3.215,-3.2150003 -1.77625,0 -3.21625,1.43875 -3.21625,3.2150003 0,1.77625 1.44,3.21625 3.21625,3.21625" style="fill:#000;fill-opacity:1;fill-rule:nonzero;stroke:none"/>
  <path d="m 23.044879,36.574877 -2.3875,-3.68375 c -0.17375,-0.26875 -0.27125,-0.59 -0.25875,-0.93125 l 0.2925,-8.01125 1.4875,0.1025 -0.29625,8.49375 1.435,0.12625 -0.2725,3.90375 z m 11.03,-20.65 c -1.2725,-0.19125 -2.57375,-0.2875 -3.89875,-0.2875 -1.325,0 -2.6275,0.09625 -3.89875,0.2875 -2.26,0.33625 -3.895,2.24375 -3.97,4.44875 l -0.0775,2.23 -3.99125,-0.275 -0.0225,0.32 c -0.04375,0.62125 0.42375,1.15875 1.04375,1.20125 l 0.46875,0.0325 -0.295,8.0425 c -0.01875,0.55 0.13625,1.065 0.41375,1.49125 l 3.08625,4.75625 -0.94125,13.4625 0.96625,0 1.915,-27.39625 0.90875,0.0625 c 0.62125,0.045 1.15875,-0.42375 1.20125,-1.0425 l 0.02375,-0.32125 -2.0325,-0.14125 0.055,-0.80125 2.83375,0.1975 -0.0775,1.1225 c -0.03625,0.51375 -0.27,0.9825 -0.6575,1.32125 -0.39125,0.33875 -0.8875,0.50375 -1.4025,0.46875 l -0.10625,-0.0075 -0.495,7.08375 1.19125,19.47625 3.3775,0 0,-17.3675 0.965,0 0,17.3675 3.37625,0 1.16125,-18.98 2.01375,0 0.82625,-11.81375 c 0.17125,-2.4075 -1.53625,-4.57625 -3.96125,-4.93875" style="fill:#000;fill-opacity:1;fill-rule:nonzero;stroke:none"/>
</svg>
