<?xml version='1.0' encoding='UTF-8' standalone='no'?>
<svg xmlns:cc="http://creativecommons.org/ns#" xmlns:dc="http://purl.org/dc/elements/1.1/" height="60.601002" xmlns:rdf="http://www.w3.org/1999/02/22-rdf-syntax-ns#" xmlns:svg="http://www.w3.org/2000/svg" version="1.1" viewBox="0 0 60.601004 60.601004" width="60.601002" xmlns="http://www.w3.org/2000/svg">
  <title>内部障害のある人優先設備; Priority facilities for people with internal disabilities, heart pacer, etc.</title>
  <defs/>
  <metadata>
    <rdf:RDF>
      <cc:Work rdf:about="">
        <dc:format>image/svg+xml</dc:format>
        <dc:type rdf:resource="http://purl.org/dc/dcmitype/StillImage"/>
        <dc:title>内部障害のある人優先設備; Priority facilities for people with internal disabilities, heart pacer, etc.</dc:title>
        <dc:source>http://www.ecomo.or.jp/barrierfree/pictogram/data/zukigo_panfu_jis110.pdf</dc:source>
      </cc:Work>
    </rdf:RDF>
  </metadata>
  <path d="m 8.0998777,55.673003 c -1.75125,0 -3.17125,-1.42 -3.17125,-3.1725 l 0,-44.4012503 c 0,-1.75125 1.42,-3.17125 3.17125,-3.17125 l 44.4012503,0 c 1.75125,0 3.17125,1.42 3.17125,3.17125 l 0,44.4012503 c 0,1.7525 -1.42,3.1725 -3.17125,3.1725 l -44.4012503,0 z" style="fill:none;stroke:#000;stroke-width:0.60625005;stroke-linecap:butt;stroke-linejoin:miter;stroke-miterlimit:4;stroke-dasharray:none;stroke-opacity:1"/>
  <path d="m 8.0998777,55.673003 c -1.75125,0 -3.17125,-1.42 -3.17125,-3.1725 l 0,-44.4012503 c 0,-1.75125 1.42,-3.17125 3.17125,-3.17125 l 44.4012503,0 c 1.75125,0 3.17125,1.42 3.17125,3.17125 l 0,44.4012503 c 0,1.7525 -1.42,3.1725 -3.17125,3.1725 l -44.4012503,0 z" style="fill:#ffffff;stroke:#000;stroke-width:0.60625005;stroke-linecap:butt;stroke-linejoin:miter;stroke-miterlimit:4;stroke-dasharray:none;stroke-opacity:1"/>
  <path d="m 34.13613,16.135501 c -1.2525,-0.1875 -2.53625,-0.28375 -3.8425,-0.28375 -1.30625,0 -2.59,0.09625 -3.84375,0.28375 -2.3925,0.3575 -4.075,2.4975 -3.9075,4.87 l 0.81625,11.64875 1.985,0 1.14375,18.7125 3.33,0 0,-17.1225 0.95125,0 0,17.1225 3.33,0 1.14375,-18.7125 1.98625,0 0.815,-11.64875 c 0.16875,-2.3725 -1.515,-4.5125 -3.9075,-4.87" style="fill:#000;fill-opacity:1;fill-rule:nonzero;stroke:none"/>
  <path d="m 30.29363,27.128001 c 2.10625,-1.0725 4.595,-3.495 4.595,-6.12375 0,-1.32375 -1.0725,-2.39625 -2.39625,-2.39625 -0.98375,0 -1.82625,0.5925 -2.19875,1.43875 -0.3725,-0.84625 -1.21625,-1.43875 -2.19875,-1.43875 -1.32375,0 -2.39625,1.0725 -2.39625,2.39625 0,2.62875 2.48875,5.05125 4.595,6.12375" style="fill:#ffffff;fill-opacity:1;fill-rule:nonzero;stroke:none"/>
  <path d="m 30.29363,14.891751 c 1.75125,0 3.17125,-1.42 3.17125,-3.17125 0,-1.7500003 -1.42,-3.1700003 -3.17125,-3.1700003 -1.75125,0 -3.17125,1.42 -3.17125,3.1700003 0,1.75125 1.42,3.17125 3.17125,3.17125" style="fill:#000;fill-opacity:1;fill-rule:nonzero;stroke:none"/>
  <path d="m 29.283629,22.094251 1.48,0 0,-1.48 1.26875,0 0,1.48 1.48,0 0,1.26875 -1.48,0 0,1.48 -1.26875,0 0,-1.48 -1.48,0 0,-1.26875" style="fill:#000;fill-opacity:1;fill-rule:nonzero;stroke:none"/>
</svg>
