<?xml version='1.0' encoding='UTF-8' standalone='no'?>
<svg xmlns:cc="http://creativecommons.org/ns#" xmlns:dc="http://purl.org/dc/elements/1.1/" height="60.601002" xmlns:rdf="http://www.w3.org/1999/02/22-rdf-syntax-ns#" xmlns:svg="http://www.w3.org/2000/svg" version="1.1" viewBox="0 0 60.601004 60.601004" width="60.601002" xmlns="http://www.w3.org/2000/svg">
  <title>乳幼児連れ優先設備; Priority facilities for people accompanied with small children</title>
  <defs/>
  <metadata>
    <rdf:RDF>
      <cc:Work rdf:about="">
        <dc:format>image/svg+xml</dc:format>
        <dc:type rdf:resource="http://purl.org/dc/dcmitype/StillImage"/>
        <dc:title>乳幼児連れ優先設備; Priority facilities for people accompanied with small children</dc:title>
        <dc:source>http://www.ecomo.or.jp/barrierfree/pictogram/data/zukigo_panfu_jis110.pdf</dc:source>
      </cc:Work>
    </rdf:RDF>
  </metadata>
  <path d="m 55.673003,52.502378 c -0.0012,1.75125 -1.42,3.17125 -3.17125,3.17125 l -44.4012503,0 c -1.7525,0 -3.1725,-1.42 -3.1725,-3.17125 l 0,-44.4025003 c 0,-1.75125 1.42,-3.1725 3.1725,-3.1725 l 44.4012503,0 c 1.75125,0 3.17125,1.42125 3.17125,3.1725 l 0,44.4025003 z" style="fill:#ffffff;stroke:#000;stroke-width:0.60625005;stroke-linecap:butt;stroke-linejoin:miter;stroke-miterlimit:4;stroke-dasharray:none;stroke-opacity:1"/>
  <path d="m 34.145502,16.117376 c -1.25625,-0.1875 -2.54125,-0.28375 -3.84875,-0.28375 -1.31,0 -2.59875,0.1 -3.8575,0.28625 -2.5075,0.3725 -4.23125,2.72 -3.85625,5.22875 0.005,0.04 0.0125,0.08 0.02125,0.11875 l 0.70875,4.02375 c 0.11,0.63125 0.53125,1.15375 1.1,1.4075 l 4.72125,2.1025 -0.33375,0.71875 -3.7325,-1.66125 1.4225,23.30875 3.3325,0 0,-17.13375 0.95,0 0,17.13375 3.33375,0 1.37,-23.495 0.325,0 c 0.98,0 1.78625,-0.73875 1.8925,-1.69 l 0.3575,-5.1925 c 0.17,-2.37375 -1.515,-4.515 -3.90625,-4.8725" style="fill:#000;fill-opacity:1;fill-rule:nonzero;stroke:none"/>
  <path d="m 30.296752,14.882376 c 1.75375,0 3.17375,-1.42125 3.17375,-3.17375 0,-1.7512503 -1.42,-3.1725003 -3.17375,-3.1725003 -1.75125,0 -3.17125,1.42125 -3.17125,3.1725003 0,1.7525 1.42,3.17375 3.17125,3.17375" style="fill:#000;fill-opacity:1;fill-rule:nonzero;stroke:none"/>
  <path d="m 29.238001,19.306126 c 0,-1.08125 -0.8775,-1.95875 -1.95875,-1.95875 -1.08125,0 -1.9575,0.8775 -1.9575,1.95875 0,1.08125 0.87625,1.9575 1.9575,1.9575 1.08125,0 1.95875,-0.87625 1.95875,-1.9575" style="fill:#ffffff;fill-opacity:1;fill-rule:nonzero;stroke:none"/>
  <path d="m 32.279252,24.461126 c -0.16875,-0.0775 -0.355,-0.11875 -0.555,-0.11625 -0.24125,0.005 -0.465,0.0725 -0.66,0.18875 l -0.96625,0.57625 -0.4925,-1.7275 c 0.9275,-0.49 1.74375,-1.1575 2.40375,-1.9575 l -1.10625,-1.0675 c -0.91875,0.81375 -2.06875,1.37875 -3.34625,1.58375 -0.52875,0.08625 -1.0025,0.2575 -1.26125,0.44875 -0.1275,0.1025 -0.21,0.23125 -0.21,0.395 0,0.0275 0.0012,0.055 0.0062,0.08125 l 0.3025,1.70625 4.84875,2.7975 0.77875,-0.80625 2.15125,0.53875 0,-1.78875 -1.89375,-0.8525" style="fill:#ffffff;fill-opacity:1;fill-rule:nonzero;stroke:none"/>
</svg>
