<?xml version='1.0' encoding='UTF-8' standalone='no'?>
<svg xmlns:cc="http://creativecommons.org/ns#" xmlns:dc="http://purl.org/dc/elements/1.1/" height="60.601002" xmlns:rdf="http://www.w3.org/1999/02/22-rdf-syntax-ns#" xmlns:svg="http://www.w3.org/2000/svg" version="1.1" viewBox="0 0 60.601004 60.601004" width="60.601002" xmlns="http://www.w3.org/2000/svg">
  <title>妊産婦優先設備; Priority facilities for expecting mothers</title>
  <defs/>
  <metadata>
    <rdf:RDF>
      <cc:Work rdf:about="">
        <dc:format>image/svg+xml</dc:format>
        <dc:type rdf:resource="http://purl.org/dc/dcmitype/StillImage"/>
        <dc:title>妊産婦優先設備; Priority facilities for expecting mothers</dc:title>
        <dc:source>http://www.ecomo.or.jp/barrierfree/pictogram/data/zukigo_panfu_jis110.pdf</dc:source>
      </cc:Work>
    </rdf:RDF>
  </metadata>
  <path d="m 8.1005007,55.673003 c -1.7525,0 -3.1725,-1.42 -3.1725,-3.17125 l 0,-44.4025003 c 0,-1.75125 1.42,-3.17125 3.1725,-3.17125 l 44.4012503,0 c 1.75125,0 3.17125,1.42 3.17125,3.17125 l 0,44.4025003 c 0,1.75125 -1.42,3.17125 -3.17125,3.17125 l -44.4012503,0 z" style="fill:none;stroke:#000;stroke-width:0.60625005;stroke-linecap:butt;stroke-linejoin:miter;stroke-miterlimit:4;stroke-dasharray:none;stroke-opacity:1"/>
  <path d="m 55.673005,52.500503 c 0,1.7525 -1.41875,3.1725 -3.17125,3.1725 l -44.4012503,0 c -1.75125,0 -3.1725,-1.42 -3.1725,-3.1725 l 0,-44.4012503 c 0,-1.75125 1.42125,-3.17125 3.1725,-3.17125 l 44.4012503,0 c 1.7525,0 3.17125,1.42 3.17125,3.17125 l 0,44.4012503 z" style="fill:#ffffff;stroke:#000;stroke-width:0.60625005;stroke-linecap:butt;stroke-linejoin:miter;stroke-miterlimit:4;stroke-dasharray:none;stroke-opacity:1"/>
  <path d="m 30.298003,14.896755 c 1.75,0 3.16875,-1.42 3.16875,-3.17125 0,-1.7500003 -1.41875,-3.1712503 -3.16875,-3.1712503 -1.7525,0 -3.1725,1.42125 -3.1725,3.1712503 0,1.75125 1.42,3.17125 3.1725,3.17125" style="fill:#000;fill-opacity:1;fill-rule:nonzero;stroke:none"/>
  <path d="m 39.621753,29.391755 c 0,-3.22 -2.34,-5.89 -5.41125,-6.40875 l 0,-2.22 0.7925,0 0,1.58125 c 1.11125,0.29625 2.11625,0.84875 2.9525,1.58875 l -0.3225,-3.67375 c -0.15875,-1.83625 -1.46,-3.4525 -3.34875,-3.92375 -1.27625,-0.3175 -2.6125,-0.4875 -3.98625,-0.4875 -1.37625,0 -2.7125,0.17125 -3.98875,0.4875 -1.2175,0.3025 -2.18875,1.0825 -2.77,2.09 l -2.6225,4.5425 c -0.14875,0.25625 -0.23625,0.55375 -0.23625,0.87125 0,0.64625 0.3525,1.2075 0.87375,1.51 l 3.1775,1.83375 c -1.3475,3.71375 -2.0825,7.72125 -2.0825,11.90125 0,0.93 0.03625,1.8525 0.1075,2.765 l 5.1125,0 0.8325,9.5175 3.19,0 0.8325,-9.5175 4.94,0 c -0.18,-7.03125 1.9575,-9.26625 1.9575,-12.4575 z m -14.0725,-7.87125 0.28,3.19875 c -0.03125,0.07 -0.06375,0.14 -0.095,0.21 l -1.72625,-1.20875 1.54125,-2.2" style="fill:#000;fill-opacity:1;fill-rule:nonzero;stroke:none"/>
</svg>
