<?xml version='1.0' encoding='UTF-8' standalone='no'?>
<svg xmlns:cc="http://creativecommons.org/ns#" xmlns:dc="http://purl.org/dc/elements/1.1/" height="60.601002" xmlns:rdf="http://www.w3.org/1999/02/22-rdf-syntax-ns#" xmlns:svg="http://www.w3.org/2000/svg" version="1.1" viewBox="0 0 60.601004 60.601004" width="60.601002" xmlns="http://www.w3.org/2000/svg">
  <title>障害のある人・けが人優先席; Priority seats for injured people</title>
  <defs/>
  <metadata>
    <rdf:RDF>
      <cc:Work rdf:about="">
        <dc:format>image/svg+xml</dc:format>
        <dc:type rdf:resource="http://purl.org/dc/dcmitype/StillImage"/>
        <dc:title>障害のある人・けが人優先席; Priority seats for injured people</dc:title>
        <dc:source>http://www.ecomo.or.jp/barrierfree/pictogram/data/zukigo_panfu_jis110.pdf</dc:source>
      </cc:Work>
    </rdf:RDF>
  </metadata>
  <path d="m 7.9498777,55.844878 c -1.76375,0 -3.19375,-1.43 -3.19375,-3.1925 l 0,-44.7037503 c 0,-1.76125 1.43,-3.1925 3.19375,-3.1925 l 44.7012503,0 c 1.76375,0 3.19375,1.43125 3.19375,3.1925 l 0,44.7037503 c 0,1.7625 -1.43,3.1925 -3.19375,3.1925 l -44.7012503,0 z" style="fill:#ffffff;stroke:#000;stroke-width:0.60625005;stroke-linecap:butt;stroke-linejoin:miter;stroke-miterlimit:4;stroke-dasharray:none;stroke-opacity:1;fill-opacity:1"/>
  <path d="m 22.257379,19.47988 c 1.76375,0 3.19375,-1.42875 3.19375,-3.1925 0,-1.76375 -1.43,-3.1925 -3.19375,-3.1925 -1.76375,0 -3.1925,1.42875 -3.1925,3.1925 0,1.76375 1.42875,3.1925 3.1925,3.1925" style="fill:#000;fill-opacity:1;fill-rule:nonzero;stroke:none"/>
  <path d="m 18.168629,38.099881 0,1.945 11.495001,0 0,-1.945 -11.495001,0 z" style="fill:#000;fill-opacity:1;fill-rule:nonzero;stroke:none"/>
  <path d="m 40.02363,29.892381 -1.62625,2.325 -1.6275,-2.3225 c -0.18125,-0.26 -0.29,-0.575 -0.29,-0.91625 l 0,-9.4875 3.8325,0 0,9.4875 c 0,0.34125 -0.1075,0.65625 -0.28875,0.91375 z m 2.205,-11.51875 0,-0.47875 -7.66375,0 0,0.47875 c 0,0.56375 0.41625,1.0275 0.9575,1.10625 l 0,9.49875 c 0,0.54375 0.1725,1.04875 0.4625,1.46375 l 1.9325,2.76125 0,14.265 0.95875,0 0,-14.265 1.9325,-2.76125 c 0.29,-0.415 0.4625,-0.92 0.4625,-1.46375 l 0,-9.49875 c 0.54125,-0.07875 0.9575,-0.5425 0.9575,-1.10625" style="fill:#000;fill-opacity:1;fill-rule:nonzero;stroke:none"/>
  <path d="m 33.12113,31.634881 -5.61125,-0.4925 -0.39125,-3.7225 c 0.16375,0.02875 0.3325,0.045 0.50375,0.045 0.085,0 0.16875,-0.0025 0.25,-0.0088 l 6.8925,-0.61375 0,-2.3325 -6.76,0 -3.59625,-2.81125 c -1.165,-0.91125 -2.63125,-1.45625 -4.225,-1.45625 -0.31625,0 -0.6275,0.02375 -0.9325,0.06375 -0.2325,0.0325 -0.4125,0.2325 -0.4125,0.47375 0,0.02875 0.0038,0.05625 0.0075,0.0825 l 2.255,12.7925 c 0.315,1.8 1.88375,3.16625 3.7725,3.16625 l 5.8725,0 2.22875,10.6475 3.5125,0 -1.18125,-13.63125 c -0.08875,-1.17 -1.0175,-2.105 -2.185,-2.2025" style="fill:#000;fill-opacity:1;fill-rule:nonzero;stroke:none"/>
</svg>
