<?xml version='1.0' encoding='UTF-8' standalone='no'?>
<svg xmlns:cc="http://creativecommons.org/ns#" xmlns:dc="http://purl.org/dc/elements/1.1/" height="60.601002" xmlns:rdf="http://www.w3.org/1999/02/22-rdf-syntax-ns#" xmlns:svg="http://www.w3.org/2000/svg" version="1.1" viewBox="0 0 60.601004 60.601004" width="60.601002" xmlns="http://www.w3.org/2000/svg">
  <title>乳幼児連れ優先席; Priority seats for people accompanied with small children</title>
  <defs/>
  <metadata>
    <rdf:RDF>
      <cc:Work rdf:about="">
        <dc:format>image/svg+xml</dc:format>
        <dc:type rdf:resource="http://purl.org/dc/dcmitype/StillImage"/>
        <dc:title>乳幼児連れ優先席; Priority seats for people accompanied with small children</dc:title>
        <dc:source>http://www.ecomo.or.jp/barrierfree/pictogram/data/zukigo_panfu_jis110.pdf</dc:source>
      </cc:Work>
    </rdf:RDF>
  </metadata>
  <path d="m 7.9498777,55.844878 c -1.76375,0 -3.19375,-1.43125 -3.19375,-3.195 l 0,-44.7012503 c 0,-1.7625 1.43,-3.1925 3.19375,-3.1925 l 44.7012503,0 c 1.76375,0 3.19375,1.43 3.19375,3.1925 l 0,44.7012503 c 0,1.76375 -1.43,3.195 -3.19375,3.195 l -44.7012503,0 z" style="fill:#ffffff;stroke:#000;stroke-width:0.60625005;stroke-linecap:butt;stroke-linejoin:miter;stroke-miterlimit:4;stroke-dasharray:none;stroke-opacity:1"/>
  <path d="m 24.681128,19.478626 c 1.76375,0 3.19375,-1.4275 3.19375,-3.1925 0,-1.76375 -1.43,-3.19125 -3.19375,-3.19125 -1.76375,0 -3.1925,1.4275 -3.1925,3.19125 0,1.765 1.42875,3.1925 3.1925,3.1925" style="fill:#000;fill-opacity:1;fill-rule:nonzero;stroke:none"/>
  <path d="m 20.591128,38.099877 0,1.946125 11.495001,0 0,-1.946125 -11.495001,0 z" style="fill:#000;fill-opacity:1;fill-rule:nonzero;stroke:none"/>
  <path d="m 32.399879,22.839876 c 1.14625,0 2.075,-0.92875 2.075,-2.075 0,-1.14625 -0.92875,-2.0775 -2.075,-2.0775 -1.14625,0 -2.075,0.93125 -2.075,2.0775 0,1.14625 0.92875,2.075 2.075,2.075" style="fill:#000;fill-opacity:1;fill-rule:nonzero;stroke:none"/>
  <path d="m 37.728629,33.837377 c -0.0875,-1.1675 -1.0175,-2.10375 -2.185,-2.2025 l -5.61,-0.4925 -0.5,-4.75375 c -0.35875,-3.455 -3.27875,-6.1475 -6.8275,-6.1475 -0.31625,0 -0.6275,0.02375 -0.9325,0.06625 -0.2325,0.03125 -0.41375,0.23 -0.41375,0.47125 0,0.02875 0.005,0.0575 0.0087,0.08375 l 2.255,12.7925 c 0.315,1.8 1.88375,3.16625 3.7725,3.16625 l 5.87375,0 2.2275,10.6475 3.5125,0 -1.18125,-13.63125" style="fill:#000;fill-opacity:1;fill-rule:nonzero;stroke:none"/>
  <path d="m 30.629879,28.563626 c 0.10375,0.99375 0.91375,1.78 1.92,1.85125 l 2.43375,0.21125 2.43875,0.9325 0.88125,-1.58625 -2.375,-1.42125 c -0.34,-0.2125 -0.72375,-0.365 -1.13375,-0.435 l -0.715,-0.12875 0,-1.31625 2.1975,0.8 0.72875,-1.2625 -4.3675,-2.52375 c -0.42125,-0.24125 -0.91125,-0.38125 -1.4325,-0.38125 -0.2975,0 -0.58625,0.0475 -0.85625,0.1325 -0.13,0.04 -0.225,0.16125 -0.225,0.3025 0,0.0125 0,0.02375 0.0012,0.03375 l 0.50375,4.79125" style="fill:#000;fill-opacity:1;fill-rule:nonzero;stroke:none"/>
</svg>
