<?xml version='1.0' encoding='UTF-8' standalone='no'?>
<svg xmlns:cc="http://creativecommons.org/ns#" xmlns:dc="http://purl.org/dc/elements/1.1/" height="60.601002" xmlns:rdf="http://www.w3.org/1999/02/22-rdf-syntax-ns#" xmlns:svg="http://www.w3.org/2000/svg" version="1.1" viewBox="0 0 60.601004 60.601004" width="60.601002" xmlns="http://www.w3.org/2000/svg">
  <title>妊産婦優先席; Priority seats for expecting mothers</title>
  <defs/>
  <metadata>
    <rdf:RDF>
      <cc:Work rdf:about="">
        <dc:format>image/svg+xml</dc:format>
        <dc:type rdf:resource="http://purl.org/dc/dcmitype/StillImage"/>
        <dc:title>妊産婦優先席; Priority seats for expecting mothers</dc:title>
        <dc:source>http://www.ecomo.or.jp/barrierfree/pictogram/data/zukigo_panfu_jis110.pdf</dc:source>
      </cc:Work>
    </rdf:RDF>
  </metadata>
  <path d="m 7.9498777,55.844878 c -1.76375,0 -3.19375,-1.43125 -3.19375,-3.195 l 0,-44.7012503 c 0,-1.7625 1.43,-3.1925 3.19375,-3.1925 l 44.7012503,0 c 1.76375,0 3.19375,1.43 3.19375,3.1925 l 0,44.7012503 c 0,1.76375 -1.43,3.195 -3.19375,3.195 l -44.7012503,0 z" style="fill:#ffffff;stroke:#000;stroke-width:0.60625005;stroke-linecap:butt;stroke-linejoin:miter;stroke-miterlimit:4;stroke-dasharray:none;stroke-opacity:1"/>
  <path d="m 20.591129,38.099877 0,1.94625 11.495126,0 0,-1.94625 -11.495126,0 z" style="fill:#000;fill-opacity:1;fill-rule:nonzero;stroke:none"/>
  <path d="m 23.804879,19.301126 c 1.75375,-0.185 3.02625,-1.7575 2.8425,-3.51 -0.185,-1.75375 -1.75625,-3.02625 -3.51,-2.84125 -1.75375,0.185 -3.02625,1.755 -2.8425,3.51 0.185,1.7525 1.75625,3.02375 3.51,2.84125" style="fill:#000;fill-opacity:1;fill-rule:nonzero;stroke:none"/>
  <path d="m 33.35988,36.823627 0,1.95875 0.8475,-0.11625 2.67125,8.8025 3.19375,0 -1.6575,-9.395 1.33,-0.1875 -2.315,-4.965 c -0.33,-0.70625 -1.01625,-1.21 -1.8275,-1.28125 l -0.30375,-0.02625 c 0.02875,-0.25375 0.04375,-0.51125 0.04375,-0.77 0,-3.65375 -2.925,-6.6325 -6.5575,-6.7275 -1.1125,-2.2925 -3.46,-3.875 -6.17875,-3.875 -0.31625,0 -0.6275,0.02375 -0.9325,0.06625 -0.2325,0.03125 -0.4125,0.23 -0.4125,0.47125 0,0.03125 0.0038,0.0575 0.0087,0.08375 l 2.25375,12.795 c 0.315,1.7975 1.88375,3.16625 3.7725,3.16625 l 6.06375,0" style="fill:#000;fill-opacity:1;fill-rule:nonzero;stroke:none"/>
</svg>
