<?xml version='1.0' encoding='UTF-8' standalone='no'?>
<svg xmlns:cc="http://creativecommons.org/ns#" xmlns:dc="http://purl.org/dc/elements/1.1/" height="60.601002" xmlns:rdf="http://www.w3.org/1999/02/22-rdf-syntax-ns#" xmlns:svg="http://www.w3.org/2000/svg" version="1.1" viewBox="0 0 60.601004 60.601004" width="60.601002" xmlns="http://www.w3.org/2000/svg">
  <title>ベビーカー; prams/strollers</title>
  <defs/>
  <metadata>
    <rdf:RDF>
      <cc:Work rdf:about="">
        <dc:format>image/svg+xml</dc:format>
        <dc:type rdf:resource="http://purl.org/dc/dcmitype/StillImage"/>
        <dc:title>ベビーカー; prams/strollers</dc:title>
        <dc:source>http://www.ecomo.or.jp/barrierfree/pictogram/data/zukigo_panfu_jis110.pdf</dc:source>
      </cc:Work>
    </rdf:RDF>
  </metadata>
  <path d="m 7.9492527,55.844878 c -1.76375,0 -3.1925,-1.43125 -3.1925,-3.195 l 0,-44.7012503 c 0,-1.7625 1.42875,-3.1925 3.1925,-3.1925 l 44.7012503,0 c 1.76375,0 3.19375,1.43 3.19375,3.1925 l 0,44.7012503 c 0,1.76375 -1.43,3.195 -3.19375,3.195 l -44.7012503,0 z" style="fill:#ffffff;stroke:#000;stroke-width:0.60625005;stroke-linecap:butt;stroke-linejoin:miter;stroke-miterlimit:4;stroke-dasharray:none;stroke-opacity:1"/>
  <path d="m 27.843003,32.684878 -2.0975,9.46 c -0.265,1.19375 -1.33,2.08625 -2.605,2.08625 l -3.635,0 -0.475,1.3025 4.11,0 c 1.89625,0 3.48625,-1.33625 3.88,-3.115 l 1.86875,-8.43125 3.345,0 0,-1.3025 -4.39125,0" style="fill:#000;fill-opacity:1;fill-rule:nonzero;stroke:none"/>
  <path d="m 24.263003,35.211128 c 1.36125,0 2.465,-1.1025 2.465,-2.46375 0,-1.36125 -1.10375,-2.4625 -2.465,-2.4625 -1.35875,0 -2.4625,1.10125 -2.4625,2.4625 0,1.36125 1.10375,2.46375 2.4625,2.46375" style="fill:#000;fill-opacity:1;fill-rule:nonzero;stroke:none"/>
  <path d="m 25.323003,46.178628 c -0.84375,0 -1.52625,0.68375 -1.52625,1.52625 0,0.8425 0.6825,1.52875 1.52625,1.52875 0.84125,0 1.525,-0.68625 1.525,-1.52875 0,-0.8425 -0.68375,-1.52625 -1.525,-1.52625" style="fill:#000;fill-opacity:1;fill-rule:nonzero;stroke:none"/>
  <path d="m 20.559253,46.178628 c -0.8425,0 -1.52625,0.68375 -1.52625,1.52625 0,0.8425 0.68375,1.52875 1.52625,1.52875 0.8425,0 1.525,-0.68625 1.525,-1.52875 0,-0.8425 -0.6825,-1.52625 -1.525,-1.52625" style="fill:#000;fill-opacity:1;fill-rule:nonzero;stroke:none"/>
  <path d="m 23.140503,43.262378 c 0.82375,0 1.51375,-0.59 1.6675,-1.36875 l 1.1875,-5.32875 c 0.0075,-0.03625 0.0125,-0.0725 0.01125,-0.11125 -0.0075,-0.17 -0.1125,-0.3125 -0.26,-0.37625 -0.5225,-0.22625 -1.1075,-0.33 -1.71375,-0.30375 -0.36,0.01625 -0.70625,0.07875 -1.0325,0.18125 l -4.7125,1.48625 0.45375,1.44 2.4475,-0.31875 -0.35625,1.605 -1.16125,0 c -1.23875,0 -2.34625,0.56 -3.085,1.44125 l -1.08375,1.2925 1.755,1.85375 0.94625,-0.94625 c 0.33625,-0.3375 0.8,-0.545 1.31375,-0.545 l 3.6225,-0.0012" style="fill:#000;fill-opacity:1;fill-rule:nonzero;stroke:none"/>
  <path d="m 35.450504,18.482377 c 1.51,0 2.735,-1.225 2.735,-2.73625 0,-1.51 -1.225,-2.735 -2.735,-2.735 -1.51125,0 -2.73625,1.225 -2.73625,2.735 0,1.51125 1.225,2.73625 2.73625,2.73625" style="fill:#000;fill-opacity:1;fill-rule:nonzero;stroke:none"/>
  <path d="m 43.710504,49.233629 -4.7475,-29.9975 c -0.03125,-0.2375 -0.23375,-0.42125 -0.48125,-0.42125 -0.005,0 -0.01125,-0.0012 -0.0175,-0.0012 -2.2875,0 -4.235,1.455 -4.96875,3.48875 l -0.0075,-0.0013 -3.45,9.47625 2.335,0 1.90625,-3.89875 0.82375,2.6975 -4.13375,18.6575 2.95125,0 3.695,-10.44 3.19,10.44 2.905,0" style="fill:#000;fill-opacity:1;fill-rule:nonzero;stroke:none"/>
</svg>
