<?xml version="1.0" encoding="UTF-8"?>
<svg width="60.601" height="60.601" version="1.1" viewBox="0 0 60.601 60.601" xmlns="http://www.w3.org/2000/svg" xmlns:cc="http://creativecommons.org/ns#" xmlns:dc="http://purl.org/dc/elements/1.1/" xmlns:rdf="http://www.w3.org/1999/02/22-rdf-syntax-ns#">
 <title>無線LAN; Wireless LAN</title>
 <metadata>
  <rdf:RDF>
   <cc:Work rdf:about="">
    <dc:format>image/svg+xml</dc:format>
    <dc:type rdf:resource="http://purl.org/dc/dcmitype/StillImage"/>
    <dc:title>無線LAN; Wireless LAN</dc:title>
    <dc:source>http://www.ecomo.or.jp/barrierfree/pictogram/data/zukigo_panfu_20170719.pdf</dc:source>
   </cc:Work>
  </rdf:RDF>
 </metadata>
 <path d="m7.9493 55.845c-1.7638 0-3.1925-1.4312-3.1925-3.195v-44.701c0-1.7625 1.4288-3.1925 3.1925-3.1925h44.701c1.7638 0 3.1938 1.43 3.1938 3.1925v44.701c0 1.7638-1.43 3.195-3.1938 3.195h-44.701z" style="fill:#fff;stroke-width:.60625;stroke:#000"/>
 <path d="m30.295 38.639c-2.4715 0-4.4781 2.0066-4.4781 4.484 0 2.4774 2.0066 4.484 4.4781 4.484 2.4774 0 4.484-2.0066 4.484-4.484 0-2.4774-2.0066-4.484-4.484-4.484"/>
 <path d="m30.295 13.853c-6.7672 0-13.005 2.3008-17.965 6.1669l2.0302 2.7951c4.5605-3.0482 10.051-4.8135 15.935-4.8135 5.8904 0 11.381 1.7653 15.941 4.8135l2.0301-2.7951c-4.9606-3.8661-11.198-6.1669-17.971-6.1669"/>
 <path d="m17.202 26.729 2.0125 2.7716c3.2129-2.0419 7.0025-3.2423 11.08-3.2423 4.0779 0 7.8734 1.2004 11.086 3.2423l2.0125-2.7716c-3.5895-2.8716-8.1441-4.5899-13.099-4.5899-4.9547 0-9.5035 1.7183-13.093 4.5899"/>
 <path d="m22.056 33.413 2.0243 2.7775c1.8242-1.0651 3.9485-1.6771 6.214-1.6771 2.2714 0 4.3898 0.61199 6.2199 1.6771l2.0243-2.7775c-2.2243-1.8889-5.1018-3.0246-8.2441-3.0246-3.1423 0-6.014 1.1357-8.2383 3.0246"/>
</svg>
