<?xml version="1.0" encoding="UTF-8"?>
<svg width="60.601" height="60.601" version="1.1" viewBox="0 0 60.601 60.601" xmlns="http://www.w3.org/2000/svg" xmlns:cc="http://creativecommons.org/ns#" xmlns:dc="http://purl.org/dc/elements/1.1/" xmlns:rdf="http://www.w3.org/1999/02/22-rdf-syntax-ns#">
 <title>自動販売機; Vending machine</title>
 <metadata>
  <rdf:RDF>
   <cc:Work rdf:about="">
    <dc:format>image/svg+xml</dc:format>
    <dc:type rdf:resource="http://purl.org/dc/dcmitype/StillImage"/>
    <dc:title>自動販売機; Vending machine</dc:title>
    <dc:source>http://www.ecomo.or.jp/barrierfree/pictogram/data/zukigo_panfu_20170719.pdf</dc:source>
   </cc:Work>
  </rdf:RDF>
 </metadata>
 <path d="m7.9493 55.845c-1.7638 0-3.1925-1.4312-3.1925-3.195v-44.701c0-1.7625 1.4288-3.1925 3.1925-3.1925h44.701c1.7638 0 3.1938 1.43 3.1938 3.1925v44.701c0 1.7638-1.43 3.195-3.1938 3.195h-44.701z" style="fill:#fff;stroke-width:.60625;stroke:#000"/>
 <path d="m37.921 22.605v-1.4366h2.5292v-0.73596l-0.15293-0.32382h-2.3763v-1.4366h1.6587l-2.8175-5.6757h3.1763l2.041 4.822 2.0234-4.822h3.2116l-2.8175 5.6757h1.6528v1.4366h-2.3528l-0.17645 0.32382v0.73596h2.5292v1.4366h-2.5292v2.3256h-3.0704v-2.3256zm7.5054 5.9996 2.9998 2.9968-1.6822 1.6839-5.082-5.0752c0.10588 6e-3 0.21175 0.01206 0.31763 0.01206 5.3055 0 9.6053-4.3039 9.6053-9.6146 0-5.3107-4.2997-9.6146-9.6053-9.6146-5.2997 0-9.5994 4.3039-9.5994 9.6146 0 0.11772 6e-3 0.23551 6e-3 0.35327l-5.1585-5.1458 1.6881-1.6898 3.0822 3.0322c0.24116-0.70652 0.55879-1.3777 0.93524-2.0018l-4.0292-3.9624-4.6174 4.6218 22.457 22.414 4.6232-4.6277-3.935-3.9389c-0.62937 0.38269-1.2999 0.69474-2.0058 0.94203"/>
 <path d="m19.01 19.826h-5.6232v3.3148l5.6232-6e-3z"/>
 <path d="m20.016 37.531v2.9968c-0.19411 0.35915-0.89406 1.6309-0.89406 1.6309s0.69996 1.2776 0.89406 1.6368v4.0861c0 0.6653-0.34116 1.2776-0.88818 1.6427-0.68231 0-5.1997-6e-3 -5.8702 0-0.54114-0.36504-0.8823-0.97736-0.8823-1.6427v-4.0861c0.19999-0.35915 0.89406-1.6309 0.89406-1.6309s-0.69407-1.2776-0.89406-1.6368v-2.9968c0.19999-0.35915 0.89406-1.6309 0.89406-1.6309s-0.69407-1.2717-0.89406-1.6309v-5.3225c0-1.313 0.58232-2.5494 1.5646-3.409h4.5174c0.98229 0.8596 1.5587 2.096 1.5587 3.409v5.3225c-0.19411 0.35915-0.89406 1.6309-0.89406 1.6309s0.69996 1.2717 0.89406 1.6309m1.5999-8.5842c0-2.0725-1.0294-3.9035-2.6057-5.0045h-5.629c-1.5705 1.101-2.5998 2.9321-2.5998 5.0045v5.7287l0.66466 1.2246-0.66466 1.2246v3.8152l0.66466 1.2246-0.66466 1.2187v4.4982c-0.0059 1.4366 0.847 2.6789 2.0705 3.2441h6.6937c1.2234-0.56522 2.0705-1.8075 2.0705-3.2441v-4.4982l-0.67055-1.2187 0.67055-1.2246v-3.8152l-0.67055-1.2246 0.67055-1.2246z"/>
 <path d="m25.474 31.825c0 0.21786 0.0882 0.41214 0.2294 0.55934h8.2171c0.14117-0.14726 0.2294-0.34148 0.2294-0.55934 0-0.22372-0.0882-0.41802-0.2294-0.56522h-8.2171c-0.14117 0.14726-0.2294 0.3415-0.2294 0.56522"/>
 <path d="m33.333 51.125c0.75289-0.33559 1.2823-1.0716 1.2823-1.9429v-14.213c0-0.12359-0.0235-0.24139-0.0647-0.34738l-0.55879-1.4366h-8.3524l-0.55878 1.4366c-0.0412 0.10596-0.0647 0.22374-0.0647 0.34738v14.213c0 0.87137 0.52937 1.6073 1.2764 1.9429z"/>
</svg>
