<?xml version="1.0" encoding="UTF-8"?>
<svg width="60.601" height="60.601" version="1.1" viewBox="0 0 60.601 60.601" xmlns="http://www.w3.org/2000/svg" xmlns:cc="http://creativecommons.org/ns#" xmlns:dc="http://purl.org/dc/elements/1.1/" xmlns:rdf="http://www.w3.org/1999/02/22-rdf-syntax-ns#">
 <title>海外発行カード対応 ATM; ATM for oversea cards</title>
 <metadata>
  <rdf:RDF>
   <cc:Work rdf:about="">
    <dc:format>image/svg+xml</dc:format>
    <dc:type rdf:resource="http://purl.org/dc/dcmitype/StillImage"/>
    <dc:title>海外発行カード対応 ATM; ATM for oversea cards</dc:title>
    <dc:source>http://www.ecomo.or.jp/barrierfree/pictogram/data/zukigo_panfu_20170719.pdf</dc:source>
   </cc:Work>
  </rdf:RDF>
 </metadata>
 <path d="m7.9493 55.845c-1.7638 0-3.1925-1.4312-3.1925-3.195v-44.701c0-1.7625 1.4288-3.1925 3.1925-3.1925h44.701c1.7638 0 3.1938 1.43 3.1938 3.1925v44.701c0 1.7638-1.43 3.195-3.1938 3.195h-44.701z" style="fill:#fff;stroke-width:.60625;stroke:#000"/>
 <path d="m31.166 33.103-1.6299 3.8858-1.6535-3.8858h-2.5655l2.2772 4.5746h-1.3416v1.1599h1.9183l0.1294 0.26494v0.58875h-2.0477v1.1598h2.0477v1.8781h2.4773v-1.8781h2.036v-1.1598h-2.036v-0.58875l0.13527-0.26494h1.9006v-1.1599h-1.3416l2.2831-4.5746z"/>
 <path d="m23.063 28.352h12.945v18.605h-12.945zm-7.3671 5.7345h4.7251v-2.0842h-2.6479v-3.6503h3.6894v20.206h16.146v-20.206h0.95912v21.166h-14.546v1.6014h16.146v-22.767h3.7306v3.6503h-2.642v2.0842h4.7251v-7.8187h-30.286z"/>
 <path d="m11.253 17.183 1.1239-4.139h0.02938l1.0356 4.139zm2.5773-6.3232h-2.8539l-3.3187 10.586h2.3655l0.68846-2.2608h3.2834l0.65316 2.2608h2.5538z"/>
 <path d="m18.344 21.446h2.5891v-8.4899h2.5008v-2.096h-7.5907v2.096h2.5008z"/>
 <path d="m26.364 13.321h0.0294l1.5711 8.1248h2.7891l1.5711-8.1248h0.0235l-0.0352 8.1248h2.2772v-10.586h-3.8483l-1.371 7.748h-0.0235l-1.3769-7.748h-3.8307v10.586h2.2772z"/>
 <path d="m50.248 19.868c-0.54724-0.26494-1.1239-0.48867-1.7064-0.67707 0.17064-0.77127 0.27068-1.5896 0.30598-2.4375h2.489c-0.10002 1.1069-0.47663 2.1843-1.0886 3.1145m-2.948 2.5258c0.13527-0.21784 0.27068-0.45334 0.39425-0.70061 0.18829-0.3827 0.36483-0.8066 0.51192-1.2541 0.41191 0.13535 0.82381 0.2885 1.2122 0.46513-0.6002 0.61818-1.3298 1.1304-2.1183 1.4896m-2.1654 0.41801v-2.9438c0.61196 0.03527 1.2239 0.11183 1.8241 0.24138-0.45308 1.3247-1.1121 2.302-1.8241 2.7024m0-6.0583h2.4243c-0.0294 0.73007-0.11765 1.4366-0.2589 2.1078-0.712-0.15307-1.4416-0.24728-2.1654-0.2826zm0-3.1145c0.72376-0.03527 1.4534-0.12947 2.1654-0.2826 0.14115 0.67118 0.22948 1.3777 0.2589 2.1077h-2.4243zm0-4.2332c0.712 0.39447 1.371 1.3777 1.8241 2.7024-0.6002 0.12359-1.218 0.20607-1.8241 0.2355zm4.2838 1.9076c-0.38836 0.17074-0.80026 0.3297-1.2122 0.46511-0.14702-0.44745-0.32363-0.87135-0.51192-1.2599-0.1294-0.24727-0.25892-0.48278-0.39425-0.69472 0.78849 0.35325 1.5181 0.87135 2.1183 1.4896m1.9183 4.1507h-2.489c-0.0352-0.84781-0.13528-1.6662-0.30598-2.4374 0.58255-0.1884 1.1533-0.41213 1.7064-0.67707 0.61196 0.93022 0.98856 2.0018 1.0886 3.1145m-7.4907-3.1204c-0.61197-0.02939-1.2239-0.11183-1.83-0.2355 0.45309-1.3247 1.118-2.3079 1.83-2.7024zm0 3.1204h-2.4302c0.0352-0.73005 0.12352-1.4366 0.26479-2.1077 0.712 0.15307 1.4416 0.24728 2.1654 0.2826zm0 3.1145c-0.72964 0.03527-1.4534 0.12947-2.1654 0.2826-0.14115-0.6653-0.22949-1.3777-0.26479-2.1078h2.4302zm0 4.2332c-0.712-0.40035-1.3769-1.3777-1.83-2.7024 0.60608-0.12947 1.218-0.20605 1.83-0.24138zm-4.2896-1.9076c0.39425-0.17663 0.80615-0.3356 1.218-0.46513 0.14717 0.45336 0.31776 0.87726 0.51193 1.2599 0.11764 0.2414 0.25302 0.4769 0.39425 0.69474-0.7885-0.35914-1.5181-0.87137-2.1242-1.4896m-1.9183-4.1507h2.4949c0.0294 0.84193 0.13527 1.6603 0.3001 2.4375-0.58255 0.1884-1.1533 0.41801-1.7064 0.67707-0.60608-0.93024-0.98267-2.0077-1.0886-3.1145m1.0886-4.4039c0.55312 0.25904 1.1239 0.48867 1.7064 0.67118-0.16477 0.78304-0.27068 1.6014-0.3001 2.4433h-2.4949c0.10589-1.1069 0.4825-2.1843 1.0886-3.1145m2.9539-2.5258c-0.14115 0.21784-0.27656 0.45334-0.39425 0.69472-0.19417 0.3827-0.36483 0.8066-0.51193 1.2599-0.41779-0.13535-0.8238-0.29437-1.218-0.46511 0.60609-0.62409 1.3357-1.1363 2.1242-1.4896m2.8127-1.8899c-4.5074 0-8.1732 3.668-8.1732 8.1719 0 4.5099 3.6659 8.1778 8.1732 8.1778 4.5015 0 8.1615-3.668 8.1615-8.1778 0-4.504-3.66-8.1719-8.1615-8.1719"/>
</svg>
