<?xml version="1.0" encoding="UTF-8"?>
<svg width="60.601" height="60.601" version="1.1" viewBox="0 0 60.601 60.601" xmlns="http://www.w3.org/2000/svg" xmlns:cc="http://creativecommons.org/ns#" xmlns:dc="http://purl.org/dc/elements/1.1/" xmlns:rdf="http://www.w3.org/1999/02/22-rdf-syntax-ns#">
  <title>温水洗浄便座; Spray seat</title>
  <metadata>
    <rdf:RDF>
      <cc:Work
         rdf:about="">
        <dc:format>image/svg+xml</dc:format>
        <dc:type
           rdf:resource="http://purl.org/dc/dcmitype/StillImage" />
        <dc:title>温水洗浄便座; Spray seat</dc:title>
        <dc:source>https://www.sanitary-net.com/trend/images/jis/04/jisz8210_2.zip</dc:source>
      </cc:Work>
    </rdf:RDF>
  </metadata>
  <path
     d="m7.9493 55.845c-1.7638 0-3.1925-1.4312-3.1925-3.195v-44.701c0-1.7625 1.4288-3.1925 3.1925-3.1925h44.701c1.7638 0 3.1938 1.43 3.1938 3.1925v44.701c0 1.7638-1.43 3.195-3.1938 3.195h-44.701z"
     style="fill:#fff;stroke-width:.60625;stroke:#000"
  <path
     d="M 44.636026,30.989185 V 49.561984 H 26.063227 C 19.240388,46.641238 14.588937,38.26921 14.588937,30.989185 Z"
     style="fill:#000"/>
  <path
     d="m 42.056252,11.040703 h -1.203631 v 2.579555 15.993001 H 44.63605 V 13.620258 c 0,-1.4247 -1.155097,-2.579555 -2.579798,-2.579555"
     style="fill:#000"/>
  <path
     d="m 27.130551,27.03351 c 0,0.4749 -0.384871,0.860014 -0.859771,0.860014 -0.474658,0 -0.860014,-0.385114 -0.860014,-0.860014 0,-0.474658 0.385356,-0.860014 0.860014,-0.860014 0.4749,0 0.859771,0.385356 0.859771,0.860014"
     style="fill:#000"/>
  <path
     d="m 27.130551,23.133552 c 0,0.4749 -0.384871,0.860014 -0.859771,0.860014 -0.474658,0 -0.860014,-0.385114 -0.860014,-0.860014 0,-0.4749 0.385356,-0.860014 0.860014,-0.860014 0.4749,0 0.859771,0.385114 0.859771,0.860014"
     style="fill:#000"/>
  <path
     d="m 27.130551,19.23357 c 0,0.4749 -0.384871,0.860014 -0.859771,0.860014 -0.474658,0 -0.860014,-0.385114 -0.860014,-0.860014 0,-0.4749 0.385356,-0.860014 0.860014,-0.860014 0.4749,0 0.859771,0.385114 0.859771,0.860014"
     style="fill:#000"/>
  <path
     d="m 23.39454,15.827223 c 0,0.4749 0.384871,0.860014 0.859771,0.860014 0.474658,0 0.860014,-0.385114 0.860014,-0.860014 0,-0.4749 -0.385356,-0.860014 -0.860014,-0.860014 -0.4749,0 -0.859771,0.385114 -0.859771,0.860014"
     style="fill:#000"/>
  <path
     d="m 19.7389,14.308173 c 0,0.4749 0.384871,0.860014 0.859771,0.860014 0.4749,0 0.860014,-0.385114 0.860014,-0.860014 0,-0.4749 -0.385114,-0.860014 -0.860014,-0.860014 -0.4749,0 -0.859771,0.385114 -0.859771,0.860014"
     style="fill:#000"/>
  <path
     d="m 16.136792,15.919291 c 0,0.4749 0.384871,0.860014 0.859771,0.860014 0.4749,0 0.860014,-0.385114 0.860014,-0.860014 0,-0.4749 -0.385114,-0.860014 -0.860014,-0.860014 -0.4749,0 -0.859771,0.385114 -0.859771,0.860014"
     style="fill:#000"/>
  <path
     d="m 29.146997,15.827223 c 0,0.4749 -0.384871,0.860014 -0.859771,0.860014 -0.4749,0 -0.860014,-0.385114 -0.860014,-0.860014 0,-0.4749 0.385114,-0.860014 0.860014,-0.860014 0.4749,0 0.859771,0.385114 0.859771,0.860014"
     style="fill:#000"/>
  <path
     d="m 32.802418,14.308173 c 0,0.4749 -0.384871,0.860014 -0.859528,0.860014 -0.474901,0 -0.860014,-0.385114 -0.860014,-0.860014 0,-0.4749 0.385113,-0.860014 0.860014,-0.860014 0.474657,0 0.859528,0.385114 0.859528,0.860014"
     style="fill:#000"/>
  <path
     d="m 36.404744,15.919291 c 0,0.4749 -0.384871,0.860014 -0.859771,0.860014 -0.4749,0 -0.860014,-0.385114 -0.860014,-0.860014 0,-0.4749 0.385114,-0.860014 0.860014,-0.860014 0.4749,0 0.859771,0.385114 0.859771,0.860014"
     style="fill:#000"/>
</svg>
