<?xml version='1.0' encoding='UTF-8' standalone='no'?>
<svg xmlns:cc="http://creativecommons.org/ns#" xmlns:dc="http://purl.org/dc/elements/1.1/" height="60.601002" xmlns:rdf="http://www.w3.org/1999/02/22-rdf-syntax-ns#" xmlns:svg="http://www.w3.org/2000/svg" version="1.1" viewBox="0 0 60.601004 60.601004" width="60.601002" xmlns="http://www.w3.org/2000/svg">
  <defs/>
  <metadata>
    <rdf:RDF>
      <cc:Work rdf:about="">
        <dc:format>image/svg+xml</dc:format>
        <dc:type rdf:resource="http://purl.org/dc/dcmitype/StillImage"/>
        <dc:title>航空機／空港; Aircraft/Airport</dc:title>
        <dc:source>http://www.ecomo.or.jp/barrierfree/pictogram/data/zukigo_panfu_jis110.pdf</dc:source>
      </cc:Work>
    </rdf:RDF>
  </metadata>
  <path d="m 7.7855027,56.031128 c -1.77625,0 -3.21625,-1.43875 -3.21625,-3.21375 l 0,-45.0325003 c 0,-1.77625 1.44,-3.215 3.21625,-3.215 l 45.0300003,0 c 1.7775,0 3.21625,1.43875 3.21625,3.215 l 0,45.0325003 c 0,1.775 -1.43875,3.21375 -3.21625,3.21375 l -45.0300003,0 z" style="fill:#ffffff;fill-opacity:1;stroke:#000;stroke-width:0.60625005;stroke-linecap:butt;stroke-linejoin:miter;stroke-miterlimit:4;stroke-dasharray:none;stroke-opacity:1"/>
  <path d="m 30.300505,10.629875 c 1.1325,0 2.075,0.9425 2.075,2.1375 l 0,12.57625 17.60625,9.87375 0,4.4 -17.60625,-5.09375 0,9.18125 4.15125,3.08125 0,3.64625 -6.22625,-2.075 -6.22375,2.075 0,-3.64625 4.14875,-3.08125 0,-9.18125 -17.60625,5.09375 0,-4.4 17.60625,-9.87375 0,-12.57625 c 0,-1.195 0.9425,-2.1375 2.075,-2.1375" style="fill:#000;fill-opacity:1;fill-rule:nonzero;stroke:none"/>
</svg>
