<?xml version='1.0' encoding='UTF-8' standalone='no'?>
<svg xmlns:cc="http://creativecommons.org/ns#" xmlns:dc="http://purl.org/dc/elements/1.1/" height="60.601002" xmlns:rdf="http://www.w3.org/1999/02/22-rdf-syntax-ns#" xmlns:svg="http://www.w3.org/2000/svg" version="1.1" viewBox="0 0 60.601004 60.601004" width="60.601002" xmlns="http://www.w3.org/2000/svg">
  <defs/>
  <metadata>
    <rdf:RDF>
      <cc:Work rdf:about="">
        <dc:format>image/svg+xml</dc:format>
        <dc:type rdf:resource="http://purl.org/dc/dcmitype/StillImage"/>
        <dc:title>鉄道／鉄道駅; Railway/Railway station</dc:title>
        <dc:source>http://www.ecomo.or.jp/barrierfree/pictogram/data/zukigo_panfu_jis110.pdf</dc:source>
      </cc:Work>
    </rdf:RDF>
  </metadata>
  <path d="m 7.7848777,56.031753 c -1.77625,0 -3.21625,-1.43875 -3.21625,-3.21625 l 0,-45.0287503 c 0,-1.7775 1.44,-3.2175 3.21625,-3.2175 l 45.0300003,0 c 1.7775,0 3.2175,1.44 3.2175,3.2175 l 0,45.0287503 c 0,1.7775 -1.44,3.21625 -3.2175,3.21625 l -45.0300003,0 z" style="fill:#ffffff;fill-opacity:1;stroke:#000;stroke-width:0.60625005;stroke-linecap:butt;stroke-linejoin:miter;stroke-miterlimit:4;stroke-dasharray:none;stroke-opacity:1"/>
  <path d="m 35.98363,34.535502 c 0,-1.06625 0.86375,-1.93 1.92875,-1.93 1.06625,0 1.93,0.86375 1.93,1.93 0,1.06625 -0.86375,1.93 -1.93,1.93 -1.065,0 -1.92875,-0.86375 -1.92875,-1.93 z m -13.29375,1.93 c -1.06625,0 -1.93,-0.86375 -1.93,-1.93 0,-1.06625 0.86375,-1.93 1.93,-1.93 1.06625,0 1.93,0.86375 1.93,1.93 0,1.06625 -0.86375,1.93 -1.93,1.93 z m -3.16375,-10.21375 0,-8.22375 c 0,-0.71125 0.57625,-1.28625 1.2875,-1.28625 l 18.97625,0 c 0.71,0 1.28625,0.575 1.28625,1.28625 l 0,8.22375 c 0,0.7125 -0.57625,1.28625 -1.28625,1.28625 l -18.97625,0 c -0.71125,0 -1.2875,-0.57375 -1.2875,-1.28625 z m 5.3725,-13.58875 c 0,-0.28375 0.23,-0.515 0.51375,-0.515 l 9.7775,0 c 0.285,0 0.51375,0.23125 0.51375,0.515 l 0,1.415 c 0,0.28375 -0.22875,0.515 -0.51375,0.515 l -9.7775,0 c -0.28375,0 -0.51375,-0.23125 -0.51375,-0.515 l 0,-1.415 z m 13.365,28.4125 c 1.14625,-0.1725 2.27875,-0.385 3.39625,-0.635 1.34375,-2.52875 2.12625,-5.3925 2.12625,-8.4575 l 0,-16.6325 c 0,-2.58625 -1.9025,-4.73625 -4.395,-5.09 l -18.18,0 c -2.4925,0.35375 -4.395,2.50375 -4.395,5.09 l 0,16.6325 c 0,3.04375 0.77,5.91 2.0975,8.4275 1.13,0.255 2.2775,0.47125 3.4375,0.65 l -7.57625,9.42375 4.255,0 5.09125,-6.30625 12.36,0 5.0925,6.30625 4.255,0 -7.565,-9.40875" style="fill:#000;fill-opacity:1;fill-rule:nonzero;stroke:none"/>
</svg>
