<?xml version="1.0" encoding="UTF-8" standalone="no"?>
<svg
   xmlns:dc="http://purl.org/dc/elements/1.1/"
   xmlns:cc="http://creativecommons.org/ns#"
   xmlns:rdf="http://www.w3.org/1999/02/22-rdf-syntax-ns#"
   xmlns:svg="http://www.w3.org/2000/svg"
   xmlns="http://www.w3.org/2000/svg"
   xmlns:sodipodi="http://sodipodi.sourceforge.net/DTD/sodipodi-0.dtd"
   xmlns:inkscape="http://www.inkscape.org/namespaces/inkscape"
   height="60.601002"
   version="1.1"
   viewBox="0 0 60.601004 60.601004"
   width="60.601002"
   id="svg12"
   sodipodi:docname="5203_Ship___Ferry___Port.svg"
   inkscape:version="0.92.4 (unknown)">
  <sodipodi:namedview
     pagecolor="#ffffff"
     bordercolor="#666666"
     borderopacity="1"
     objecttolerance="10"
     gridtolerance="10"
     guidetolerance="10"
     inkscape:pageopacity="0"
     inkscape:pageshadow="2"
     inkscape:window-width="1412"
     inkscape:window-height="828"
     id="namedview14"
     showgrid="false"
     inkscape:zoom="9.4315685"
     inkscape:cx="3.147333"
     inkscape:cy="42.590266"
     inkscape:window-x="-116"
     inkscape:window-y="402"
     inkscape:window-maximized="0"
     inkscape:current-layer="svg12" />
  <defs
     id="defs2" />
  <metadata
     id="metadata4">
    <rdf:RDF>
      <cc:Work
         rdf:about="">
        <dc:format>image/svg+xml</dc:format>
        <dc:type
           rdf:resource="http://purl.org/dc/dcmitype/StillImage" />
        <dc:title></dc:title>
        <dc:source>http://www.ecomo.or.jp/barrierfree/pictogram/data/zukigo_panfu_jis110.pdf</dc:source>
      </cc:Work>
    </rdf:RDF>
  </metadata>
  <path
     d="m 7.7686277,56.049878 c -1.77625,0 -3.2175,-1.44 -3.2175,-3.2175 l 0,-45.0625003 c 0,-1.7775 1.44125,-3.21875 3.2175,-3.21875 l 45.0637503,0 c 1.77625,0 3.2175,1.44125 3.2175,3.22 l 0,45.0612503 c 0,1.7775 -1.44125,3.2175 -3.2175,3.2175 l -45.0637503,0 z"
     style="fill:#ffffff;fill-opacity:1;stroke:#000;stroke-width:0.606;stroke-linecap:butt;stroke-linejoin:miter;stroke-miterlimit:4;stroke-dasharray:none;stroke-opacity:1"
     id="path6" />
  <path
     inkscape:connector-curvature="0"
     id="path66"
     style="fill:#000000;fill-rule:nonzero;stroke:none"
     d="m 9.406472,37.982048 c 0.5241361,0.06177 1.055535,0.09568 1.595407,0.09568 2.33743,0 4.532023,-0.609195 6.436101,-1.674984 1.901658,1.065789 4.09383,1.674984 6.427628,1.674984 2.337429,0 4.532022,-0.609195 6.436101,-1.674984 1.900447,1.065789 4.092619,1.674984 6.427627,1.674984 2.337429,0 4.530812,-0.609195 6.434891,-1.674984 1.901657,1.065789 4.09383,1.674984 6.428838,1.674984 0.541082,0 1.076113,-0.03391 1.601459,-0.09689 v 1.930531 c -0.525346,0.06419 -1.060377,0.09689 -1.601459,0.09689 -2.335008,0 -4.527181,-0.609195 -6.428838,-1.674983 -1.904079,1.065788 -4.097462,1.674983 -6.434891,1.674983 -2.335008,0 -4.52718,-0.609195 -6.427627,-1.674983 -1.904079,1.065788 -4.098672,1.674983 -6.436101,1.674983 -2.333798,0 -4.52597,-0.609195 -6.427628,-1.674983 -1.904078,1.065788 -4.098671,1.674983 -6.436101,1.674983 -0.539872,0 -1.0712709,-0.0327 -1.595407,-0.09568 z m 0,3.667282 c 0.5241361,0.06419 1.055535,0.09689 1.595407,0.09689 2.33743,0 4.532023,-0.607984 6.436101,-1.674984 1.901658,1.067 4.09383,1.674984 6.427628,1.674984 2.337429,0 4.532022,-0.607984 6.436101,-1.674984 1.900447,1.067 4.092619,1.674984 6.427627,1.674984 2.337429,0 4.530812,-0.607984 6.434891,-1.674984 1.901657,1.067 4.09383,1.674984 6.428838,1.674984 0.541082,0 1.076113,-0.0327 1.601459,-0.09689 v 1.93053 c -0.525346,0.06419 -1.060377,0.09689 -1.601459,0.09689 -2.335008,0 -4.527181,-0.607984 -6.428838,-1.674983 -1.904079,1.066999 -4.097462,1.674983 -6.434891,1.674983 -2.335008,0 -4.52718,-0.607984 -6.427627,-1.674983 -1.904079,1.066999 -4.098672,1.674983 -6.436101,1.674983 -2.333798,0 -4.52597,-0.607984 -6.427628,-1.674983 -1.904078,1.066999 -4.098671,1.674983 -6.436101,1.674983 -0.539872,0 -1.0712709,-0.0327 -1.595407,-0.09568 v -1.93174" />
  <path
     inkscape:connector-curvature="0"
     id="path70"
     style="fill:#000000;fill-rule:nonzero;stroke:none"
     d="m 17.025208,26.550257 1.720086,-2.963619 3.91589,-0.0048 1.70193,-2.956353 h 6.341683 l -1.676509,2.961197 h 15.449305 l 1.718876,2.963619 z m 31.031763,0 -2.650943,-4.573202 h -6.906976 v -6.5546 h -4.852798 l -2.031179,3.592192 h -4.973846 v -4.82996 h -0.320776 l -1.540936,4.82996 h -1.344839 l -1.695876,2.962408 h -3.923153 l -2.649732,4.573202 H 7.5096562 v 0.320948 c 2.7840948,2.467058 4.9520568,5.613557 6.2351618,9.18516 1.314577,-0.278559 2.555315,-0.75453 3.693162,-1.391581 1.901658,1.066999 4.09383,1.674983 6.427628,1.674983 2.337429,0 4.532022,-0.607984 6.436101,-1.674983 1.900447,1.066999 4.092619,1.674983 6.427627,1.674983 2.337429,0 4.530812,-0.607984 6.434891,-1.674983 1.723718,0.966476 3.68711,1.555082 5.776391,1.658028 2.227276,-2.640249 3.567273,-6.045928 3.567273,-9.772555 h -4.45092" />
</svg>
