<?xml version="1.0" encoding="UTF-8"?>
<svg width="60.601" height="60.601" version="1.1" viewBox="0 0 60.601 60.601" xmlns="http://www.w3.org/2000/svg" xmlns:cc="http://creativecommons.org/ns#" xmlns:dc="http://purl.org/dc/elements/1.1/" xmlns:rdf="http://www.w3.org/1999/02/22-rdf-syntax-ns#">
 <metadata>
  <rdf:RDF>
   <cc:Work rdf:about="">
    <dc:format>image/svg+xml</dc:format>
    <dc:type rdf:resource="http://purl.org/dc/dcmitype/StillImage"/>
    <dc:title>船舶／フェリー／港; Ship/Ferry/Port</dc:title>
    <dc:source>http://www.ecomo.or.jp/barrierfree/pictogram/data/zukigo_panfu_jis110.pdf</dc:source>
   </cc:Work>
  </rdf:RDF>
 </metadata>
 <path d="m7.7686 56.05c-1.7762 0-3.2175-1.44-3.2175-3.2175v-45.063c0-1.7775 1.4412-3.2188 3.2175-3.2188h45.064c1.7762 0 3.2175 1.4412 3.2175 3.22v45.061c0 1.7775-1.4412 3.2175-3.2175 3.2175h-45.064z" style="fill:#fff;stroke-width:.606;stroke:#000"/>
 <path d="m9.4065 37.982c0.52414 0.06177 1.0555 0.09568 1.5954 0.09568 2.3374 0 4.532-0.6092 6.4361-1.675 1.9017 1.0658 4.0938 1.675 6.4276 1.675 2.3374 0 4.532-0.6092 6.4361-1.675 1.9004 1.0658 4.0926 1.675 6.4276 1.675 2.3374 0 4.5308-0.6092 6.4349-1.675 1.9017 1.0658 4.0938 1.675 6.4288 1.675 0.54108 0 1.0761-0.03391 1.6015-0.09689v1.9305c-0.52535 0.06419-1.0604 0.09689-1.6015 0.09689-2.335 0-4.5272-0.6092-6.4288-1.675-1.9041 1.0658-4.0975 1.675-6.4349 1.675-2.335 0-4.5272-0.6092-6.4276-1.675-1.9041 1.0658-4.0987 1.675-6.4361 1.675-2.3338 0-4.526-0.6092-6.4276-1.675-1.9041 1.0658-4.0987 1.675-6.4361 1.675-0.53987 0-1.0713-0.0327-1.5954-0.09568zm0 3.6673c0.52414 0.06419 1.0555 0.09689 1.5954 0.09689 2.3374 0 4.532-0.60798 6.4361-1.675 1.9017 1.067 4.0938 1.675 6.4276 1.675 2.3374 0 4.532-0.60798 6.4361-1.675 1.9004 1.067 4.0926 1.675 6.4276 1.675 2.3374 0 4.5308-0.60798 6.4349-1.675 1.9017 1.067 4.0938 1.675 6.4288 1.675 0.54108 0 1.0761-0.0327 1.6015-0.09689v1.9305c-0.52535 0.06419-1.0604 0.09689-1.6015 0.09689-2.335 0-4.5272-0.60798-6.4288-1.675-1.9041 1.067-4.0975 1.675-6.4349 1.675-2.335 0-4.5272-0.60798-6.4276-1.675-1.9041 1.067-4.0987 1.675-6.4361 1.675-2.3338 0-4.526-0.60798-6.4276-1.675-1.9041 1.067-4.0987 1.675-6.4361 1.675-0.53987 0-1.0713-0.0327-1.5954-0.09568v-1.9317"/>
 <path d="m17.025 26.55 1.7201-2.9636 3.9159-0.0048 1.7019-2.9564h6.3417l-1.6765 2.9612h15.449l1.7189 2.9636zm31.032 0-2.6509-4.5732h-6.907v-6.5546h-4.8528l-2.0312 3.5922h-4.9738v-4.83h-0.32078l-1.5409 4.83h-1.3448l-1.6959 2.9624h-3.9232l-2.6497 4.5732h-7.6563v0.32095c2.7841 2.4671 4.9521 5.6136 6.2352 9.1852 1.3146-0.27856 2.5553-0.75453 3.6932-1.3916 1.9017 1.067 4.0938 1.675 6.4276 1.675 2.3374 0 4.532-0.60798 6.4361-1.675 1.9004 1.067 4.0926 1.675 6.4276 1.675 2.3374 0 4.5308-0.60798 6.4349-1.675 1.7237 0.96648 3.6871 1.5551 5.7764 1.658 2.2273-2.6402 3.5673-6.0459 3.5673-9.7726h-4.4509"/>
</svg>
