<?xml version='1.0' encoding='UTF-8' standalone='no'?>
<svg xmlns:cc="http://creativecommons.org/ns#" xmlns:dc="http://purl.org/dc/elements/1.1/" height="60.601002" xmlns:rdf="http://www.w3.org/1999/02/22-rdf-syntax-ns#" xmlns:svg="http://www.w3.org/2000/svg" version="1.1" viewBox="0 0 60.601004 60.601004" width="60.601002" xmlns="http://www.w3.org/2000/svg">
  <defs/>
  <metadata>
    <rdf:RDF>
      <cc:Work rdf:about="">
        <dc:format>image/svg+xml</dc:format>
        <dc:type rdf:resource="http://purl.org/dc/dcmitype/StillImage"/>
        <dc:title>船舶／フェリー／港; Ship/Ferry / Port</dc:title>
        <dc:source>http://www.ecomo.or.jp/barrierfree/pictogram/data/zukigo_panfu_jis110.pdf</dc:source>
      </cc:Work>
    </rdf:RDF>
  </metadata>
  <path d="m 7.7686277,56.049878 c -1.77625,0 -3.2175,-1.44 -3.2175,-3.2175 l 0,-45.0625003 c 0,-1.7775 1.44125,-3.21875 3.2175,-3.21875 l 45.0637503,0 c 1.77625,0 3.2175,1.44125 3.2175,3.22 l 0,45.0612503 c 0,1.7775 -1.44125,3.2175 -3.2175,3.2175 l -45.0637503,0 z" style="fill:#ffffff;fill-opacity:1;stroke:#000;stroke-width:0.60625005;stroke-linecap:butt;stroke-linejoin:miter;stroke-miterlimit:4;stroke-dasharray:none;stroke-opacity:1"/>
  <path d="m 48.06488,29.614877 -2.65,-4.5725 -6.90875,0 0,-6.55125 -4.85375,0 -2.03125,3.59125 -4.9725,0 0,-4.82875 -0.3225,0 -1.54125,4.82875 -1.34375,0 -1.69625,2.96 -3.925,0 -2.65,4.5725 -7.6575003,0 0,0.32125 c 2.8287503,2.5525 5.0475003,5.79 6.3287503,9.46375 l 35.0925,0 c 2.2375,-2.64125 3.585,-6.05375 3.585,-9.785 l -4.45375,0" style="fill:#000;fill-opacity:1;fill-rule:nonzero;stroke:none"/>
  <path d="m 44.486129,26.653626 1.72,2.96125 -29.175,0 1.7175,-2.96125 3.9175,-0.0062 1.70375,-2.95625 6.34,0 -1.67625,2.9625 15.4525,0" style="fill:#ffffff;fill-opacity:1;fill-rule:nonzero;stroke:none"/>
</svg>
