<?xml version='1.0' encoding='UTF-8' standalone='no'?>
<svg xmlns:cc="http://creativecommons.org/ns#" xmlns:dc="http://purl.org/dc/elements/1.1/" height="60.601002" xmlns:rdf="http://www.w3.org/1999/02/22-rdf-syntax-ns#" xmlns:svg="http://www.w3.org/2000/svg" version="1.1" viewBox="0 0 60.601004 60.601004" width="60.601002" xmlns="http://www.w3.org/2000/svg">
  <defs/>
  <metadata>
    <rdf:RDF>
      <cc:Work rdf:about="">
        <dc:format>image/svg+xml</dc:format>
        <dc:type rdf:resource="http://purl.org/dc/dcmitype/StillImage"/>
        <dc:title>ヘリコプター／ヘリポート; Helicopter/Heliport</dc:title>
        <dc:source>http://www.ecomo.or.jp/barrierfree/pictogram/data/zukigo_panfu_jis110.pdf</dc:source>
      </cc:Work>
    </rdf:RDF>
  </metadata>
  <path d="m 7.7786277,56.039878 c -1.7775,0 -3.2175,-1.44 -3.2175,-3.2175 l 0,-45.0437503 c 0,-1.775 1.44,-3.2175 3.2175,-3.2175 l 45.0425003,0 c 1.7775,0 3.21875,1.4425 3.21875,3.2175 l 0,45.0437503 c 0,1.7775 -1.44125,3.2175 -3.21875,3.2175 l -45.0425003,0 z" style="fill:#ffffff;stroke:#000;stroke-width:0.60625005;stroke-linecap:butt;stroke-linejoin:miter;stroke-miterlimit:4;stroke-dasharray:none;stroke-opacity:1;fill-opacity:1"/>
  <path d="m 38.72363,26.474876 0,5.16625 c -2.75625,0.0025 -4.965,0.005 -4.965,0.005 -0.35,0 -0.67625,-0.19 -0.85125,-0.49375 l -2.60125,-4.6775 8.4175,0 z m 1.96125,0 1.95125,0 c 1.58625,0 3.0775,0.61625 4.2,1.73875 0.935,0.93625 1.51875,2.1275 1.68625,3.4175 -1.49375,0.0012 -4.75875,0.005 -7.8375,0.0075 l 0,-5.16375 m 2.58125,14.15 -7.105,0 0,-2.9 7.105,0.0012 0,2.89875 m -32.09,-14.185 2.0225,0.54625 c -0.04125,0.04875 -0.08375,0.09625 -0.12875,0.14125 -0.43625,0.435 -1.01625,0.6775 -1.63375,0.6775 -0.615,0 -1.195,-0.2425 -1.6312503,-0.67875 -0.4375,-0.43875 -0.68,-1.0175 -0.68,-1.63125 0,-0.6175 0.24125,-1.1975 0.6775,-1.635 0.4375003,-0.435 1.0162503,-0.67625 1.6337503,-0.67625 0.6175,0 1.1975,0.24125 1.63375,0.67625 0.1925,0.19375 0.34375,0.41375 0.4575,0.6525 l -2.09125,0 c -0.54125,0 -0.98,0.44 -0.98,0.9825 0,0.45125 0.305,0.83125 0.72,0.945 m 40.31375,-5.35875 0,-2.79 -17.12125,3.0875 -17.12125,-3.0875 0,2.79 16.14125,1.3875 0,2.04375 -18.1575,0 c -0.1725,-0.67 -0.52125,-1.285 -1.02375,-1.78875 -0.74,-0.74 -1.725,-1.14875 -2.77125,-1.14875 -1.04625,0 -2.0300003,0.40875 -2.7700003,1.14875 -0.74,0.74 -1.14875,1.7225 -1.14875,2.77125 0,2.16 1.75875,3.91625 3.9187503,3.91625 1.04625,0 2.03125,-0.40625 2.77125,-1.1475 0.25125,-0.25125 0.46375,-0.5325 0.6375,-0.83375 l 12.935,3.4975 3.1125,5.52625 c 0.465,0.76375 1.30375,1.27125 2.26125,1.27125 l 1.4,0 0,2.9 -1.95375,0 c -0.92,0 -1.76625,-0.42125 -2.32,-1.1575 l -1.3925,1.13375 0.09375,0.1125 c 0.09375,0.115 0.195,0.22625 0.3,0.33 0.885,0.88625 2.06375,1.3725 3.31875,1.3725 l 14.325,0 c 1.25375,0 2.43375,-0.48625 3.31875,-1.3725 0.105,-0.10375 0.205,-0.215 0.3,-0.33 l 0.09375,-0.1125 -1.3925,-1.13375 c -0.5525,0.73625 -1.39875,1.1575 -2.32,1.1575 l -2.04875,0 0,-2.89875 3.60875,0.0013 c 1.27375,-1.4025 2.05125,-3.2675 2.05125,-5.3125 0,-4.36375 -3.5375,-7.9025 -7.9,-7.9025 l -7.28625,0 0,-2.04375 16.14,-1.3875" style="fill:#000;fill-opacity:1;fill-rule:nonzero;stroke:none"/>
</svg>
