<?xml version='1.0' encoding='UTF-8' standalone='no'?>
<svg xmlns:cc="http://creativecommons.org/ns#" xmlns:dc="http://purl.org/dc/elements/1.1/" height="60.601002" xmlns:rdf="http://www.w3.org/1999/02/22-rdf-syntax-ns#" xmlns:svg="http://www.w3.org/2000/svg" version="1.1" viewBox="0 0 60.601004 60.601004" width="60.601002" xmlns="http://www.w3.org/2000/svg">
  <defs/>
  <metadata>
    <rdf:RDF>
      <cc:Work rdf:about="">
        <dc:format>image/svg+xml</dc:format>
        <dc:type rdf:resource="http://purl.org/dc/dcmitype/StillImage"/>
        <dc:title>バス／バスのりば; Bus/Bus stop</dc:title>
        <dc:source>http://www.ecomo.or.jp/barrierfree/pictogram/data/zukigo_panfu_jis110.pdf</dc:source>
      </cc:Work>
    </rdf:RDF>
  </metadata>
  <path d="m 7.7848777,56.033003 c -1.77625,0 -3.21625,-1.44125 -3.21625,-3.2175 l 0,-45.0312503 c 0,-1.77625 1.44,-3.21625 3.21625,-3.21625 l 45.0312503,0 c 1.77625,0 3.21625,1.44 3.21625,3.21625 l 0,45.0312503 c 0,1.77625 -1.44,3.2175 -3.21625,3.2175 l -45.0312503,0 z" style="fill:#ffffff;fill-opacity:1;stroke:#000;stroke-width:0.60625005;stroke-linecap:butt;stroke-linejoin:miter;stroke-miterlimit:4;stroke-dasharray:none;stroke-opacity:1"/>
  <path d="m 43.364879,28.649251 0,-6.0125 4.64,0 c 1.315,0 2.38,1.06375 2.38,2.37875 l 0.0025,3.63375 -7.0225,0 z m -1.93,0 -7.05375,0 0,-6.01375 7.05375,0.0012 0,6.0125 m -8.98375,0 -7.05375,0 0,-6.01375 7.05375,0 0,6.01375 m -8.98375,0 -7.05375,0 0,-6.01625 7.05375,0.0013 0,6.015 m -8.985,5.425 -4.28125,0 0,-3.61 1.64125,-7.83125 2.64,0 0,11.44125 m 33.5225,-13.4025 -37.11375,0 c -0.41875,0 -0.7675,0.29 -0.85875,0.68 l -1.7925003,8.89375 0,7.04625 5.7662503,0 0,0.26375 c 0,1.93875 1.5725,3.51 3.51,3.51 1.93625,0 3.50875,-1.57125 3.50875,-3.51 l 0,-0.26375 15.81375,0 0,0.24375 c 0,1.94 1.57125,3.51 3.5075,3.51 1.94,0 3.51,-1.57 3.51,-3.51 l 0,-0.24375 8.4925,0 0,-12.27625 c 0,-2.3975 -1.94375,-4.34375 -4.34375,-4.34375" style="fill:#000;fill-opacity:1;fill-rule:nonzero;stroke:none"/>
</svg>
