<?xml version='1.0' encoding='UTF-8' standalone='no'?>
<svg xmlns:cc="http://creativecommons.org/ns#" xmlns:dc="http://purl.org/dc/elements/1.1/" height="60.601002" xmlns:rdf="http://www.w3.org/1999/02/22-rdf-syntax-ns#" xmlns:svg="http://www.w3.org/2000/svg" version="1.1" viewBox="0 0 60.601004 60.601004" width="60.601002" xmlns="http://www.w3.org/2000/svg">
  <defs/>
  <metadata>
    <rdf:RDF>
      <cc:Work rdf:about="">
        <dc:format>image/svg+xml</dc:format>
        <dc:type rdf:resource="http://purl.org/dc/dcmitype/StillImage"/>
        <dc:title>レンタカー; Rent a car</dc:title>
        <dc:source>http://www.ecomo.or.jp/barrierfree/pictogram/data/zukigo_panfu_jis110.pdf</dc:source>
      </cc:Work>
    </rdf:RDF>
  </metadata>
  <path d="m 7.7686275,56.050503 c -1.7775,0 -3.21875,-1.44 -3.21875,-3.21875 l 0,-45.0637505 c 0,-1.7775 1.44125,-3.2175 3.21875,-3.2175 l 45.0637505,0 c 1.77875,0 3.21875,1.44 3.21875,3.2175 l 0,45.0637505 c 0,1.77875 -1.44,3.21875 -3.21875,3.21875 l -45.0637505,0 z" style="fill:#ffffff;fill-opacity:1;stroke:#000;stroke-width:0.60625005;stroke-linecap:butt;stroke-linejoin:miter;stroke-miterlimit:4;stroke-dasharray:none;stroke-opacity:1"/>
  <path d="m 11.183628,9.5229998 0,33.9787522 1.735,0 0,-33.9787522 -1.735,0 z" style="fill:#000;fill-opacity:1;fill-rule:nonzero;stroke:none"/>
  <path d="m 22.382379,21.239251 -0.56875,-1.78875 c -0.53875,-1.7025 -0.88,-2.1275 -1.85875,-2.1275 l -0.55375,0 0,3.91625 -2.63875,0 0,-9.9075 4.71125,0 c 1.76,0 3.19375,0.79625 3.19375,2.49875 0,1.32 -0.625,2.19875 -1.90125,2.4975 l 0,0.03 c 0.85,0.22625 0.9075,0.97875 1.405,2.185 l 0.96375,2.69625 -2.7525,0 z m 3.41125,-11.7162505 -10.3,0 c -0.88875,0 -1.61,0.7212505 -1.61,1.6087505 l 0,10.30125 c 0,0.88875 0.72125,1.60875 1.61,1.60875 l 10.3,0 c 0.89,0 1.61,-0.72 1.61,-1.60875 l 0,-10.30125 c 0,-0.8875 -0.72,-1.6087505 -1.61,-1.6087505" style="fill:#000;fill-opacity:1;fill-rule:nonzero;stroke:none"/>
  <path d="m 20.097379,13.205501 -0.69625,0 0,2.24375 0.69625,0 c 0.85125,0 1.93,-0.03 1.93,-1.15 0,-0.9225 -0.9225,-1.09375 -1.93,-1.09375" style="fill:#000;fill-opacity:1;fill-rule:nonzero;stroke:none"/>
  <path d="m 43.68613,42.623002 c -1.44625,0 -2.6175,-1.17375 -2.6175,-2.6175 0,-1.4475 1.17125,-2.61875 2.6175,-2.61875 1.44375,0 2.6175,1.17125 2.6175,2.61875 0,1.44375 -1.17375,2.6175 -2.6175,2.6175 z m -19.0975,0 c -1.445,0 -2.6175,-1.17375 -2.6175,-2.6175 0,-1.4475 1.1725,-2.61875 2.6175,-2.61875 1.44625,0 2.6175,1.17125 2.6175,2.61875 0,1.44375 -1.17125,2.6175 -2.6175,2.6175 z m 0.30375,-13.66625 0.07875,-0.0088 c 3.03,-0.315 6.11375,-0.475 9.16625,-0.475 3.05375,0 6.13875,0.16 9.17,0.47625 l 0.07875,0.0087 1.79875,6.26 -22.1,0 1.8075,-6.26125 z m 21.8775,6.26125 -2.2,-7.665 c -3.42125,-0.4025 -6.90375,-0.60875 -10.4325,-0.60875 -3.53,0 -7.01125,0.20625 -10.4325,0.60875 l -2.20125,7.665 c -1.32,0 -2.38375,1.07 -2.38375,2.39 l 0,8.90875 2.36625,0 -0.0012,3.805 c 0.57875,0.20875 1.18875,0.325 1.84125,0.325 0.64125,0 1.27,-0.11 1.84,-0.315 l 0,-3.81625 17.94,-0.0038 0,3.81 c 0.58,0.20875 1.18875,0.325 1.84125,0.325 0.64125,0 1.26875,-0.11 1.84,-0.315 l 0.0012,-3.82 2.375,0 0,-8.90375 c 0,-1.32 -1.0725,-2.39 -2.39375,-2.39" style="fill:#000;fill-opacity:1;fill-rule:nonzero;stroke:none"/>
</svg>
