<?xml version='1.0' encoding='UTF-8' standalone='no'?>
<svg xmlns:cc="http://creativecommons.org/ns#" xmlns:dc="http://purl.org/dc/elements/1.1/" height="60.601002" xmlns:rdf="http://www.w3.org/1999/02/22-rdf-syntax-ns#" xmlns:svg="http://www.w3.org/2000/svg" version="1.1" viewBox="0 0 60.601004 60.601004" width="60.601002" xmlns="http://www.w3.org/2000/svg">
  <defs/>
  <metadata>
    <rdf:RDF>
      <cc:Work rdf:about="">
        <dc:format>image/svg+xml</dc:format>
        <dc:type rdf:resource="http://purl.org/dc/dcmitype/StillImage"/>
        <dc:title>自転車; Bicycle</dc:title>
        <dc:source>http://www.ecomo.or.jp/barrierfree/pictogram/data/zukigo_panfu_jis110.pdf</dc:source>
      </cc:Work>
    </rdf:RDF>
  </metadata>
  <path d="m 7.7855027,56.033003 c -1.77625,0 -3.21625,-1.44125 -3.21625,-3.2175 l 0,-45.0287503 c 0,-1.7775 1.44,-3.21875 3.21625,-3.21875 l 45.0300003,0 c 1.77625,0 3.21625,1.44125 3.21625,3.21875 l 0,45.0287503 c 0,1.77625 -1.44,3.2175 -3.21625,3.2175 l -45.0300003,0 z" style="fill:#ffffff;fill-opacity:1;stroke:#000;stroke-width:0.60625005;stroke-linecap:butt;stroke-linejoin:miter;stroke-miterlimit:4;stroke-dasharray:none;stroke-opacity:1"/>
  <path d="m 33.193005,21.306751 4.4625,0.55625 c 0.09625,0.0125 0.19625,0.02 0.29625,0.02 1.2975,0 2.35125,-1.02375 2.40625,-2.30625 l -7.09375,0 c -0.4775,0 -0.86375,0.38625 -0.86375,0.86375 0,0.47875 0.315,0.86625 0.7925,0.86625" style="fill:#000;fill-opacity:1;fill-rule:nonzero;stroke:none"/>
  <path d="m 43.426755,41.581752 c -3.3825,0 -6.18125,-2.4925 -6.66125,-5.74125 l 6.65125,0 c 0.545,0 0.98625,-0.44125 0.98625,-0.9875 0,-0.545 -0.44125,-0.9875 -0.98625,-0.9875 l -6.6525,0 c 0.47625,-3.25375 3.27625,-5.7525 6.6625,-5.7525 3.71875,0 6.735,3.01625 6.735,6.735 0,3.72 -3.01625,6.73375 -6.735,6.73375 z m -19.455,-6.73375 c 0,3.72 -3.015,6.73375 -6.735,6.73375 -3.71875,0 -6.735,-3.01375 -6.735,-6.73375 0,-3.71875 3.01625,-6.735 6.735,-6.735 0.665,0 1.30625,0.09875 1.9125,0.2775 l -2.845,6.09625 c -0.23,0.49375 -0.01625,1.08125 0.4775,1.3125 0.49375,0.23125 1.0825,0.01625 1.31375,-0.4775 l 2.84,-6.1025 c 1.82875,1.205 3.03625,3.275 3.03625,5.62875 m 19.455,-8.54125 c -4.38625,0 -7.9975,3.305 -8.485,7.55875 l -3.00375,0 5.2025,-11.155 -13.175,0 2.385,-5.12375 3.68,0 0,-1.975 -4.92,0 -5.19125,11.1275 c -0.8425,-0.28 -1.74375,-0.4325 -2.6825,-0.4325 -4.7175,0 -8.5412503,3.82375 -8.5412503,8.54125 0,4.7175 3.8237503,8.5425 8.5412503,8.5425 4.7175,0 8.5425,-3.825 8.5425,-8.5425 0,-3.08 -1.63,-5.7775 -4.075,-7.28 l 1.3425,-2.8825 10.9925,0 -5.2025,11.155 6.1075,0 c 0.4925,4.25 4.10125,7.55 8.4825,7.55 4.7175,0 8.54125,-3.825 8.54125,-8.5425 0,-4.7175 -3.82375,-8.54125 -8.54125,-8.54125" style="fill:#000;fill-opacity:1;fill-rule:nonzero;stroke:none"/>
</svg>
