<?xml version='1.0' encoding='UTF-8' standalone='no'?>
<svg xmlns:cc="http://creativecommons.org/ns#" xmlns:dc="http://purl.org/dc/elements/1.1/" height="60.601002" xmlns:rdf="http://www.w3.org/1999/02/22-rdf-syntax-ns#" xmlns:svg="http://www.w3.org/2000/svg" version="1.1" viewBox="0 0 60.601004 60.601004" width="60.601002" xmlns="http://www.w3.org/2000/svg">
  <defs/>
  <metadata>
    <rdf:RDF>
      <cc:Work rdf:about="">
        <dc:format>image/svg+xml</dc:format>
        <dc:type rdf:resource="http://purl.org/dc/dcmitype/StillImage"/>
        <dc:title>ケーブル鉄道; Cable railway</dc:title>
        <dc:source>http://www.ecomo.or.jp/barrierfree/pictogram/data/zukigo_panfu_jis110.pdf</dc:source>
      </cc:Work>
    </rdf:RDF>
  </metadata>
  <path d="m 7.7855027,56.031753 c -1.77625,0 -3.21625,-1.44 -3.21625,-3.21625 l 0,-45.0300003 c 0,-1.77625 1.44,-3.21625 3.21625,-3.21625 l 45.0312503,0 c 1.775,0 3.215,1.44 3.215,3.21625 l 0,45.0300003 c 0,1.77625 -1.44,3.21625 -3.215,3.21625 l -45.0312503,0 z" style="fill:#ffffff;fill-opacity:1;stroke:#000;stroke-width:0.60625005;stroke-linecap:butt;stroke-linejoin:miter;stroke-miterlimit:4;stroke-dasharray:none;stroke-opacity:1"/>
  <path d="m 39.549255,25.198001 0,-7.2525 5.44125,-1.98 0.88375,6.93625 -6.325,2.29625 z m -1.96,0.7125 -6.3075,2.2875 0,-7.24125 6.3075,-2.2975 0,7.25125 m -8.2675,2.9975 -6.30875,2.29125 0,-7.2325 6.30875,-2.295 0,7.23625 m -8.2675,3.00375 -6.18,2.24125 0.78125,-7.50625 5.39875,-1.96625 0,7.23125 m 26.76125,-9.36875 -1.04875,-8.2125 c -0.08125,-0.40375 -0.4375,-0.705 -0.86375,-0.705 -0.0975,0 -0.19,0.015 -0.27875,0.045 l -31.28625,11.36875 c -0.31125,0.11375 -0.5425,0.39875 -0.57625,0.74125 l -0.975,9.52 0,8.7375 35.02875,-12.75 0,-8.745" style="fill:#000;fill-opacity:1;fill-rule:nonzero;stroke:none"/>
  <path d="m 52.699256,31.243002 -44.4725003,16.185 0.00625,1.71 44.4725003,-16.185 -0.0063,-1.71" style="fill:#000;fill-opacity:1;fill-rule:nonzero;stroke:none"/>
</svg>
