<?xml version='1.0' encoding='UTF-8' standalone='no'?>
<svg xmlns:cc="http://creativecommons.org/ns#" xmlns:dc="http://purl.org/dc/elements/1.1/" height="60.601002" xmlns:rdf="http://www.w3.org/1999/02/22-rdf-syntax-ns#" xmlns:svg="http://www.w3.org/2000/svg" version="1.1" viewBox="0 0 60.601004 60.601004" width="60.601002" xmlns="http://www.w3.org/2000/svg">
  <defs/>
  <metadata>
    <rdf:RDF>
      <cc:Work rdf:about="">
        <dc:format>image/svg+xml</dc:format>
        <dc:type rdf:resource="http://purl.org/dc/dcmitype/StillImage"/>
        <dc:title>出発; Departures</dc:title>
        <dc:source>http://www.ecomo.or.jp/barrierfree/pictogram/data/zukigo_panfu_jis110.pdf</dc:source>
      </cc:Work>
    </rdf:RDF>
  </metadata>
  <path d="m 7.7861277,56.032378 c -1.77625,0 -3.2175,-1.44 -3.2175,-3.2175 l 0,-45.0300003 c 0,-1.77625 1.44125,-3.21625 3.2175,-3.21625 l 45.0300003,0 c 1.77625,0 3.21625,1.44 3.21625,3.21625 l 0,45.0300003 c 0,1.7775 -1.44,3.2175 -3.21625,3.2175 l -45.0300003,0 z" style="fill:#ffffff;fill-opacity:1;stroke:#000;stroke-width:0.60625005;stroke-linecap:butt;stroke-linejoin:miter;stroke-miterlimit:4;stroke-dasharray:none;stroke-opacity:1"/>
  <path d="m 26.746128,48.594878 0,2.56875 29.286253,0 0,-2.56875 -29.286253,0 z" style="fill:#000;fill-opacity:1;fill-rule:nonzero;stroke:none"/>
  <path d="m 54.371131,22.259876 -3.28875,-1.19875 -6.6725,2.435 -7.585,-2.76125 13.09875,-6.02125 -4.1775,-1.6075 -19.8325,3.65875 -12.875,-4.685 c -1.1925,-0.4325 -2.475,0.1675 -2.885,1.2975 -0.4087503,1.13 0.19125,2.41125 1.3825,2.845 l 35.38125,12.86125 7.45375,-6.82375" style="fill:#000;fill-opacity:1;fill-rule:nonzero;stroke:none"/>
</svg>
