<?xml version='1.0' encoding='UTF-8' standalone='no'?>
<svg xmlns:cc="http://creativecommons.org/ns#" xmlns:dc="http://purl.org/dc/elements/1.1/" height="60.601002" xmlns:rdf="http://www.w3.org/1999/02/22-rdf-syntax-ns#" xmlns:svg="http://www.w3.org/2000/svg" version="1.1" viewBox="0 0 60.601004 60.601004" width="60.601002" xmlns="http://www.w3.org/2000/svg">
  <defs/>
  <metadata>
    <rdf:RDF>
      <cc:Work rdf:about="">
        <dc:format>image/svg+xml</dc:format>
        <dc:type rdf:resource="http://purl.org/dc/dcmitype/StillImage"/>
        <dc:title>到着; Arrivals</dc:title>
        <dc:source>http://www.ecomo.or.jp/barrierfree/pictogram/data/zukigo_panfu_jis110.pdf</dc:source>
      </cc:Work>
    </rdf:RDF>
  </metadata>
  <path d="m 7.7842527,56.031753 c -1.77625,0 -3.21625,-1.44 -3.21625,-3.21625 l 0,-45.0312503 c 0,-1.77625 1.44,-3.215 3.21625,-3.215 l 45.0312503,0 c 1.77625,0 3.2175,1.43875 3.2175,3.215 l 0,45.0312503 c 0,1.77625 -1.44125,3.21625 -3.2175,3.21625 l -45.0312503,0 z" style="fill:#ffffff;fill-opacity:1;stroke:#000;stroke-width:0.60625005;stroke-linecap:butt;stroke-linejoin:miter;stroke-miterlimit:4;stroke-dasharray:none;stroke-opacity:1"/>
  <path d="m 4.5680027,48.595503 0,2.56875 29.2862523,0 0,-2.56875 -29.2862523,0 z" style="fill:#000;fill-opacity:1;fill-rule:nonzero;stroke:none"/>
  <path d="m 17.206754,44.479252 c 0.51375,-0.1375 0.81875,-0.66625 0.68125,-1.18125 -0.1375,-0.51375 -0.66625,-0.82125 -1.18125,-0.6825 -0.51375,0.13875 -0.82,0.6675 -0.6825,1.18125 0.13875,0.515 0.6675,0.82125 1.1825,0.6825" style="fill:#000;fill-opacity:1;fill-rule:nonzero;stroke:none"/>
  <path d="m 49.238006,23.619251 -4.07,5.82125 -7.79625,2.08875 7.2775,-12.445 -4.345,1.08 -14.145,14.37 -13.235,3.545 c -1.22375,0.32875 -1.93125,1.5575 -1.61875,2.71625 0.3125,1.16125 1.53875,1.86875 2.765,1.53875 l 36.3575,-9.755 2.1925,-9.86375 -3.3825,0.90375" style="fill:#000;fill-opacity:1;fill-rule:nonzero;stroke:none"/>
</svg>
