<?xml version='1.0' encoding='UTF-8' standalone='no'?>
<svg xmlns:cc="http://creativecommons.org/ns#" xmlns:dc="http://purl.org/dc/elements/1.1/" height="60.601002" xmlns:rdf="http://www.w3.org/1999/02/22-rdf-syntax-ns#" xmlns:svg="http://www.w3.org/2000/svg" version="1.1" viewBox="0 0 60.601004 60.601004" width="60.601002" xmlns="http://www.w3.org/2000/svg">
  <defs/>
  <metadata>
    <rdf:RDF>
      <cc:Work rdf:about="">
        <dc:format>image/svg+xml</dc:format>
        <dc:type rdf:resource="http://purl.org/dc/dcmitype/StillImage"/>
        <dc:title>乗り継ぎ; Connecting flights</dc:title>
        <dc:source>http://www.ecomo.or.jp/barrierfree/pictogram/data/zukigo_panfu_jis110.pdf</dc:source>
      </cc:Work>
    </rdf:RDF>
  </metadata>
  <path d="m 7.7855027,56.031753 c -1.77625,0 -3.21625,-1.44 -3.21625,-3.21625 l 0,-45.0312503 c 0,-1.775 1.44,-3.215 3.21625,-3.215 l 45.0312503,0 c 1.775,0 3.215,1.44 3.215,3.215 l 0,45.0312503 c 0,1.77625 -1.44,3.21625 -3.215,3.21625 l -45.0312503,0 z" style="fill:#ffffff;fill-opacity:1;stroke:#000;stroke-width:0.60625005;stroke-linecap:butt;stroke-linejoin:miter;stroke-miterlimit:4;stroke-dasharray:none;stroke-opacity:1"/>
  <path d="m 22.558004,34.944252 -0.0012,-7.28 c 0,-0.69125 -0.54625,-1.2375 -1.20125,-1.2375 -0.655,0 -1.20125,0.54625 -1.20125,1.2375 l 0.0012,7.28 -10.1937503,5.715 0,2.55 10.1937503,-2.95 0,5.31375 -2.4025,1.78375 0,2.1125 3.6025,-1.20125 3.605,1.20125 0,-2.1125 -2.4025,-1.78375 0,-5.31375 10.1925,2.94875 0,-2.55 -10.1925,-5.71375" style="fill:#000;fill-opacity:1;fill-rule:nonzero;stroke:none"/>
  <path d="m 41.390505,33.036752 0,-2.11125 -2.4025,-1.7825 0,-5.31625 10.1925,2.94875 0,-2.5475 -10.1925,-5.715 0,-7.28 c -0.0012,-0.69125 -0.5475,-1.2375003 -1.2025,-1.2375003 -0.655,0 -1.2,0.5462503 -1.2,1.2375003 l 0,7.28 -10.19375,5.71625 0,2.5475 10.19375,-2.94875 0,5.315 -2.40375,1.7825 0,2.11125 3.60375,-1.20125 3.605,1.20125" style="fill:#000;fill-opacity:1;fill-rule:nonzero;stroke:none"/>
  <path d="m 12.091754,23.859251 c 0.43375,0.17625 0.92875,-0.03375 1.105,-0.46875 0.175,-0.43375 -0.03375,-0.93 -0.46875,-1.105 -0.435,-0.17625 -0.93,0.03375 -1.10625,0.46875 -0.175,0.43375 0.035,0.92875 0.47,1.105" style="fill:#000;fill-opacity:1;fill-rule:nonzero;stroke:none"/>
  <path d="m 11.006753,29.529252 c 0.38875,0.03 0.72875,-0.2625 0.75875,-0.65125 0.02875,-0.39125 -0.2625,-0.73 -0.65125,-0.76 -0.39,-0.03 -0.72875,0.26125 -0.76,0.65125 -0.03,0.39 0.2625,0.72875 0.6525,0.76" style="fill:#000;fill-opacity:1;fill-rule:nonzero;stroke:none"/>
  <path d="m 14.563004,19.090501 c 0.44,0.34875 1.08125,0.2775 1.43125,-0.16375 0.35125,-0.44 0.27625,-1.0825 -0.1625,-1.43125 -0.44125,-0.35 -1.08125,-0.2775 -1.4325,0.16375 -0.34875,0.43875 -0.27625,1.08125 0.16375,1.43125" style="fill:#000;fill-opacity:1;fill-rule:nonzero;stroke:none"/>
  <path d="m 19.930504,15.504251 c 0.55375,-0.3875 0.68875,-1.15 0.30125,-1.7025 -0.3875,-0.55375 -1.15,-0.6875 -1.7025,-0.3 -0.5525,0.38625 -0.6875,1.14875 -0.3,1.7025 0.38625,0.5525 1.15,0.68625 1.70125,0.3" style="fill:#000;fill-opacity:1;fill-rule:nonzero;stroke:none"/>
  <path d="m 24.638004,13.398 c 0.7675,-0.25625 1.18125,-1.0875 0.92375,-1.85625 -0.2575,-0.76875 -1.09,-1.18125 -1.8575,-0.92375 -0.76625,0.2575 -1.18,1.08875 -0.92375,1.85625 0.2575,0.7675 1.08875,1.1825 1.8575,0.92375" style="fill:#000;fill-opacity:1;fill-rule:nonzero;stroke:none"/>
  <path d="m 29.925505,12.78675 c 0.97125,-0.02 1.74125,-0.82625 1.7225,-1.7975 -0.02125,-0.97125 -0.82625,-1.7437503 -1.7975,-1.7225003 -0.97125,0.02 -1.7425,0.8262503 -1.7225,1.7962503 0.02,0.9725 0.825,1.74375 1.7975,1.72375" style="fill:#000;fill-opacity:1;fill-rule:nonzero;stroke:none"/>
  <path d="m 48.510506,36.741752 c -0.435,-0.175 -0.93125,0.03375 -1.10625,0.47 -0.17625,0.435 0.035,0.92875 0.47,1.10375 0.43375,0.17625 0.92875,-0.035 1.105,-0.46875 0.17625,-0.43375 -0.035,-0.92875 -0.46875,-1.105" style="fill:#000;fill-opacity:1;fill-rule:nonzero;stroke:none"/>
  <path d="m 49.594256,31.073002 c -0.38875,-0.03 -0.73,0.26125 -0.75875,0.65125 -0.03,0.38875 0.26125,0.73 0.65125,0.75875 0.39,0.03125 0.73,-0.26125 0.76,-0.65125 0.03,-0.38875 -0.2625,-0.72875 -0.6525,-0.75875" style="fill:#000;fill-opacity:1;fill-rule:nonzero;stroke:none"/>
  <path d="m 46.038005,41.510502 c -0.44,-0.35 -1.08125,-0.27625 -1.43125,0.16375 -0.35,0.44125 -0.2775,1.08125 0.1625,1.43125 0.44,0.35125 1.08125,0.2775 1.43125,-0.1625 0.35125,-0.44125 0.2775,-1.08125 -0.1625,-1.4325" style="fill:#000;fill-opacity:1;fill-rule:nonzero;stroke:none"/>
  <path d="m 40.669255,45.098002 c -0.55375,0.38625 -0.6875,1.14875 -0.3,1.7025 0.38625,0.55125 1.14875,0.6875 1.7025,0.29875 0.5525,-0.3875 0.68625,-1.14875 0.3,-1.7025 -0.3875,-0.5525 -1.14875,-0.68625 -1.7025,-0.29875" style="fill:#000;fill-opacity:1;fill-rule:nonzero;stroke:none"/>
  <path d="m 35.963005,47.201753 c -0.7675,0.25875 -1.18125,1.08875 -0.92375,1.8575 0.2575,0.7675 1.0875,1.1825 1.85625,0.925 0.7675,-0.2575 1.1825,-1.08875 0.925,-1.8575 -0.2575,-0.7675 -1.08875,-1.1825 -1.8575,-0.925" style="fill:#000;fill-opacity:1;fill-rule:nonzero;stroke:none"/>
  <path d="m 30.675505,47.814253 c -0.97125,0.02125 -1.74375,0.825 -1.7225,1.7975 0.02,0.9725 0.825,1.7425 1.79625,1.7225 0.9725,-0.02 1.74375,-0.82375 1.7225,-1.79625 -0.02,-0.9725 -0.82375,-1.7425 -1.79625,-1.72375" style="fill:#000;fill-opacity:1;fill-rule:nonzero;stroke:none"/>
</svg>
