<?xml version="1.0" encoding="UTF-8"?>
<svg width="60.601" height="60.601" version="1.1" viewBox="0 0 60.601 60.601" xmlns="http://www.w3.org/2000/svg" xmlns:cc="http://creativecommons.org/ns#" xmlns:dc="http://purl.org/dc/elements/1.1/" xmlns:rdf="http://www.w3.org/1999/02/22-rdf-syntax-ns#">
 <metadata>
  <rdf:RDF>
   <cc:Work rdf:about="">
    <dc:format>image/svg+xml</dc:format>
    <dc:type rdf:resource="http://purl.org/dc/dcmitype/StillImage"/>
    <dc:title>乗り継ぎ; Connecting flights</dc:title>
    <dc:source>http://www.mlit.go.jp/common/001245686.pdf</dc:source>
   </cc:Work>
  </rdf:RDF>
 </metadata>
 <path d="m7.7855 56.032c-1.7762 0-3.2162-1.44-3.2162-3.2162v-45.031c0-1.775 1.44-3.215 3.2162-3.215h45.031c1.775 0 3.215 1.44 3.215 3.215v45.031c0 1.7762-1.44 3.2162-3.215 3.2162h-45.031z" style="fill:#fff;stroke-width:.60625;stroke:#000"/>
 <path d="m18.723 24.203v-1.5171l-1.7316-1.2809v-3.8202l7.3462 2.1189v-1.8306l-7.3462-4.1067v-5.2313c-8.6e-4 -0.49672-0.39461-0.88924-0.8667-0.88924s-0.8649 0.39253-0.8649 0.88924v5.2313l-7.3471 4.1076v1.8306l7.3471-2.1189v3.8193l-1.7325 1.2809v1.5171l2.5974-0.8632 2.5983 0.8632"/>
 <path d="m47.073 24.203v-1.5171l-1.7316-1.2809v-3.8202l7.3462 2.1189v-1.8306l-7.3462-4.1067v-5.2313c-8.7e-4 -0.49672-0.39461-0.88924-0.8667-0.88924s-0.8649 0.39253-0.8649 0.88924v5.2313l-7.3472 4.1076v1.8306l7.3472-2.1189v3.8193l-1.7325 1.2809v1.5171l2.5974-0.8632 2.5983 0.8632"/>
 <path d="m23.482 36.465 0.28246-1.6043c-0.20337-0.09602-0.40672-0.17512-0.62138-0.24856 0.48581-1.7398 1.4744-3.3102 2.3612-4.3101l-0.65526 4.5982-0.45756 1.7229zm-2.4742-1.4744c0.32763 0 0.64961 0.03384 0.9716 0.09038 0.31634 0.05654 0.63267 0.14129 0.93772 0.24856l-0.17512 1.0055-1.9093-0.33894zm10.208-11.032h-0.03384c-4.4739 0.18642-8.6823 4.0559-9.9816 9.5523-0.05654 0.2429-0.10166 0.48581-0.14687 0.72871-0.23161-0.0057-0.45191 0.0057-0.67786 0.02256l-0.28246 1.6043-3.0786-0.54229c-0.36153-0.06218-0.70047 0.17511-0.76261 0.53664l-1.1128 6.2872c-0.06218 0.36153 0.18076 0.70611 0.53665 0.76825l6.7278 1.1863-1.9545 7.3661 2.6889 1.5534 4.4005-11.032 3.7565 11.032h3.1464l-3.8073-18.031 1.0902-3.9881c1.3218 1.6834 2.8018 3.2425 4.4061 4.6547l1.785-1.0507c-2.6832-3.0447-4.8467-6.5584-6.3437-10.405-0.05654-0.14114-0.19206-0.2429-0.35587-0.2429"/>
 <circle cx="30.831" cy="20.628" r="2.6485"/>
</svg>
