<?xml version='1.0' encoding='UTF-8' standalone='no'?>
<svg xmlns:cc="http://creativecommons.org/ns#" xmlns:dc="http://purl.org/dc/elements/1.1/" height="60.601002" xmlns:rdf="http://www.w3.org/1999/02/22-rdf-syntax-ns#" xmlns:svg="http://www.w3.org/2000/svg" version="1.1" viewBox="0 0 60.601004 60.601004" width="60.601002" xmlns="http://www.w3.org/2000/svg">
  <defs/>
  <metadata>
    <rdf:RDF>
      <cc:Work rdf:about="">
        <dc:format>image/svg+xml</dc:format>
        <dc:type rdf:resource="http://purl.org/dc/dcmitype/StillImage"/>
        <dc:title>手荷物受取所; Baggage claim</dc:title>
        <dc:source>http://www.ecomo.or.jp/barrierfree/pictogram/data/zukigo_panfu_jis110.pdf</dc:source>
      </cc:Work>
    </rdf:RDF>
  </metadata>
  <path d="m 7.7867527,56.031753 c -1.77625,0 -3.2175,-1.44 -3.2175,-3.21625 l 0,-45.0312503 c 0,-1.775 1.44125,-3.215 3.2175,-3.215 l 45.0300003,0 c 1.77625,0 3.215,1.44 3.215,3.215 l 0,45.0312503 c 0,1.77625 -1.43875,3.21625 -3.215,3.21625 l -45.0300003,0 z" style="fill:#ffffff;fill-opacity:1;stroke:#000;stroke-width:0.60625005;stroke-linecap:butt;stroke-linejoin:miter;stroke-miterlimit:4;stroke-dasharray:none;stroke-opacity:1"/>
  <path d="m 33.666755,20.324251 -6.73,0 0,-2.465 c 1.10625,-0.2025 2.235,-0.30875 3.365,-0.30875 1.125,0 2.2525,0.10625 3.365,0.31125 l 0,2.4625 z m -18.37,0 c -1.13125,0 -2.04625,0.915 -2.04625,2.045 l -0.0013,19.78125 c 0,1.13125 0.91625,2.04625 2.04625,2.04625 l 3.555,0 0,-23.8725 -3.55375,0 m 30.01125,23.87625 c 1.13,0 2.045,-0.9175 2.045,-2.0475 l -0.005,-19.78125 c 0,-1.13125 -0.915,-2.0475 -2.04625,-2.0475 l -3.5475,0 0,23.875 3.55375,0.0012 m -5.51375,-0.0012 0,-23.875 -4.165,0 0,-4.0425 -0.6025,-0.14125 c -1.5525,-0.36375 -3.14,-0.55 -4.725,-0.55 -1.59375,0 -3.1825,0.18625 -4.72375,0.55 l -0.60125,0.1425 0,4.04125 -4.16625,0 0,23.8725 18.98375,0.0025" style="fill:#000;fill-opacity:1;fill-rule:nonzero;stroke:none"/>
</svg>
