<?xml version='1.0' encoding='UTF-8' standalone='no'?>
<svg xmlns:cc="http://creativecommons.org/ns#" xmlns:dc="http://purl.org/dc/elements/1.1/" height="60.601002" xmlns:rdf="http://www.w3.org/1999/02/22-rdf-syntax-ns#" xmlns:svg="http://www.w3.org/2000/svg" version="1.1" viewBox="0 0 60.601004 60.601004" width="60.601002" xmlns="http://www.w3.org/2000/svg">
  <defs/>
  <metadata>
    <rdf:RDF>
      <cc:Work rdf:about="">
        <dc:format>image/svg+xml</dc:format>
        <dc:type rdf:resource="http://purl.org/dc/dcmitype/StillImage"/>
        <dc:title>出国手続／入国手続／検疫／書類審査; Immigration/Quarantine / Inspection</dc:title>
        <dc:source>http://www.ecomo.or.jp/barrierfree/pictogram/data/zukigo_panfu_jis110.pdf</dc:source>
      </cc:Work>
    </rdf:RDF>
  </metadata>
  <path d="m 7.7792527,56.039878 c -1.7775,0 -3.2175,-1.44125 -3.2175,-3.21875 l 0,-45.0425003 c 0,-1.77875 1.44,-3.2175 3.2175,-3.2175 l 45.0425003,0 c 1.7775,0 3.2175,1.43875 3.2175,3.2175 l 0,45.0425003 c 0,1.7775 -1.44,3.21875 -3.2175,3.21875 l -45.0425003,0 z" style="fill:#ffffff;fill-opacity:1;stroke:#000;stroke-width:0.60625005;stroke-linecap:butt;stroke-linejoin:miter;stroke-miterlimit:4;stroke-dasharray:none;stroke-opacity:1"/>
  <path d="m 35.185505,23.543626 c 2.34625,0 4.24625,-1.9 4.24625,-4.24625 l 0,-2.4775 -8.87125,0 -1.7825,2.12375 2.16125,0 0,0.35375 c 0,2.34625 1.90125,4.24625 4.24625,4.24625" style="fill:#000;fill-opacity:1;fill-rule:nonzero;stroke:none"/>
  <path d="m 39.431755,15.758626 0.8425,-2.3125 -11.5475,-1.62375 1.83375,3.93625 8.87125,0" style="fill:#000;fill-opacity:1;fill-rule:nonzero;stroke:none"/>
  <path d="m 42.380505,25.818626 c -1.425,-0.395 -2.8975,-0.67375 -4.40875,-0.82875 l -2.77375,4.7475 -2.7725,-4.74625 c -1.5175,0.155 -2.9975,0.435 -4.4275,0.8325 -0.395,0.11125 -0.78625,0.22375 -1.1725,0.3525 -0.2425,0.08 -0.45125,0.235 -0.605,0.43375 l -4.0125,5.18875 -7.36875,-4.2525 0,4.6075 5.8475,4.205 c 0.5825,0.42 1.29625,0.66875 2.0675,0.66875 0.9775,0 1.86,-0.39875 2.5,-1.03875 l 2.605,-2.605 0,14.61 16.9175,0 1.45375,-16.60875 c 0.2175,-2.49125 -1.355,-4.865 -3.85,-5.56625" style="fill:#000;fill-opacity:1;fill-rule:nonzero;stroke:none"/>
  <path d="m 14.925504,17.358626 2.70875,1.5725 0,5.3425 1.30375,0 0,-6.915 -4.0125,0 z m 5.1375,8.04125 -2.42875,0 0,2.6975 -4.64875,-2.6975 0,-9.16875 7.0775,0 0,9.16875" style="fill:#000;fill-opacity:1;fill-rule:nonzero;stroke:none"/>
</svg>
