<?xml version="1.0" encoding="UTF-8"?>
<svg width="60.601" height="60.601" version="1.1" viewBox="0 0 60.601 60.601" xmlns="http://www.w3.org/2000/svg" xmlns:cc="http://creativecommons.org/ns#" xmlns:dc="http://purl.org/dc/elements/1.1/" xmlns:rdf="http://www.w3.org/1999/02/22-rdf-syntax-ns#">
 <title>駅事務室/駅係員; Station office/Station staff</title>
 <metadata>
  <rdf:RDF>
   <cc:Work rdf:about="">
    <dc:format>image/svg+xml</dc:format>
    <dc:type rdf:resource="http://purl.org/dc/dcmitype/StillImage"/>
    <dc:title>駅事務室/駅係員; Station office/Station staff</dc:title>
    <dc:source>http://www.ecomo.or.jp/barrierfree/pictogram/data/zukigo_panfu_20170719.pdf</dc:source>
   </cc:Work>
  </rdf:RDF>
 </metadata>
 <path d="m7.9493 55.845c-1.7638 0-3.1925-1.4312-3.1925-3.195v-44.701c0-1.7625 1.4288-3.1925 3.1925-3.1925h44.701c1.7638 0 3.1938 1.43 3.1938 3.1925v44.701c0 1.7638-1.43 3.195-3.1938 3.195h-44.701z" style="fill:#fff;stroke-width:.60625;stroke:#000"/>
 <path d="m25.24 26.762c2.3361 0 4.2249-1.8899 4.2249-4.2273v-2.4669h-8.8323l-1.7712 2.1136h2.1478v0.35326c0 2.3374 1.8947 4.2273 4.2308 4.2273"/>
 <path d="m29.465 19.008 0.83557-2.302-11.492-1.6191 1.8241 3.9211z"/>
 <path d="m17.944 36.565v14.283h16.864l1.424-16.279c0.21772-2.4787-1.3475-4.8455-3.8307-5.5402-1.4181-0.39447-2.8892-0.67118-4.3897-0.82427l-2.7597 4.7277-2.7597-4.7277c-1.5123 0.15309-2.9833 0.4298-4.4073 0.83016-0.39425 0.11183-0.78262 0.22372-1.1651 0.34735-0.24714 0.08244-0.45309 0.2355-0.60609 0.4298l-2.8833 3.7386-2.0536-5.0751h-3.7718l2.6067 9.7204c0.32952 1.2364 1.4534 2.149 2.7892 2.149 0.79437 0 1.5122-0.32381 2.036-0.84781z"/>
 <path d="m38.903 13.963c0-0.4298 0.34717-0.77717 0.77671-0.77717h9.003c0.42954 0 0.77672 0.34737 0.77672 0.77717v3.7916c0 0.4298-0.34718 0.77717-0.77672 0.77717h-9.003c-0.42954 0-0.77671-0.34737-0.77671-0.77717zm2.0124-3.2499c0-0.17075 0.13527-0.31205 0.31186-0.31205h5.9137c0.17065 0 0.31187 0.14123 0.31187 0.31205v0.85958c0 0.17074-0.14115 0.31204-0.31187 0.31204h-5.9137c-0.17652 0-0.31186-0.14123-0.31186-0.31204zm6.8964 11.875c-0.58842 0-1.0651-0.47688-1.0651-1.0656 0-0.59464 0.47664-1.0715 1.0651-1.0715 0.59431 0 1.0709 0.4769 1.0709 1.0715 0 0.58876-0.47663 1.0656-1.0709 1.0656m-7.2612 0c-0.58843 0-1.0709-0.47688-1.0709-1.0656 0-0.59464 0.48251-1.0715 1.0709-1.0715 0.58842 0 1.0709 0.4769 1.0709 1.0715 0 0.58876-0.48252 1.0656-1.0709 1.0656m-0.26479 1.99-2.9598 3.6797h2.0889l1.7417-2.149h6.0549l1.7359 2.149h2.0889l-2.9539-3.6738c0.56489-0.08244 1.118-0.1884 1.6653-0.31204 0.65903-1.2364 1.0415-2.6435 1.0415-4.1448v-8.1543c0-1.2658-0.92971-2.3197-2.1536-2.4963h-8.9088c-1.218 0.17663-2.1536 1.2305-2.1536 2.4963v8.1543c0 1.4896 0.37659 2.8967 1.0297 4.1331 0.55313 0.12359 1.118 0.22961 1.6829 0.31792"/>
</svg>
