<?xml version="1.0" encoding="UTF-8"?>
<svg width="60.601" height="60.601" version="1.1" viewBox="0 0 60.601 60.601" xmlns="http://www.w3.org/2000/svg" xmlns:cc="http://creativecommons.org/ns#" xmlns:dc="http://purl.org/dc/elements/1.1/" xmlns:rdf="http://www.w3.org/1999/02/22-rdf-syntax-ns#">
 <title>一般車; Car</title>
 <metadata>
  <rdf:RDF>
   <cc:Work rdf:about="">
    <dc:format>image/svg+xml</dc:format>
    <dc:type rdf:resource="http://purl.org/dc/dcmitype/StillImage"/>
    <dc:title>一般車; Car</dc:title>
    <dc:source>http://www.ecomo.or.jp/barrierfree/pictogram/data/zukigo_panfu_20170719.pdf</dc:source>
   </cc:Work>
  </rdf:RDF>
 </metadata>
 <path d="m7.9493 55.845c-1.7638 0-3.1925-1.4312-3.1925-3.195v-44.701c0-1.7625 1.4288-3.1925 3.1925-3.1925h44.701c1.7638 0 3.1938 1.43 3.1938 3.1925v44.701c0 1.7638-1.43 3.195-3.1938 3.195h-44.701z" style="fill:#fff;stroke-width:.60625;stroke:#000"/>
 <path d="m41.045 34.855c-1.3821 0-2.4995-1.1188-2.4995-2.5025s1.1174-2.5084 2.4995-2.5084c1.3821 0 2.5054 1.1246 2.5054 2.5084s-1.1233 2.5025-2.5054 2.5025m-21.49 0c-1.3821 0-2.5054-1.1188-2.5054-2.5025 0-1.3896 1.1233-2.5084 2.5054-2.5084 1.3821 0 2.5054 1.1188 2.5054 2.5084 0 1.3837-1.1233 2.5025-2.5054 2.5025m0.61751-14.621c3.317-0.34151 6.7222-0.51229 10.127-0.51229 3.4111 0 6.8104 0.17077 10.133 0.51229l1.9232 6.7244h-24.113zm24.342 6.7244-2.476-8.6381c-3.8698-0.45339-7.7867-0.67715-11.739-0.67715-3.9522 0-7.869 0.22376-11.739 0.67715l-2.476 8.6381c-1.4879 0-2.6818 1.2012-2.6818 2.6909v10.039h2.6583v4.2866c0.65282 0.23553 1.3409 0.36507 2.0702 0.36507 0.72339 0 1.4291-0.1236 2.0761-0.3533v-4.2984l20.19-6e-3 -6e-3 4.2925c0.65281 0.23553 1.3409 0.36508 2.0761 0.36508 0.7175 0 1.4291-0.12361 2.0702-0.3533v-4.3043h2.67v-10.034c0-1.4897-1.2056-2.6909-2.6936-2.6909"/>
</svg>
