<?xml version="1.0" encoding="UTF-8"?>
<svg width="60.601" height="60.601" version="1.1" viewBox="0 0 60.601 60.601" xmlns="http://www.w3.org/2000/svg" xmlns:cc="http://creativecommons.org/ns#" xmlns:dc="http://purl.org/dc/elements/1.1/" xmlns:rdf="http://www.w3.org/1999/02/22-rdf-syntax-ns#">
 <title>レンタサイクル/シェアサイクル; Rental bicycle/Bicycle sharing</title>
 <metadata>
  <rdf:RDF>
   <cc:Work rdf:about="">
    <dc:format>image/svg+xml</dc:format>
    <dc:type rdf:resource="http://purl.org/dc/dcmitype/StillImage"/>
    <dc:title>レンタサイクル/シェアサイクル; Rental bicycle/Bicycle sharing</dc:title>
    <dc:source>http://www.ecomo.or.jp/barrierfree/pictogram/data/zukigo_panfu_20170719.pdf</dc:source>
   </cc:Work>
  </rdf:RDF>
 </metadata>
 <path d="m7.9493 55.845c-1.7638 0-3.1925-1.4312-3.1925-3.195v-44.701c0-1.7625 1.4288-3.1925 3.1925-3.1925h44.701c1.7638 0 3.1938 1.43 3.1938 3.1925v44.701c0 1.7638-1.43 3.195-3.1938 3.195h-44.701z" style="fill:#fff;stroke-width:.60625;stroke:#000"/>
 <path d="m38.915 31.657c0.09411 0.01206 0.19419 0.0235 0.28834 0.0235 1.271 0 2.3008-1.0004 2.3597-2.2538h-6.9378c-0.46489 0-0.84149 0.37661-0.84149 0.84149 0 0.47076 0.306 0.84736 0.77086 0.84736z"/>
 <path d="m43.405 49.181c-2.5598 0-4.7017-1.8477-5.1548-4.2839h5.1548c0.2648 0 0.50607-0.1059 0.6826-0.28246l3.6543-3.6248c0.57668 0.84148 0.9121 1.8536 0.9121 2.9481 0 2.8893-2.3538 5.2431-5.249 5.2431m0-12.41c-3.4071 0-6.2552 2.3773-6.9849 5.5667h-2.5186l4.5781-9.8212h-2.1184l-4.5722 9.8094c-0.70614-0.07065-1.3593-0.41779-1.8183-0.9827l-6.5494-7.8381 2.3832-5.1136h3.619v-1.9183h-4.8429l-4.9489 10.621c-0.67672-0.21185-1.3887-0.32366-2.1302-0.32366-0.92975 0-1.8124 0.17654-2.6304 0.50019l0.18243 2.0301c0.72967-0.38837 1.5653-0.61199 2.4479-0.61199 0.4531 0 0.88855 0.0589 1.3064 0.16477l-2.1773 4.6782c-0.2236 0.48252-0.01763 1.0533 0.46488 1.2769 0.48252 0.22361 1.0533 0.01205 1.2769-0.46487l2.1773-4.6723c1.3299 0.95328 2.2008 2.5068 2.2008 4.2662 0 2.8893-2.3597 5.2431-5.2489 5.2431-0.55904 0-1.1004-0.08827-1.6065-0.24716l0.17654 2.0302c0.46486 0.09415 0.94151 0.14115 1.4299 0.14115 3.9602 0 7.1673-3.207 7.1673-7.1673 0-2.5362-1.3122-4.7547-3.2953-6.0316l0.85325-1.836 5.7609 6.8966c0.96505 1.1769 2.4303 1.9301 4.0662 1.9301h4.2545c0.46489 3.5013 3.466 6.2081 7.0967 6.2081 3.9603 0 7.1673-3.207 7.1673-7.1673 0-3.9603-3.207-7.1673-7.1673-7.1673"/>
 <path d="m10.499 33.675v17.748h4.8017l-1.4711-16.847c-1.0357-0.47076-2.1537-0.78264-3.3306-0.90032"/>
 <path d="m44.747 22.636c-0.05886 0.4943-0.40604 0.90033-0.85325 1.0592l-0.89444-1.6771h0.71791c0.306 0 0.59433-0.09415 0.83559-0.24716l0.047 0.10002c0.12941 0.23538 0.17655 0.50018 0.14718 0.76498m-3.8661-0.15299c-0.04113 0.63552-0.54138 1.1298-1.1475 1.1946l-0.47665-1.6594h1.5712l0.01762 0.07652c0.03525 0.1294 0.047 0.25891 0.03525 0.38837m4.3898-10.516c0-0.85326-0.69436-1.5476-1.5535-1.5476h-0.60021l1.7065-1.0592c0.14115-0.088273 0.31188-0.14115 0.48841-0.14115 0.08824-0.00599 0.17652 0.00599 0.2648 0.029375l7.1379 1.883v-1.3652l-6.7966-1.7948c-0.20007-0.053023-0.41778-0.082398-0.62964-0.076523-0.41192 0.00599-0.81794 0.1294-1.1651 0.3413l-3.466 2.1831-11.663 6e-3c-0.85913 0-1.5535 0.69437-1.5535 1.5535v8.4913c0 0.85913 0.69438 1.5535 1.5535 1.5535l8.8915-6e-3 0.81794 2.8657 0.40014 0.07652c0.10586 0.0235 0.20596 0.03525 0.306 0.04112 1.2416 0.08827 2.3479-0.71201 2.6892-1.8654l1.0416 1.9654 0.41192-0.01206c1.2769-0.04127 2.3479-1.0298 2.5068-2.295 0.06474-0.5296-0.03525-1.0651-0.28834-1.5476l-0.50018-0.94152v-1.577l0.88857-6e-3c2.3185 0 4.5311-0.45899 6.5553-1.2887v-1.3887c-2.0007 0.90033-4.2192 1.4005-6.5553 1.4005h-6.1022c-0.46488 0-0.86501-0.37661-0.93563-0.84148-0.03525-0.25303 0.02938-0.50019 0.18241-0.70026 0.15301-0.20596 0.3766-0.33541 0.62376-0.37072l5.3431-0.75321z"/>
</svg>
