<?xml version='1.0' encoding='UTF-8' standalone='no'?>
<svg xmlns:cc="http://creativecommons.org/ns#" xmlns:dc="http://purl.org/dc/elements/1.1/" height="60.601002" xmlns:rdf="http://www.w3.org/1999/02/22-rdf-syntax-ns#" xmlns:svg="http://www.w3.org/2000/svg" version="1.1" viewBox="0 0 60.601004 60.601004" width="60.601002" xmlns="http://www.w3.org/2000/svg">
  <defs/>
  <metadata>
    <rdf:RDF>
      <cc:Work rdf:about="">
        <dc:format>image/svg+xml</dc:format>
        <dc:type rdf:resource="http://purl.org/dc/dcmitype/StillImage"/>
        <dc:title>レストラン; Restaurant</dc:title>
        <dc:source>http://www.ecomo.or.jp/barrierfree/pictogram/data/zukigo_panfu_jis110.pdf</dc:source>
      </cc:Work>
    </rdf:RDF>
  </metadata>
  <path d="m 7.7786277,56.039253 c -1.7775,0 -3.2175,-1.44125 -3.2175,-3.21625 l 0,-45.0437503 c 0,-1.7775 1.44,-3.2175 3.2175,-3.2175 l 45.0437503,0 c 1.77625,0 3.2175,1.44 3.2175,3.2175 l 0,45.0437503 c 0,1.775 -1.44125,3.21625 -3.2175,3.21625 l -45.0437503,0 z" style="fill:#ffffff;fill-opacity:1;stroke:#000;stroke-width:0.60625005;stroke-linecap:butt;stroke-linejoin:miter;stroke-miterlimit:4;stroke-dasharray:none;stroke-opacity:1"/>
  <path d="m 38.44738,9.7692497 c -2.71,0 -4.9075,2.1962503 -4.9075,4.9075003 l 0,16.54875 c 0,1.86125 1.03875,3.4825 2.5675,4.31375 l 0,15.16625 3.195,0 0,-40.8550003 c -0.27625,-0.0475 -0.565,-0.08125 -0.855,-0.08125" style="fill:#000;fill-opacity:1;fill-rule:nonzero;stroke:none"/>
  <path d="m 28.542379,19.743001 c 0,-0.23625 -0.01,-0.4725 -0.03,-0.70125 l -0.7675,-9.1925003 -1.295,0 0,9.9937503 -1.13625,0 0,-9.9925003 -1.28625,0 0,9.9925003 -1.13625,0 0,-9.9925003 -1.28625,0 0,9.9925003 -1.135,0 0,-9.9937503 -1.29625,0 -0.78875,9.0712503 c -0.02625,0.27 -0.04,0.545 -0.04,0.8225 0,2.7575 1.395,5.19375 3.51375,6.6425 l 0,24.32 3.225,0 -0.01,-24.35875 c 2.09375,-1.45 3.46875,-3.8675 3.46875,-6.60375" style="fill:#000;fill-opacity:1;fill-rule:nonzero;stroke:none"/>
</svg>
