<?xml version='1.0' encoding='UTF-8' standalone='no'?>
<svg xmlns:cc="http://creativecommons.org/ns#" xmlns:dc="http://purl.org/dc/elements/1.1/" height="60.601002" xmlns:rdf="http://www.w3.org/1999/02/22-rdf-syntax-ns#" xmlns:svg="http://www.w3.org/2000/svg" version="1.1" viewBox="0 0 60.601004 60.601004" width="60.601002" xmlns="http://www.w3.org/2000/svg">
  <defs/>
  <metadata>
    <rdf:RDF>
      <cc:Work rdf:about="">
        <dc:format>image/svg+xml</dc:format>
        <dc:type rdf:resource="http://purl.org/dc/dcmitype/StillImage"/>
        <dc:title>喫茶・軽食; Coffee shop</dc:title>
        <dc:source>http://www.ecomo.or.jp/barrierfree/pictogram/data/zukigo_panfu_jis110.pdf</dc:source>
      </cc:Work>
    </rdf:RDF>
  </metadata>
  <path d="m 7.7855027,56.032378 c -1.77625,0 -3.21625,-1.44 -3.21625,-3.2175 l 0,-45.0300003 c 0,-1.7775 1.44,-3.21625 3.21625,-3.21625 l 45.0300003,0 c 1.77625,0 3.21625,1.43875 3.21625,3.21625 l 0,45.0300003 c 0,1.7775 -1.44,3.2175 -3.21625,3.2175 l -45.0300003,0 z" style="fill:#ffffff;fill-opacity:1;stroke:#000;stroke-width:0.60625005;stroke-linecap:butt;stroke-linejoin:miter;stroke-miterlimit:4;stroke-dasharray:none;stroke-opacity:1"/>
  <path d="m 10.518004,39.014877 c 0,1.18625 0.4075,2.7575 1.09125,3.7025 l 37.34375,0 c 0.68375,-0.945 1.0925,-2.51625 1.0925,-3.7025 l -39.5275,0" style="fill:#000;fill-opacity:1;fill-rule:nonzero;stroke:none"/>
  <path d="m 41.299255,21.202376 c 0.0125,0 0.025,-0.0013 0.03875,-0.0013 2.50875,0 4.5425,2.03375 4.5425,4.54375 0,2.5075 -2.03375,4.5425 -4.5425,4.5425 -0.29625,0 -0.58375,-0.03 -0.86375,-0.0825 0.44875,-2.94875 0.72875,-5.9525 0.825,-9.0025 z m -2.365,16.52625 c 0.4375,-1.6875 0.815,-3.40125 1.13625,-5.13375 0.41125,0.07625 0.835,0.1175 1.2675,0.1175 3.8475,0 6.96875,-3.12 6.96875,-6.9675 0,-3.84875 -3.12125,-6.96875 -6.96875,-6.96875 l -22.40625,0 c 0,6.545 0.835,12.89625 2.40375,18.9525 l 17.59875,0" style="fill:#000;fill-opacity:1;fill-rule:nonzero;stroke:none"/>
</svg>
