<?xml version='1.0' encoding='UTF-8' standalone='no'?>
<svg xmlns:cc="http://creativecommons.org/ns#" xmlns:dc="http://purl.org/dc/elements/1.1/" height="60.601002" xmlns:rdf="http://www.w3.org/1999/02/22-rdf-syntax-ns#" xmlns:svg="http://www.w3.org/2000/svg" version="1.1" viewBox="0 0 60.601004 60.601004" width="60.601002" xmlns="http://www.w3.org/2000/svg">
  <defs/>
  <metadata>
    <rdf:RDF>
      <cc:Work rdf:about="">
        <dc:format>image/svg+xml</dc:format>
        <dc:type rdf:resource="http://purl.org/dc/dcmitype/StillImage"/>
        <dc:title>バー; Bar</dc:title>
        <dc:source>http://www.ecomo.or.jp/barrierfree/pictogram/data/zukigo_panfu_jis110.pdf</dc:source>
      </cc:Work>
    </rdf:RDF>
  </metadata>
  <path d="m 7.7855027,56.032378 c -1.77625,0 -3.21625,-1.44 -3.21625,-3.2175 l 0,-45.0300003 c 0,-1.7775 1.44,-3.21625 3.21625,-3.21625 l 45.0300003,0 c 1.77625,0 3.21625,1.43875 3.21625,3.21625 l 0,45.0300003 c 0,1.7775 -1.44,3.2175 -3.21625,3.2175 l -45.0300003,0 z" style="fill:#ffffff;fill-opacity:1;stroke:#000;stroke-width:0.60625005;stroke-linecap:butt;stroke-linejoin:miter;stroke-miterlimit:4;stroke-dasharray:none;stroke-opacity:1"/>
  <path d="m 32.693005,24.759876 c 1.34625,0 2.43625,-1.09 2.43625,-2.43625 0,-1.34625 -1.09,-2.43875 -2.43625,-2.43875 -1.3475,0 -2.43875,1.0925 -2.43875,2.43875 0,1.34625 1.09125,2.43625 2.43875,2.43625 z m 7.0325,19.88625 0.0175,2.80875 -18.85625,0 -0.005,-2.845 c 2.54375,-0.50375 5.15875,-0.805 7.83,-0.88875 l 0,-14.51625 -13.46875,-16.0575 30.14375,0 -13.4675,16.0575 0,14.5225 c 2.6625,0.0925 5.27125,0.40625 7.80625,0.91875" style="fill:#000;fill-opacity:1;fill-rule:nonzero;stroke:none"/>
</svg>
