<?xml version='1.0' encoding='UTF-8' standalone='no'?>
<svg xmlns:cc="http://creativecommons.org/ns#" xmlns:dc="http://purl.org/dc/elements/1.1/" height="60.601002" xmlns:rdf="http://www.w3.org/1999/02/22-rdf-syntax-ns#" xmlns:svg="http://www.w3.org/2000/svg" version="1.1" viewBox="0 0 60.601004 60.601004" width="60.601002" xmlns="http://www.w3.org/2000/svg">
  <defs/>
  <metadata>
    <rdf:RDF>
      <cc:Work rdf:about="">
        <dc:format>image/svg+xml</dc:format>
        <dc:type rdf:resource="http://purl.org/dc/dcmitype/StillImage"/>
        <dc:title>ガソリンスタンド; Gasoline station</dc:title>
        <dc:source>http://www.ecomo.or.jp/barrierfree/pictogram/data/zukigo_panfu_jis110.pdf</dc:source>
      </cc:Work>
    </rdf:RDF>
  </metadata>
  <path d="m 7.7861277,56.032378 c -1.7775,0 -3.2175,-1.44 -3.2175,-3.2175 l 0,-45.0312503 c 0,-1.77625 1.44,-3.215 3.2175,-3.215 l 45.0300003,0 c 1.77625,0 3.21625,1.43875 3.21625,3.215 l 0,45.0312503 c 0,1.7775 -1.44,3.2175 -3.21625,3.2175 l -45.0300003,0 z" style="fill:#ffffff;fill-opacity:1;stroke:#000;stroke-width:0.60625005;stroke-linecap:butt;stroke-linejoin:miter;stroke-miterlimit:4;stroke-dasharray:none;stroke-opacity:1"/>
  <path d="m 45.98738,40.507377 c 0,1.79375 -1.45875,3.2525 -3.2525,3.2525 -0.86875,0 -1.685,-0.33875 -2.29875,-0.9525 -0.615,-0.615 -0.9525,-1.43125 -0.9525,-2.3 l 0,-19.19125 6.50375,6.49875 0,12.6925 z m -9.0775,-15.885 -15.675,0 -0.0012,-10.5775 c 2.57125,-0.51625 5.2,-0.775 7.84125,-0.775 2.645,0 5.2725,0.25875 7.835,0.76875 l 0,10.58375 z m 10.94625,1.42125 -8.3725,-8.36625 0,-5.69875 c -3.325,-0.83625 -6.82375,-1.2825 -10.40875,-1.2825 -3.59375,0 -7.0825,0.44875 -10.415,1.29125 l 0.0012,37.91625 20.8225,0 0,-4.56125 c 0.9525,0.64375 2.075,0.99125 3.25125,0.99125 3.2125,0 5.82625,-2.61375 5.82625,-5.82625 l 0,-12.74375 c 0,-0.67 -0.26875,-1.2775 -0.705,-1.72" style="fill:#000;fill-opacity:1;fill-rule:nonzero;stroke:none"/>
</svg>
