<?xml version='1.0' encoding='UTF-8' standalone='no'?>
<svg xmlns:cc="http://creativecommons.org/ns#" xmlns:dc="http://purl.org/dc/elements/1.1/" height="60.601002" xmlns:rdf="http://www.w3.org/1999/02/22-rdf-syntax-ns#" xmlns:svg="http://www.w3.org/2000/svg" version="1.1" viewBox="0 0 60.601004 60.601004" width="60.601002" xmlns="http://www.w3.org/2000/svg">
  <defs/>
  <metadata>
    <rdf:RDF>
      <cc:Work rdf:about="">
        <dc:format>image/svg+xml</dc:format>
        <dc:type rdf:resource="http://purl.org/dc/dcmitype/StillImage"/>
        <dc:title>会計; Cashier</dc:title>
        <dc:source>http://www.ecomo.or.jp/barrierfree/pictogram/data/zukigo_panfu_jis110.pdf</dc:source>
      </cc:Work>
    </rdf:RDF>
  </metadata>
  <path d="m 30.300503,57.639878 c 15.09875,0 27.34,-12.24 27.34,-27.33875 0,-15.09875 -12.24125,-27.3400003 -27.34,-27.3400003 -15.09875,0 -27.3400003,12.2412503 -27.3400003,27.3400003 0,15.09875 12.2412503,27.33875 27.3400003,27.33875 z" style="fill:#ffffff;fill-opacity:1;stroke:#000;stroke-width:0.60625005;stroke-linecap:butt;stroke-linejoin:miter;stroke-miterlimit:4;stroke-dasharray:none;stroke-opacity:1"/>
  <path d="m 25.553002,42.604877 -7.81375,0 0,-4.43375 7.81375,0 0,-2.27 -0.475,-1.00375 -7.33875,0 0,-4.43375 5.12125,0 -8.71125,-17.52875 9.82,0 6.335,14.8875 6.23,-14.8875 9.925,0 -8.71125,17.52875 5.12125,0 0,4.43375 -7.28625,0 -0.5275,1.00375 0,2.27 7.81375,0 0,4.43375 -7.81375,0 0,7.18125 -9.5025,0 0,-7.18125" style="fill:#000;fill-opacity:1;fill-rule:nonzero;stroke:none"/>
</svg>
