<?xml version="1.0" encoding="UTF-8"?>
<svg width="60.601" height="60.601" version="1.1" viewBox="0 0 60.601 60.601" xmlns="http://www.w3.org/2000/svg" xmlns:cc="http://creativecommons.org/ns#" xmlns:dc="http://purl.org/dc/elements/1.1/" xmlns:rdf="http://www.w3.org/1999/02/22-rdf-syntax-ns#">
 <title>コンビニエンスストア; Convenience store</title>
 <metadata>
  <rdf:RDF>
   <cc:Work rdf:about="">
    <dc:format>image/svg+xml</dc:format>
    <dc:type rdf:resource="http://purl.org/dc/dcmitype/StillImage"/>
    <dc:title>コンビニエンスストア; Convenience store</dc:title>
    <dc:source>http://www.ecomo.or.jp/barrierfree/pictogram/data/zukigo_panfu_20170719.pdf</dc:source>
   </cc:Work>
  </rdf:RDF>
 </metadata>
 <path d="m7.7861 56.032c-1.7775 0-3.2175-1.44-3.2175-3.2175v-45.031c0-1.7762 1.44-3.215 3.2175-3.215h45.03c1.7762 0 3.2162 1.4387 3.2162 3.215v45.031c0 1.7775-1.44 3.2175-3.2162 3.2175z" style="fill:#fff;stroke-width:.60625;stroke:#000"/>
 <path d="m34.45 23.081h5.6606v-3.3311h-5.6606z"/>
 <path d="m22.311 31.794 13.633 19.459h1.9738l-13.609-19.453z"/>
 <path d="m16.537 49.635v-15.547l10.888 15.547zm-1.6122-17.847v19.459h15.607l-13.615-19.459z"/>
 <path d="m31.776 49.949c-0.077079-0.53938-0.27859-1.0432-0.5868-1.4818-0.30823-0.44453-0.71721-0.80611-1.2032-1.0728-0.45047-0.24301-0.7824-0.53345-1.0314-0.88316-0.25488-0.36156-0.40898-0.78239-0.48604-1.2981-0.082997-0.53938-0.27858-1.0373-0.59272-1.4818-0.32601-0.47418-0.74684-0.84759-1.2032-1.0788-0.42676-0.21931-0.77648-0.51567-1.0314-0.87723-0.24894-0.36156-0.40898-0.78241-0.48604-1.2981-0.082997-0.53938-0.27859-1.0432-0.5868-1.4818-0.32601-0.46826-0.74091-0.83574-1.2151-1.0788-0.40898-0.20746-0.76463-0.51567-1.0195-0.87724-0.25488-0.36156-0.40898-0.78832-0.48604-1.2981-0.082998-0.53938-0.27858-1.0432-0.59274-1.4818-0.326-0.47418-0.74683-0.84759-1.2032-1.0788-0.42677-0.21932-0.77648-0.51568-1.0314-0.88318-0.10667-0.1541-0.19561-0.32006-0.27266-0.50382h-0.77648c0.11259 0.33786 0.26081 0.652 0.45048 0.92466 0.32006 0.46233 0.77054 0.84168 1.2981 1.1143 0.3497 0.17782 0.67571 0.46826 0.9365 0.84168 0.24302 0.34971 0.40306 0.74684 0.46826 1.1736 0.08892 0.62235 0.29636 1.1617 0.61051 1.6063 0.32008 0.46826 0.77054 0.85353 1.2862 1.1143 0.36156 0.18967 0.68756 0.4801 0.94244 0.84166 0.24894 0.34971 0.40306 0.74684 0.46825 1.1795 0.09483 0.61644 0.29638 1.1558 0.61052 1.6063 0.326 0.46233 0.7587 0.83574 1.2981 1.1084 0.34971 0.17782 0.67571 0.47418 0.9365 0.84759 0.24302 0.34971 0.40306 0.74092 0.46827 1.1736 0.08892 0.61052 0.29636 1.1558 0.61051 1.6063 0.30823 0.43861 0.73499 0.81203 1.2803 1.1084 0.38528 0.21339 0.70536 0.4979 0.9543 0.84761 0.24301 0.34971 0.39713 0.74091 0.46233 1.1736 0.06524 0.43268 0.18967 0.82981 0.36748 1.1855h0.84168c-0.24894-0.36158-0.40898-0.78241-0.48604-1.2981"/>
 <path d="m20.39 31.794 13.633 19.453h0.85353l-13.615-19.453z"/>
 <path d="m42.742 28.925c0-2.0805-1.0432-3.9239-2.6258-5.0382h-5.6724c-1.5885 1.1143-2.6258 2.9577-2.6258 5.0382v5.7732l0.66979 1.2269-0.66979 1.2329v3.6868l1.6122 2.3116v-5.5894c0.19561-0.35563 0.90095-1.6419 0.90095-1.6419s-0.70534-1.2803-0.90095-1.6419v-5.3583c0-1.3159 0.58087-2.5665 1.5707-3.426h4.5581c0.98987 0.85944 1.5707 2.1101 1.5707 3.426l-6e-3 5.3583c-0.19559 0.36156-0.89502 1.6419-0.89502 1.6419s0.69942 1.2862 0.90095 1.6419l-6e-3 3.426c-0.19559 0.35564-0.89502 1.6419-0.89502 1.6419s0.69942 1.2803 0.90095 1.6419l-6e-3 3.7164c0 0.66979-0.34378 1.2862-0.88908 1.6478h-2.2642l1.1262 1.6122h1.5529c1.2329-0.56902 2.0923-1.8137 2.0923-3.26v-4.1254l-0.67571-1.2329 0.67571-1.2329v-4.2439l-0.67571-1.2329 0.67571-1.2269z"/>
 <path d="m51.259 16.644-20.965-7.6284-20.959 7.6284v3.4319l20.959-7.6284 20.965 7.6284z"/>
</svg>
