<?xml version='1.0' encoding='UTF-8' standalone='no'?>
<svg xmlns:cc="http://creativecommons.org/ns#" xmlns:dc="http://purl.org/dc/elements/1.1/" height="60.601002" xmlns:rdf="http://www.w3.org/1999/02/22-rdf-syntax-ns#" xmlns:svg="http://www.w3.org/2000/svg" version="1.1" viewBox="0 0 60.601004 60.601004" width="60.601002" xmlns="http://www.w3.org/2000/svg">
  <defs/>
  <metadata>
    <rdf:RDF>
      <cc:Work rdf:about="">
        <dc:format>image/svg+xml</dc:format>
        <dc:type rdf:resource="http://purl.org/dc/dcmitype/StillImage"/>
        <dc:title>展望地／景勝地; View point</dc:title>
        <dc:source>http://www.ecomo.or.jp/barrierfree/pictogram/data/zukigo_panfu_jis110.pdf</dc:source>
      </cc:Work>
    </rdf:RDF>
  </metadata>
  <path d="m 7.7267527,56.097378 c -1.78,0 -3.2225,-1.44375 -3.2225,-3.22375 l 0,-45.1462503 c 0,-1.78125 1.4425,-3.22375 3.2225,-3.22375 l 45.1450003,0 c 1.78125,0 3.225,1.4425 3.225,3.22375 l 0,45.1462503 c 0,1.78 -1.44375,3.22375 -3.225,3.22375 l -45.1450003,0 z" style="fill:#ffffff;fill-opacity:1;stroke:#000;stroke-width:0.60625005;stroke-linecap:butt;stroke-linejoin:miter;stroke-miterlimit:4;stroke-dasharray:none;stroke-opacity:1"/>
  <path d="m 47.076756,29.796177 0,1.61125 -11.74875,0 -0.36875,2.63 12.1175,0 0,18.8375 1.98625,0 0,-23.07875 -1.98625,0" style="fill:#000;fill-opacity:1;fill-rule:nonzero;stroke:none"/>
  <path d="m 29.594255,15.422426 c 1.78,0 3.22125,-1.44125 3.22125,-3.22125 0,-1.77875 -1.44125,-3.2212503 -3.22125,-3.2212503 -1.78,0 -3.22125,1.4425003 -3.22125,3.2212503 0,1.78 1.44125,3.22125 3.22125,3.22125" style="fill:#000;fill-opacity:1;fill-rule:nonzero;stroke:none"/>
  <path d="m 19.346754,9.8299247 -1.61,-0.05625 0,3.5425003 1.61,-0.055 0,-3.4312503" style="fill:#000;fill-opacity:1;fill-rule:nonzero;stroke:none"/>
  <path d="m 33.331755,17.411176 c -0.0975,-0.7975 -0.775,-1.41375 -1.59875,-1.41375 -0.2625,0 -0.51125,0.0625 -0.73,0.1725 -3.02375,1.535 -5.9225,1.915 -7.11625,0.95375 -0.08875,-0.0725 -0.17,-0.15375 -0.24,-0.24375 -0.72375,-0.9275 -0.2425,-2.58875 1.06625,-4.18875 l 0.88875,-0.03125 0,-2.23 -5.6375,-0.1975 0,2.62625 1.4425,-0.05125 c -1.54875,2.40875 -1.8125,5.11 -0.4275,6.94875 1.01,1.3425 2.705,1.965 4.61125,1.88375 l 1.565,8.0575 0,1.71 -12.345,0 0,-1.61125 -1.9875,0 0,23.07875 1.9875,0 0,-18.8375 12.345,0 0.0012,18.8375 4.18875,0 3.29625,-23.455 c 0.05625,-0.41 0.0625,-0.83125 0.0087,-1.26125 l -1.31875,-10.7475" style="fill:#000;fill-opacity:1;fill-rule:nonzero;stroke:none"/>
</svg>
