<?xml version='1.0' encoding='UTF-8' standalone='no'?>
<svg xmlns:cc="http://creativecommons.org/ns#" xmlns:dc="http://purl.org/dc/elements/1.1/" height="60.601002" xmlns:rdf="http://www.w3.org/1999/02/22-rdf-syntax-ns#" xmlns:svg="http://www.w3.org/2000/svg" version="1.1" viewBox="0 0 60.601004 60.601004" width="60.601002" xmlns="http://www.w3.org/2000/svg">
  <defs/>
  <metadata>
    <rdf:RDF>
      <cc:Work rdf:about="">
        <dc:format>image/svg+xml</dc:format>
        <dc:type rdf:resource="http://purl.org/dc/dcmitype/StillImage"/>
        <dc:title>陸上競技場; Athletic stadium</dc:title>
        <dc:source>http://www.ecomo.or.jp/barrierfree/pictogram/data/zukigo_panfu_jis110.pdf</dc:source>
      </cc:Work>
    </rdf:RDF>
  </metadata>
  <path d="m 7.7542527,56.069253 c -1.78,0 -3.2225,-1.4425 -3.2225,-3.2225 l 0,-45.0937503 c 0,-1.77875 1.4425,-3.22125 3.2225,-3.22125 l 45.0937503,0 c 1.77875,0 3.22125,1.4425 3.22125,3.22125 l 0,45.0937503 c 0,1.78 -1.4425,3.2225 -3.22125,3.2225 l -45.0937503,0 z" style="fill:#ffffff;fill-opacity:1;stroke:#000;stroke-width:0.60625005;stroke-linecap:butt;stroke-linejoin:miter;stroke-miterlimit:4;stroke-dasharray:none;stroke-opacity:1"/>
  <path d="m 43.136755,22.650451 c 1.60875,0 2.91125,-1.3025 2.91125,-2.90875 0,-1.6075 -1.3025,-2.91125 -2.91125,-2.91125 -1.60625,0 -2.90875,1.30375 -2.90875,2.91125 0,1.60625 1.3025,2.90875 2.90875,2.90875" style="fill:#000;fill-opacity:1;fill-rule:nonzero;stroke:none"/>
  <path d="m 24.951754,36.782952 3.80375,-2.86625 1.09875,2.35125 -4.9025,0.515 z m 15.96125,-13.385 c 0.0063,-0.0375 0.01,-0.07375 0.01,-0.11125 0,-0.1875 -0.06375,-0.3575 -0.1725,-0.495 -2.29125,-2.91125 -5.8425,-4.78 -9.83375,-4.78 -4.10375,0 -7.745,1.97625 -10.02625,5.02875 l 1.5825,2.26125 c 1.70625,-2.1375 4.3325,-3.5075 7.28,-3.5075 0.7925,0 1.56125,0.10125 2.29625,0.28625 l -21.17875,21.55125 0.84,3.13 8.16375,-6.1525 13.64625,0 c 1.42375,0 2.57625,-1.15375 2.57625,-2.57625 0,-0.2625 -0.03875,-0.515 -0.11125,-0.75375 l -2.19,-7.16125 2.6675,-2.01125 0,2.3 c 0,0.80125 0.65,1.45 1.45,1.45 0.0425,0 0.085,-0.0025 0.12625,-0.0075 l 6.895,-0.60125 0.73,-2.73 -5.47125,0 0.72,-5.12" style="fill:#000;fill-opacity:1;fill-rule:nonzero;stroke:none"/>
</svg>
