<?xml version='1.0' encoding='UTF-8' standalone='no'?>
<svg xmlns:cc="http://creativecommons.org/ns#" xmlns:dc="http://purl.org/dc/elements/1.1/" height="60.601002" xmlns:rdf="http://www.w3.org/1999/02/22-rdf-syntax-ns#" xmlns:svg="http://www.w3.org/2000/svg" version="1.1" viewBox="0 0 60.601004 60.601004" width="60.601002" xmlns="http://www.w3.org/2000/svg">
  <defs/>
  <metadata>
    <rdf:RDF>
      <cc:Work rdf:about="">
        <dc:format>image/svg+xml</dc:format>
        <dc:type rdf:resource="http://purl.org/dc/dcmitype/StillImage"/>
        <dc:title>テニスコート; Tennis court</dc:title>
        <dc:source>http://www.ecomo.or.jp/barrierfree/pictogram/data/zukigo_panfu_jis110.pdf</dc:source>
      </cc:Work>
    </rdf:RDF>
  </metadata>
  <path d="m 7.7855027,56.031753 c -1.775,0 -3.21625,-1.44 -3.21625,-3.21625 l 0,-45.0287503 c 0,-1.7775 1.44125,-3.2175 3.21625,-3.2175 l 45.0300003,0 c 1.77625,0 3.21625,1.44 3.21625,3.2175 l 0,45.0287503 c 0,1.77625 -1.44,3.21625 -3.21625,3.21625 l -45.0300003,0 z" style="fill:#ffffff;fill-opacity:1;stroke:#000;stroke-width:0.60625005;stroke-linecap:butt;stroke-linejoin:miter;stroke-miterlimit:4;stroke-dasharray:none;stroke-opacity:1"/>
  <path d="m 26.128004,18.174251 c 1.60125,0 2.9,-1.2975 2.9,-2.89875 0,-1.6 -1.29875,-2.9 -2.9,-2.9 -1.60125,0 -2.9,1.3 -2.9,2.9 0,1.60125 1.29875,2.89875 2.9,2.89875" style="fill:#000;fill-opacity:1;fill-rule:nonzero;stroke:none"/>
  <path d="m 15.169254,24.223001 c 0.185,-0.08375 0.3625,-0.1825 0.52875,-0.30125 0.16875,-0.11625 0.3225,-0.24875 0.46375,-0.395 0.08875,0.54 0.21375,1.07125 0.375,1.5925 -0.43625,-0.3275 -0.89125,-0.62875 -1.3675,-0.89625 z m -2.23875,-0.97375 c -0.03875,-0.01125 -0.07875,-0.02625 -0.1175,-0.04 l -0.0025,0.005 c -0.825,-0.2575 -1.645,-0.85125 -2.25375,-1.72 -0.6825003,-0.975 -0.9737503,-2.11125 -0.7950003,-3.1175 0.12,-0.68375 0.4487503,-1.23 0.9475003,-1.58 0.5,-0.35125 1.125,-0.47 1.81125,-0.35125 1.00375,0.1775 1.9725,0.84125 2.655,1.81625 0.5825,0.83 0.87625,1.77375 0.845,2.65625 l -0.0012,0 c -0.0025,0.0325 -0.0025,0.0625 -0.0038,0.09375 -0.0087,0.1225 -0.0225,0.24625 -0.0425,0.3675 -0.12125,0.68375 -0.45,1.23125 -0.95,1.58 -0.59,0.415 -1.34,0.49375 -2.0925,0.29 z m 7.765,8.81375 c 3.39625,-1.07375 6.2325,-3.40875 7.9575,-6.46 l 2.1925,2.775 -5.1725,5.05 c -0.52625,0.52375 -0.85,1.2475 -0.85,2.05 0,0.24375 0.03,0.48125 0.0875,0.7075 l 3.135,11.46625 3.43125,0 -1.4725,-11.72125 4.43625,-3.0025 11.50625,14.56 2.955,-1.505 -15.27375,-25.97125 c 0.78625,-0.21 1.61,-0.325 2.4625,-0.325 2.8625,0 5.43,1.2675 7.17,3.27375 l 0.95875,-2.6475 c -2.20625,-2.51125 -5.4425,-4.09625 -9.05,-4.09625 -3.52375,0 -6.70875,1.50375 -8.91125,3.91625 -0.15875,0.1725 -0.2575,0.4025 -0.2575,0.65625 0,3.88875 -2.32375,7.2325 -5.6575,8.7225 l -1.1725,-1.65125 c -1.40875,-2.015 -2.09125,-4.37375 -1.97875,-6.8225 0.06125,-1.16 -0.31,-2.39 -1.0525,-3.45125 -1.56,-2.23 -4.29875,-3.01625 -6.105,-1.75375 -0.7487503,0.525 -1.2587503,1.35625 -1.4312503,2.34 -0.23125,1.31 0.13,2.7675 0.99125,3.99625 0.7537503,1.0775 1.8037503,1.855 2.9325003,2.18625 2.31875,0.73625 4.2825,2.17875 5.68125,4.17875 l 2.4875,3.52875" style="fill:#000;fill-opacity:1;fill-rule:nonzero;stroke:none"/>
</svg>
