<?xml version='1.0' encoding='UTF-8' standalone='no'?>
<svg xmlns:cc="http://creativecommons.org/ns#" xmlns:dc="http://purl.org/dc/elements/1.1/" height="60.601002" xmlns:rdf="http://www.w3.org/1999/02/22-rdf-syntax-ns#" xmlns:svg="http://www.w3.org/2000/svg" version="1.1" viewBox="0 0 60.601004 60.601004" width="60.601002" xmlns="http://www.w3.org/2000/svg">
  <defs/>
  <metadata>
    <rdf:RDF>
      <cc:Work rdf:about="">
        <dc:format>image/svg+xml</dc:format>
        <dc:type rdf:resource="http://purl.org/dc/dcmitype/StillImage"/>
        <dc:title>海水浴場／プール; Swimming place</dc:title>
        <dc:source>http://www.ecomo.or.jp/barrierfree/pictogram/data/zukigo_panfu_jis110.pdf</dc:source>
      </cc:Work>
    </rdf:RDF>
  </metadata>
  <path d="m 7.7855027,56.032378 c -1.77625,0 -3.21625,-1.44 -3.21625,-3.2175 l 0,-45.0300003 c 0,-1.77625 1.44,-3.21625 3.21625,-3.21625 l 45.0287503,0 c 1.7775,0 3.2175,1.44 3.2175,3.21625 l 0,45.0300003 c 0,1.7775 -1.44,3.2175 -3.2175,3.2175 l -45.0287503,0 z" style="fill:#ffffff;fill-opacity:1;stroke:#000;stroke-width:0.60625005;stroke-linecap:butt;stroke-linejoin:miter;stroke-miterlimit:4;stroke-dasharray:none;stroke-opacity:1"/>
  <path d="m 20.388003,30.609927 c 0,-2.39625 -1.94625,-4.3425 -4.3425,-4.3425 -2.3975,0 -4.3425,1.94625 -4.3425,4.3425 0,2.39875 1.945,4.34375 4.3425,4.34375 2.39625,0 4.3425,-1.945 4.3425,-4.34375" style="fill:#000;fill-opacity:1;fill-rule:nonzero;stroke:none"/>
  <path d="m 32.803004,28.348676 c 3.16,-3.2725 8.37375,-3.36375 11.645,-0.20375 0.27375,0.26375 0.525,0.5425 0.75375,0.835 l 3.775,-2.26875 c -0.45375,-0.5925 -0.955,-1.15875 -1.50875,-1.6925 -5.99875,-5.7925 -15.55875,-5.625 -21.35125,0.37125 -0.875,0.9075 -1.6125,1.895 -2.21625,2.94 l -4.30625,7.4575 -3.635,3.01625 c 0.755,0.37375 1.60375,0.585 2.5025,0.585 1.54375,0 2.94,-0.6175 3.96125,-1.61625 l 0.67,0 c 1.02125,0.99875 2.41875,1.61625 3.96,1.61625 1.5425,0 2.94,-0.61625 3.96125,-1.61625 l 0.67,0 c 1.02125,1 2.41875,1.61625 3.96125,1.61625 1.54,0 2.93875,-0.6175 3.96,-1.61625 l 0.67125,0 c 1.01875,0.99875 2.4175,1.61625 3.95875,1.61625 1.16125,0 2.23875,-0.35 3.13625,-0.9475 l -15.4925,-8.945 c 0.26875,-0.4025 0.57625,-0.78625 0.92375,-1.1475" style="fill:#000;fill-opacity:1;fill-rule:nonzero;stroke:none"/>
</svg>
