<?xml version='1.0' encoding='UTF-8' standalone='no'?>
<svg xmlns:cc="http://creativecommons.org/ns#" xmlns:dc="http://purl.org/dc/elements/1.1/" height="60.601002" xmlns:rdf="http://www.w3.org/1999/02/22-rdf-syntax-ns#" xmlns:svg="http://www.w3.org/2000/svg" version="1.1" viewBox="0 0 60.601004 60.601004" width="60.601002" xmlns="http://www.w3.org/2000/svg">
  <defs/>
  <metadata>
    <rdf:RDF>
      <cc:Work rdf:about="">
        <dc:format>image/svg+xml</dc:format>
        <dc:type rdf:resource="http://purl.org/dc/dcmitype/StillImage"/>
        <dc:title>スキー場; Ski ground</dc:title>
        <dc:source>http://www.ecomo.or.jp/barrierfree/pictogram/data/zukigo_panfu_jis110.pdf</dc:source>
      </cc:Work>
    </rdf:RDF>
  </metadata>
  <path d="m 7.7855027,56.032378 c -1.77625,0 -3.21625,-1.44125 -3.21625,-3.21625 l 0,-45.0312503 c 0,-1.77625 1.44,-3.21625 3.21625,-3.21625 l 45.0312503,0 c 1.77625,0 3.215,1.44 3.215,3.21625 l 0,45.0312503 c 0,1.775 -1.43875,3.21625 -3.215,3.21625 l -45.0312503,0 z" style="fill:#ffffff;fill-opacity:1;stroke:#000;stroke-width:0.60625005;stroke-linecap:butt;stroke-linejoin:miter;stroke-miterlimit:4;stroke-dasharray:none;stroke-opacity:1"/>
  <path d="m 21.433004,16.618626 c 1.60125,0 2.89875,-1.29875 2.89875,-2.9 0,-1.60125 -1.2975,-2.9 -2.89875,-2.9 -1.6,0 -2.8975,1.29875 -2.8975,2.9 0,1.60125 1.2975,2.9 2.8975,2.9" style="fill:#000;fill-opacity:1;fill-rule:nonzero;stroke:none"/>
  <path d="m 49.053006,36.763627 c -0.73375,0.26875 -6.69875,2.45375 -13.2475,4.85125 l -5.895,-8.39875 4.34375,-4.37125 c 0.5025,-0.52125 0.8125,-1.23 0.8125,-2.01 0,-0.76625 -0.2975,-1.46 -0.78,-1.9775 l 7.035,0 0,1.44875 1.19125,0 0,-1.44875 2.89875,0 0,-1.19125 -2.89875,0 0,-1.45125 -1.19125,0 0,1.45125 -8.2,0 -7.6175,-7.76875 c -0.05875,-0.05875 -0.14,-0.095 -0.23,-0.095 -0.0375,0 -0.07375,0.0087 -0.10875,0.02 -1.3525,0.4675 -2.40875,1.57 -2.81375,2.95125 l -1.3225,4.9325 -5.49,0 0.7,2.66 5.52375,0.47875 c 0.06125,0.0037 0.1225,0.0075 0.185,0.0075 0.96,0 1.78375,-0.58375 2.13625,-1.4175 l 0.29,-0.66875 3.40375,2.7975 -3.2025,4.01 c -0.44,0.50625 -0.70375,1.1675 -0.70375,1.89 0,0.8 0.32125,1.52375 0.845,2.0475 l 7.52875,7.4075 c -7.5225,2.755 -14.715,5.38875 -14.715,5.38875 -0.2875,0.11 -0.59125,0.1675 -0.905,0.1675 -0.845,0 -1.63,-0.42125 -2.0975,-1.12875 l -0.10625,-0.16 -1.86625,0.7075 0.135,0.24375 c 0.7925,1.43 2.30125,2.32 3.935,2.32 0.53875,0 1.06625,-0.095 1.56625,-0.28 l 31.54375,-11.585 -0.6825,-1.82875" style="fill:#000;fill-opacity:1;fill-rule:nonzero;stroke:none"/>
</svg>
