<?xml version='1.0' encoding='UTF-8' standalone='no'?>
<svg xmlns:cc="http://creativecommons.org/ns#" xmlns:dc="http://purl.org/dc/elements/1.1/" height="60.601002" xmlns:rdf="http://www.w3.org/1999/02/22-rdf-syntax-ns#" xmlns:svg="http://www.w3.org/2000/svg" version="1.1" viewBox="0 0 60.601004 60.601004" width="60.601002" xmlns="http://www.w3.org/2000/svg">
  <defs/>
  <metadata>
    <rdf:RDF>
      <cc:Work rdf:about="">
        <dc:format>image/svg+xml</dc:format>
        <dc:type rdf:resource="http://purl.org/dc/dcmitype/StillImage"/>
        <dc:title>キャンプ場; Camp site</dc:title>
        <dc:source>http://www.ecomo.or.jp/barrierfree/pictogram/data/zukigo_panfu_jis110.pdf</dc:source>
      </cc:Work>
    </rdf:RDF>
  </metadata>
  <path d="m 7.7855027,56.032378 c -1.77625,0 -3.21625,-1.44125 -3.21625,-3.21625 l 0,-45.0312503 c 0,-1.77625 1.44,-3.21625 3.21625,-3.21625 l 45.0300003,0 c 1.77625,0 3.21625,1.44 3.21625,3.21625 l 0,45.0312503 c 0,1.775 -1.44,3.21625 -3.21625,3.21625 l -45.0300003,0 z" style="fill:#ffffff;fill-opacity:1;stroke:#000;stroke-width:0.60625005;stroke-linecap:butt;stroke-linejoin:miter;stroke-miterlimit:4;stroke-dasharray:none;stroke-opacity:1"/>
  <path d="m 23.184253,14.361126 c 2.5325,0.52875 5.1475,0.795 7.8375,0.795 2.6825,0 5.315,-0.26625 7.8425,-0.79375 l 12.265,28.19125 -15.6825,0 -12.2625,-28.1925" style="fill:#000;fill-opacity:1;fill-rule:nonzero;stroke:none"/>
  <path d="m 33.975504,42.553627 -12.25125,-28.18 -12.2537503,28.18 6.1812503,0 c 2.74,-4.93 4.7725,-10.28375 6.0725,-15.9275 l 0,15.9275 12.25125,0" style="fill:#000;fill-opacity:1;fill-rule:nonzero;stroke:none"/>
</svg>
