<?xml version='1.0' encoding='UTF-8' standalone='no'?>
<svg xmlns:cc="http://creativecommons.org/ns#" xmlns:dc="http://purl.org/dc/elements/1.1/" height="60.601002" xmlns:rdf="http://www.w3.org/1999/02/22-rdf-syntax-ns#" xmlns:svg="http://www.w3.org/2000/svg" version="1.1" viewBox="0 0 60.601004 60.601004" width="60.601002" xmlns="http://www.w3.org/2000/svg">
  <defs/>
  <metadata>
    <rdf:RDF>
      <cc:Work rdf:about="">
        <dc:format>image/svg+xml</dc:format>
        <dc:type rdf:resource="http://purl.org/dc/dcmitype/StillImage"/>
        <dc:title>温泉; Hot spring</dc:title>
        <dc:source>http://www.ecomo.or.jp/barrierfree/pictogram/data/zukigo_panfu_jis110.pdf</dc:source>
      </cc:Work>
    </rdf:RDF>
  </metadata>
  <path d="m 7.7855027,56.032378 c -1.77625,0 -3.21625,-1.44 -3.21625,-3.21625 l 0,-45.0312503 c 0,-1.7775 1.44,-3.21625 3.21625,-3.21625 l 45.0312503,0 c 1.77625,0 3.215,1.43875 3.215,3.21625 l 0,45.0312503 c 0,1.77625 -1.43875,3.21625 -3.215,3.21625 l -45.0312503,0 z" style="fill:#ffffff;fill-opacity:1;stroke:#000;stroke-width:0.60625005;stroke-linecap:butt;stroke-linejoin:miter;stroke-miterlimit:4;stroke-dasharray:none;stroke-opacity:1"/>
  <path d="m 40.865505,27.621126 c 0.33,0.87625 0.51125,1.805 0.535,2.7475 2.83875,1.185 4.5875,2.82125 4.5875,4.62875 0,3.61625 -7.0225,6.54875 -15.6875,6.54875 -8.66375,0 -15.6875,-2.9325 -15.6875,-6.54875 0,-2.5275 3.43,-4.71875 8.45375,-5.81 0.27,0.5425 0.4225,1.1525 0.4225,1.8 0,1.9325 -1.35875,3.545 -3.17125,3.9475 l 0.6175,2.2025 c 2.955,-0.72 5.15,-3.38375 5.15,-6.5625 0,-1.25 -0.3425,-2.42375 -0.935,-3.42875 l -3.70625,-6.4075 c -0.31375,-0.57375 -0.4925,-1.235 -0.4925,-1.93625 0,-1.93375 1.35625,-3.5475 3.17125,-3.95 l -0.6175,-2.2025 c -2.955,0.72 -5.15125,3.38625 -5.15125,6.5625 0,1.25125 0.34125,2.425 0.935,3.43 l 2.545,4.39875 c -6.56375,1.5775 -11.09625,4.93625 -11.09625,8.8225 0,5.4025 8.7575,9.7825 19.5625,9.7825 10.805,0 19.56375,-4.38 19.56375,-9.7825 0,-3.4575 -3.58375,-6.50375 -8.99875,-8.2425" style="fill:#000;fill-opacity:1;fill-rule:nonzero;stroke:none"/>
  <path d="m 36.706755,29.049876 c 0.315,0.575 0.49375,1.23375 0.49375,1.9375 0,1.9325 -1.35875,3.545 -3.1725,3.9475 l 0.6175,2.2025 c 2.955,-0.72 5.15125,-3.38375 5.15125,-6.5625 0,-1.25 -0.34125,-2.42375 -0.935,-3.42875 l -3.7075,-6.4075 c -0.31375,-0.57375 -0.49125,-1.235 -0.49125,-1.93625 0,-1.93375 1.35625,-3.5475 3.17,-3.95 l -0.6175,-2.2025 c -2.955,0.72 -5.15,3.38625 -5.15,6.5625 0,1.25125 0.3425,2.425 0.9325,3.43 l 3.70875,6.4075" style="fill:#000;fill-opacity:1;fill-rule:nonzero;stroke:none"/>
  <path d="m 29.851755,29.049876 c 0.31375,0.575 0.49125,1.23375 0.49125,1.9375 0,1.9325 -1.35625,3.545 -3.17,3.9475 l 0.61625,2.2025 c 2.9575,-0.72 5.1525,-3.38375 5.1525,-6.5625 0,-1.25 -0.34125,-2.42375 -0.935,-3.42875 l -3.7075,-6.4075 c -0.31375,-0.57375 -0.49125,-1.235 -0.49125,-1.93625 0,-1.93375 1.35625,-3.5475 3.17,-3.95 l -0.61625,-2.2025 c -2.95625,0.72 -5.1525,3.38625 -5.1525,6.5625 0,1.25125 0.34125,2.425 0.935,3.43 l 3.7075,6.4075" style="fill:#000;fill-opacity:1;fill-rule:nonzero;stroke:none"/>
</svg>
