<?xml version="1.0" encoding="UTF-8"?>
<svg width="60.601" height="60.601" version="1.1" viewBox="0 0 60.601 60.601" xmlns="http://www.w3.org/2000/svg" xmlns:cc="http://creativecommons.org/ns#" xmlns:dc="http://purl.org/dc/elements/1.1/" xmlns:rdf="http://www.w3.org/1999/02/22-rdf-syntax-ns#">
 <metadata>
  <rdf:RDF>
   <cc:Work rdf:about="">
    <dc:format>image/svg+xml</dc:format>
    <dc:type rdf:resource="http://purl.org/dc/dcmitype/StillImage"/>
    <dc:title>温泉; Hot spring</dc:title>
    <dc:source/>
   </cc:Work>
  </rdf:RDF>
 </metadata>
 <path d="m7.7855 56.032c-1.7762 0-3.2162-1.44-3.2162-3.2162v-45.031c0-1.7775 1.44-3.2162 3.2162-3.2162h45.031c1.7762 0 3.215 1.4388 3.215 3.2162v45.031c0 1.7762-1.4388 3.2162-3.215 3.2162h-45.031z" style="fill:#fff;stroke-width:.60625;stroke:#000"/>
 <path d="m20.201 34.854c1.16 0 2.102-0.94196 2.102-2.102 0-1.16-0.94198-2.102-2.102-2.102-1.16 0-2.102 0.94196-2.102 2.102 0 1.16 0.94198 2.102 2.102 2.102" style="fill:#000"/>
 <path d="m30.301 37.968c1.0466 0 1.8926-0.84601 1.8926-1.8926 0-1.0466-0.84601-1.8927-1.8926-1.8927-1.0466 0-1.8927 0.84604-1.8927 1.8927 0 1.0466 0.84604 1.8926 1.8927 1.8926" style="fill:#000"/>
 <path d="m45.965 36.799c0.29654 0.5582 0.47099 1.1949 0.47972 1.8578 1.3606 0.88091 2.1369 1.8839 2.1369 2.9567 0 3.4801-8.1899 6.2973-18.281 6.2973-10.091 0-18.272-2.8172-18.272-6.2973 0-1.0641 0.77626-2.0758 2.1369-2.9567 0-0.66288 0.17438-1.2909 0.47099-1.8578-3.1486 1.5351-5.0674 3.5411-5.0674 5.7391 0 4.8319 9.2889 8.7481 20.732 8.7481 11.452 0 20.732-3.9162 20.732-8.7481 0-2.1979-1.9101-4.204-5.0674-5.7391" style="fill:#000"/>
 <path d="m37.645 22.451c0.27037 0.49716 0.41865 1.0641 0.41865 1.6659 0 1.6572-1.16 3.044-2.7212 3.3928l0.53204 1.8839c2.5381-0.61927 4.422-2.9044 4.422-5.6344 0-1.0728-0.29654-2.0758-0.80243-2.9393l-3.1835-5.5035c-0.27037-0.48843-0.41865-1.0554-0.41865-1.6572 0-1.6659 1.16-3.044 2.7212-3.3928l-0.53203-1.8926c-2.5381 0.61925-4.422 2.9044-4.422 5.6344 0 1.0728 0.28783 2.0846 0.80243 2.948z" style="fill:#000"/>
 <path d="m30.833 22.451c0.27037 0.49716 0.41865 1.0641 0.41865 1.6659 0 1.6572-1.16 3.044-2.7212 3.3928l0.53204 1.8839c2.5381-0.61927 4.422-2.9044 4.422-5.6344 0-1.0728-0.28783-2.0758-0.80243-2.9393l-3.1835-5.5035c-0.27037-0.48843-0.41865-1.0554-0.41865-1.6572 0-1.6659 1.16-3.044 2.7212-3.3928l-0.53203-1.8926c-2.5381 0.61925-4.422 2.9044-4.422 5.6344 0 1.0728 0.28783 2.0846 0.80243 2.948z" style="fill:#000"/>
 <path d="m24.021 22.451c0.27037 0.49716 0.41865 1.0641 0.41865 1.6659 0 1.6572-1.16 3.044-2.7212 3.3928l0.53203 1.8839c2.5381-0.61927 4.422-2.9044 4.422-5.6344 0-1.0728-0.28783-2.0758-0.80243-2.9393l-3.1835-5.5035c-0.27037-0.48843-0.41865-1.0554-0.41865-1.6572 0-1.6659 1.16-3.044 2.7212-3.3928l-0.53204-1.8926c-2.5381 0.61925-4.422 2.9044-4.422 5.6344 0 1.0728 0.29654 2.0846 0.80243 2.948z" style="fill:#000"/>
 <path d="m15.308 42.154c0.54077-0.03483 1.0205-0.27037 1.3781-0.62798h0.27037c0.39251 0.40122 0.95071 0.63671 1.5525 0.63671 0.61052 0 1.16-0.2355 1.5612-0.63671h0.26164c0.40121 0.40122 0.95069 0.63671 1.5612 0.63671 0.60181 0 1.1513-0.2355 1.5525-0.63671h0.26166c0.36632 0.35761 0.85474 0.5931 1.3955 0.63671l0.17438-3.262c0.10471-1.5699-1.0118-3.0003-2.5992-3.2358-0.80241-0.12213-1.631-0.18309-2.477-0.18309-0.83731 0-1.6572 0.06096-2.4596 0.18309-1.5961 0.2355-2.7125 1.6659-2.5992 3.2358z" style="fill:#000"/>
 <path d="m38.307 32.752c0 1.16 0.94198 2.102 2.102 2.102 1.16 0 2.102-0.94196 2.102-2.102 0-1.16-0.94198-2.102-2.102-2.102-1.16 0-2.102 0.94196-2.102 2.102" style="fill:#000"/>
 <path d="m37.95 35.665c-1.5961 0.2355-2.7125 1.6659-2.6079 3.2358l0.17438 3.2533c0.53206-0.04354 1.0205-0.27037 1.3781-0.62798h0.26166c0.40122 0.39248 0.95069 0.63671 1.5612 0.63671 0.60181 0 1.16-0.24423 1.5525-0.63671h0.27037c0.40121 0.39248 0.95071 0.63671 1.5525 0.63671 0.61052 0 1.16-0.24423 1.5612-0.63671h0.26164c0.36634 0.35761 0.85476 0.5931 1.3955 0.63671l0.16567-3.262c0.11342-1.5699-1.003-3.0003-2.5904-3.2358-0.81116-0.12213-1.631-0.18309-2.477-0.18309-0.83731 0-1.6572 0.06096-2.4596 0.18309" style="fill:#000"/>
 <path d="m30.301 38.596c-0.62798 0-1.256 0.05225-1.8752 0.13955-1.2124 0.18309-2.0671 1.2647-1.9799 2.4683l0.05225 0.91581c0.13955 0.03483 0.2791 0.04354 0.42738 0.04354 0.60181 0 1.1513-0.24422 1.5525-0.63671h0.27037c0.40122 0.39249 0.95071 0.63671 1.5525 0.63671 0.61052 0 1.16-0.24422 1.5612-0.63671h0.26164c0.40122 0.39249 0.95069 0.63671 1.5612 0.63671 0.14825 0 0.29654-0.0089 0.43609-0.04354l0.05225-0.91581c0.07859-1.2036-0.76753-2.2852-1.9799-2.4683-0.61925-0.0873-1.2472-0.13955-1.8926-0.13955" style="fill:#000"/>
</svg>
