<?xml version='1.0' encoding='UTF-8' standalone='no'?>
<svg xmlns:cc="http://creativecommons.org/ns#" xmlns:dc="http://purl.org/dc/elements/1.1/" height="60.601002" xmlns:rdf="http://www.w3.org/1999/02/22-rdf-syntax-ns#" xmlns:svg="http://www.w3.org/2000/svg" version="1.1" viewBox="0 0 60.601004 60.601004" width="60.601002" xmlns="http://www.w3.org/2000/svg">
  <title>コミュニケーション; Communication in the specified language</title>
  <defs/>
  <metadata>
    <rdf:RDF>
      <cc:Work rdf:about="">
        <dc:format>image/svg+xml</dc:format>
        <dc:type rdf:resource="http://purl.org/dc/dcmitype/StillImage"/>
        <dc:title>コミュニケーション; Communication in the specified language</dc:title>
        <dc:source>http://www.ecomo.or.jp/barrierfree/pictogram/data/zukigo_panfu_jis110.pdf</dc:source>
      </cc:Work>
    </rdf:RDF>
  </metadata>
  <path d="m 8.2048777,55.551753 c -1.7425,0 -3.155,-1.41375 -3.155,-3.15625 l 0,-44.1900003 c 0,-1.7425 1.4125,-3.15625 3.155,-3.15625 l 44.1887503,0 c 1.745,0 3.1575,1.41375 3.1575,3.15625 l 0,44.1900003 c 0,1.7425 -1.4125,3.15625 -3.1575,3.15625 l -44.1887503,0 z" style="fill:#ffffff;stroke:#000;stroke-width:0.24250001;stroke-linecap:butt;stroke-linejoin:miter;stroke-miterlimit:4;stroke-dasharray:none;stroke-opacity:1"/>
  <path d="m 17.917379,31.673002 c 1.86,0 3.3675,-1.505 3.3675,-3.36375 0,-1.86 -1.5075,-3.3675 -3.3675,-3.3675 -1.86,0 -3.365,1.5075 -3.365,3.3675 0,1.85875 1.505,3.36375 3.365,3.36375" style="fill:#231a16;fill-opacity:1;fill-rule:nonzero;stroke:none"/>
  <path d="m 23.748629,49.598003 0,-9.76625 2.09625,2.095 c 0.39375,0.3975 0.94125,0.64375 1.54625,0.64375 0.74625,0 1.405,-0.375 1.7975,-0.95 l 4.445,-6.17125 -2.67625,-0.98125 -3.135,3.12875 -2.895,-3.50625 c -0.15625,-0.18625 -0.365,-0.32625 -0.60625,-0.39875 -0.225,-0.07125 -0.45125,-0.13875 -0.68125,-0.20375 -1.81625,-0.52375 -3.7375,-0.79875 -5.7225,-0.79875 -1.3875,0 -2.75125,0.10375 -4.0825,0.3025 -2.625,0.39125 -4.4700003,2.7425 -4.2875003,5.345 l 0.5875003,11.26125 -1.8962503,0 0,1.535 28.5887503,0 0,-1.535 -13.07875,0" style="fill:#231a16;fill-opacity:1;fill-rule:nonzero;stroke:none"/>
  <path d="m 27.899879,18.710501 2.345,0 0,0.5275 -1.745,0 0,1.2225 1.58875,0 0,0.5275 -1.58875,0 0,1.37875 1.745,0 0,0.5275 -2.345,0 0,-4.18375" style="fill:#231a16;fill-opacity:1;fill-rule:nonzero;stroke:none"/>
  <path d="m 31.19738,18.710501 0.815,0 1.84625,3.36875 0.01125,0 0,-3.36875 0.6,0 0,4.18375 -0.7675,0 -1.89375,-3.44125 -0.01125,0 0,3.44125 -0.6,0 0,-4.18375" style="fill:#231a16;fill-opacity:1;fill-rule:nonzero;stroke:none"/>
  <path d="m 38.70738,19.453001 c -0.29375,-0.19125 -0.61125,-0.2875 -1.15125,-0.2875 -0.965,0 -1.60625,0.70125 -1.60625,1.63625 0,0.9825 0.7075,1.63625 1.5775,1.63625 0.4125,0 0.52125,-0.0425 0.67,-0.0725 l 0,-1.27 -0.88,0 0,-0.49125 1.48,0 0,2.175 c -0.2275,0.07875 -0.62375,0.1875 -1.275,0.1875 -1.325,0 -2.2075,-0.8525 -2.2075,-2.1825 0,-1.28875 0.935,-2.14625 2.2125,-2.14625 0.61125,0 0.88,0.08875 1.22875,0.20875 l -0.04875,0.60625" style="fill:#231a16;fill-opacity:1;fill-rule:nonzero;stroke:none"/>
  <path d="m 39.85363,18.710501 0.59875,0 0,3.65625 1.75,0 0,0.5275 -2.34875,0 0,-4.18375" style="fill:#231a16;fill-opacity:1;fill-rule:nonzero;stroke:none"/>
  <path d="m 42.85613,18.710501 0,4.18325 0.59875,0 0,-4.18325 -0.59875,0 z" style="fill:#231a16;fill-opacity:1;fill-rule:nonzero;stroke:none"/>
  <path d="m 46.42238,19.339251 c -0.305,-0.12 -0.475,-0.17375 -0.785,-0.17375 -0.33625,0 -0.73125,0.12 -0.73125,0.5575 0,0.80375 1.7975,0.6175 1.7975,1.99625 0,0.8925 -0.68875,1.2475 -1.5275,1.2475 -0.29375,0 -0.58125,-0.085 -0.8575,-0.17375 l 0.06,-0.55875 c 0.20375,0.08375 0.5625,0.20375 0.86875,0.20375 0.34125,0 0.82125,-0.19125 0.82125,-0.68375 0,-0.93375 -1.79875,-0.67625 -1.79875,-1.9775 0,-0.7425 0.5875,-1.13875 1.3425,-1.13875 0.27625,0 0.60625,0.04875 0.89375,0.15 l -0.08375,0.55125" style="fill:#231a16;fill-opacity:1;fill-rule:nonzero;stroke:none"/>
  <path d="m 47.548631,18.710501 0.59875,0 0,1.75 2.00375,0 0,-1.75 0.59875,0 0,4.18375 -0.59875,0 0,-1.90625 -2.00375,0 0,1.90625 -0.59875,0 0,-4.18375" style="fill:#231a16;fill-opacity:1;fill-rule:nonzero;stroke:none"/>
  <path d="m 27.899879,18.710501 2.345,0 0,0.5275 -1.745,0 0,1.2225 1.58875,0 0,0.5275 -1.58875,0 0,1.37875 1.745,0 0,0.5275 -2.345,0 0,-4.18375" style="fill:#000;fill-opacity:1;fill-rule:nonzero;stroke:none"/>
  <path d="m 31.19738,18.710501 0.815,0 1.84625,3.36875 0.01125,0 0,-3.36875 0.6,0 0,4.18375 -0.7675,0 -1.89375,-3.44125 -0.01125,0 0,3.44125 -0.6,0 0,-4.18375" style="fill:#000;fill-opacity:1;fill-rule:nonzero;stroke:none"/>
  <path d="m 38.70738,19.453001 c -0.29375,-0.19125 -0.61125,-0.2875 -1.15125,-0.2875 -0.965,0 -1.60625,0.70125 -1.60625,1.63625 0,0.9825 0.7075,1.63625 1.5775,1.63625 0.4125,0 0.52125,-0.0425 0.67,-0.0725 l 0,-1.27 -0.88,0 0,-0.49125 1.48,0 0,2.175 c -0.2275,0.07875 -0.62375,0.1875 -1.275,0.1875 -1.325,0 -2.2075,-0.8525 -2.2075,-2.1825 0,-1.28875 0.935,-2.14625 2.2125,-2.14625 0.61125,0 0.88,0.08875 1.22875,0.20875 l -0.04875,0.60625" style="fill:#000;fill-opacity:1;fill-rule:nonzero;stroke:none"/>
  <path d="m 39.85363,18.710501 0.59875,0 0,3.65625 1.75,0 0,0.5275 -2.34875,0 0,-4.18375" style="fill:#000;fill-opacity:1;fill-rule:nonzero;stroke:none"/>
  <path d="m 42.85613,18.710501 0,4.18325 0.59875,0 0,-4.18325 -0.59875,0 z" style="fill:#000;fill-opacity:1;fill-rule:nonzero;stroke:none"/>
  <path d="m 46.42238,19.339251 c -0.305,-0.12 -0.475,-0.17375 -0.785,-0.17375 -0.33625,0 -0.73125,0.12 -0.73125,0.5575 0,0.80375 1.7975,0.6175 1.7975,1.99625 0,0.8925 -0.68875,1.2475 -1.5275,1.2475 -0.29375,0 -0.58125,-0.085 -0.8575,-0.17375 l 0.06,-0.55875 c 0.20375,0.08375 0.5625,0.20375 0.86875,0.20375 0.34125,0 0.82125,-0.19125 0.82125,-0.68375 0,-0.93375 -1.79875,-0.67625 -1.79875,-1.9775 0,-0.7425 0.5875,-1.13875 1.3425,-1.13875 0.27625,0 0.60625,0.04875 0.89375,0.15 l -0.08375,0.55125" style="fill:#000;fill-opacity:1;fill-rule:nonzero;stroke:none"/>
  <path d="m 47.548631,18.710501 0.59875,0 0,1.75 2.00375,0 0,-1.75 0.59875,0 0,4.18375 -0.59875,0 0,-1.90625 -2.00375,0 0,1.90625 -0.59875,0 0,-4.18375" style="fill:#000;fill-opacity:1;fill-rule:nonzero;stroke:none"/>
  <path d="m 26.812379,30.080501 c 0,0.3475 0.28125,0.63 0.62875,0.63 l 23.58125,0 c 0.3475,0 0.62875,-0.2825 0.62875,-0.63 l 0,-18.2975 c 0,-0.3475 -0.28125,-0.62875 -0.62875,-0.62875 l -23.58125,0 c -0.3475,0 -0.62875,0.28125 -0.62875,0.62875 l 0,11.64 -3.435,3.4375 c -0.0125,0.01375 -0.0125,0.02625 -0.0125,0.03125 0,0.025 0.02,0.045 0.045,0.045 l 3.4025,0 0,3.14375 z m -0.94375,-2.2 -2.45875,0 c -0.545,0 -0.98875,-0.4425 -0.98875,-0.98875 0,-0.27 0.10875,-0.515 0.285,-0.69375 l 3.1625,-3.16125 0,-11.25375 c 0,-0.8675 0.70375,-1.5725 1.5725,-1.5725 l 23.58125,0 c 0.86875,0 1.57125,0.705 1.57125,1.5725 l 0,18.2975 c 0,0.86875 -0.7025,1.5725 -1.57125,1.5725 l -23.58125,0 c -0.86875,0 -1.5725,-0.70375 -1.5725,-1.5725 l 0,-2.2" style="fill:#000;fill-opacity:1;fill-rule:nonzero;stroke:none"/>
  <path d="m 17.917379,31.673002 c 1.86,0 3.3675,-1.505 3.3675,-3.36375 0,-1.86 -1.5075,-3.3675 -3.3675,-3.3675 -1.86,0 -3.365,1.5075 -3.365,3.3675 0,1.85875 1.505,3.36375 3.365,3.36375" style="fill:#231a16;fill-opacity:1;fill-rule:nonzero;stroke:none"/>
  <path d="m 23.748629,49.598003 0,-9.76625 2.09625,2.095 c 0.39375,0.3975 0.94125,0.64375 1.54625,0.64375 0.74625,0 1.405,-0.375 1.7975,-0.95 l 4.445,-6.17125 -2.67625,-0.98125 -3.135,3.12875 -2.895,-3.50625 c -0.15625,-0.18625 -0.365,-0.32625 -0.60625,-0.39875 -0.225,-0.07125 -0.45125,-0.13875 -0.68125,-0.20375 -1.81625,-0.52375 -3.7375,-0.79875 -5.7225,-0.79875 -1.3875,0 -2.75125,0.10375 -4.0825,0.3025 -2.625,0.39125 -4.4700003,2.7425 -4.2875003,5.345 l 0.5875003,11.26125 -1.8962503,0 0,1.535 28.5887503,0 0,-1.535 -13.07875,0" style="fill:#231a16;fill-opacity:1;fill-rule:nonzero;stroke:none"/>
  <path d="m 27.899879,18.710501 2.345,0 0,0.5275 -1.745,0 0,1.2225 1.58875,0 0,0.5275 -1.58875,0 0,1.37875 1.745,0 0,0.5275 -2.345,0 0,-4.18375" style="fill:#231a16;fill-opacity:1;fill-rule:nonzero;stroke:none"/>
  <path d="m 31.19738,18.710501 0.815,0 1.84625,3.36875 0.01125,0 0,-3.36875 0.6,0 0,4.18375 -0.7675,0 -1.89375,-3.44125 -0.01125,0 0,3.44125 -0.6,0 0,-4.18375" style="fill:#231a16;fill-opacity:1;fill-rule:nonzero;stroke:none"/>
  <path d="m 38.70738,19.453001 c -0.29375,-0.19125 -0.61125,-0.2875 -1.15125,-0.2875 -0.965,0 -1.60625,0.70125 -1.60625,1.63625 0,0.9825 0.7075,1.63625 1.5775,1.63625 0.4125,0 0.52125,-0.0425 0.67,-0.0725 l 0,-1.27 -0.88,0 0,-0.49125 1.48,0 0,2.175 c -0.2275,0.07875 -0.62375,0.1875 -1.275,0.1875 -1.325,0 -2.2075,-0.8525 -2.2075,-2.1825 0,-1.28875 0.935,-2.14625 2.2125,-2.14625 0.61125,0 0.88,0.08875 1.22875,0.20875 l -0.04875,0.60625" style="fill:#231a16;fill-opacity:1;fill-rule:nonzero;stroke:none"/>
  <path d="m 39.85363,18.710501 0.59875,0 0,3.65625 1.75,0 0,0.5275 -2.34875,0 0,-4.18375" style="fill:#231a16;fill-opacity:1;fill-rule:nonzero;stroke:none"/>
  <path d="m 42.85613,18.710501 0,4.18325 0.59875,0 0,-4.18325 -0.59875,0 z" style="fill:#231a16;fill-opacity:1;fill-rule:nonzero;stroke:none"/>
  <path d="m 46.42238,19.339251 c -0.305,-0.12 -0.475,-0.17375 -0.785,-0.17375 -0.33625,0 -0.73125,0.12 -0.73125,0.5575 0,0.80375 1.7975,0.6175 1.7975,1.99625 0,0.8925 -0.68875,1.2475 -1.5275,1.2475 -0.29375,0 -0.58125,-0.085 -0.8575,-0.17375 l 0.06,-0.55875 c 0.20375,0.08375 0.5625,0.20375 0.86875,0.20375 0.34125,0 0.82125,-0.19125 0.82125,-0.68375 0,-0.93375 -1.79875,-0.67625 -1.79875,-1.9775 0,-0.7425 0.5875,-1.13875 1.3425,-1.13875 0.27625,0 0.60625,0.04875 0.89375,0.15 l -0.08375,0.55125" style="fill:#231a16;fill-opacity:1;fill-rule:nonzero;stroke:none"/>
  <path d="m 47.548631,18.710501 0.59875,0 0,1.75 2.00375,0 0,-1.75 0.59875,0 0,4.18375 -0.59875,0 0,-1.90625 -2.00375,0 0,1.90625 -0.59875,0 0,-4.18375" style="fill:#231a16;fill-opacity:1;fill-rule:nonzero;stroke:none"/>
  <path d="m 27.899879,18.710501 2.345,0 0,0.5275 -1.745,0 0,1.2225 1.58875,0 0,0.5275 -1.58875,0 0,1.37875 1.745,0 0,0.5275 -2.345,0 0,-4.18375" style="fill:#000;fill-opacity:1;fill-rule:nonzero;stroke:none"/>
  <path d="m 31.19738,18.710501 0.815,0 1.84625,3.36875 0.01125,0 0,-3.36875 0.6,0 0,4.18375 -0.7675,0 -1.89375,-3.44125 -0.01125,0 0,3.44125 -0.6,0 0,-4.18375" style="fill:#000;fill-opacity:1;fill-rule:nonzero;stroke:none"/>
  <path d="m 38.70738,19.453001 c -0.29375,-0.19125 -0.61125,-0.2875 -1.15125,-0.2875 -0.965,0 -1.60625,0.70125 -1.60625,1.63625 0,0.9825 0.7075,1.63625 1.5775,1.63625 0.4125,0 0.52125,-0.0425 0.67,-0.0725 l 0,-1.27 -0.88,0 0,-0.49125 1.48,0 0,2.175 c -0.2275,0.07875 -0.62375,0.1875 -1.275,0.1875 -1.325,0 -2.2075,-0.8525 -2.2075,-2.1825 0,-1.28875 0.935,-2.14625 2.2125,-2.14625 0.61125,0 0.88,0.08875 1.22875,0.20875 l -0.04875,0.60625" style="fill:#000;fill-opacity:1;fill-rule:nonzero;stroke:none"/>
  <path d="m 39.85363,18.710501 0.59875,0 0,3.65625 1.75,0 0,0.5275 -2.34875,0 0,-4.18375" style="fill:#000;fill-opacity:1;fill-rule:nonzero;stroke:none"/>
  <path d="m 42.85613,18.710501 0,4.18325 0.59875,0 0,-4.18325 -0.59875,0 z" style="fill:#000;fill-opacity:1;fill-rule:nonzero;stroke:none"/>
  <path d="m 46.42238,19.339251 c -0.305,-0.12 -0.475,-0.17375 -0.785,-0.17375 -0.33625,0 -0.73125,0.12 -0.73125,0.5575 0,0.80375 1.7975,0.6175 1.7975,1.99625 0,0.8925 -0.68875,1.2475 -1.5275,1.2475 -0.29375,0 -0.58125,-0.085 -0.8575,-0.17375 l 0.06,-0.55875 c 0.20375,0.08375 0.5625,0.20375 0.86875,0.20375 0.34125,0 0.82125,-0.19125 0.82125,-0.68375 0,-0.93375 -1.79875,-0.67625 -1.79875,-1.9775 0,-0.7425 0.5875,-1.13875 1.3425,-1.13875 0.27625,0 0.60625,0.04875 0.89375,0.15 l -0.08375,0.55125" style="fill:#000;fill-opacity:1;fill-rule:nonzero;stroke:none"/>
  <path d="m 47.548631,18.710501 0.59875,0 0,1.75 2.00375,0 0,-1.75 0.59875,0 0,4.18375 -0.59875,0 0,-1.90625 -2.00375,0 0,1.90625 -0.59875,0 0,-4.18375" style="fill:#000;fill-opacity:1;fill-rule:nonzero;stroke:none"/>
  <path d="m 26.812379,30.080501 c 0,0.3475 0.28125,0.63 0.62875,0.63 l 23.58125,0 c 0.3475,0 0.62875,-0.2825 0.62875,-0.63 l 0,-18.2975 c 0,-0.3475 -0.28125,-0.62875 -0.62875,-0.62875 l -23.58125,0 c -0.3475,0 -0.62875,0.28125 -0.62875,0.62875 l 0,11.64 -3.435,3.4375 c -0.0125,0.01375 -0.0125,0.02625 -0.0125,0.03125 0,0.025 0.02,0.045 0.045,0.045 l 3.4025,0 0,3.14375 z m -0.94375,-2.2 -2.45875,0 c -0.545,0 -0.98875,-0.4425 -0.98875,-0.98875 0,-0.27 0.10875,-0.515 0.285,-0.69375 l 3.1625,-3.16125 0,-11.25375 c 0,-0.8675 0.70375,-1.5725 1.5725,-1.5725 l 23.58125,0 c 0.86875,0 1.57125,0.705 1.57125,1.5725 l 0,18.2975 c 0,0.86875 -0.7025,1.5725 -1.57125,1.5725 l -23.58125,0 c -0.86875,0 -1.5725,-0.70375 -1.5725,-1.5725 l 0,-2.2" style="fill:#000;fill-opacity:1;fill-rule:nonzero;stroke:none"/>
</svg>
