<?xml version='1.0' encoding='UTF-8' standalone='no'?>
<svg xmlns:cc="http://creativecommons.org/ns#" xmlns:dc="http://purl.org/dc/elements/1.1/" height="60.601002" xmlns:rdf="http://www.w3.org/1999/02/22-rdf-syntax-ns#" xmlns:svg="http://www.w3.org/2000/svg" version="1.1" viewBox="0 0 60.601004 60.601004" width="60.601002" xmlns="http://www.w3.org/2000/svg">
  <title>靴を脱いでください; Take off your shoes</title>
  <defs/>
  <metadata>
    <rdf:RDF>
      <cc:Work rdf:about="">
        <dc:format>image/svg+xml</dc:format>
        <dc:type rdf:resource="http://purl.org/dc/dcmitype/StillImage"/>
        <dc:title>靴を脱いでください; Take off your shoes</dc:title>
        <dc:source>http://www.ecomo.or.jp/barrierfree/pictogram/data/zukigo_panfu_jis110.pdf</dc:source>
      </cc:Work>
    </rdf:RDF>
  </metadata>
  <path d="m 8.2048777,55.551753 c -1.7425,0 -3.155,-1.41375 -3.155,-3.15625 l 0,-44.1900003 c 0,-1.7425 1.4125,-3.15625 3.155,-3.15625 l 44.1900003,0 c 1.7425,0 3.15625,1.41375 3.15625,3.15625 l 0,44.1900003 c 0,1.7425 -1.41375,3.15625 -3.15625,3.15625 l -44.1900003,0 z" style="fill:#ffffff;stroke:#000;stroke-width:0.24250001;stroke-linecap:butt;stroke-linejoin:miter;stroke-miterlimit:4;stroke-dasharray:none;stroke-opacity:1"/>
  <path d="m 22.463629,13.999251 c 0.34375,0.49875 0.54125,1.1075 0.54125,1.7625 0,0.18875 -0.01625,0.3725 -0.04875,0.55375 l -2.6925,13.83625 c -0.1125,0.61875 -0.40625,1.175 -0.8225,1.60625 l -2.805,2.97 c -0.50875,0.535 -0.8225,1.255 -0.8225,2.0525 0,0.56625 0.1575,1.095 0.43,1.545 l 8.58875,-4.93375 c 0.4325,-0.2575 0.7775,-0.6525 0.97375,-1.12375 1.96,-4.54 5.52375,-8.2275 9.97125,-10.3525 1.175,-0.5975 1.98125,-1.82 1.98125,-3.23 0,-1.255 -0.645,-2.365 -1.62375,-3.015 l -2.83625,-1.89125 c -0.4775,-0.31625 -0.86375,-0.75875 -1.11125,-1.28125 l -1.76375,-3.6925003 -11.49625,0 3.53625,5.1937503" style="fill:#000;fill-opacity:1;fill-rule:nonzero;stroke:none"/>
  <path d="m 32.96863,33.723002 -7.55,4.38125 c -0.425,0.25375 -0.8825,0.45875 -1.36625,0.60625 l -10.6025,3.305 c -1.3375,0.3925 -2.39,1.44875 -2.7775,2.785 l -0.7362503,2.7125 20.5425003,0 c 2.29125,-1.585 5.0675,-2.51375 8.06,-2.51375 l 0,2.51375 8.66,0 1.78125,-7.175 c 0.14125,-0.54875 0.21125,-1.13125 0.21125,-1.73125 0,-1.56375 -0.52125,-2.995 -1.385,-4.1625 -2.2175,1.19875 -4.64,2.0525 -7.195,2.5425 -0.4625,0.09125 -0.9425,0.13875 -1.43375,0.13875 -2.61,0 -4.90125,-1.3525 -6.20875,-3.4025" style="fill:#231a16;fill-opacity:1;fill-rule:nonzero;stroke:none"/>
</svg>
