<?xml version="1.0" encoding="UTF-8"?>
<svg width="60.601" height="60.601" version="1.1" viewBox="0 0 60.601 60.601" xmlns="http://www.w3.org/2000/svg" xmlns:cc="http://creativecommons.org/ns#" xmlns:dc="http://purl.org/dc/elements/1.1/" xmlns:rdf="http://www.w3.org/1999/02/22-rdf-syntax-ns#">
 <title>イヤホンガイド; Audio guide</title>
 <metadata>
  <rdf:RDF>
   <cc:Work rdf:about="">
    <dc:format>image/svg+xml</dc:format>
    <dc:type rdf:resource="http://purl.org/dc/dcmitype/StillImage"/>
    <dc:title>イヤホンガイド; Audio guide</dc:title>
    <dc:source>http://www.ecomo.or.jp/barrierfree/pictogram/data/zukigo_panfu_20170719.pdf</dc:source>
   </cc:Work>
  </rdf:RDF>
 </metadata>
 <path d="m7.7861 56.032c-1.7775 0-3.2175-1.44-3.2175-3.2175v-45.031c0-1.7762 1.44-3.215 3.2175-3.215h45.03c1.7762 0 3.2162 1.4387 3.2162 3.215v45.031c0 1.7775-1.44 3.2175-3.2162 3.2175z" style="fill:#fff;stroke-width:.60625;stroke:#000"/>
 <path d="m19.122 30.632c0-1.7426-0.3912-3.3904-1.0906-4.8604h-2.2464v9.6733h2.2701c0.68164-1.464 1.0669-3.094 1.0669-4.813"/>
 <path d="m48.035 28.398v-0.84168c0-9.0925-6.6445-17.077-15.678-18.102-10.693-1.2151-19.797 7.1602-19.797 17.622v1.3218c-0.652 0.52752-1.0669 1.3336-1.0669 2.2346 0 0.90095 0.41491 1.7071 1.0669 2.2346h2.2583v-5.3583c0-7.6581 5.376-14.51 12.939-15.713 9.6733-1.5352 18.019 5.8976 18.019 15.281v5.791h2.2583c0.652-0.52753 1.0728-1.3336 1.0728-2.2346 0-0.90095-0.42083-1.7071-1.0728-2.2346"/>
 <path d="m41.473 30.632c0 1.7189 0.38528 3.3489 1.0728 4.813h2.2642v-9.6733h-2.2405c-0.70534 1.47-1.0966 3.1178-1.0966 4.8604"/>
 <path d="m34.865 31.344c0.49197-3.1711-2.2049-5.868-5.376-5.376-1.9738 0.30229-3.5801 1.9204-3.8824 3.8883-0.47418 3.1652 2.205 5.8443 5.3701 5.3642 1.9679-0.29636 3.5801-1.9086 3.8883-3.8764"/>
 <path d="m36.88 37.295c-2.1516-0.40306-4.3684-0.60459-6.6386-0.60459-2.2761 0-4.4929 0.20152-6.6445 0.60459-3.6453 0.66977-6.1466 3.9535-5.9569 7.5514l0.48012 6.4074h4.0543v-5.2279h0.80611v5.2279h14.516v-5.2279h0.80018v5.2279h4.0602l0.47418-6.4074c0.19561-3.5979-2.3057-6.8816-5.951-7.5514"/>
</svg>
