<?xml version='1.0' encoding='UTF-8' standalone='no'?>
<svg xmlns:cc="http://creativecommons.org/ns#" xmlns:dc="http://purl.org/dc/elements/1.1/" height="60.601002" xmlns:rdf="http://www.w3.org/1999/02/22-rdf-syntax-ns#" xmlns:svg="http://www.w3.org/2000/svg" version="1.1" viewBox="0 0 60.601004 60.601004" width="60.601002" xmlns="http://www.w3.org/2000/svg">
  <defs/>
  <metadata>
    <rdf:RDF>
      <cc:Work rdf:about="">
        <dc:format>image/svg+xml</dc:format>
        <dc:type rdf:resource="http://purl.org/dc/dcmitype/StillImage"/>
        <dc:title>消火器; Fire extinguisher</dc:title>
        <dc:source>http://www.ecomo.or.jp/barrierfree/pictogram/data/zukigo_panfu_jis110.pdf</dc:source>
      </cc:Work>
    </rdf:RDF>
  </metadata>
  <path d="m 7.7848777,56.031753 c -1.775,0 -3.215,-1.44 -3.215,-3.21625 l 0,-45.0300003 c 0,-1.77625 1.44,-3.21625 3.215,-3.21625 l 45.0312503,0 c 1.775,0 3.215,1.44 3.215,3.21625 l 0,45.0300003 c 0,1.77625 -1.44,3.21625 -3.215,3.21625 l -45.0312503,0" style="fill:#ff4b00;fill-opacity:1;fill-rule:nonzero;stroke:none"/>
  <path d="m 19.443629,36.005502 -0.98,4.9 3.43125,0 -0.98125,-4.9 -1.47,0" style="fill:#ffffff;fill-opacity:1;fill-rule:nonzero;stroke:none"/>
  <path d="m 38.80363,11.868 0,-1.225 -11.02875,0 0,2.8175 -3.185,0 c -1.37375,0 -2.6675,0.53625 -3.63875,1.5075 -0.9725,0.9725 -1.5075,2.265 -1.5075,3.63875 l 0,16.41875 1.47,0 0,-16.41875 c 0,-2.03 1.64625,-3.675 3.67625,-3.675 l 3.185,0 0,3.0625 -3.16,0 c -0.7325,2.32625 -1.1275,4.78375 -1.1275,7.35125 l 0,24.505 13.47625,0 0,-24.505 c 0,-2.5675 -0.39375,-5.025 -1.12625,-7.35125 l -3.1625,0 0,-3.0625 c 2.18,0 4.27375,0.55 6.1225,1.58625 l 0,-1.3825 c -1.8125,-1.0625 -3.88375,-1.73375 -6.1225,-1.89 l 0,-0.8875 6.12875,-0.49" style="fill:#ffffff;fill-opacity:1;fill-rule:nonzero;stroke:none"/>
</svg>
