<?xml version='1.0' encoding='UTF-8' standalone='no'?>
<svg xmlns:cc="http://creativecommons.org/ns#" xmlns:dc="http://purl.org/dc/elements/1.1/" height="60.601002" xmlns:rdf="http://www.w3.org/1999/02/22-rdf-syntax-ns#" xmlns:svg="http://www.w3.org/2000/svg" version="1.1" viewBox="0 0 60.601004 60.601004" width="60.601002" xmlns="http://www.w3.org/2000/svg">
  <defs/>
  <metadata>
    <rdf:RDF>
      <cc:Work rdf:about="">
        <dc:format>image/svg+xml</dc:format>
        <dc:type rdf:resource="http://purl.org/dc/dcmitype/StillImage"/>
        <dc:title>非常電話; Emergency telephone</dc:title>
        <dc:source>http://www.ecomo.or.jp/barrierfree/pictogram/data/zukigo_panfu_jis110.pdf</dc:source>
      </cc:Work>
    </rdf:RDF>
  </metadata>
  <path d="m 7.7861277,56.031753 c -1.7775,0 -3.2175,-1.44 -3.2175,-3.21625 l 0,-45.0300003 c 0,-1.77625 1.44,-3.21625 3.2175,-3.21625 l 45.0300003,0 c 1.77625,0 3.21625,1.44 3.21625,3.21625 l 0,45.0300003 c 0,1.77625 -1.44,3.21625 -3.21625,3.21625 l -45.0300003,0" style="fill:#ed1c24;fill-opacity:1;fill-rule:nonzero;stroke:none"/>
  <path d="m 10.861128,17.566751 c 0.92625,0.5025 2.2175,0.8875 3.70375,0.8875 1.1375,0 2.21875,-0.23 2.21875,-1.31125 0,-2.50625 -6.36625,-0.925 -6.36625,-5.825 0,-3.2400003 3.16375,-4.1275003 5.8625,-4.1275003 1.29375,0 2.56625,0.1925 3.475,0.50125 l -0.23375,2.7775003 c -0.925,-0.425 -1.96625,-0.6175003 -2.98875,-0.6175003 -0.90625,0 -2.41125,0.0775 -2.41125,1.2537503 0,2.18 6.365,0.71375 6.365,5.575 0,3.49125 -2.93125,4.43625 -5.92125,4.43625 -1.25375,0 -2.8175,-0.1925 -4.01125,-0.57875 l 0.3075,-2.97125" style="fill:#ffffff;fill-opacity:1;fill-rule:nonzero;stroke:none"/>
  <path d="m 30.302379,18.454251 c 2.17875,0 3.04625,-2.0825 3.04625,-4.3 0,-2.335 -0.8675,-4.3025003 -3.04625,-4.3025003 -2.18125,0 -3.0475,1.9675003 -3.0475,4.3025003 0,2.2175 0.86625,4.3 3.0475,4.3 z m 0,-11.2637503 c 4.43625,0 6.75125,2.6425 6.75125,6.9637503 0,4.28125 -2.35375,6.9625 -6.75125,6.9625 -4.39875,0 -6.75125,-2.68125 -6.75125,-6.9625 0,-4.3212503 2.31375,-6.9637503 6.75125,-6.9637503" style="fill:#ffffff;fill-opacity:1;fill-rule:nonzero;stroke:none"/>
  <path d="m 40.541129,17.566751 c 0.9275,0.5025 2.2175,0.8875 3.70375,0.8875 1.1375,0 2.2175,-0.23 2.2175,-1.31125 0,-2.50625 -6.365,-0.925 -6.365,-5.825 0,-3.2400003 3.16375,-4.1275003 5.865,-4.1275003 1.29125,0 2.56375,0.1925 3.47125,0.50125 l -0.23125,2.7775003 c -0.925,-0.425 -1.9675,-0.6175003 -2.99,-0.6175003 -0.90625,0 -2.41125,0.0775 -2.41125,1.2537503 0,2.18 6.365,0.71375 6.365,5.575 0,3.49125 -2.93125,4.43625 -5.92125,4.43625 -1.25375,0 -2.815,-0.1925 -4.01125,-0.57875 l 0.3075,-2.97125" style="fill:#ffffff;fill-opacity:1;fill-rule:nonzero;stroke:none"/>
  <path d="m 33.478629,28.580501 c 0,-1.46875 -0.19375,-2.88625 -0.5375,-4.24875 l -2.245,0 0,8.54375 2.245,0.005 c 0.35,-1.375 0.5375,-2.815 0.5375,-4.3" style="fill:#ffffff;fill-opacity:1;fill-rule:nonzero;stroke:none"/>
  <path d="m 30.696129,43.599252 0,8.54875 2.245,0 c 0.35,-1.375 0.5375,-2.8175 0.5375,-4.3025 0,-1.46875 -0.205,-2.88 -0.5475,-4.24375 l -2.235,-0.0025" style="fill:#ffffff;fill-opacity:1;fill-rule:nonzero;stroke:none"/>
  <path d="m 24.274878,38.239252 c 0,5.1675 1.6025,9.96125 4.3375,13.90875 l 0.98,0 0,-8.54375 c -1.05,-1.53875 -1.6525,-3.3575 -1.6525,-5.365 0,-2.00625 0.6025,-3.82625 1.6525,-5.36375 l 0,-8.54375 -0.98,-0.0012 c -2.735,3.94875 -4.3375,8.74125 -4.3375,13.90875" style="fill:#ffffff;fill-opacity:1;fill-rule:nonzero;stroke:none"/>
</svg>
