<?xml version='1.0' encoding='UTF-8' standalone='no'?>
<svg xmlns:cc="http://creativecommons.org/ns#" xmlns:dc="http://purl.org/dc/elements/1.1/" height="60.601002" xmlns:rdf="http://www.w3.org/1999/02/22-rdf-syntax-ns#" xmlns:svg="http://www.w3.org/2000/svg" version="1.1" viewBox="0 0 60.601004 60.601004" width="60.601002" xmlns="http://www.w3.org/2000/svg">
  <defs/>
  <metadata>
    <rdf:RDF>
      <cc:Work rdf:about="">
        <dc:format>image/svg+xml</dc:format>
        <dc:type rdf:resource="http://purl.org/dc/dcmitype/StillImage"/>
        <dc:title>非常ボタン; Emergency call button</dc:title>
        <dc:source>http://www.ecomo.or.jp/barrierfree/pictogram/data/zukigo_panfu_jis110.pdf</dc:source>
      </cc:Work>
    </rdf:RDF>
  </metadata>
  <path d="m 7.7861277,56.031753 c -1.7775,0 -3.2175,-1.44 -3.2175,-3.215 l 0,-45.0300003 c 0,-1.7775 1.44,-3.2175 3.2175,-3.2175 l 45.0287503,0 c 1.77625,0 3.2175,1.44 3.2175,3.2175 l 0,45.0300003 c 0,1.775 -1.44125,3.215 -3.2175,3.215 l -45.0287503,0" style="fill:#ff4b00;fill-opacity:1;fill-rule:nonzero;stroke:none"/>
  <path d="m 24.512379,27.588001 c 0,-1.65375 1.34,-2.99375 2.9925,-2.99375 1.655,0 2.995,1.34 2.995,2.99375 0,1.015 -0.50625,1.9125 -1.28,2.45375 l 0,-2.035 c 0.0013,-0.965 -0.75,-1.74625 -1.715,-1.74875 -0.96375,-0.0012 -1.76875,0.77875 -1.77125,1.7425 l 0,2.00125 c -0.74125,-0.54625 -1.22125,-1.42375 -1.22125,-2.41375 z m 15.17,10.8375 c 0.0025,-0.965 -0.75875,-1.7475 -1.72125,-1.74875 -0.77125,-0.0012 -1.43625,0.49875 -1.67375,1.19125 l -0.18125,0 c -0.22375,-0.69 -0.85625,-1.18875 -1.625,-1.19 -0.77125,-0.0013 -1.43875,0.4975 -1.6775,1.19 l -0.18125,0 c -0.225,-0.68875 -0.86,-1.18875 -1.62875,-1.19 -0.77125,-0.0013 -1.43625,0.49875 -1.67375,1.19 l -0.1,0 0,-6.42625 c 1.47375,-0.65875 2.505,-2.1375 2.505,-3.85375 0,-1.1275 -0.43875,-2.18625 -1.23625,-2.98375 -0.7975,-0.79625 -1.8575,-1.235 -2.98375,-1.235 -1.12625,0 -2.185,0.43875 -2.9825,1.235 -0.7975,0.7975 -1.23625,1.85625 -1.23625,2.98375 0,1.12625 0.43875,2.18625 1.23625,2.9825 0.355,0.3575 0.7675,0.6425 1.21125,0.84875 l 0,9.58375 -2.79,-3.76875 c -0.51,-0.79375 -1.37,-1.35375 -2.38375,-1.44125 -0.67125,-0.06 -1.3225,0.0825 -1.86625,0.39625 l 6.155,16.28 12.2225,-0.0062 c 1.6375,-2.29 2.62625,-5.04375 2.62625,-8.065 l -0.015,-5.9725" style="fill:#ffffff;fill-opacity:1;fill-rule:nonzero;stroke:none"/>
  <path d="m 10.861128,17.568001 c 0.92625,0.5025 2.2175,0.8875 3.70375,0.8875 1.1375,0 2.2175,-0.23125 2.2175,-1.31125 0,-2.5075 -6.365,-0.92625 -6.365,-5.825 0,-3.2412503 3.16375,-4.1287503 5.86375,-4.1287503 1.2925,0 2.565,0.1925 3.4725,0.50125 l -0.2325,2.7787503 c -0.925,-0.425 -1.96625,-0.6175003 -2.99,-0.6175003 -0.905,0 -2.41,0.07625 -2.41,1.2537503 0,2.18 6.365,0.7125 6.365,5.57375 0,3.49125 -2.93125,4.4375 -5.92125,4.4375 -1.25375,0 -2.8175,-0.19375 -4.0125,-0.57875 l 0.30875,-2.97125" style="fill:#ffffff;fill-opacity:1;fill-rule:nonzero;stroke:none"/>
  <path d="m 30.30113,18.455501 c 2.17875,0 3.0475,-2.0825 3.0475,-4.30125 0,-2.335 -0.86875,-4.3012503 -3.0475,-4.3012503 -2.18,0 -3.0475,1.9662503 -3.0475,4.3012503 0,2.21875 0.8675,4.30125 3.0475,4.30125 z m 0,-11.2650003 c 4.43625,0 6.75125,2.6425 6.75125,6.9637503 0,4.2825 -2.3525,6.96375 -6.75125,6.96375 -4.39875,0 -6.75125,-2.68125 -6.75125,-6.96375 0,-4.3212503 2.315,-6.9637503 6.75125,-6.9637503" style="fill:#ffffff;fill-opacity:1;fill-rule:nonzero;stroke:none"/>
  <path d="m 40.54113,17.568001 c 0.92625,0.5025 2.2175,0.8875 3.70375,0.8875 1.1375,0 2.21625,-0.23125 2.21625,-1.31125 0,-2.5075 -6.365,-0.92625 -6.365,-5.825 0,-3.2412503 3.165,-4.1287503 5.865,-4.1287503 1.2925,0 2.565,0.1925 3.4725,0.50125 l -0.23125,2.7787503 c -0.9275,-0.425 -1.9675,-0.6175003 -2.99125,-0.6175003 -0.905,0 -2.41,0.07625 -2.41,1.2537503 0,2.18 6.365,0.7125 6.365,5.57375 0,3.49125 -2.93125,4.4375 -5.92125,4.4375 -1.25375,0 -2.8175,-0.19375 -4.01125,-0.57875 l 0.3075,-2.97125" style="fill:#ffffff;fill-opacity:1;fill-rule:nonzero;stroke:none"/>
</svg>
