<?xml version='1.0' encoding='UTF-8' standalone='no'?>
<svg xmlns:cc="http://creativecommons.org/ns#" xmlns:dc="http://purl.org/dc/elements/1.1/" height="60.601002" xmlns:rdf="http://www.w3.org/1999/02/22-rdf-syntax-ns#" xmlns:svg="http://www.w3.org/2000/svg" version="1.1" viewBox="0 0 60.601004 60.601004" width="60.601002" xmlns="http://www.w3.org/2000/svg">
  <title>避難所（建物）; safety evacuation shelter</title>
  <defs/>
  <metadata>
    <rdf:RDF>
      <cc:Work rdf:about="">
        <dc:format>image/svg+xml</dc:format>
        <dc:type rdf:resource="http://purl.org/dc/dcmitype/StillImage"/>
        <dc:title>避難所（建物）; safety evacuation shelter</dc:title>
        <dc:source>http://www.ecomo.or.jp/barrierfree/pictogram/data/zukigo_panfu_jis110.pdf</dc:source>
      </cc:Work>
    </rdf:RDF>
  </metadata>
  <path d="m 4.5230012,4.5230012 0,51.5550028 51.5550028,0 0,-51.5550028 -51.5550028,0 z" style="fill:#ffffff;fill-opacity:1;fill-rule:nonzero;stroke:none"/>
  <path d="m 28.400502,28.581752 c 0,1.49375 -1.20875,2.69875 -2.69875,2.69875 -1.48875,0 -2.69625,-1.205 -2.69625,-2.69875 0,-1.48625 1.2075,-2.69625 2.69625,-2.69625 1.49,0 2.69875,1.21 2.69875,2.69625 z m 23.23125,26.71625 -10.60375,0 0,-4.2675 3.22375,0 -1.49125,-2.99 -0.04125,-0.05375 c -0.46375,-0.6275 -0.96125,-0.98125 -1.69125,-1.15625 l 0,-24.01375 -21.73125,0 0,14.28625 2.01375,0.045 2.97,-3.95 c 0.68,-0.90625 1.4525,-1.47375 2.9975,-1.48375 l 6.0475,-0.01 c 1.71875,0 2.405,-0.08 3.24125,1.2225 l 2.3025,4.1575 c 0.09875,0.1825 0.16375,0.3875 0.16375,0.60875 0,0.6925 -0.5625,1.255 -1.255,1.255 -0.49,0 -0.91125,-0.28625 -1.1175,-0.69625 l -2.19625,-3.9475 -3.10375,0 2.05,4.64 c 0.34,0.78625 0.735,1.40625 0.895,2.885 l 0.35875,5.64 4.93875,0 c 1.48875,0 1.98125,0.28625 2.4925,0.97875 l 0.90125,1.80625 -10.04,0 c -1.0625,0 -1.55375,-0.40875 -1.60625,-1.5525 l -0.35375,-6.31875 -5.425,11.3 c -0.7,1.45875 -1.105,1.615 -2.47625,1.615 l -1.99125,0 6.64875,-13.81875 -2.31375,-5.2625 -2.0625,2.73875 c -0.57125,0.715 -0.70875,0.79875 -1.92875,0.75125 l -2.15125,-0.0725 0,15.66375 -10.3274998,0 0,-33.12375 21.3287498,-13.6449998 21.33375,13.6449998 0,33.12375 z M 4.5230022,4.5230022 l 0,51.5549998 51.5549998,0 0,-51.5549998 -51.5549998,0 z" style="fill:#00a650;fill-opacity:1;fill-rule:nonzero;stroke:none"/>
</svg>
