<?xml version='1.0' encoding='UTF-8' standalone='no'?>
<svg xmlns:cc="http://creativecommons.org/ns#" xmlns:dc="http://purl.org/dc/elements/1.1/" height="60.601002" xmlns:rdf="http://www.w3.org/1999/02/22-rdf-syntax-ns#" xmlns:svg="http://www.w3.org/2000/svg" version="1.1" viewBox="0 0 60.601004 60.601004" width="60.601002" xmlns="http://www.w3.org/2000/svg">
  <title>津波避難場所; Tsunami evacuation area</title>
  <defs/>
  <metadata>
    <rdf:RDF>
      <cc:Work rdf:about="">
        <dc:format>image/svg+xml</dc:format>
        <dc:type rdf:resource="http://purl.org/dc/dcmitype/StillImage"/>
        <dc:title>津波避難場所; Tsunami evacuation building</dc:title>
        <dc:source>http://www.ecomo.or.jp/barrierfree/pictogram/data/zukigo_panfu_jis110.pdf</dc:source>
      </cc:Work>
    </rdf:RDF>
  </metadata>
  <path d="m 4.6773762,4.676751 0,51.247503 51.2462528,0 0,-51.247503 -51.2462528,0 z" style="fill:#00a650;fill-opacity:1;fill-rule:nonzero;stroke:none"/>
  <path d="m 51.722429,51.733004 0,-24.99875 -7.45125,0 -25,25.0075 32.45125,0 0,-0.0087" style="fill:#ffffff;fill-opacity:1;fill-rule:nonzero;stroke:none"/>
  <path d="m 38.737428,13.145502 c 0,0.9 -0.7225,1.62625 -1.6225,1.62625 -0.90125,0 -1.6575,-0.72625 -1.6575,-1.62625 0,-0.9 0.75625,-1.655 1.6575,-1.655 0.9,0 1.6225,0.755 1.6225,1.655 z m 3.335,4.81875 c 0.49625,0 0.89875,0.4025 0.89875,0.89875 0,0.4975 -0.4025,0.9 -0.89875,0.9 l -2.52125,0 c -0.5225,0 -1.01625,-0.2625 -1.305,-0.63875 l -1.1625,-1.42125 -1.22125,3.04625 3.92125,8.09875 -1.5375,0 c -0.4625,0 -0.8725,-0.26125 -1.04625,-0.63875 l -3.19375,-6.61875 -0.40625,3.74625 c -0.02875,0.435 -0.405,0.75375 -0.83875,0.75375 l -5.92375,0 0.37875,-0.98625 c 0.20375,-0.46625 0.6375,-0.81375 1.19,-0.81375 l 3.455,0 0.40625,-4.26625 1.3325,-3.33875 -1.73875,0 -1.075,2.0625 c -0.145,0.26 -0.3775,0.40625 -0.6975,0.40625 -0.405,0 -0.75375,-0.34875 -0.75375,-0.755 0,-0.145 0.02875,-0.2625 0.08625,-0.34875 l 1.19,-2.26375 c 0.29125,-0.55125 0.8425,-0.9 1.4825,-0.9 l 4.03375,0 c 0.63875,0 1.2175,0.29 1.59625,0.72625 l 1.885,2.35125 2.46375,0" style="fill:#ffffff;fill-opacity:1;fill-rule:nonzero;stroke:none"/>
  <path d="m 8.8724262,51.739254 7.9462498,0 9.4975,-9.4975 c -2.90375,-0.195 -5.89875,-0.9 -8.55875,-2.49625 -2.985,-1.795 -4.1525,-5.335 -2.60875,-7.9075 1.54625,-2.57125 5.24625,-3.2175 8.23125,-1.4225 0.4375,0.26125 0.835,0.5625 1.19125,0.89125 l 0.4075,-0.23375 c -1.805,-4.495 -6.80875,-8.84875 -16.1062498,-6.5025 l 0,27.16875" style="fill:#ffffff;fill-opacity:1;fill-rule:nonzero;stroke:none"/>
</svg>
