<?xml version='1.0' encoding='UTF-8' standalone='no'?>
<svg xmlns:cc="http://creativecommons.org/ns#" xmlns:dc="http://purl.org/dc/elements/1.1/" height="60.601002" xmlns:rdf="http://www.w3.org/1999/02/22-rdf-syntax-ns#" xmlns:svg="http://www.w3.org/2000/svg" version="1.1" viewBox="0 0 60.601004 60.601004" width="60.601002" xmlns="http://www.w3.org/2000/svg">
  <title>津波避難ビル; Tsunami evacuation building</title>
  <defs/>
  <metadata>
    <rdf:RDF>
      <cc:Work rdf:about="">
        <dc:format>image/svg+xml</dc:format>
        <dc:type rdf:resource="http://purl.org/dc/dcmitype/StillImage"/>
        <dc:title>津波避難ビル; Tsunami evacuation building</dc:title>
        <dc:source>http://www.ecomo.or.jp/barrierfree/pictogram/data/zukigo_panfu_jis110.pdf</dc:source>
      </cc:Work>
    </rdf:RDF>
  </metadata>
  <path d="m 4.8942512,4.8898762 0,50.8212528 50.8125028,0 0,-50.8212528 -50.8125028,0 z" style="fill:#00b06b;fill-opacity:1;fill-rule:nonzero;stroke:none"/>
  <path d="m 44.294253,23.322377 0,-3.7175 -2.975,0 0,3.7175 2.975,0 z m 0,-3.7175 z m 5.2125,3.7175 0,-3.7175 -2.975,0 0,3.7175 2.975,0 z m 0,-3.7175 z m -5.2125,-3.005 0,-3.71875 -2.975,0 0,3.71875 2.975,0 z m 0,-3.71875 z m 5.2125,3.71875 0,-3.71875 -2.975,0 0,3.71875 2.975,0 z m 0,-3.71875 z m 1.975,-2.3925 0,20.6675 -1.975,0 0,-4.74 -2.975,0 0,4.74 -7.1875,0 0,-20.6675 12.1375,0" style="fill:#ffffff;fill-opacity:1;fill-rule:nonzero;stroke:none"/>
  <path d="m 36.144253,29.893627 c 0,0.90625 -0.7375,1.63625 -1.6375,1.63625 -0.9125,0 -1.675,-0.73 -1.675,-1.63625 0,-0.90625 0.7625,-1.66625 1.675,-1.66625 0.9,0 1.6375,0.76 1.6375,1.66625 z m 3.35,4.855 c 0.5,0 0.9125,0.40375 0.9125,0.905 0,0.5 -0.4125,0.90625 -0.9125,0.90625 l -2.5375,0 c -0.525,0 -1.025,-0.2625 -1.3125,-0.64375 l -1.175,-1.43375 -1.225,3.07125 3.95,8.15875 -1.55,0 c -0.4625,0 -0.875,-0.26375 -1.05,-0.645 l -3.225,-6.665 -0.4,3.7725 c -0.0375,0.43875 -0.4125,0.76 -0.85,0.76 l -5.9625,0 0.375,-0.995 c 0.2,-0.4675 0.6375,-0.81875 1.2,-0.81875 l 3.475,0 0.4125,-4.2975 1.35,-3.365 -1.7625,0 -1.075,2.0775 c -0.15,0.2625 -0.3875,0.40875 -0.7,0.40875 -0.4125,0 -0.7625,-0.35 -0.7625,-0.75875 0,-0.1475 0.025,-0.26375 0.0875,-0.3525 l 1.2,-2.28125 c 0.2875,-0.555 0.8375,-0.905 1.4875,-0.905 l 4.0625,0 c 0.65,0 1.2375,0.29125 1.6125,0.73125 l 1.9,2.37 2.475,0" style="fill:#ffffff;fill-opacity:1;fill-rule:nonzero;stroke:none"/>
  <path d="m 9.0442522,51.618629 20.4624998,0 0,-0.245 c -4.725,-0.365 -9.2875,-1.22375 -12.3,-3.18875 -3.475,-2.09375 -4.85,-6.2225 -3.0375,-9.22125 1.8,-3 6.175,-3.79125 9.6625,-1.6975 0.5125,0.305 0.975,0.65625 1.3875,1.04 l 0.4125,-0.23625 c -1.9625,-4.87875 -7.15,-9.61125 -16.5874998,-8.04625 l 0,21.595" style="fill:#ffffff;fill-opacity:1;fill-rule:nonzero;stroke:none"/>
</svg>
