<?xml version="1.0" encoding="UTF-8"?>
<svg width="60.601" height="60.601" version="1.1" viewBox="0 0 60.601 60.601" xmlns="http://www.w3.org/2000/svg" xmlns:cc="http://creativecommons.org/ns#" xmlns:dc="http://purl.org/dc/elements/1.1/" xmlns:rdf="http://www.w3.org/1999/02/22-rdf-syntax-ns#">
 <title>列車の非常停止ボタン 非常口; Emergency train stop button</title>
 <metadata>
  <rdf:RDF>
   <cc:Work rdf:about="">
    <dc:format>image/svg+xml</dc:format>
    <dc:type rdf:resource="http://purl.org/dc/dcmitype/StillImage"/>
    <dc:title>列車の非常停止ボタン 非常口; Emergency train stop button</dc:title>
    <dc:source>http://www.ecomo.or.jp/barrierfree/pictogram/data/zukigo_panfu_20170719.pdf</dc:source>
   </cc:Work>
  </rdf:RDF>
 </metadata>
 <path d="m7.7835 56.033c-1.773 0-3.215-1.4361-3.215-3.215v-45.028c0-1.7789 1.442-3.2209 3.215-3.2209h45.034c1.773 0 3.215 1.442 3.215 3.2209v45.028c0 1.7789-1.442 3.215-3.215 3.215z" style="fill:#ff4b00"/>
 <path d="m21.832 40.826c0-0.63237 0.51416-1.1465 1.1465-1.1465 0.63237 0 1.1524 0.51417 1.1524 1.1465 0 0.63237-0.52008 1.1524-1.1524 1.1524-0.63237 0-1.1465-0.52008-1.1465-1.1524m-7.4347 1.1524c-0.63237 0-1.1524-0.52008-1.1524-1.1524 0-0.63237 0.52008-1.1465 1.1524-1.1465 0.63237 0 1.1465 0.51417 1.1465 1.1465 0 0.63237-0.51416 1.1524-1.1465 1.1524m-1.9503-5.7149v-4.4798c0-0.50826 0.4137-0.91605 0.92196-0.91605h10.638c0.50826 0 0.91605 0.40779 0.91605 0.91605v4.4798c0 0.50826-0.40778 0.92196-0.91605 0.92196h-10.638c-0.50826 0-0.92196-0.4137-0.92196-0.92196m2.3817-8.3153c0-0.20094 0.15957-0.36642 0.36642-0.36642h6.9856c0.20685 0 0.36642 0.16548 0.36642 0.36642v1.0165c0 0.20094-0.15957 0.36642-0.36642 0.36642h-6.9856c-0.20685 0-0.36642-0.16548-0.36642-0.36642zm10.437 16.016c0.77421-1.4657 1.2293-3.1264 1.2293-4.8994v-9.6273c0-1.5011-1.1052-2.7422-2.5472-2.9491h-10.52c-1.4479 0.20685-2.5472 1.4479-2.5472 2.9491v9.6273c0 1.7612 0.44325 3.4219 1.2115 4.8816 0.656 0.14776 1.3179 0.27186 1.9917 0.37824l-4.3852 5.4549h2.4644l2.9491-3.6524h7.1511l2.9491 3.6524h2.4645l-4.3793-5.449c0.66192-0.10048 1.3179-0.22458 1.968-0.36642" style="fill:#fff"/>
 <path d="m12.346 17.955c-1.312 0-2.4467-0.34278-3.2682-0.78602l-0.27186 2.624c1.0579 0.33687 2.4349 0.50826 3.5401 0.50826 2.6358 0 5.2244-0.83331 5.2244-3.9124 0-4.2906-5.6145-2.9964-5.6145-4.9171 0-1.0402 1.3238-1.1052 2.1276-1.1052 0.89831 0 1.8203 0.17139 2.6358 0.54372l0.20685-2.4526c-0.80376-0.27186-1.9267-0.44325-3.0673-0.44325-2.3817 0-5.1712 0.78603-5.1712 3.6464 0 4.3202 5.6145 2.9254 5.6145 5.1358 0 0.95151-0.95151 1.1584-1.9562 1.1584" style="fill:#fff"/>
 <path d="m19.042 10.567h2.9313v9.5328h3.1618v-9.5328h2.9254v-2.3463h-9.0186z" style="fill:#fff"/>
 <path d="m35.182 10.366c1.9207 0 2.689 1.7316 2.689 3.7942 0 1.9562-0.76829 3.7942-2.689 3.7942-1.9267 0-2.689-1.838-2.689-3.7942 0-2.0626 0.76239-3.7942 2.689-3.7942m0 9.9347c3.8769 0 5.9572-2.364 5.9572-6.1405 0-3.8119-2.0448-6.1464-5.9572-6.1464s-5.9572 2.3344-5.9572 6.1464c0 3.7765 2.0803 6.1405 5.9572 6.1405" style="fill:#fff"/>
 <path d="m47.25 13.699h-0.82149v-3.2328h0.82149c1.0874 0 1.9562 0.39006 1.9562 1.5957 0 1.247-0.86877 1.6371-1.9562 1.6371m-0.20685-5.4785h-3.7765v11.879h3.1618v-4.1547h1.2293c2.9609 0 4.7102-1.4302 4.7102-3.8297 0-2.6713-1.7021-3.8947-5.3249-3.8947" style="fill:#fff"/>
 <path d="m38.19 26.252c-0.96333 0-1.7671 0.78012-1.7671 1.7434v1.9976c-0.74466-0.54372-1.2234-1.4184-1.2234-2.4113 0-1.6548 1.3416-2.9904 2.9904-2.9904 1.6548 0 2.9964 1.3357 2.9964 2.9904 0 1.0165-0.50234 1.9148-1.2766 2.4526v-2.033c0-0.96332-0.75057-1.7494-1.7198-1.7494m10.455 10.419c-0.76831 0-1.4361 0.49644-1.6725 1.1879h-0.18322c-0.22457-0.68556-0.85694-1.1879-1.6252-1.1879-0.76829 0-1.4361 0.49644-1.6725 1.1879h-0.18322c-0.22458-0.68556-0.85694-1.1879-1.6252-1.1879-0.77421 0-1.442 0.49644-1.6784 1.1879h-0.09455v-6.4241c1.4716-0.656 2.4999-2.1335 2.4999-3.8533 0-1.1229-0.43733-2.1867-1.2352-2.9786-0.79786-0.79785-1.8557-1.2352-2.9845-1.2352-1.1229 0-2.1808 0.43734-2.9786 1.2352-0.79784 0.79194-1.2352 1.8557-1.2352 2.9786 0 1.1288 0.43735 2.1867 1.2352 2.9845 0.35459 0.3546 0.76829 0.63828 1.2115 0.84513v9.5801l-2.7895-3.7646c-0.50826-0.79194-1.3711-1.3534-2.3817-1.442-0.67373-0.0591-1.3238 0.08274-1.8675 0.39597l6.1523 16.276 12.222-0.0059c1.6371-2.2872 2.624-5.0412 2.624-8.0612l-0.0177-5.975c6e-3 -0.96333-0.75648-1.7434-1.7198-1.7434" style="fill:#fff"/>
</svg>
