<?xml version="1.0" encoding="UTF-8" standalone="no"?>
<svg
   xmlns:dc="http://purl.org/dc/elements/1.1/"
   xmlns:cc="http://creativecommons.org/ns#"
   xmlns:rdf="http://www.w3.org/1999/02/22-rdf-syntax-ns#"
   xmlns:svg="http://www.w3.org/2000/svg"
   xmlns="http://www.w3.org/2000/svg"
   viewBox="0 0 60.601 60.601"
   version="1.1"
   height="60.601"
   width="60.601">
  <title>自動体外式除細動器; Automated external defibrillator</title>
  <metadata>
    <rdf:RDF>
      <cc:Work
         rdf:about="">
        <dc:format>image/svg+xml</dc:format>
        <dc:type
           rdf:resource="http://purl.org/dc/dcmitype/StillImage" />
        <dc:title>自動体外式除細動器; Automated external defibrillator</dc:title>
        <dc:source></dc:source>
      </cc:Work>
    </rdf:RDF>
  </metadata>
  <path
     style="fill:#ff4b00"
     d="m7.7835 56.033c-1.773 0-3.215-1.4361-3.215-3.215v-45.028c0-1.7789 1.442-3.2209 3.215-3.2209h45.034c1.773 0 3.215 1.442 3.215 3.2209v45.028c0 1.7789-1.442 3.215-3.215 3.215z" />
  <path
     style="fill:#fff"
     d="m 25.71817,20.8417 h 9.756327 v -2.560465 h -6.14854 V 15.21708 h 5.605426 V 12.656615 H 29.325957 V 9.8637578 h 5.934822 V 7.3032927 H 25.71817 Z" />
  <path
     style="fill:#fff"
     d="m 14.120135,15.391478 1.745536,-5.295224 h 0.0389 l 1.609628,5.295224 z m 3.99528,-8.0880818 H 13.693218 L 8.5536133,20.841804 h 3.6653657 l 1.067034,-2.889861 h 5.081506 l 1.008935,2.889861 h 3.956376 z" />
  <path
     style="fill:#fff"
     d="m 43.736043,18.164935 h -1.39591 V 9.9803689 h 1.39591 c 2.637756,0 4.208998,1.3964291 4.208998,4.0922831 0,2.695854 -1.513144,4.092283 -4.208998,4.092283 M 43.658752,7.3037076 H 38.732346 V 20.841596 h 4.926406 c 4.616203,0 8.010272,-1.765247 8.010272,-6.827042 0,-5.2371265 -3.297066,-6.7108464 -8.010272,-6.7108464" />
  <path
     style="fill:#fff"
     d="m 25.762003,48.603294 3.799199,-9.023876 h -5.485081 l 10.135002,-11.329124 -4.167499,8.904567 h 5.522429 z m 12.29293,-24.888281 c -3.466691,0 -6.442661,2.088418 -7.754018,5.074244 -1.316025,-2.985826 -4.28992,-5.074244 -7.756093,-5.074244 -4.669114,0 -8.454307,3.783637 -8.454307,8.454826 0,9.269236 8.778515,17.816397 16.2104,21.594846 7.42981,-3.778449 16.20625,-12.32561 16.20625,-21.594846 0,-4.671189 -3.783637,-8.454826 -8.452232,-8.454826" />
</svg>
