<?xml version='1.0' encoding='UTF-8' standalone='no'?>
<svg xmlns:cc="http://creativecommons.org/ns#" xmlns:dc="http://purl.org/dc/elements/1.1/" height="60.601002" xmlns:rdf="http://www.w3.org/1999/02/22-rdf-syntax-ns#" xmlns:svg="http://www.w3.org/2000/svg" version="1.1" viewBox="0 0 60.601004 60.601004" width="60.601002" xmlns="http://www.w3.org/2000/svg">
  <defs/>
  <metadata>
    <rdf:RDF>
      <cc:Work rdf:about="">
        <dc:format>image/svg+xml</dc:format>
        <dc:type rdf:resource="http://purl.org/dc/dcmitype/StillImage"/>
        <dc:title>禁煙; No smoking</dc:title>
        <dc:source>http://www.ecomo.or.jp/barrierfree/pictogram/data/zukigo_panfu_jis110.pdf</dc:source>
      </cc:Work>
    </rdf:RDF>
  </metadata>
  <path d="m 13.501751,34.706753 0,4.80125 28.810001,0 0,-4.80125 -28.810001,0 z" style="fill:#000;fill-opacity:1;fill-rule:nonzero;stroke:none"/>
  <path d="m 43.110502,34.706753 0,4.80125 1.60125,0 0,-4.80125 -1.60125,0 z" style="fill:#000;fill-opacity:1;fill-rule:nonzero;stroke:none"/>
  <path d="m 45.511753,34.706753 0,4.80125 1.60125,0 0,-4.80125 -1.60125,0 z" style="fill:#000;fill-opacity:1;fill-rule:nonzero;stroke:none"/>
  <path d="m 38.388002,19.440502 c 0.05875,-0.19625 0.09,-0.405 0.09,-0.62 0,-1.205 -0.9775,-2.1825 -2.1825,-2.1825 l -3.34,0 0.7325,-2.7275 2.7475,0 c 2.41,0 4.365,1.95375 4.365,4.36375 0,0.20375 -0.07,0.70125 -0.17375,1.04 l -0.23,0.78875 4.1225,0 c 1.84375,0 3.3375,1.4925 3.3375,3.335 0,0.14125 -0.01125,0.28125 -0.02875,0.4175 l -1.12625,8.945 -1.0275,0 0.345,-8.345 c 0.0012,-0.0275 0.0025,-0.05625 0.0025,-0.085 0,-1.1775 -0.95625,-2.13375 -2.13375,-2.13375 l -5.23375,0 c -0.45125,0 -0.81875,-0.36625 -0.81875,-0.81875 0,-0.08 0.01375,-0.1575 0.035,-0.23125 l 0.5175,-1.74625" style="fill:#000;fill-opacity:1;fill-rule:nonzero;stroke:none"/>
  <path d="m 31.764252,21.003002 c -3.3875,0 -6.135,-2.7475 -6.135,-6.13625 0,-1.27625 0.39125,-2.46125 1.06,-3.4425 l -3.15625,0 c -0.49625,1.0425 -0.77625,2.21 -0.77625,3.4425 0,4.42 3.5825,8.0025 8.00125,8.0025 l 0.61125,0 c 0.96375,2.4975 3.38625,4.26875 6.2225,4.26875 l 4.36125,0 c 0.83625,0 1.5225,0.6425 1.59375,1.46125 l 0.36125,4.20125 0.75375,0 0,-4.8625 c 0,-1.32625 -1.075,-2.4 -2.4,-2.4 l -4.36125,0 c -2.30625,0 -4.19875,-1.775 -4.385,-4.0325 -0.02375,-0.28125 -0.2575,-0.5025 -0.545,-0.5025 l -1.20625,0" style="fill:#000;fill-opacity:1;fill-rule:nonzero;stroke:none"/>
  <path d="m 47.240503,44.144253 -30.78375,-30.7825 c 3.7775,-3.1075 8.61625,-4.9750003 13.88875,-4.9750003 12.07625,0 21.86875,9.7925003 21.86875,21.8700003 0,5.27375 -1.86625,10.11 -4.97375,13.8875 z m -16.895,7.98375 c -12.07875,0 -21.8712503,-9.79125 -21.8712503,-21.87125 0,-5.22875 1.8375003,-10.02875 4.9000003,-13.7925 l 30.76375,30.7625 c -3.76375,3.0625 -8.5625,4.90125 -13.7925,4.90125 z M 30.301753,2.9617527 c -15.09875,0 -27.3387503,12.2412503 -27.3387503,27.3387503 0,15.0975 12.2400003,27.33875 27.3387503,27.33875 15.09625,0 27.33625,-12.24125 27.33625,-27.33875 0,-15.0975 -12.24,-27.3387503 -27.33625,-27.3387503" style="fill:#ff4b00;fill-opacity:1;fill-rule:nonzero;stroke:none"/>
</svg>
