<?xml version='1.0' encoding='UTF-8' standalone='no'?>
<svg xmlns:cc="http://creativecommons.org/ns#" xmlns:dc="http://purl.org/dc/elements/1.1/" height="60.601002" xmlns:rdf="http://www.w3.org/1999/02/22-rdf-syntax-ns#" xmlns:svg="http://www.w3.org/2000/svg" version="1.1" viewBox="0 0 60.601004 60.601004" width="60.601002" xmlns="http://www.w3.org/2000/svg">
  <defs/>
  <metadata>
    <rdf:RDF>
      <cc:Work rdf:about="">
        <dc:format>image/svg+xml</dc:format>
        <dc:type rdf:resource="http://purl.org/dc/dcmitype/StillImage"/>
        <dc:title>禁煙 [火災予防条例]; No smoking</dc:title>
        <dc:source>http://www.ecomo.or.jp/barrierfree/pictogram/data/zukigo_panfu_jis110.pdf</dc:source>
      </cc:Work>
    </rdf:RDF>
  </metadata>
  <path d="M 30.195044,27.637813 C 32.14339,25.309082 32.815802,20.711524 29.669394,18.646367 27.851337,17.451301 25.19314,16.8957 21.387799,18.391779 l 0.357921,0.356423 c 2.638729,-0.819174 5.515572,-0.796711 7.45044,0.643958 2.695637,2.003756 2.268828,5.845039 0.856614,7.770921 l 0.14227,0.474732" style="fill:#000;fill-opacity:1;fill-rule:nonzero;stroke:none"/>
  <path d="m 18.749012,21.529201 c -1.157627,0.471736 -2.105592,1.072264 -3.159886,1.791101 0.248598,-0.670914 1.590426,-2.111582 2.198442,-2.468005 l -0.28454,-0.28454 c -1.463131,1.139656 -2.481483,2.679164 -2.807955,3.808336 1.03183,-0.808691 3.412976,-2.276316 4.23215,-2.526411 l -0.178211,-0.320481" style="fill:#000;fill-opacity:1;fill-rule:nonzero;stroke:none"/>
  <path d="m 26.103667,39.503108 c 0.286037,-1.177095 -0.295023,-2.246364 -1.759652,-3.055055 -1.123182,-0.621494 -2.065158,-1.117192 -2.518923,-1.615885 -0.910526,-1.009366 -0.856614,-2.285301 -0.173719,-3.493844 0.956951,-1.699749 2.766023,-3.20032 3.466889,-3.79336 L 24.79778,27.326318 c -0.320481,0.257583 -2.468005,2.090616 -3.733457,3.703505 -0.916516,1.169607 -1.461634,2.66868 -0.354925,4.04046 0.58705,0.730817 1.579943,1.259461 3.089499,1.876463 1.379268,0.564586 2.318248,1.109704 1.960327,2.855877 l 0.344443,-0.299515 z m -0.462751,-0.03744 c -0.312994,-0.05841 -1.32236,-0.540625 -1.702744,-0.961444 -0.678402,-0.748788 -0.82816,-1.551489 -0.768257,-2.61327 0.08237,-1.52603 0.533137,-2.984669 4.314517,-5.734219 l -0.298018,-0.283042 c -1.03183,0.711349 -1.982791,1.398736 -2.680661,2.029216 -2.062162,1.858492 -2.632739,3.902683 -2.110085,5.28195 0.431302,1.13067 1.418205,2.029216 3.064041,2.598295" style="fill:#000;fill-opacity:1;fill-rule:nonzero;stroke:none"/>
  <path d="M 45.274077,23.628803 C 45.203687,23.730638 37.760738,34.435311 33.002939,41.280731 32.799269,39.858034 30.665223,37.860268 28.327507,38.194227 33.011924,31.74866 40.55821,21.361473 40.66903,21.20872 c 1.46463,-0.393862 2.724091,-0.152753 3.657081,0.660431 0.536132,0.465746 0.959946,1.058786 0.959946,1.623373 0,0.04493 -0.006,0.09135 -0.01198,0.136279 z m -0.479225,-2.26134 c -1.138157,-0.986902 -2.686651,-1.301393 -4.414854,-0.799705 -0.07338,0.01947 -0.136279,0.06439 -0.181206,0.125796 L 24.083376,42.871157 c -0.02246,0.03145 -0.04343,0.06739 -0.05391,0.10483 -0.440287,1.530523 0.115314,3.035587 1.488591,4.029977 1.325355,0.956951 2.980176,1.127675 4.026982,0.413331 0.03295,-0.02246 0.0614,-0.05391 0.08836,-0.08686 L 45.88958,23.943294 c 0.03145,-0.04493 0.05092,-0.09435 0.05691,-0.14826 0.121304,-0.858111 -0.365408,-1.744676 -1.151636,-2.427571" style="fill:#000;fill-opacity:1;fill-rule:nonzero;stroke:none"/>
  <path d="M 47.240334,44.142598 16.456161,13.362918 c 3.776887,-3.108967 8.617053,-4.9749473 13.88852,-4.9749473 12.074955,0 21.866107,9.7911523 21.866107,21.8691023 0,5.274463 -1.864482,10.108638 -4.970454,13.885525 z m -16.895653,7.986573 c -12.07795,0 -21.8720973,-9.791152 -21.8720973,-21.872098 0,-5.229535 1.8390233,-10.027769 4.9030643,-13.792675 l 30.760211,30.761709 c -3.761911,3.061045 -8.561642,4.903064 -13.791178,4.903064 z M 30.299751,2.9622527 c -15.097064,0 -27.3367524,12.2396893 -27.3367524,27.3397483 0,15.097063 12.2396884,27.336752 27.3367524,27.336752 15.098561,0 27.33825,-12.239689 27.33825,-27.336752 0,-15.100059 -12.239689,-27.3397483 -27.33825,-27.3397483" style="fill:#ed1c24;fill-opacity:1;fill-rule:nonzero;stroke:none"/>
</svg>
