<?xml version='1.0' encoding='UTF-8' standalone='no'?>
<svg xmlns:cc="http://creativecommons.org/ns#" xmlns:dc="http://purl.org/dc/elements/1.1/" height="60.601002" xmlns:rdf="http://www.w3.org/1999/02/22-rdf-syntax-ns#" xmlns:svg="http://www.w3.org/2000/svg" version="1.1" viewBox="0 0 60.601004 60.601004" width="60.601002" xmlns="http://www.w3.org/2000/svg">
  <defs/>
  <metadata>
    <rdf:RDF>
      <cc:Work rdf:about="">
        <dc:format>image/svg+xml</dc:format>
        <dc:type rdf:resource="http://purl.org/dc/dcmitype/StillImage"/>
        <dc:title>火気厳禁; No open flame</dc:title>
        <dc:source>http://www.ecomo.or.jp/barrierfree/pictogram/data/zukigo_panfu_jis110.pdf</dc:source>
      </cc:Work>
    </rdf:RDF>
  </metadata>
  <path d="m 26.106751,37.843628 c 0.10625,-3.72625 2.14625,-0.885 3.07625,-8.2475 0.36,-2.86 -0.63375,-7.79875 -2.39625,-8.83875 0.59625,1.74125 0.095,4.5575 0.095,4.5575 -1.32125,-1.85875 -4.00125,-5.15875 -0.365,-8.62 -3.47875,-0.0975 -7.10875,3.4425 -8.12875,7.05375 -0.04,0.14 -0.2325,0.23625 -0.2875,0.11875 -0.3925,-0.82 -0.57875,-2.36 -0.57875,-2.36 -1.9825,3.625 -2.26875,6.91 0.02375,10.5125 0.0025,0.0012 0.48625,0.52125 -0.11125,0.5375 -0.94,0.025 -1.62875,-0.6275 -1.62875,-0.6275 0.42875,3.99875 3.76,6.665 6.09375,6.8075 1.1475,0.07125 1.71875,0.86875 1.62875,1.395 -0.07125,0.4225 0.2775,0.68625 0.58375,0.60625 1.5425,-0.4075 1.975,-2.1475 1.995,-2.895" style="fill:#000;fill-opacity:1;fill-rule:nonzero;stroke:none"/>
  <path d="m 24.470501,38.928628 c -0.95375,-1.62 -2.6875,-2.17 -3.8575,-2.71375 -0.96125,-0.45125 -1.37875,-1.31125 -1.7175,-2.5025 0.97875,-0.0475 1.945,0.0275 2.48,1.025 0.60625,-0.79375 -0.31,-2.8675 -1.195,-3.9375 -0.995,-1.20375 -0.5575,-2.6675 -0.18625,-3.6325 0.255,0.8925 1.155,1.9525 2.1225,2.035 2.5625,0.22125 3.91625,1.99125 2.92375,4.39375 1.00125,-0.72125 1.0325,-1.95625 1.04875,-2.95125 1.0175,0.99125 1.6675,2.37375 0.6175,3.8075 -1.9575,2.6775 -1.4075,3.39125 -2.23625,4.47625" style="fill:#ffffff;fill-opacity:1;fill-rule:nonzero;stroke:none"/>
  <path d="m 31.248002,39.628628 14.0275,-14.69875 -0.26375,-3.10125 -3.15875,-0.23125 -14.19375,15.0925 c -1.43,1.54875 -0.99625,3.02375 -1.66875,3.83875 -0.46875,0.56375 -1.05,0.78375 -2.02125,0.82125 -0.56375,0.02125 -1.20375,0.2875 -1.65375,0.7675 -0.93375,0.99 -0.88625,2.55 0.10375,3.48125 0.99125,0.9325 2.5525,0.885 3.48375,-0.10625 0.45125,-0.4775 0.67875,-1.09125 0.66375,-1.69875 -0.02125,-0.9725 0.1625,-1.5675 0.69625,-2.0675 0.77375,-0.72375 2.5275,-0.5725 3.985,-2.0975" style="fill:#000;fill-opacity:1;fill-rule:nonzero;stroke:none"/>
  <path d="m 44.300502,22.541127 -2.145,-0.13375 -13.99625,14.85375 0.055,2.225 2.47875,-0.1275 13.7475,-14.52375 -0.14,-2.29375" style="fill:#ffffff;fill-opacity:1;fill-rule:nonzero;stroke:none"/>
  <path d="m 28.301752,39.903628 16.42625,-17.3525 -0.42875,-0.64375 -16.49625,17.425 0.49875,0.57125" style="fill:#000;fill-opacity:1;fill-rule:nonzero;stroke:none"/>
  <path d="m 47.249253,44.152378 -30.8,-30.8 c 3.7775,-3.11 8.62,-4.9775003 13.895,-4.9775003 12.0825,0 21.88125,9.7975003 21.88125,21.8812503 0,5.2775 -1.8675,10.1175 -4.97625,13.89625 z m -16.905,7.98875 c -12.08625,0 -21.8837503,-9.79625 -21.8837503,-21.885 0,-5.23125 1.8400003,-10.0325 4.9037503,-13.8 l 30.78,30.78 c -3.765,3.06375 -8.5675,4.905 -13.8,4.905 M 30.300503,2.9461277 c -15.10625,0 -27.3525003,12.2487503 -27.3525003,27.3550003 0,15.10625 12.2462503,27.35375 27.3525003,27.35375 15.10625,0 27.3525,-12.2475 27.3525,-27.35375 0,-15.10625 -12.24625,-27.3550003 -27.3525,-27.3550003" style="fill:#ed1c24;fill-opacity:1;fill-rule:nonzero;stroke:none"/>
</svg>
