<?xml version='1.0' encoding='UTF-8' standalone='no'?>
<svg xmlns:cc="http://creativecommons.org/ns#" xmlns:dc="http://purl.org/dc/elements/1.1/" height="60.601002" xmlns:rdf="http://www.w3.org/1999/02/22-rdf-syntax-ns#" xmlns:svg="http://www.w3.org/2000/svg" version="1.1" viewBox="0 0 60.601004 60.601004" width="60.601002" xmlns="http://www.w3.org/2000/svg">
  <defs/>
  <metadata>
    <rdf:RDF>
      <cc:Work rdf:about="">
        <dc:format>image/svg+xml</dc:format>
        <dc:type rdf:resource="http://purl.org/dc/dcmitype/StillImage"/>
        <dc:title>駐車禁止; No parking</dc:title>
        <dc:source>http://www.ecomo.or.jp/barrierfree/pictogram/data/zukigo_panfu_jis110.pdf</dc:source>
      </cc:Work>
    </rdf:RDF>
  </metadata>
  <path d="m 28.493677,29.574878 2.155,0 c 2.8725,0 5.1625,-1.0325 5.1625,-4.31 0,-3.18625 -2.29,-4.22 -5.1625,-4.22 l -2.155,0 0,8.53 z m -8.3475,-14.455 9.965,0 c 9.56125,0 14.05,3.2325 14.05,10.28 0,6.33 -4.62375,10.10125 -12.435,10.10125 l -3.2325,0 0,10.95375 -8.3475,0 0,-31.335" style="fill:#000;fill-opacity:1;fill-rule:nonzero;stroke:none"/>
  <path d="m 47.234878,44.139878 -30.77375,-30.7725 c 3.775,-3.1075 8.6125,-4.9737503 13.88375,-4.9737503 12.07375,0 21.86125,9.7900003 21.86125,21.8625003 0,5.2725 -1.86375,10.1075 -4.97125,13.88375 z m -16.89,7.98125 c -12.07625,0 -21.8650003,-9.7875 -21.8650003,-21.865 0,-5.2275 1.8375003,-10.025 4.8987503,-13.7875 l 30.75375,30.7525 c -3.7625,3.06125 -8.56,4.9 -13.7875,4.9 m -0.045,-49.1512503 c -15.0925,0 -27.3287503,12.2375003 -27.3287503,27.3300003 0,15.09375 12.2362503,27.33125 27.3287503,27.33125 15.09375,0 27.33,-12.2375 27.33,-27.33125 0,-15.0925 -12.23625,-27.3300003 -27.33,-27.3300003" style="fill:#ed1c24;fill-opacity:1;fill-rule:nonzero;stroke:none"/>
</svg>
