<?xml version='1.0' encoding='UTF-8' standalone='no'?>
<svg xmlns:cc="http://creativecommons.org/ns#" xmlns:dc="http://purl.org/dc/elements/1.1/" height="60.601002" xmlns:rdf="http://www.w3.org/1999/02/22-rdf-syntax-ns#" xmlns:svg="http://www.w3.org/2000/svg" version="1.1" viewBox="0 0 60.601004 60.601004" width="60.601002" xmlns="http://www.w3.org/2000/svg">
  <defs/>
  <metadata>
    <rdf:RDF>
      <cc:Work rdf:about="">
        <dc:format>image/svg+xml</dc:format>
        <dc:type rdf:resource="http://purl.org/dc/dcmitype/StillImage"/>
        <dc:title>自転車乗り入れ禁止; No bicycles</dc:title>
        <dc:source>http://www.ecomo.or.jp/barrierfree/pictogram/data/zukigo_panfu_jis110.pdf</dc:source>
      </cc:Work>
    </rdf:RDF>
  </metadata>
  <path d="m 32.751752,22.764877 3.775,0.47 c 0.0875,0.01 0.175,0.01625 0.25,0.01625 1.1,0 2,-0.86625 2.05,-1.9525 l -6.0125,0 c -0.4,0 -0.7375,0.3275 -0.7375,0.7325 0,0.40375 0.275,0.73375 0.675,0.73375" style="fill:#000;fill-opacity:1;fill-rule:nonzero;stroke:none"/>
  <path d="m 41.414252,39.933628 c -2.8625,0 -5.225,-2.11125 -5.6375,-4.8625 l 5.6375,0 c 0.4625,0 0.825,-0.375 0.825,-0.83625 0,-0.46125 -0.3625,-0.83625 -0.825,-0.83625 l -5.6375,0 c 0.4,-2.755 2.775,-4.87125 5.6375,-4.87125 3.15,0 5.7125,2.55375 5.7125,5.70375 0,3.14875 -2.5625,5.7025 -5.7125,5.7025 z m -16.475,-5.7025 c 0,3.14875 -2.55,5.7025 -5.7,5.7025 -3.15,0 -5.7,-2.55375 -5.7,-5.7025 0,-3.15 2.55,-5.70375 5.7,-5.70375 0.5625,0 1.1125,0.0825 1.625,0.235 l -2.4125,5.1625 c -0.2,0.4175 -0.0125,0.91625 0.4,1.11125 0.425,0.195 0.925,0.01375 1.1125,-0.405 l 2.4125,-5.16625 c 1.55,1.02 2.5625,2.77375 2.5625,4.76625 m 16.475,-7.23375 c -3.7125,0 -6.7625,2.79875 -7.175,6.40125 l -2.55,0 4.4,-9.44625 -11.15,0 2.0125,-4.33875 3.125,0 0,-1.6725 -4.175,0 -4.3875,9.4225 c -0.7125,-0.23625 -1.475,-0.36625 -2.275,-0.36625 -3.9875,0 -7.225,3.23875 -7.225,7.23375 0,3.99375 3.2375,7.23125 7.225,7.23125 4,0 7.2375,-3.2375 7.2375,-7.23125 0,-2.60875 -1.3875,-4.89375 -3.45,-6.165 l 1.1375,-2.44125 9.3,0 -4.4,9.44625 5.175,0 c 0.4125,3.59875 3.475,6.39125 7.175,6.39125 4,0 7.2375,-3.2375 7.2375,-7.23125 0,-3.995 -3.2375,-7.23375 -7.2375,-7.23375" style="fill:#000;fill-opacity:1;fill-rule:nonzero;stroke:none"/>
  <path d="m 47.239253,44.139878 -30.775,-30.7725 c 3.775,-3.1075 8.6125,-4.9737503 13.8875,-4.9737503 12.0625,0 21.8625,9.7900003 21.8625,21.8625003 0,5.27375 -1.875,10.1075 -4.975,13.88375 z m -16.8875,7.98125 c -12.075,0 -21.8750003,-9.7875 -21.8750003,-21.865 0,-5.22625 1.8375003,-10.02375 4.9000003,-13.7875 l 30.7625,30.7525 c -3.7625,3.0625 -8.5625,4.9 -13.7875,4.9 m -0.05,-49.1512503 c -15.0875,0 -27.3275003,12.2387503 -27.3275003,27.3312503 0,15.0925 12.2400003,27.33 27.3275003,27.33 15.1,0 27.325,-12.2375 27.325,-27.33 0,-15.0925 -12.225,-27.3312503 -27.325,-27.3312503" style="fill:#ff4b00;fill-opacity:1;fill-rule:nonzero;stroke:none"/>
</svg>
