<?xml version='1.0' encoding='UTF-8' standalone='no'?>
<svg xmlns:cc="http://creativecommons.org/ns#" xmlns:dc="http://purl.org/dc/elements/1.1/" height="60.601002" xmlns:rdf="http://www.w3.org/1999/02/22-rdf-syntax-ns#" xmlns:svg="http://www.w3.org/2000/svg" version="1.1" viewBox="0 0 60.601004 60.601004" width="60.601002" xmlns="http://www.w3.org/2000/svg">
  <defs/>
  <metadata>
    <rdf:RDF>
      <cc:Work rdf:about="">
        <dc:format>image/svg+xml</dc:format>
        <dc:type rdf:resource="http://purl.org/dc/dcmitype/StillImage"/>
        <dc:title>立入禁止; No admittance</dc:title>
        <dc:source>http://www.ecomo.or.jp/barrierfree/pictogram/data/zukigo_panfu_jis110.pdf</dc:source>
      </cc:Work>
    </rdf:RDF>
  </metadata>
  <path d="m 30.306752,17.104877 c 1.5,0 2.725,-1.22 2.725,-2.725 0,-1.505 -1.225,-2.725 -2.725,-2.725 -1.5125,0 -2.725,1.22 -2.725,2.725 0,1.505 1.2125,2.725 2.725,2.725" style="fill:#000;fill-opacity:1;fill-rule:nonzero;stroke:none"/>
  <path d="m 34.394252,18.297377 c -1.325,-0.245 -2.7,-0.375 -4.0875,-0.375 -1.4,0 -2.775,0.13 -4.1,0.375 -2.2375,0.41625 -3.7875,2.43625 -3.6625,4.65625 l 0.5,9.41 2.2125,0 0,-8.99375 0.6875,0 0,25.0725 3,0 1.0875,-15.535 0.5375,0 1.1,15.535 2.9875,0 0,-25.0725 0.6875,0 0,8.99375 2.2125,0 0.5,-9.41 c 0.125,-2.22 -1.425,-4.24 -3.6625,-4.65625" style="fill:#000;fill-opacity:1;fill-rule:nonzero;stroke:none"/>
  <path d="m 47.231753,44.139878 -30.7625,-30.7725 c 3.7625,-3.1075 8.6,-4.9737503 13.875,-4.9737503 12.075,0 21.8625,9.7900003 21.8625,21.8625003 0,5.2725 -1.8625,10.1075 -4.975,13.88375 z m -16.8875,7.98125 c -12.075,0 -21.8625003,-9.7875 -21.8625003,-21.865 0,-5.2275 1.8375003,-10.02375 4.9000003,-13.7875 l 30.75,30.7525 c -3.7625,3.06125 -8.5625,4.9 -13.7875,4.9 m -0.0375,-49.1512503 c -15.1,0 -27.3375003,12.2375003 -27.3375003,27.3312503 0,15.0925 12.2375003,27.33 27.3375003,27.33 15.0875,0 27.325,-12.2375 27.325,-27.33 0,-15.09375 -12.2375,-27.3312503 -27.325,-27.3312503" style="fill:#ff4b00;fill-opacity:1;fill-rule:nonzero;stroke:none"/>
</svg>
