<?xml version='1.0' encoding='UTF-8' standalone='no'?>
<svg xmlns:cc="http://creativecommons.org/ns#" xmlns:dc="http://purl.org/dc/elements/1.1/" height="60.601002" xmlns:rdf="http://www.w3.org/1999/02/22-rdf-syntax-ns#" xmlns:svg="http://www.w3.org/2000/svg" version="1.1" viewBox="0 0 60.601004 60.601004" width="60.601002" xmlns="http://www.w3.org/2000/svg">
  <defs/>
  <metadata>
    <rdf:RDF>
      <cc:Work rdf:about="">
        <dc:format>image/svg+xml</dc:format>
        <dc:type rdf:resource="http://purl.org/dc/dcmitype/StillImage"/>
        <dc:title>走るな／かけ込み禁止; Do not rush</dc:title>
        <dc:source>http://www.ecomo.or.jp/barrierfree/pictogram/data/zukigo_panfu_jis110.pdf</dc:source>
      </cc:Work>
    </rdf:RDF>
  </metadata>
  <path d="m 36.613002,18.578627 c 1.3875,0.60125 3,-0.03375 3.6,-1.42125 0.6,-1.3875 -0.0375,-2.99875 -1.425,-3.60125 -1.3875,-0.60125 -3,0.035 -3.6,1.42125 -0.6,1.3875 0.0375,3 1.425,3.60125" style="fill:#000;fill-opacity:1;fill-rule:nonzero;stroke:none"/>
  <path d="m 36.200502,24.983627 c 1.7375,2.6875 4.375,4.73875 7.4875,5.72625 l 1.325,-1.88875 c -3.65,-1.555 -6.4375,-4.7325 -7.475,-8.625 -0.05,-0.18375 -0.175,-0.3375 -0.3375,-0.42375 -1.8625,-0.9875 -4,-1.54875 -6.25,-1.54875 -4.9,0 -9.1875,2.625 -11.525,6.54375 l 1.6875,1.69 c 2.025,-2.86375 5.3375,-4.75 9.1,-4.81 l -5.975,11.72375 -9.15,-1.61375 -1.5875,2.73625 11.3125,3.455 c 0.25,0.0775 0.5125,0.11875 0.8,0.11875 0.925,0 1.7375,-0.46125 2.2375,-1.1675 l 2.7375,-3.9175 3.5625,2.05625 -3.25,10.02875 2.425,2.035 5.4625,-11.72625 c 0.2375,-0.49125 0.325,-1.05625 0.225,-1.6325 -0.1375,-0.74375 -0.5625,-1.365 -1.1375,-1.76625 l -4.4125,-3.09375 2.7375,-3.9" style="fill:#000;fill-opacity:1;fill-rule:nonzero;stroke:none"/>
  <path d="m 47.238003,44.139878 -30.775,-30.7725 c 3.775,-3.10625 8.6125,-4.9725003 13.8875,-4.9725003 12.0625,0 21.8625,9.7887503 21.8625,21.8625003 0,5.2725 -1.875,10.1075 -4.975,13.8825 z m -16.8875,7.9825 c -12.075,0 -21.8750003,-9.7875 -21.8750003,-21.865 0,-5.2275 1.8375003,-10.025 4.9000003,-13.7875 l 30.7625,30.7525 c -3.7625,3.06 -8.5625,4.9 -13.7875,4.9 m -0.05,-49.1525003 c -15.0875,0 -27.3250003,12.2375003 -27.3250003,27.3312503 0,15.0925 12.2375003,27.33 27.3250003,27.33 15.1,0 27.325,-12.2375 27.325,-27.33 0,-15.09375 -12.225,-27.3312503 -27.325,-27.3312503" style="fill:#ff4b00;fill-opacity:1;fill-rule:nonzero;stroke:none"/>
</svg>
