<?xml version='1.0' encoding='UTF-8' standalone='no'?>
<svg xmlns:cc="http://creativecommons.org/ns#" xmlns:dc="http://purl.org/dc/elements/1.1/" height="60.601002" xmlns:rdf="http://www.w3.org/1999/02/22-rdf-syntax-ns#" xmlns:svg="http://www.w3.org/2000/svg" version="1.1" viewBox="0 0 60.601004 60.601004" width="60.601002" xmlns="http://www.w3.org/2000/svg">
  <defs/>
  <metadata>
    <rdf:RDF>
      <cc:Work rdf:about="">
        <dc:format>image/svg+xml</dc:format>
        <dc:type rdf:resource="http://purl.org/dc/dcmitype/StillImage"/>
        <dc:title>さわるな; Do not touch</dc:title>
        <dc:source>http://www.ecomo.or.jp/barrierfree/pictogram/data/zukigo_panfu_jis110.pdf</dc:source>
      </cc:Work>
    </rdf:RDF>
  </metadata>
  <path d="m 35.418002,45.533004 -10.51125,0 -8.85375,-18.4325 c 0.26625,-0.09 0.55375,-0.1375 0.85125,-0.1375 0.7875,0 1.51625,0.3575 1.9975,0.98125 l 0.01,0.0125 0.0087,0.01 4.03125,4.84625 1.98875,0 0,-16.10875 c 0,-0.33625 0.13125,-0.65125 0.37,-0.89125 0.23625,-0.23625 0.5525,-0.3675 0.89,-0.3675 0.33625,0 0.6525,0.13125 0.89,0.3675 0.2375,0.24 0.36875,0.555 0.36875,0.89125 l 0,10.78 1.62875,0 0,-12.64125 c 0,-0.33625 0.13,-0.65375 0.36875,-0.89125 0.23875,-0.2375 0.555,-0.36875 0.89,-0.36875 0.3375,0 0.6525,0.13125 0.89125,0.36875 0.2375,0.2375 0.36875,0.555 0.36875,0.89125 l 0,12.64375 1.62875,0 0,-10.7825 c 0,-0.33625 0.13125,-0.65125 0.3675,-0.89125 0.24,-0.23625 0.55625,-0.3675 0.8925,-0.3675 0.33625,0 0.6525,0.13125 0.89,0.3675 0.23875,0.24 0.36875,0.555 0.36875,0.89125 l 0,12.32125 1.62875,0 0,-7.82 c 0,-0.33625 0.13,-0.65375 0.37,-0.89 0.235,-0.2375 0.5525,-0.37 0.89,-0.37 0.335,0 0.6525,0.1325 0.88875,0.37 0.23875,0.23625 0.37,0.55375 0.37,0.89 l 0,14.1075 c 0,3.8275 -1.63,7.5325 -4.48375,10.22 z m -11.53625,1.6275 12.16875,0 0.23125,-0.20875 c 3.33625,-3.01 5.2475,-7.25125 5.2475,-11.63875 l 0,-14.1075 c 0,-0.77125 -0.29875,-1.49625 -0.845,-2.0425 -0.54625,-0.545 -1.27,-0.845 -2.04125,-0.845 -0.4525,0 -0.87875,0.10375 -1.26,0.29 l 0,-1.90375 c 0,-0.77 -0.3,-1.4975 -0.84625,-2.04125 -0.545,-0.545 -1.27125,-0.84625 -2.04125,-0.84625 -0.485,0 -0.94125,0.12125 -1.3425,0.3325 -0.125,-0.50625 -0.385,-0.97125 -0.7625,-1.34875 -0.54625,-0.545 -1.27125,-0.8475 -2.04375,-0.8475 -1.35125,0 -2.49,0.9375 -2.8025,2.195 -0.40875,-0.21625 -0.8675,-0.33125 -1.34375,-0.33125 -1.5925,0 -2.88875,1.29625 -2.88875,2.8875 l 0,13.9975 -3.1375,-3.775 0.01875,0.0225 c -0.795,-1.02625 -1.9925,-1.61625 -3.28875,-1.61625 -0.88,0 -1.7075,0.25625 -2.395,0.73875 l -0.565,0.39625 9.9375,20.6925" style="fill:#000;fill-opacity:1;fill-rule:nonzero;stroke:none"/>
  <path d="m 47.239253,44.143003 -30.7825,-30.78 c 3.77625,-3.10875 8.615,-4.9762503 13.8875,-4.9762503 12.07625,0 21.87,9.7925003 21.87,21.8700003 0,5.27375 -1.8675,10.11 -4.975,13.88625 z m -16.895,7.98625 c -12.07875,0 -21.8712503,-9.7925 -21.8712503,-21.8725 0,-5.22875 1.8387503,-10.02875 4.9000003,-13.7925 l 30.76375,30.7625 c -3.76375,3.0625 -8.5625,4.9025 -13.7925,4.9025 M 30.300503,2.9617527 c -15.0975,0 -27.3375003,12.2412503 -27.3375003,27.3400003 0,15.09625 12.2400003,27.3375 27.3375003,27.3375 15.0975,0 27.3375,-12.24125 27.3375,-27.3375 0,-15.09875 -12.24,-27.3400003 -27.3375,-27.3400003" style="fill:#ed1c24;fill-opacity:1;fill-rule:nonzero;stroke:none"/>
</svg>
