<?xml version='1.0' encoding='UTF-8' standalone='no'?>
<svg xmlns:cc="http://creativecommons.org/ns#" xmlns:dc="http://purl.org/dc/elements/1.1/" height="60.601002" xmlns:rdf="http://www.w3.org/1999/02/22-rdf-syntax-ns#" xmlns:svg="http://www.w3.org/2000/svg" version="1.1" viewBox="0 0 60.601004 60.601004" width="60.601002" xmlns="http://www.w3.org/2000/svg">
  <defs/>
  <metadata>
    <rdf:RDF>
      <cc:Work rdf:about="">
        <dc:format>image/svg+xml</dc:format>
        <dc:type rdf:resource="http://purl.org/dc/dcmitype/StillImage"/>
        <dc:title>捨てるな; Do not throw rubbish</dc:title>
        <dc:source>http://www.ecomo.or.jp/barrierfree/pictogram/data/zukigo_panfu_jis110.pdf</dc:source>
      </cc:Work>
    </rdf:RDF>
  </metadata>
  <path d="m 27.707376,14.194252 c -0.7425,-0.13 -1.4725,-0.0038 -2.0975,0.31625 l -14.1825,7.5275 c 0.1425,1.105 0.985,2.03625 2.14,2.24 0.61875,0.10875 1.22625,-0.0087 1.735,-0.295 l 3.86375,-2.0425 -3.8525,4.59 c 0.54625,0.97 1.67625,1.5175 2.8225,1.27375 0.61625,-0.13125 1.13375,-0.46875 1.49875,-0.92375 l 2.38,-2.835 -0.9275,3.0275 c 0.8825,0.68 2.13625,0.74375 3.09625,0.07 0.515,-0.36125 0.86125,-0.8725 1.01625,-1.435 l 1.2125,-3.95875 7.14625,0.71625 c 0.62625,0.5475 1.035,1.32 1.1225,2.16875 l -9.0525,3.3075 c -0.86625,0.33375 -1.54,1.09875 -1.7125,2.07875 -0.1475,0.835 0.10125,1.65125 0.61375,2.25 l 22.21125,-4.3475 0.005,-10.3725 -19.03875,-3.35625" style="fill:#000;fill-opacity:1;fill-rule:nonzero;stroke:none"/>
  <path d="m 28.168627,38.075503 2.34625,-0.69125 1.7275,2.92875 -4.02625,5.325 -3.98375,-2.0525 0.83,-2.975 2.24875,0.6375 0.36625,-1.29375 -3.5475,-1.005 -1.4875,5.33 1.07625,0.55375 -1.1575,2.04875 -4.49,-3.5375 1.6925,-6.02375 1.35125,0.2575 -0.70125,0.70125 0.95,0.95 4.00125,-4.00125 2.80375,2.8475 z m -11.6325,5.77 6.42375,5.06125 1.955,-3.4575 3.69125,1.89875 5.25,-6.9425 -2.71625,-4.60625 -2.57875,0.7575 -3.1875,-3.23625 -3.11,3.10875 -3.46,-0.66125 -2.2675,8.0775" style="fill:#000;fill-opacity:1;fill-rule:nonzero;stroke:none"/>
  <path d="m 47.217378,44.125503 -30.74375,-30.74125 c 3.7725,-3.10375 8.605,-4.9675003 13.87125,-4.9675003 12.06,0 21.83875,9.7775003 21.83875,21.8400003 0,5.2675 -1.8625,10.09625 -4.96625,13.86875 z m -16.8725,7.97375 c -12.0625,0 -21.8437503,-9.7775 -21.8437503,-21.8425 0,-5.22125 1.8375003,-10.01375 4.8950003,-13.77375 l 30.7225,30.72125 c -3.7575,3.0575 -8.55,4.895 -13.77375,4.895 m -0.045,-49.1012503 c -15.07625,0 -27.3012503,12.2250003 -27.3012503,27.3025003 0,15.0775 12.2250003,27.3025 27.3012503,27.3025 15.0775,0 27.3025,-12.225 27.3025,-27.3025 0,-15.0775 -12.225,-27.3025003 -27.3025,-27.3025003" style="fill:#ff4b00;fill-opacity:1;fill-rule:nonzero;stroke:none"/>
</svg>
