<?xml version='1.0' encoding='UTF-8' standalone='no'?>
<svg xmlns:cc="http://creativecommons.org/ns#" xmlns:dc="http://purl.org/dc/elements/1.1/" height="60.601002" xmlns:rdf="http://www.w3.org/1999/02/22-rdf-syntax-ns#" xmlns:svg="http://www.w3.org/2000/svg" version="1.1" viewBox="0 0 60.601004 60.601004" width="60.601002" xmlns="http://www.w3.org/2000/svg">
  <defs/>
  <metadata>
    <rdf:RDF>
      <cc:Work rdf:about="">
        <dc:format>image/svg+xml</dc:format>
        <dc:type rdf:resource="http://purl.org/dc/dcmitype/StillImage"/>
        <dc:title>飲めない; Not drinking water</dc:title>
        <dc:source>http://www.ecomo.or.jp/barrierfree/pictogram/data/zukigo_panfu_jis110.pdf</dc:source>
      </cc:Work>
    </rdf:RDF>
  </metadata>
  <path d="m 30.879877,46.086754 -8.23625,0 -1.55125,-12.62 c 0.69625,-0.2375 1.23375,-0.8125 1.4175,-1.53125 0.24375,0.9475 1.1025,1.64625 2.12625,1.64625 1.0225,0 1.88125,-0.69875 2.125,-1.64625 0.2425,0.9475 1.10125,1.64625 2.12625,1.64625 1.0225,0 1.8825,-0.69875 2.125,-1.64625 0.18375,0.71875 0.7225,1.2925 1.41625,1.53125 l -1.54875,12.62 z m 2.19,-17.85 -0.50125,4.1 c -0.595,-0.17125 -1.0775,-0.60125 -1.32,-1.1625 l -0.47375,0 c -0.31625,0.73125 -1.04125,1.2425 -1.8875,1.2425 -0.8475,0 -1.5725,-0.51125 -1.88875,-1.2425 l -0.47375,0 c -0.315,0.73125 -1.0425,1.2425 -1.88875,1.2425 -0.84625,0 -1.57375,-0.51125 -1.88875,-1.2425 l -0.47375,0 c -0.24125,0.56125 -0.72625,0.99125 -1.32,1.1625 l -0.5025,-4.1 -1.75375,0 2.40375,19.59 11.31875,0 2.40625,-19.59 -1.75625,0" style="fill:#000;fill-opacity:1;fill-rule:nonzero;stroke:none"/>
  <path d="m 40.701127,18.288002 0,-1.8625 2.58125,0 c 0.13625,-0.345 0.21,-0.72125 0.21,-1.11625 0,-0.3925 -0.07375,-0.77 -0.21,-1.11625 l -7.39375,0 c -0.13625,0.34625 -0.21125,0.72375 -0.21125,1.11625 0,0.395 0.075,0.77125 0.21125,1.11625 l 2.58,0 0,1.8625 -8.3725,0 c -1.90375,0 -3.47,1.42625 -3.695,3.26875 l -0.32875,2.685 3.16125,0 0.21,-1.7025 c 0.08375,-0.69125 0.67125,-1.22625 1.38375,-1.22625 0.19375,0 0.3775,0.04 0.5475,0.11125 l 6.06375,2.57375 c 0.3675,0.15625 0.7725,0.24375 1.19875,0.24375 l 5.415,0 0,-5.95375 -3.35125,0" style="fill:#000;fill-opacity:1;fill-rule:nonzero;stroke:none"/>
  <path d="m 47.217378,44.125503 -30.7425,-30.74125 c 3.77125,-3.105 8.6025,-4.9687503 13.87,-4.9687503 12.05875,0 21.83875,9.7787503 21.83875,21.8412503 0,5.2675 -1.8625,10.09625 -4.96625,13.86875 z m -16.8725,7.97375 c -12.06375,0 -21.8450003,-9.77875 -21.8450003,-21.8425 0,-5.2225 1.8387503,-10.01375 4.8950003,-13.775 l 30.72375,30.7225 c -3.7575,3.0575 -8.55125,4.895 -13.77375,4.895 m -0.045,-49.1012503 c -15.0775,0 -27.3012503,12.2250003 -27.3012503,27.3025003 0,15.07875 12.2237503,27.3025 27.3012503,27.3025 15.0775,0 27.3025,-12.22375 27.3025,-27.3025 0,-15.0775 -12.225,-27.3025003 -27.3025,-27.3025003" style="fill:#ff4b00;fill-opacity:1;fill-rule:nonzero;stroke:none"/>
</svg>
