<?xml version='1.0' encoding='UTF-8' standalone='no'?>
<svg xmlns:cc="http://creativecommons.org/ns#" xmlns:dc="http://purl.org/dc/elements/1.1/" height="60.601002" xmlns:rdf="http://www.w3.org/1999/02/22-rdf-syntax-ns#" xmlns:svg="http://www.w3.org/2000/svg" version="1.1" viewBox="0 0 60.601004 60.601004" width="60.601002" xmlns="http://www.w3.org/2000/svg">
  <defs/>
  <metadata>
    <rdf:RDF>
      <cc:Work rdf:about="">
        <dc:format>image/svg+xml</dc:format>
        <dc:type rdf:resource="http://purl.org/dc/dcmitype/StillImage"/>
        <dc:title>携帯電話使用禁止; Do not use mobile phones</dc:title>
        <dc:source>http://www.ecomo.or.jp/barrierfree/pictogram/data/zukigo_panfu_jis110.pdf</dc:source>
      </cc:Work>
    </rdf:RDF>
  </metadata>
  <path d="m 37.179927,32.241753 c 0,5.26 -0.16125,10.48 -0.4775,15.65875 l -12.79,0 c -0.315,-5.17875 -0.4775,-10.39875 -0.4775,-15.65875 0,-5.26 0.1625,-10.48375 0.4775,-15.665 l 9.76375,0 c 0.03625,-0.65625 0.075,-1.31 0.11375,-1.96375 0.07,-1.14125 0.14375,-2.2825 0.225,-3.41875 0.045,-0.60625 0.5575,-1.08 1.175,-1.08 0.61625,0 1.12875,0.47375 1.17375,1.08 0.08125,1.13625 0.155,2.2775 0.22375,3.41875 0.04125,0.65375 0.08,1.3075 0.115,1.96375 0.31625,5.18125 0.4775,10.405 0.4775,15.665" style="fill:#000;fill-opacity:1;fill-rule:nonzero;stroke:none"/>
  <path d="m 30.261127,31.808003 c -0.65,0 -1.1775,0.52875 -1.1775,1.17875 0,0.65 0.5275,1.17875 1.1775,1.17875 0.65125,0 1.17875,-0.52875 1.17875,-1.17875 0,-0.65 -0.5275,-1.17875 -1.17875,-1.17875" style="fill:#ffffff;fill-opacity:1;fill-rule:nonzero;stroke:none"/>
  <path d="m 34.187427,31.808003 c -0.65125,0 -1.17625,0.52875 -1.17625,1.17875 0,0.65 0.525,1.17875 1.17625,1.17875 0.65125,0 1.17875,-0.52875 1.17875,-1.17875 0,-0.65 -0.5275,-1.17875 -1.17875,-1.17875" style="fill:#ffffff;fill-opacity:1;fill-rule:nonzero;stroke:none"/>
  <path d="m 26.334926,31.808003 c -0.65125,0 -1.1775,0.52875 -1.1775,1.17875 0,0.65 0.52625,1.17875 1.1775,1.17875 0.65,0 1.1775,-0.52875 1.1775,-1.17875 0,-0.65 -0.5275,-1.17875 -1.1775,-1.17875" style="fill:#ffffff;fill-opacity:1;fill-rule:nonzero;stroke:none"/>
  <path d="m 30.261127,35.341753 c -0.65,0 -1.1775,0.52875 -1.1775,1.18 0,0.64875 0.5275,1.17625 1.1775,1.17625 0.65125,0 1.17875,-0.5275 1.17875,-1.17625 0,-0.65125 -0.5275,-1.18 -1.17875,-1.18" style="fill:#ffffff;fill-opacity:1;fill-rule:nonzero;stroke:none"/>
  <path d="m 34.187427,35.341753 c -0.65125,0 -1.17625,0.52875 -1.17625,1.18 0,0.64875 0.525,1.17625 1.17625,1.17625 0.65125,0 1.17875,-0.5275 1.17875,-1.17625 0,-0.65125 -0.5275,-1.18 -1.17875,-1.18" style="fill:#ffffff;fill-opacity:1;fill-rule:nonzero;stroke:none"/>
  <path d="m 26.334926,35.341753 c -0.65125,0 -1.1775,0.52875 -1.1775,1.18 0,0.64875 0.52625,1.17625 1.1775,1.17625 0.65,0 1.1775,-0.5275 1.1775,-1.17625 0,-0.65125 -0.5275,-1.18 -1.1775,-1.18" style="fill:#ffffff;fill-opacity:1;fill-rule:nonzero;stroke:none"/>
  <path d="m 30.261127,38.876753 c -0.65,0 -1.1775,0.52625 -1.1775,1.1775 0,0.65125 0.5275,1.17875 1.1775,1.17875 0.65125,0 1.17875,-0.5275 1.17875,-1.17875 0,-0.65125 -0.5275,-1.1775 -1.17875,-1.1775" style="fill:#ffffff;fill-opacity:1;fill-rule:nonzero;stroke:none"/>
  <path d="m 34.187427,38.876753 c -0.65125,0 -1.17625,0.52625 -1.17625,1.1775 0,0.65125 0.525,1.17875 1.17625,1.17875 0.65125,0 1.17875,-0.5275 1.17875,-1.17875 0,-0.65125 -0.5275,-1.1775 -1.17875,-1.1775" style="fill:#ffffff;fill-opacity:1;fill-rule:nonzero;stroke:none"/>
  <path d="m 26.334926,38.876753 c -0.65125,0 -1.1775,0.52625 -1.1775,1.1775 0,0.65125 0.52625,1.17875 1.1775,1.17875 0.65,0 1.1775,-0.5275 1.1775,-1.17875 0,-0.65125 -0.5275,-1.1775 -1.1775,-1.1775" style="fill:#ffffff;fill-opacity:1;fill-rule:nonzero;stroke:none"/>
  <path d="m 30.261127,42.411753 c -0.65,0 -1.1775,0.525 -1.1775,1.17625 0,0.65125 0.5275,1.18 1.1775,1.18 0.65125,0 1.17875,-0.52875 1.17875,-1.18 0,-0.65125 -0.5275,-1.17625 -1.17875,-1.17625" style="fill:#ffffff;fill-opacity:1;fill-rule:nonzero;stroke:none"/>
  <path d="m 34.187427,42.411753 c -0.65125,0 -1.17625,0.525 -1.17625,1.17625 0,0.65125 0.525,1.18 1.17625,1.18 0.65125,0 1.17875,-0.52875 1.17875,-1.18 0,-0.65125 -0.5275,-1.17625 -1.17875,-1.17625" style="fill:#ffffff;fill-opacity:1;fill-rule:nonzero;stroke:none"/>
  <path d="m 26.334926,42.411753 c -0.65125,0 -1.1775,0.525 -1.1775,1.17625 0,0.65125 0.52625,1.18 1.1775,1.18 0.65,0 1.1775,-0.52875 1.1775,-1.18 0,-0.65125 -0.5275,-1.17625 -1.1775,-1.17625" style="fill:#ffffff;fill-opacity:1;fill-rule:nonzero;stroke:none"/>
  <path d="m 25.353626,21.168002 0,7.068751 9.817501,0 0,-7.068751 -9.817501,0 z" style="fill:#ffffff;fill-opacity:1;fill-rule:nonzero;stroke:none"/>
  <path d="m 47.231128,44.138003 -30.765,-30.76625 c 3.77375,-3.10625 8.60875,-4.9725003 13.87875,-4.9725003 12.07,0 21.85625,9.7875003 21.85625,21.8587503 0,5.27 -1.865,10.10375 -4.97,13.88 z m -16.88625,7.97875 c -12.0725,0 -21.8587503,-9.78625 -21.8587503,-21.85875 0,-5.2275 1.8362503,-10.0225 4.8975003,-13.78625 l 30.74625,30.7475 c -3.76125,3.05875 -8.5575,4.8975 -13.785,4.8975 M 30.301128,2.9767527 c -15.08875,0 -27.3237503,12.2362503 -27.3237503,27.3250003 0,15.08875 12.2350003,27.3225 27.3237503,27.3225 15.08875,0 27.3225,-12.23375 27.3225,-27.3225 0,-15.08875 -12.23375,-27.3250003 -27.3225,-27.3250003" style="fill:#ed1c24;fill-opacity:1;fill-rule:nonzero;stroke:none"/>
</svg>
