<?xml version='1.0' encoding='UTF-8' standalone='no'?>
<svg xmlns:cc="http://creativecommons.org/ns#" xmlns:dc="http://purl.org/dc/elements/1.1/" height="60.601002" xmlns:rdf="http://www.w3.org/1999/02/22-rdf-syntax-ns#" xmlns:svg="http://www.w3.org/2000/svg" version="1.1" viewBox="0 0 60.601004 60.601004" width="60.601002" xmlns="http://www.w3.org/2000/svg">
  <defs/>
  <metadata>
    <rdf:RDF>
      <cc:Work rdf:about="">
        <dc:format>image/svg+xml</dc:format>
        <dc:type rdf:resource="http://purl.org/dc/dcmitype/StillImage"/>
        <dc:title>電子機器使用禁止; Do not use electronic devices</dc:title>
        <dc:source>http://www.ecomo.or.jp/barrierfree/pictogram/data/zukigo_panfu_jis110.pdf</dc:source>
      </cc:Work>
    </rdf:RDF>
  </metadata>
  <path d="m 39.716077,17.604878 0,12.65875 -18.91125,0 0,-12.65875 18.91125,0 z m 0,12.65875 z m 2.1875,-14.84625 -23.28625,0 0,17.03375 23.28625,0 0,-17.03375" style="fill:#000;fill-opacity:1;fill-rule:nonzero;stroke:none"/>
  <path d="m 41.903577,33.546128 -23.28625,0 -5.33375,6.52375 0,2.00375 33.9525,0 0,-2.00375 -5.3325,-6.52375" style="fill:#000;fill-opacity:1;fill-rule:nonzero;stroke:none"/>
  <path d="m 47.227378,44.134878 -30.76,-30.76125 c 3.7725,-3.105 8.6075,-4.9712503 13.87625,-4.9712503 12.0675,0 21.8525,9.7862503 21.8525,21.8537503 0,5.26875 -1.86375,10.1025 -4.96875,13.87875 z m -16.88375,7.975 c -12.07125,0 -21.8537503,-9.7825 -21.8537503,-21.85375 0,-5.225 1.8362503,-10.02 4.8962503,-13.78125 l 30.74,30.7375 c -3.76,3.06 -8.55625,4.8975 -13.7825,4.8975 m -0.045,-49.1275003 c -15.08625,0 -27.3150003,12.2312503 -27.3150003,27.3187503 0,15.08625 12.2287503,27.3175 27.3150003,27.3175 15.08875,0 27.31875,-12.23125 27.31875,-27.3175 0,-15.0875 -12.23,-27.3187503 -27.31875,-27.3187503" style="fill:#ed1c24;fill-opacity:1;fill-rule:nonzero;stroke:none"/>
</svg>
