<?xml version='1.0' encoding='UTF-8' standalone='no'?>
<svg xmlns:cc="http://creativecommons.org/ns#" xmlns:dc="http://purl.org/dc/elements/1.1/" height="60.601002" xmlns:rdf="http://www.w3.org/1999/02/22-rdf-syntax-ns#" xmlns:svg="http://www.w3.org/2000/svg" version="1.1" viewBox="0 0 60.601004 60.601004" width="60.601002" xmlns="http://www.w3.org/2000/svg">
  <defs/>
  <metadata>
    <rdf:RDF>
      <cc:Work rdf:about="">
        <dc:format>image/svg+xml</dc:format>
        <dc:type rdf:resource="http://purl.org/dc/dcmitype/StillImage"/>
        <dc:title>撮影禁止; Do not take photographs</dc:title>
        <dc:source>http://www.ecomo.or.jp/barrierfree/pictogram/data/zukigo_panfu_jis110.pdf</dc:source>
      </cc:Work>
    </rdf:RDF>
  </metadata>
  <path d="m 46.961178,22.149252 c -3.435,-0.4 -6.905,-0.6775 -10.41,-0.82875 l -2.78125,-4.8175 -7.0125,0 -2.78125,4.8175 c -3.50875,0.15125 -6.985,0.43 -10.425,0.83 l 0.0062,18.25875 33.4125,0 -0.0088,-18.26" style="fill:#000;fill-opacity:1;fill-rule:nonzero;stroke:none"/>
  <path d="m 30.263677,36.566753 c 2.9775,0 5.39,-2.41375 5.39,-5.39 0,-2.9775 -2.4125,-5.3875 -5.39,-5.3875 -2.975,0 -5.38875,2.41 -5.38875,5.3875 0,2.97625 2.41375,5.39 5.38875,5.39 z m -7.475,-5.39 c 0,-1.99625 0.7775,-3.87375 2.19,-5.285 1.41125,-1.4125 3.28875,-2.19 5.285,-2.19 1.9975,0 3.875,0.7775 5.2875,2.18875 1.41125,1.41125 2.1875,3.29 2.1875,5.28625 0,4.12125 -3.3525,7.47625 -7.475,7.47625 -1.995,0 -3.8725,-0.78 -5.285,-2.19125 -1.4125,-1.41125 -2.19,-3.28875 -2.19,-5.285" style="fill:#ffffff;fill-opacity:1;fill-rule:nonzero;stroke:none"/>
  <path d="m 47.229878,44.138003 -30.76375,-30.76625 c 3.77375,-3.10625 8.60875,-4.9725003 13.87875,-4.9725003 12.06875,0 21.85625,9.7862503 21.85625,21.8575003 0,5.27125 -1.865,10.105 -4.97125,13.88125 z m -16.885,7.97875 c -12.0725,0 -21.8600003,-9.78625 -21.8600003,-21.86 0,-5.22625 1.8375003,-10.0225 4.8975003,-13.785 l 30.7475,30.745 c -3.76125,3.06125 -8.5575,4.9 -13.785,4.9 z m -0.045,-49.1400003 c -15.09,0 -27.3225003,12.2350003 -27.3225003,27.3250003 0,15.08875 12.2325003,27.3225 27.3225003,27.3225 15.09,0 27.32375,-12.23375 27.32375,-27.3225 0,-15.09 -12.23375,-27.3250003 -27.32375,-27.3250003" style="fill:#ed1c24;fill-opacity:1;fill-rule:nonzero;stroke:none"/>
</svg>
