<?xml version='1.0' encoding='UTF-8' standalone='no'?>
<svg xmlns:cc="http://creativecommons.org/ns#" xmlns:dc="http://purl.org/dc/elements/1.1/" height="60.601002" xmlns:rdf="http://www.w3.org/1999/02/22-rdf-syntax-ns#" xmlns:svg="http://www.w3.org/2000/svg" version="1.1" viewBox="0 0 60.601004 60.601004" width="60.601002" xmlns="http://www.w3.org/2000/svg">
  <defs/>
  <metadata>
    <rdf:RDF>
      <cc:Work rdf:about="">
        <dc:format>image/svg+xml</dc:format>
        <dc:type rdf:resource="http://purl.org/dc/dcmitype/StillImage"/>
        <dc:title>フラッシュ撮影禁止; Do not take flash photographs</dc:title>
        <dc:source>http://www.ecomo.or.jp/barrierfree/pictogram/data/zukigo_panfu_jis110.pdf</dc:source>
      </cc:Work>
    </rdf:RDF>
  </metadata>
  <path d="m 51.684253,22.390502 -6.1375,-2.17875 5.2625,-3.66375 -7.7625,0.55875 0.825,-5.85625 -4.3375,4.62375 -3.3,-8.1362503 -0.6875,8.2587503 -6.225,-3.645 2.45,4.13625 -5,0 -2.7875,4.82 c -3.5125,0.15125 -6.9875,0.43125 -10.4375,0.83125 l 0.0125,18.27 33.4375,0 -0.0125,-17.3675 4.7,-0.65125" style="fill:#000;fill-opacity:1;fill-rule:nonzero;stroke:none"/>
  <path d="m 42.684252,22.581752 2.5125,4.3275 -5.4125,-3.36125 0,6.77 -2.5625,-6.245 -3.625,1.4475 1.925,-3.3375 -4.8875,-0.745 4.4125,-1.4775 -2.7625,-4.6675 4.1625,2.44125 0.4625,-5.55375 2.275,5.59625 3.2,-3.40875 -0.55,3.87125 5.2625,-0.3775 -3.825,2.65375 4.0375,1.4275 -4.625,0.63875" style="fill:#ffffff;fill-opacity:1;fill-rule:nonzero;stroke:none"/>
  <path d="m 35.546752,25.865502 -2.1875,0.8775 c 1.4,0.97625 2.3125,2.59375 2.3125,4.42875 0,2.97625 -2.4125,5.3925 -5.4,5.3925 -2.975,0 -5.3875,-2.41625 -5.3875,-5.3925 0,-2.97875 2.4125,-5.3925 5.3875,-5.3925 0.6375,0 1.2375,0.10875 1.8,0.3075 l 1.05,-1.835 c -0.8875,-0.3675 -1.85,-0.55875 -2.85,-0.55875 -1.9875,0 -3.875,0.77625 -5.2875,2.19 -1.4125,1.4125 -2.1875,3.29 -2.1875,5.28875 0,1.99625 0.775,3.875 2.1875,5.2875 1.4125,1.41375 3.3,2.19125 5.2875,2.19125 4.125,0 7.4875,-3.355 7.4875,-7.47875 0,-1.99875 -0.775,-3.87625 -2.2,-5.29 0,-0.005 -0.0125,-0.01 -0.0125,-0.01625" style="fill:#ffffff;fill-opacity:1;fill-rule:nonzero;stroke:none"/>
  <path d="m 47.234253,44.138003 -30.7625,-30.76625 c 3.775,-3.10625 8.6,-4.9725003 13.875,-4.9725003 12.0625,0 21.85,9.7875003 21.85,21.8575003 0,5.27125 -1.8625,10.105 -4.9625,13.88125 z m -16.8875,7.97875 c -12.075,0 -21.8625003,-9.78625 -21.8625003,-21.86 0,-5.22625 1.8375003,-10.02125 4.9000003,-13.785 l 30.75,30.745 c -3.7625,3.06125 -8.5625,4.9 -13.7875,4.9 z m -0.05,-49.1400003 c -15.0875,0 -27.3175003,12.2362503 -27.3175003,27.3250003 0,15.08875 12.2300003,27.3225 27.3175003,27.3225 15.1,0 27.325,-12.23375 27.325,-27.3225 0,-15.08875 -12.225,-27.3250003 -27.325,-27.3250003" style="fill:#ff4b00;fill-opacity:1;fill-rule:nonzero;stroke:none"/>
</svg>
