<?xml version='1.0' encoding='UTF-8' standalone='no'?>
<svg xmlns:cc="http://creativecommons.org/ns#" xmlns:dc="http://purl.org/dc/elements/1.1/" height="60.601002" xmlns:rdf="http://www.w3.org/1999/02/22-rdf-syntax-ns#" xmlns:svg="http://www.w3.org/2000/svg" version="1.1" viewBox="0 0 60.601004 60.601004" width="60.601002" xmlns="http://www.w3.org/2000/svg">
  <defs/>
  <metadata>
    <rdf:RDF>
      <cc:Work rdf:about="">
        <dc:format>image/svg+xml</dc:format>
        <dc:type rdf:resource="http://purl.org/dc/dcmitype/StillImage"/>
        <dc:title>ベビーカー使用禁止; Do not use prams</dc:title>
        <dc:source>http://www.ecomo.or.jp/barrierfree/pictogram/data/zukigo_panfu_jis110.pdf</dc:source>
      </cc:Work>
    </rdf:RDF>
  </metadata>
  <path d="m 33.650502,16.724877 c 1.5,0 2.7125,-1.215 2.7125,-2.7125 0,-1.49375 -1.2125,-2.70625 -2.7125,-2.70625 -1.4875,0 -2.7,1.2125 -2.7,2.70625 0,1.4975 1.2125,2.7125 2.7,2.7125" style="fill:#231a16;fill-opacity:1;fill-rule:nonzero;stroke:none"/>
  <path d="m 41.838002,47.174879 -4.7,-29.705 c -0.0375,-0.23625 -0.2375,-0.4175 -0.475,-0.4175 -0.0125,0 -0.0125,-0.0012 -0.025,-0.0012 -2.2625,0 -4.1875,1.44 -4.9125,3.45625 l -0.0125,-0.0025 -3.4125,9.38375 2.3125,0 1.8875,-3.85875 0.8125,2.66875 -4.1,18.47625 2.925,0 3.6625,-10.33625 3.1625,10.33625 2.875,0" style="fill:#231a16;fill-opacity:1;fill-rule:nonzero;stroke:none"/>
  <path d="m 26.125501,30.768628 -2.075,9.35875 c -0.2625,1.18125 -1.3125,2.065 -2.575,2.065 l -3.6,0 -0.4625,1.28875 4.0625,0 c 1.875,0 3.45,-1.32125 3.8375,-3.0825 l 1.85,-8.34 3.3125,0 0,-1.29 -4.35,0" style="fill:#231a16;fill-opacity:1;fill-rule:nonzero;stroke:none"/>
  <path d="m 22.588001,33.267378 c 1.35,0 2.4375,-1.09125 2.4375,-2.43625 0,-1.345 -1.0875,-2.43625 -2.4375,-2.43625 -1.35,0 -2.4375,1.09125 -2.4375,2.43625 0,1.345 1.0875,2.43625 2.4375,2.43625" style="fill:#231a16;fill-opacity:1;fill-rule:nonzero;stroke:none"/>
  <path d="m 23.638001,44.119878 c -0.8375,0 -1.5125,0.675 -1.5125,1.50875 0,0.83125 0.675,1.50875 1.5125,1.50875 0.825,0 1.5,-0.6775 1.5,-1.50875 0,-0.83375 -0.675,-1.50875 -1.5,-1.50875" style="fill:#231a16;fill-opacity:1;fill-rule:nonzero;stroke:none"/>
  <path d="m 18.925501,44.119878 c -0.8375,0 -1.5125,0.675 -1.5125,1.50875 0,0.83125 0.675,1.50875 1.5125,1.50875 0.8375,0 1.5,-0.6775 1.5,-1.50875 0,-0.83375 -0.6625,-1.50875 -1.5,-1.50875" style="fill:#231a16;fill-opacity:1;fill-rule:nonzero;stroke:none"/>
  <path d="m 21.475501,41.233628 c 0.8125,0 1.5,-0.5825 1.65,-1.35375 l 1.175,-5.2725 c 0.0125,-0.03625 0.0125,-0.07125 0.0125,-0.11 -0.0125,-0.16875 -0.1125,-0.31 -0.2625,-0.3725 -0.5125,-0.22375 -1.0875,-0.32625 -1.6875,-0.3 -0.3625,0.01625 -0.7,0.07875 -1.025,0.17875 l -4.6625,1.47125 0.45,1.42375 2.425,-0.315 -0.35,1.5875 -1.15,0 c -1.2375,0 -2.325,0.555 -3.0625,1.42625 l -1.0625,1.2775 1.725,1.835 0.9375,-0.93625 c 0.3375,-0.33375 0.8,-0.53875 1.3,-0.53875 l 3.5875,-0.0013" style="fill:#231a16;fill-opacity:1;fill-rule:nonzero;stroke:none"/>
  <path d="m 47.125503,44.044878 -30.5625,-30.56 c 3.75,-3.085 8.55,-4.9387503 13.7875,-4.9387503 11.9875,0 21.7125,9.7200003 21.7125,21.7112503 0,5.23625 -1.8625,10.0375 -4.9375,13.7875 m -16.775,7.92625 c -12,0 -21.7125003,-9.72125 -21.7125003,-21.71375 0,-5.19125 1.8250003,-9.95625 4.8625003,-13.69375 l 30.5375,30.54 c -3.7375,3.04125 -8.5,4.8675 -13.6875,4.8675 m -0.05,-48.8112503 c -14.9875,0 -27.1375003,12.1537503 -27.1375003,27.1412503 0,14.99 12.1500003,27.14 27.1375003,27.14 14.9875,0 27.1375,-12.15 27.1375,-27.14 0,-14.9875 -12.15,-27.1412503 -27.1375,-27.1412503" style="fill:#ed1c24;fill-opacity:1;fill-rule:nonzero;stroke:none"/>
</svg>
