<?xml version='1.0' encoding='UTF-8' standalone='no'?>
<svg xmlns:cc="http://creativecommons.org/ns#" xmlns:dc="http://purl.org/dc/elements/1.1/" height="60.601002" xmlns:rdf="http://www.w3.org/1999/02/22-rdf-syntax-ns#" xmlns:svg="http://www.w3.org/2000/svg" version="1.1" viewBox="0 0 60.601004 60.601004" width="60.601002" xmlns="http://www.w3.org/2000/svg">
  <defs/>
  <metadata>
    <rdf:RDF>
      <cc:Work rdf:about="">
        <dc:format>image/svg+xml</dc:format>
        <dc:type rdf:resource="http://purl.org/dc/dcmitype/StillImage"/>
        <dc:title>遊泳禁止; No swimming</dc:title>
        <dc:source>http://www.ecomo.or.jp/barrierfree/pictogram/data/zukigo_panfu_jis110.pdf</dc:source>
      </cc:Work>
    </rdf:RDF>
  </metadata>
  <path d="m 20.925501,30.834878 c 0,-2.03875 -1.65,-3.68875 -3.6875,-3.68875 -2.0375,0 -3.6875,1.65 -3.6875,3.68875 0,2.035 1.65,3.6875 3.6875,3.6875 2.0375,0 3.6875,-1.6525 3.6875,-3.6875" style="fill:#000;fill-opacity:1;fill-rule:nonzero;stroke:none"/>
  <path d="m 32.425502,28.647378 c 2.6875,-2.7775 7.1125,-2.85625 9.8875,-0.17375 0.2375,0.22375 0.45,0.4625 0.6375,0.70875 l 3.2125,-1.9275 c -0.3875,-0.5025 -0.8125,-0.9825 -1.2875,-1.4375 -5.0875,-4.91875 -13.2125,-4.77625 -18.125,0.3175 -0.75,0.76875 -1.375,1.6075 -1.8875,2.49625 l -3.65,6.33375 -3.0875,2.5625 c 0.6375,0.3175 1.3625,0.495 2.125,0.495 1.3,0 2.4875,-0.5225 3.3625,-1.37375 l 0.5625,0 c 0.875,0.85125 2.0625,1.37375 3.3625,1.37375 1.3125,0 2.5,-0.5225 3.3625,-1.37375 l 0.575,0 c 0.8625,0.85125 2.05,1.37375 3.3625,1.37375 1.3125,0 2.5,-0.5225 3.3625,-1.37375 l 0.575,0 c 0.8625,0.85125 2.05,1.37375 3.3625,1.37375 0.9875,0 1.9,-0.29625 2.6625,-0.805 l -13.1625,-7.5975 c 0.225,-0.34 0.4875,-0.6675 0.7875,-0.9725" style="fill:#000;fill-opacity:1;fill-rule:nonzero;stroke:none"/>
  <path d="m 47.238003,44.138628 -30.775,-30.77125 c 3.775,-3.10625 8.6125,-4.9725003 13.8875,-4.9725003 12.0625,0 21.85,9.7900003 21.85,21.8625003 0,5.27125 -1.8625,10.1075 -4.9625,13.88125 z m -16.8875,7.98375 c -12.0875,0 -21.8750003,-9.79 -21.8750003,-21.865 0,-5.22625 1.8375003,-10.02625 4.9000003,-13.7875 l 30.7625,30.75 c -3.775,3.0625 -8.5625,4.9025 -13.7875,4.9025 z m -0.05,-49.1512503 c -15.0875,0 -27.3250003,12.2362503 -27.3250003,27.3312503 0,15.09125 12.2375003,27.3275 27.3250003,27.3275 15.0875,0 27.325,-12.23625 27.325,-27.3275 0,-15.095 -12.2375,-27.3312503 -27.325,-27.3312503" style="fill:#ed1c24;fill-opacity:1;fill-rule:nonzero;stroke:none"/>
</svg>
