<?xml version="1.0" encoding="UTF-8"?>
<svg width="60.601" height="60.601" version="1.1" viewBox="0 0 60.601 60.601" xmlns="http://www.w3.org/2000/svg" xmlns:cc="http://creativecommons.org/ns#" xmlns:dc="http://purl.org/dc/elements/1.1/" xmlns:rdf="http://www.w3.org/1999/02/22-rdf-syntax-ns#">
 <title>ホームドア:たてかけない; Do not lean objects on the platform door</title>
 <metadata>
  <rdf:RDF>
   <cc:Work rdf:about="">
    <dc:format>image/svg+xml</dc:format>
    <dc:type rdf:resource="http://purl.org/dc/dcmitype/StillImage"/>
    <dc:title>ホームドア:たてかけない; Do not lean objects on the platform door</dc:title>
    <dc:source>http://www.ecomo.or.jp/barrierfree/pictogram/data/zukigo_panfu_20170719.pdf</dc:source>
   </cc:Work>
  </rdf:RDF>
 </metadata>
 <path d="m43.175 43.607h-11.881l3.0056-17.04h8.8752zm-16.383 0 3.0058-17.04h1.5619l-2.9997 17.04zm25.549-17.04h-7.8752v-1.2898h-9.9402l1.8223-10.313c0.31945-1.8046-0.06513-3.3785-0.85201-3.5146-0.78688-0.14193-1.6804 1.207-1.9998 3.0116l-1.9052 10.816h-1.568l1.8223-10.313c0.3196-1.8046-0.06513-3.3785-0.85201-3.5146-0.78688-0.14193-1.6802 1.207-1.9998 3.0116l-1.9052 10.816h-18.573c-0.093915 0.42601-0.18343 0.85792-0.25447 1.2898h18.596l-2.9998 17.04h-11.52c0.32551 0.44376 0.66858 0.86977 1.0295 1.2898h10.26l-0.59179 3.3489 2.8519 0.50292 0.68055-3.8518h1.5619l-0.59164 3.3489 2.8519 0.50292 0.6804-3.8518h13.396v-17.046h8.0527c-0.04695-0.43191-0.10602-0.86384-0.17752-1.2839" style="fill:#000"/>
 <path d="m47.236 44.139-30.774-30.771c3.7762-3.1075 8.6125-4.9738 13.884-4.9738 12.072 0 21.862 9.7875 21.862 21.864 0 5.2712-1.8662 10.106-4.9725 13.881zm-16.89 7.9812c-12.076 0-21.865-9.7875-21.865-21.862 0-5.2275 1.8375-10.028 4.9-13.79l30.752 30.752c-3.7612 3.0625-8.56 4.9-13.788 4.9zm-0.045-49.149c-15.092 0-27.329 12.236-27.329 27.329 0 15.094 12.236 27.33 27.329 27.33 15.094 0 27.329-12.236 27.329-27.33 0-15.092-12.235-27.329-27.329-27.329" style="fill:#ff4b00"/>
</svg>
