<?xml version="1.0" encoding="UTF-8"?>
<svg width="60.601" height="60.601" version="1.1" viewBox="0 0 60.601 60.601" xmlns="http://www.w3.org/2000/svg" xmlns:cc="http://creativecommons.org/ns#" xmlns:dc="http://purl.org/dc/elements/1.1/" xmlns:rdf="http://www.w3.org/1999/02/22-rdf-syntax-ns#">
 <title>ホームドア:乗り出さない; Do not lean over the platform door</title>
 <metadata>
  <rdf:RDF>
   <cc:Work rdf:about="">
    <dc:format>image/svg+xml</dc:format>
    <dc:type rdf:resource="http://purl.org/dc/dcmitype/StillImage"/>
    <dc:title>ホームドア:乗り出さない; Do not lean over the platform door</dc:title>
    <dc:source>http://www.ecomo.or.jp/barrierfree/pictogram/data/zukigo_panfu_20170719.pdf</dc:source>
   </cc:Work>
  </rdf:RDF>
 </metadata>
 <path d="m43.175 43.607h-11.934v-15.413l0.94668-1.6271h10.987zm-19.448 0 2.9229-10.632 1.0827 10.632zm11.331-22.01 3.7098 3.6802h-5.8399zm17.283 4.9701h-7.8752v-1.2898h-2.3608l-5.8161-7.2835c-0.089405-0.10648-0.21902-0.20117-0.33733-0.24258-1.6627-0.52067-3.414-0.84018-5.2363-0.93485-5.7334-0.30176-11.053 1.704-15.058 5.2008l1.0886 1.9821c2.7336-2.0235 6.041-3.2956 9.5971-3.5264l-2.2543 4.8044h-15.573c-0.09997 0.42601-0.18343 0.85792-0.25432 1.2898h15.224c-0.36685 0.76918-0.62708 1.5975-0.77506 2.4614l-2.5738 14.579h-7.7982c0.32536 0.44376 0.66859 0.86976 1.0294 1.2839h6.5441l-0.26628 1.5029 3.0885 0.81651 0.63904-2.3194h4.4909l0.29582 2.8874h3.0825v-2.8874h13.224v-17.04h8.0527c-0.04692-0.43191-0.10599-0.86384-0.17752-1.2839" style="fill:#000"/>
 <path d="m47.236 44.139-30.774-30.771c3.7762-3.1075 8.6125-4.9738 13.884-4.9738 12.072 0 21.862 9.7875 21.862 21.864 0 5.2712-1.8662 10.106-4.9725 13.881zm-16.89 7.9812c-12.076 0-21.865-9.7875-21.865-21.862 0-5.2275 1.8375-10.028 4.9-13.79l30.752 30.752c-3.7612 3.0625-8.56 4.9-13.788 4.9zm-0.045-49.149c-15.092 0-27.329 12.236-27.329 27.329 0 15.094 12.236 27.33 27.329 27.33 15.094 0 27.329-12.236 27.329-27.33 0-15.092-12.235-27.329-27.329-27.329" style="fill:#ed1c24"/>
 <path d="m34.536 16.331c1.5088 0 2.7336-1.2248 2.7336-2.7335 0-1.5088-1.2248-2.7335-2.7336-2.7335-1.5088 0-2.7336 1.2248-2.7336 2.7335 0 1.5088 1.2248 2.7335 2.7336 2.7335" style="fill:#000"/>
</svg>
