<?xml version='1.0' encoding='UTF-8' standalone='no'?>
<svg xmlns:cc="http://creativecommons.org/ns#" xmlns:dc="http://purl.org/dc/elements/1.1/" height="60.601002" xmlns:rdf="http://www.w3.org/1999/02/22-rdf-syntax-ns#" xmlns:svg="http://www.w3.org/2000/svg" version="1.1" viewBox="0 0 60.601004 60.601004" width="60.601002" xmlns="http://www.w3.org/2000/svg">
  <defs/>
  <metadata>
    <rdf:RDF>
      <cc:Work rdf:about="">
        <dc:format>image/svg+xml</dc:format>
        <dc:type rdf:resource="http://purl.org/dc/dcmitype/StillImage"/>
        <dc:title>障害物注意; Caution, obstacles</dc:title>
        <dc:source>http://www.ecomo.or.jp/barrierfree/pictogram/data/zukigo_panfu_jis110.pdf</dc:source>
      </cc:Work>
    </rdf:RDF>
  </metadata>
  <path d="m 57.262524,56.903003 c 1.125,0 2.22125,-0.58 2.82375,-1.62625 0.60625,-1.045 0.55875,-2.285 -0.0038,-3.26125 L 33.118724,5.3292527 c -0.565,-0.9725 -1.61375,-1.63125 -2.82,-1.63125 -1.20625,0.0025 -2.2575,0.65875 -2.81875,1.63125 L 0.52002372,52.015503 c -0.56625,0.97625 -0.61,2.21625 -0.005,3.26125 0.60124998,1.04625 1.69624998,1.62625 2.82624998,1.62625 l 53.9212503,0" style="fill:#000;fill-opacity:1;fill-rule:nonzero;stroke:none"/>
  <path d="M 30.295023,9.1142497 5.2162727,52.553 l 50.1587503,0 -25.08,-43.4387503" style="fill:#ffcb04;fill-opacity:1;fill-rule:nonzero;stroke:none"/>
  <path d="m 35.370023,42.318002 0,4.4425 -23.175,0 0,1.9 31.86625,0 0,-6.3425 -8.69125,0" style="fill:#000;fill-opacity:1;fill-rule:nonzero;stroke:none"/>
  <path d="m 32.896273,24.935501 c 1.0675,0 1.93125,-0.86375 1.93125,-1.9325 0,-1.065 -0.86375,-1.93 -1.93125,-1.93 -1.06625,0 -1.93125,0.865 -1.93125,1.93 0,1.06875 0.865,1.9325 1.93125,1.9325" style="fill:#000;fill-opacity:1;fill-rule:nonzero;stroke:none"/>
  <path d="m 23.411272,38.651752 c 0.60875,0 1.15125,-0.28375 1.50625,-0.72375 l 2.22375,-2.745 1.42,2.3675 -1.77125,6.67875 1.87375,1.05375 2.845,-6.66125 c 0.125,-0.27 0.19375,-0.57125 0.19375,-0.88875 0,-0.255 -0.04625,-0.5 -0.13,-0.72625 l -1.7975,-5.0775 2.135,-2.63875 4.49375,3.3725 1.4225,-0.82125 -5.6025,-6.00875 c -0.70125,-0.75 -1.65,-1.26875 -2.715,-1.4225 -0.0125,-0.0025 -0.0275,-0.005 -0.04125,-0.005 -0.1075,0 -0.2,0.05875 -0.25125,0.14375 l -6.2275,10.80125 -4.9075,-1.50125 -1.365,1.6275 5.81875,2.965 c 0.2625,0.1325 0.56,0.21 0.87625,0.21" style="fill:#000;fill-opacity:1;fill-rule:nonzero;stroke:none"/>
  <path d="m 34.695023,35.858002 -0.39875,4.54625 -1.87,-1.08 0.57125,3.235 -2.28125,0.61125 3.88,2.71875 0,-0.9375 -2.08375,-1.45875 1.37,-0.37 -0.385,-2.17375 1.45,0.83625 0.32875,-3.75625 2.15125,3.07125 1.0975,-2.35125 0.56125,2.09625 1.78125,-1.02875 -0.77125,1.72875 0.8675,0 1.55875,-3.57125 -2.95375,1.70625 -0.85,-3.16875 -1.42625,3.05875 -2.5975,-3.7125" style="fill:#000;fill-opacity:1;fill-rule:nonzero;stroke:none"/>
</svg>
