<?xml version='1.0' encoding='UTF-8' standalone='no'?>
<svg xmlns:cc="http://creativecommons.org/ns#" xmlns:dc="http://purl.org/dc/elements/1.1/" height="60.601002" xmlns:rdf="http://www.w3.org/1999/02/22-rdf-syntax-ns#" xmlns:svg="http://www.w3.org/2000/svg" version="1.1" viewBox="0 0 60.601004 60.601004" width="60.601002" xmlns="http://www.w3.org/2000/svg">
  <defs/>
  <metadata>
    <rdf:RDF>
      <cc:Work rdf:about="">
        <dc:format>image/svg+xml</dc:format>
        <dc:type rdf:resource="http://purl.org/dc/dcmitype/StillImage"/>
        <dc:title>上り段差注意; Caution, uneven access/up</dc:title>
        <dc:source>http://www.ecomo.or.jp/barrierfree/pictogram/data/zukigo_panfu_jis110.pdf</dc:source>
      </cc:Work>
    </rdf:RDF>
  </metadata>
  <path d="m 57.262305,56.902378 c 1.12375,0 2.22,-0.58 2.82375,-1.6275 0.60375,-1.04375 0.55875,-2.285 -0.005,-3.26 L 33.118555,5.3311277 c -0.565,-0.97625 -1.6125,-1.6325 -2.82,-1.6325 -1.205,0 -2.2575,0.65625 -2.82,1.6325 L 0.52105451,52.014878 c -0.565,0.975 -0.61,2.21625 -0.00625,3.26 0.60249999,1.0475 1.69874999,1.6275 2.82624999,1.6275 l 53.9212505,0" style="fill:#000;fill-opacity:1;fill-rule:nonzero;stroke:none"/>
  <path d="M 30.296054,9.1148747 5.2185535,52.553625 l 50.1562505,0 -25.07875,-43.4387503" style="fill:#f2e700;fill-opacity:1;fill-rule:nonzero;stroke:none"/>
  <path d="m 30.966054,22.476126 c 1.06625,0 1.93125,-0.86375 1.93125,-1.9325 0,-1.065 -0.865,-1.93 -1.93125,-1.93 -1.06625,0 -1.9325,0.865 -1.9325,1.93 0,1.06875 0.86625,1.9325 1.9325,1.9325" style="fill:#000;fill-opacity:1;fill-rule:nonzero;stroke:none"/>
  <path d="m 27.119804,26.526126 -3.51,18.1825 2.21375,0 3.1175,-9.6925 1.78875,1.7875 -0.22875,6.13375 2.1675,0.46125 1.19875,-6.66375 c 0.02,-0.11375 0.0325,-0.2325 0.0325,-0.3525 0,-0.415 -0.13125,-0.79875 -0.35375,-1.11125 l -3.175,-4.7025 0.8725,-2.71 c 1.1,1.265 2.44,2.31625 3.94875,3.08125 l 0.91625,-1.31 c -2.2775,-1.36125 -3.945,-3.64375 -4.48375,-6.33375 -0.02625,-0.13125 -0.145,-0.225 -0.28375,-0.225 -0.01,0 -0.02125,0 -0.03125,0 -4.17125,0 -7.72625,2.6375 -9.085,6.33625 l 1.355,0.84875 c 0.7225,-1.60875 1.97625,-2.9275 3.54,-3.73" style="fill:#000;fill-opacity:1;fill-rule:nonzero;stroke:none"/>
  <path d="m 34.932304,42.897377 0,2.8975 -21.85125,0 0,1.9 23.75125,0 0,-2.89625 6.21,0 0,-1.90125 -8.11,0" style="fill:#000;fill-opacity:1;fill-rule:nonzero;stroke:none"/>
</svg>
