<?xml version='1.0' encoding='UTF-8' standalone='no'?>
<svg xmlns:cc="http://creativecommons.org/ns#" xmlns:dc="http://purl.org/dc/elements/1.1/" height="60.601002" xmlns:rdf="http://www.w3.org/1999/02/22-rdf-syntax-ns#" xmlns:svg="http://www.w3.org/2000/svg" version="1.1" viewBox="0 0 60.601004 60.601004" width="60.601002" xmlns="http://www.w3.org/2000/svg">
  <defs/>
  <metadata>
    <rdf:RDF>
      <cc:Work rdf:about="">
        <dc:format>image/svg+xml</dc:format>
        <dc:type rdf:resource="http://purl.org/dc/dcmitype/StillImage"/>
        <dc:title>下り段差注意; Caution, uneven access/down</dc:title>
        <dc:source>http://www.ecomo.or.jp/barrierfree/pictogram/data/zukigo_panfu_jis110.pdf</dc:source>
      </cc:Work>
    </rdf:RDF>
  </metadata>
  <path d="m 57.262065,56.901753 c 1.125,0 2.22125,-0.5825 2.82375,-1.62625 0.605,-1.045 0.55875,-2.285 -0.005,-3.26125 L 33.118315,5.3280027 c -0.565,-0.9725 -1.6125,-1.62875 -2.81875,-1.62875 -1.20625,0 -2.2575,0.65625 -2.82,1.62875 L 0.52081518,52.014253 c -0.565,0.97625 -0.61,2.21625 -0.00625,3.26125 0.60250002,1.04375 1.70000002,1.62625 2.82625002,1.62625 l 53.9212498,0" style="fill:#000;fill-opacity:1;fill-rule:nonzero;stroke:none"/>
  <path d="M 30.297064,9.1154997 5.2183142,52.55175 l 50.1574998,0 -25.07875,-43.4362503" style="fill:#f2e700;fill-opacity:1;fill-rule:nonzero;stroke:none"/>
  <path d="m 36.833264,48.720503 0,-2.89625 -23.7525,0 0,1.89875 21.85,0 0,2.89875 8.11125,0 0,-1.90125 -6.20875,0" style="fill:#000;fill-opacity:1;fill-rule:nonzero;stroke:none"/>
  <path d="m 30.965764,22.523001 c 1.06625,0 1.93125,-0.86375 1.93125,-1.9325 0,-1.065 -0.865,-1.93125 -1.93125,-1.93125 -1.06625,0 -1.9325,0.86625 -1.9325,1.93125 0,1.06875 0.86625,1.9325 1.9325,1.9325" style="fill:#000;fill-opacity:1;fill-rule:nonzero;stroke:none"/>
  <path d="m 27.054564,26.409251 -3.23125,18.3275 2.12625,0 2.78,-8.0725 3.59375,8.0725 2.125,0 -3.72,-13.8825 0.78875,-2.29 c 0.89875,1.27 2.00625,2.3775 3.2725,3.28 l 1.29875,-1.05125 c -2.12625,-1.8 -3.5975,-4.3525 -3.99875,-7.24625 -0.0225,-0.17125 -0.1525,-0.30625 -0.3225,-0.33375 -0.4325,-0.07125 -0.8775,-0.10875 -1.3325,-0.10875 -2.02,0 -3.8675,0.73625 -5.28875,1.9575 -1.4725,1.2675 -2.66375,2.85375 -3.4625,4.65375 l 1.3025,1.01875 c 0.8875,-1.82125 2.3125,-3.3325 4.06875,-4.325" style="fill:#000;fill-opacity:1;fill-rule:nonzero;stroke:none"/>
</svg>
