<?xml version='1.0' encoding='UTF-8' standalone='no'?>
<svg xmlns:cc="http://creativecommons.org/ns#" xmlns:dc="http://purl.org/dc/elements/1.1/" height="60.601002" xmlns:rdf="http://www.w3.org/1999/02/22-rdf-syntax-ns#" xmlns:svg="http://www.w3.org/2000/svg" version="1.1" viewBox="0 0 60.601004 60.601004" width="60.601002" xmlns="http://www.w3.org/2000/svg">
  <defs/>
  <metadata>
    <rdf:RDF>
      <cc:Work rdf:about="">
        <dc:format>image/svg+xml</dc:format>
        <dc:type rdf:resource="http://purl.org/dc/dcmitype/StillImage"/>
        <dc:title>滑面注意; Caution, slippery surface</dc:title>
        <dc:source>http://www.ecomo.or.jp/barrierfree/pictogram/data/zukigo_panfu_jis110.pdf</dc:source>
      </cc:Work>
    </rdf:RDF>
  </metadata>
  <path d="m 57.263149,56.904253 c 1.12625,0 2.2225,-0.5825 2.82625,-1.6275 0.605,-1.04625 0.5575,-2.285 -0.0038,-3.26 L 33.119349,5.3255027 c -0.56625,-0.97375 -1.61375,-1.62875 -2.82125,-1.62875 -1.20625,0 -2.2575,0.655 -2.82,1.62875 L 0.51689869,52.016753 c -0.565,0.975 -0.60875,2.21375 -0.005,3.26 0.60250001,1.045 1.69750001,1.6275 2.82500001,1.6275 l 53.9262503,0" style="fill:#000;fill-opacity:1;fill-rule:nonzero;stroke:none"/>
  <path d="M 30.295648,9.1117497 5.2143977,52.55425 l 50.1625003,0 -25.08125,-43.4425003" style="fill:#f2e700;fill-opacity:1;fill-rule:nonzero;stroke:none"/>
  <path d="m 22.694447,41.449252 -1.13125,1.1325 c 4.115,3.0525 8.9925,5.13125 14.2975,5.90125 l 0,-0.33875 c -4.955,-1.13625 -9.45,-3.47625 -13.16625,-6.695" style="fill:#000;fill-opacity:1;fill-rule:nonzero;stroke:none"/>
  <path d="m 40.446948,50.921753 c -4.82875,-0.54625 -10.54125,-1.845 -15.48125,-4.22875 l -0.65875,1.13875 c 5.08125,1.8775 10.49875,3.06 16.14,3.42875 l 0,-0.33875" style="fill:#000;fill-opacity:1;fill-rule:nonzero;stroke:none"/>
  <path d="m 22.963147,30.174252 c 1.0675,0 1.93125,-0.86375 1.93125,-1.93 0,-1.0675 -0.86375,-1.9325 -1.93125,-1.9325 -1.065,0 -1.93125,0.865 -1.93125,1.9325 0,1.06625 0.86625,1.93 1.93125,1.93" style="fill:#000;fill-opacity:1;fill-rule:nonzero;stroke:none"/>
  <path d="m 40.135648,34.054252 0.25875,-2.10875 -7.5475,1.19625 c -0.33625,0.0525 -0.65625,0.15875 -0.94875,0.3075 l -3.1525,1.60625 -1.435,-3.68 c 1.71,-1.52 3.105,-3.38625 4.08,-5.485 l -1.445,-1.395 c -1.4075,2.93 -3.8625,5.2625 -6.88125,6.50625 -2.7475,1.13625 -4.6825,3.84 -4.6825,7 0,0.60375 0.07375,1.18875 0.20625,1.75 l 1.7775,0 c -0.10375,-0.4025 -0.16125,-0.82375 -0.16125,-1.2625 0,-1.86375 1.02375,-3.48625 2.53875,-4.33875 l 2.72,4.6875 c 0.36875,0.63125 1.01625,1.08125 1.77375,1.18125 l 5.18125,0.7275 3.97625,4.79 2.0525,-0.55125 -3.75875,-6.49125 c -0.1975,-0.34375 -0.52375,-0.60125 -0.91375,-0.7125 l -1.6775,-0.47625 1.885,-1.36875 6.15375,-1.8825" style="fill:#000;fill-opacity:1;fill-rule:nonzero;stroke:none"/>
</svg>
