<?xml version='1.0' encoding='UTF-8' standalone='no'?>
<svg xmlns:cc="http://creativecommons.org/ns#" xmlns:dc="http://purl.org/dc/elements/1.1/" height="60.601002" xmlns:rdf="http://www.w3.org/1999/02/22-rdf-syntax-ns#" xmlns:svg="http://www.w3.org/2000/svg" version="1.1" viewBox="0 0 60.601004 60.601004" width="60.601002" xmlns="http://www.w3.org/2000/svg">
  <defs/>
  <metadata>
    <rdf:RDF>
      <cc:Work rdf:about="">
        <dc:format>image/svg+xml</dc:format>
        <dc:type rdf:resource="http://purl.org/dc/dcmitype/StillImage"/>
        <dc:title>天井に注意; Caution, overhead</dc:title>
        <dc:source>http://www.ecomo.or.jp/barrierfree/pictogram/data/zukigo_panfu_jis110.pdf</dc:source>
      </cc:Work>
    </rdf:RDF>
  </metadata>
  <path d="m 57.282779,56.916128 c 1.125,0 2.2125,-0.58 2.825,-1.6275 0.6,-1.04625 0.55,-2.285 -0.0125,-3.2625 l -26.975,-46.7100003 c -0.5625,-0.97375 -1.6125,-1.63125 -2.825,-1.63125 -1.2,0 -2.25,0.6575 -2.8125,1.63125 L 0.50402941,52.026128 c -0.565,0.9775 -0.60875,2.21625 -0.00375,3.2625 0.60124999,1.0475 1.69749999,1.6275 2.82499999,1.6275 l 53.9574996,0" style="fill:#000;fill-opacity:1;fill-rule:nonzero;stroke:none"/>
  <path d="M 30.295278,9.1023747 5.2077784,52.566125 l 50.1874996,0 -25.1,-43.4637503" style="fill:#ffcb04;fill-opacity:1;fill-rule:nonzero;stroke:none"/>
  <path d="m 19.995277,21.518626 0,1.9025 9.075,0 0,3.865 12.0875,0 0,-5.7675 -21.1625,0" style="fill:#000;fill-opacity:1;fill-rule:nonzero;stroke:none"/>
  <path d="m 29.007778,41.373627 c 1.75,0.6375 3.6875,-0.2675 4.325,-2.02 0.6375,-1.75 -0.2625,-3.6875 -2.0125,-4.32625 -1.75,-0.6375 -3.6875,0.2675 -4.325,2.0175 -0.6375,1.7525 0.2625,3.6925 2.0125,4.32875" style="fill:#000;fill-opacity:1;fill-rule:nonzero;stroke:none"/>
  <path d="m 38.307778,54.756128 -1.8375,-8.64125 c 3.6125,-1.8475 5.95,-4.8975 5.825,-8.265 -0.1,-2.9975 -2.125,-5.61 -5.2,-7.2675 l -1.825,2.595 c 1.975,0.96375 3.25,2.59875 3.1875,4.4075 -0.075,2.2075 -2.125,4.01625 -4.9125,4.61125 -2.525,0.54125 -5.15,0.755 -7.7875,0.60375 -0.275,-0.0175 -0.5375,0.09875 -0.7125,0.31 l -8.9375,11.03125 1.925,2.235 6.95,-6.25875 1.875,4.63875 11.45,0" style="fill:#000;fill-opacity:1;fill-rule:nonzero;stroke:none"/>
  <path d="m 34.332778,28.057376 -0.7875,0 0.3625,2.09625 -1.9625,-1.14125 -0.25,2.74375 -1.5375,-2.675 -2.275,2.2725 -0.075,-2.20125 -2.8875,0.2525 2.125,-1.7825 -1.4375,-2.04875 2.7,0.72 0,-0.79875 -4.55,-1.21875 2.25,3.20875 -3.4625,2.9025 4.5125,-0.395 0.1125,3.16625 2.8125,-2.82 2.275,3.92875 0.3375,-3.97875 2.3625,1.36375 -0.625,-3.595" style="fill:#000;fill-opacity:1;fill-rule:nonzero;stroke:none"/>
</svg>
