<?xml version='1.0' encoding='UTF-8' standalone='no'?>
<svg xmlns:cc="http://creativecommons.org/ns#" xmlns:dc="http://purl.org/dc/elements/1.1/" height="60.601002" xmlns:rdf="http://www.w3.org/1999/02/22-rdf-syntax-ns#" xmlns:svg="http://www.w3.org/2000/svg" version="1.1" viewBox="0 0 60.601004 60.601004" width="60.601002" xmlns="http://www.w3.org/2000/svg">
  <title>津波注意（津波危険地帯）; Warning Tsunami hazard zone</title>
  <defs/>
  <metadata>
    <rdf:RDF>
      <cc:Work rdf:about="">
        <dc:format>image/svg+xml</dc:format>
        <dc:type rdf:resource="http://purl.org/dc/dcmitype/StillImage"/>
        <dc:title>津波注意（津波危険地帯）; Warning Tsunami hazard zone</dc:title>
        <dc:source>http://www.ecomo.or.jp/barrierfree/pictogram/data/zukigo_panfu_jis110.pdf</dc:source>
      </cc:Work>
    </rdf:RDF>
  </metadata>
  <path d="m 57.316128,56.958628 c 1.125,0 2.225,-0.5825 2.825,-1.63125 0.6125,-1.04625 0.5625,-2.28875 0,-3.265 L 33.128628,5.2773777 c -0.5625,-0.97375 -1.6125,-1.635 -2.8375,-1.635 -1.2,0.0025 -2.25,0.66125 -2.8125,1.635 L 0.46612771,52.062378 c -0.575,0.97625 -0.6125,2.21875 -0.0125,3.265 0.61249999,1.04875 1.69999999,1.63125 2.83749999,1.63125 l 54.0250003,0" style="fill:#000;fill-opacity:1;fill-rule:nonzero;stroke:none"/>
  <path d="m 30.291127,9.0848757 -13.85,23.9900003 c 14.9125,-7.8575 22.4375,-2.24875 24.7875,3.58875 l -0.4625,0.26625 c -0.3625,-0.3475 -0.775,-0.65625 -1.2375,-0.935 -3.1125,-1.86375 -6.9375,-1.21 -8.55,1.46625 -1.6125,2.685 -0.3875,6.37375 2.725,8.24125 6.1375,3.68625 13.975,2.81 18.725,1.71125 L 30.291127,9.0848757" style="fill:#ffcb04;fill-opacity:1;fill-rule:evenodd;stroke:none"/>
</svg>
