<?xml version="1.0" encoding="UTF-8"?>
<svg width="60.601" height="60.601" version="1.1" viewBox="0 0 60.601 60.601" xmlns="http://www.w3.org/2000/svg" xmlns:cc="http://creativecommons.org/ns#" xmlns:dc="http://purl.org/dc/elements/1.1/" xmlns:rdf="http://www.w3.org/1999/02/22-rdf-syntax-ns#">
 <title>土石流注意; Warning debris flow</title>
 <metadata>
  <rdf:RDF>
   <cc:Work rdf:about="">
    <dc:format>image/svg+xml</dc:format>
    <dc:type rdf:resource="http://purl.org/dc/dcmitype/StillImage"/>
    <dc:title>土石流注意; Warning debris flow</dc:title>
    <dc:source>http://www.mlit.go.jp/common/001245686.pdf</dc:source>
   </cc:Work>
  </rdf:RDF>
 </metadata>
 <path d="m30.295 9.0586-25.144 43.554h50.289l-25.145-43.554" style="fill:#f2e700"/>
 <path d="m26.191 47.126 2.8057 0.66685 0.13484 2.6588-2.2707 1.4636-2.9406-2.9272z" style="fill-rule:evenodd;stroke-linejoin:bevel;stroke-miterlimit:10;stroke-width:.13333;stroke:#000"/>
 <path d="m19.644 42.072 3.6061 2.2604-1.0701 6.6512-4.5414-1.7278-1.0701-3.0615z" style="fill-rule:evenodd;stroke-linejoin:bevel;stroke-miterlimit:10;stroke-width:.13333;stroke:#000"/>
 <path d="m30.867 39.011 3.6105 3.3256-0.80475 2.7973-3.8758 1.7278-1.6008-3.9925z" style="fill-rule:evenodd;stroke-linejoin:bevel;stroke-miterlimit:10;stroke-width:.13333;stroke:#000"/>
 <path d="m31.537 33.026 0.53506 0.26414 0.66555 0.26848 0.53503 0.39837 1.0701 1.0652 0.4002 0.66253 0.53505 0.80108 0.53504 0.79676 0.80039 2.1305 0.53505 1.1951v0.26415l0.13486 0.40271 0.26535 0.39838 0.13485 0.53262 0.26534 0.66253 0.2697 0.66685 0.26535 0.66253 0.4002 0.66685 0.40455 0.79676 0.4002 0.66685 0.4002 0.79676 0.53505 0.66685-0.13486 0.13424-0.80039-0.53262-0.80475-0.53262-0.5307-0.66685-0.66989-0.53262-0.53506-0.66253-0.40019-0.66685-0.4002-0.66253-0.26969-0.66685-0.4002-0.53262-0.26535-0.66252-0.13485-0.53262-0.26535-0.53262-0.13486-0.8011-0.40019-0.66252-0.2697-0.931-0.26535-0.80108-0.40021-0.931-0.53504-0.93099-0.40019-0.79676-0.6699-0.931-0.53505-0.79676z" style="fill-rule:evenodd;stroke-linejoin:bevel;stroke-miterlimit:10;stroke-width:.13333;stroke:#000"/>
 <path d="m26.326 30.368 0.1305 0.12991h0.2697l0.26535 0.13423 0.2697 0.13424 0.26535 0.12991 0.2697 0.26847 0.40019 0.13424 0.8004 0.79676 0.2697 0.26414 0.1305 0.26848 0.2697 0.39838 0.13049 0.39839 0.26971 0.79676v0.53261l-0.13486 0.53262-0.13485 0.66686-0.13049 0.53261-0.2697 0.66253-0.4002 0.66685-0.4002 0.79676-0.53504 0.931-0.53505 0.80108-1.2006 2.793-0.26969 0.931-0.13051 0.93099h-0.13485l-0.4002-0.66685-0.13484-0.66253-0.13486-0.66685-0.1305-0.66685 0.1305-0.79676 0.13486-0.79676 0.26535-0.8011 0.26969-0.79676 0.53505-0.79676 0.4002-0.80108 0.53505-0.79676 0.26535-0.66253 0.2697-0.53262 0.26535-0.66685 0.26969-1.0652v-0.39838l-0.40455-1.1951-0.26535-0.39838-0.2697-0.40272-0.40019-0.26414-0.40021-0.26847-0.40019-0.39839z" style="fill-rule:evenodd;stroke-linejoin:bevel;stroke-miterlimit:10;stroke-width:.13333;stroke:#000"/>
 <path d="m30.297 3.6289c-1.2075 0-2.2599 0.65852-2.8262 1.6348l-27.027 46.809c-0.56625 0.9775-0.61211 2.2213-6e-3 3.2676 0.605 1.05 1.702 1.6328 2.832 1.6328h54.062c1.1275 0 2.227-0.58281 2.832-1.6328 0.60625-1.0462 0.5601-2.2901-4e-3 -3.2676l-27.035-46.809c-0.56625-0.97625-1.6194-1.6348-2.8281-1.6348zm0.0352 5.4512 8.957 15.434-5.7461-4.7891-0.26953-0.26562h-0.40039l-0.40039-0.13281-0.40039 0.13281h-0.40039l-0.4043 0.26562-2.9356 2.5273-1.4707-1.1992-0.4043-0.26367-0.26562-0.13476h-0.80079l-0.40039 0.13476-0.40429 0.26367-2.4062 1.9961zm-3.4707 15.697h0.13086l-0.26563 0.26758-0.26953 0.13477-0.40039 0.26367-0.80078 0.79688-0.13477 0.26953-0.26562 0.26367-0.13477 0.26758v0.5293l0.13477 0.26758 0.13476 0.26562 0.26563 0.26758 0.40039 0.26367 0.53516 0.26953 0.26562 0.12891 0.26953 0.13477 0.40039 0.13476 0.53516 0.13477 0.66992 0.26367 0.5293 0.13281 0.80469 0.26562 0.66601 0.26758 0.80469 0.26367 0.80078 0.26562 0.80078 0.26758 0.80469 0.39844 0.66601 0.39844 0.80469 0.39844 0.66406 0.40234 0.66993 0.39844 0.40039 3.4551 5.2109 5.8555 3.3418 0.79688-2.9414 2.1309 0.93554 3.8574 4.2774 1.0645 1.4688-3.5938 6.416 5.8555h-16.438l0.40039-2.5293-4.4062-2.3945-2.541 3.459 1.2012 1.4648h-28.598l9.4883-4.9238 1.2051-5.7207 6.6797-2.793 4.0078-6.6504-0.13086-0.13477-0.26953-0.12891-0.26562-0.26953-0.26954-0.12891-0.40039-0.26953-0.53515-0.5332-0.26563-0.13281-0.13476-0.13086-0.13477-0.13477-0.53125-0.53125-0.26953-0.39844-0.26562-0.5332-0.13477-0.39844v-0.39844l0.13477-0.39844 0.13085-0.5332 0.26954-0.39844 0.26562-0.26758 0.40039-0.39844 1.0703-0.79688 0.53516-0.26758 0.53516-0.26562z"/>
</svg>
