<?xml version="1.0" encoding="UTF-8"?>
<svg width="60.601" height="60.601" version="1.1" viewBox="0 0 60.601 60.601" xmlns="http://www.w3.org/2000/svg" xmlns:cc="http://creativecommons.org/ns#" xmlns:dc="http://purl.org/dc/elements/1.1/" xmlns:rdf="http://www.w3.org/1999/02/22-rdf-syntax-ns#">
 <title>崖崩れ・地滑り注意; Warning steep slope failure, landslide</title>
 <metadata>
  <rdf:RDF>
   <cc:Work rdf:about="">
    <dc:format>image/svg+xml</dc:format>
    <dc:type rdf:resource="http://purl.org/dc/dcmitype/StillImage"/>
    <dc:title>崖崩れ・地滑り注意; Warning steep slope failure, landslide</dc:title>
    <dc:source>http://www.mlit.go.jp/common/001245686.pdf</dc:source>
   </cc:Work>
  </rdf:RDF>
 </metadata>
 <path d="m30.295 9.0586-25.144 43.554h50.289l-25.145-43.554" style="fill:#ffcb04"/>
 <path d="m29.932 19.858 6.2807 3.3256-2.14 3.724-4.2756 1.0652-3.6058-5.9844z" style="fill-rule:evenodd;stroke-linejoin:bevel;stroke-miterlimit:10;stroke-width:.13332;stroke:#000"/>
 <path d="m25.922 29.038 0.80466 1.4636-0.80466 2.6588-2.6706 0.26848-1.7355-1.9962 0.13049-1.5979z" style="fill-rule:evenodd;stroke-linejoin:bevel;stroke-miterlimit:10;stroke-width:.13332;stroke:#000"/>
 <path d="m27.392 34.226 1.605 0.13423 0.53499 1.4636-1.605 2.1261-1.6006-0.13423-0.26967-2.793z" style="fill-rule:evenodd;stroke-linejoin:bevel;stroke-miterlimit:10;stroke-width:.13332;stroke:#000"/>
 <path d="m20.176 44.467 0.4045 1.4636-0.26966 1.5979-2.5401 1.0652-1.0656-1.1995 0.66547-2.6588z" style="fill-rule:evenodd;stroke-linejoin:bevel;stroke-miterlimit:10;stroke-width:.13332;stroke:#000"/>
 <path d="m13.365 46.731 1.4701 0.52828-0.40451 1.5979-1.3353 0.93099-0.93514-0.39838v-1.5979z" style="fill-rule:evenodd;stroke-linejoin:bevel;stroke-miterlimit:10;stroke-width:.13332;stroke:#000"/>
 <path d="m20.446 36.755 3.8754 1.7278 0.40016 2.6588-4.1408 1.3337-1.3396-0.93533-1.4701-4.1224z" style="fill-rule:evenodd;stroke-linejoin:bevel;stroke-miterlimit:10;stroke-width:.13332;stroke:#000"/>
 <path d="m30.297 3.6289c-1.2075 0-2.2599 0.65852-2.8262 1.6348l-27.027 46.809c-0.56625 0.9775-0.61211 2.2213-0.0059 3.2676 0.605 1.05 1.702 1.6328 2.832 1.6328h54.062c1.1275 0 2.227-0.58281 2.832-1.6328 0.60625-1.0462 0.5601-2.2901-4e-3 -3.2676l-27.035-46.809c-0.56625-0.97625-1.6194-1.6348-2.8281-1.6348zm0.03515 5.4551 8.2871 14.369-1.6055 6.3809-3.0703 1.3301-1.3398 4.9238-3.8711 3.8574-1.4707 5.4531-3.6094 3.7285-18.574 3.4551z"/>
</svg>
