<?xml version="1.0" encoding="UTF-8"?>
<svg width="60.601" height="60.601" version="1.1" viewBox="0 0 60.601 60.601" xmlns="http://www.w3.org/2000/svg" xmlns:cc="http://creativecommons.org/ns#" xmlns:dc="http://purl.org/dc/elements/1.1/" xmlns:rdf="http://www.w3.org/1999/02/22-rdf-syntax-ns#">
 <title>ホームドア:手を挟まないよう注意; Caution, closing doors</title>
 <metadata>
  <rdf:RDF>
   <cc:Work rdf:about="">
    <dc:format>image/svg+xml</dc:format>
    <dc:type rdf:resource="http://purl.org/dc/dcmitype/StillImage"/>
    <dc:title>ホームドア:手を挟まないよう注意; Caution, closing doors</dc:title>
    <dc:source>http://www.ecomo.or.jp/barrierfree/pictogram/data/zukigo_panfu_20170719.pdf</dc:source>
   </cc:Work>
  </rdf:RDF>
 </metadata>
 <path d="m57.316 56.959c1.125 0 2.225-0.5825 2.825-1.6312 0.6125-1.0462 0.5625-2.2888 0-3.265l-27.012-46.785c-0.5625-0.97375-1.6125-1.635-2.8375-1.635-1.2 0.0025-2.25 0.66125-2.8125 1.635l-27.012 46.785c-0.575 0.97625-0.6125 2.2188-0.0125 3.265 0.6125 1.0488 1.7 1.6312 2.8375 1.6312h54.025"/>
 <path d="m30.293 9.0683-25.129 43.532h50.258z" style="fill-rule:evenodd;fill:#ffcb04"/>
 <path d="m31.515 18.751h-1.6156v14.536h1.6156z"/>
 <path d="m29.9 51.634h1.6156v-3.6609h-1.6156z"/>
 <path d="m22.084 32.852-5.0735 0.32198 3.7261 2.9931-5.8843 2.6414 5.3954 1.4071-6.2062 5.5272 7.7801-1.5443-1.8124 4.9965 5.0556-2.9156v-1.1209l-3.2372 1.8782 1.4845-4.12-5.9737 1.1865 4.9006-4.3645-4.4773-1.1746 4.7992-2.1584-3.0107-2.4267 3.7917-0.25043-0.95984-3.0707 2.6828 2.1167v-1.2104l-4.5548-3.6132z"/>
 <path d="m27.646 44.366v-0.64394h6.5639v0.64394zm0-3.9292h5.461v0.64395h-5.461zm0-3.2913h5.461v0.64992h-5.461zm4.9244-9.194c-0.27425 0.38755-0.4233 0.87051-0.4233 1.3833 0 0.76914 0.36366 1.4548 0.93004 1.8901l3.6963 3.0289h-9.1275v-15.502h-1.6097v32.883h1.6097v-4.6268l11.071 0.0061c3.1418 0 5.9558-1.4012 7.9053-3.5655v-8.7469z"/>
</svg>
