<?xml version='1.0' encoding='UTF-8' standalone='no'?>
<svg xmlns:cc="http://creativecommons.org/ns#" xmlns:dc="http://purl.org/dc/elements/1.1/" height="60.601002" xmlns:rdf="http://www.w3.org/1999/02/22-rdf-syntax-ns#" xmlns:svg="http://www.w3.org/2000/svg" version="1.1" viewBox="0 0 60.601004 60.601004" width="60.601002" xmlns="http://www.w3.org/2000/svg">
  <defs/>
  <metadata>
    <rdf:RDF>
      <cc:Work rdf:about="">
        <dc:format>image/svg+xml</dc:format>
        <dc:type rdf:resource="http://purl.org/dc/dcmitype/StillImage"/>
        <dc:title>一般指示; General mandatory</dc:title>
        <dc:source>http://www.ecomo.or.jp/barrierfree/pictogram/data/zukigo_panfu_jis110.pdf</dc:source>
      </cc:Work>
    </rdf:RDF>
  </metadata>
  <path d="m 30.301128,57.607378 c 15.08125,0 27.30625,-12.22625 27.30625,-27.30625 0,-15.08375 -12.225,-27.3075003 -27.30625,-27.3075003 -15.08125,0 -27.3075003,12.2237503 -27.3075003,27.3075003 0,15.08 12.2262503,27.30625 27.3075003,27.30625" style="fill:#1971ff;fill-opacity:1;fill-rule:nonzero;stroke:none"/>
  <path d="m 34.798628,46.332378 c 0,2.485 -2.0125,4.4975 -4.4975,4.4975 -2.4825,0 -4.49875,-2.0125 -4.49875,-4.4975 0,-2.48375 2.01625,-4.49625 4.49875,-4.49625 2.485,0 4.4975,2.0125 4.4975,4.49625" style="fill:#ffffff;fill-opacity:1;fill-rule:nonzero;stroke:none"/>
  <path d="m 27.903627,36.274877 c 0,1.32375 1.0725,2.3975 2.3975,2.3975 1.32625,0 2.39875,-1.07375 2.39875,-2.3975 l 2.6225,-21.715 c 0,-2.77625 -2.2475,-5.0237503 -5.02125,-5.0237503 -2.7725,0 -5.0225,2.2475003 -5.0225,5.0237503 l 2.625,21.715" style="fill:#ffffff;fill-opacity:1;fill-rule:nonzero;stroke:none"/>
</svg>
