<?xml version='1.0' encoding='UTF-8' standalone='no'?>
<svg xmlns:cc="http://creativecommons.org/ns#" xmlns:dc="http://purl.org/dc/elements/1.1/" height="60.601002" xmlns:rdf="http://www.w3.org/1999/02/22-rdf-syntax-ns#" xmlns:svg="http://www.w3.org/2000/svg" version="1.1" viewBox="0 0 60.601004 60.601004" width="60.601002" xmlns="http://www.w3.org/2000/svg">
  <defs/>
  <metadata>
    <rdf:RDF>
      <cc:Work rdf:about="">
        <dc:format>image/svg+xml</dc:format>
        <dc:type rdf:resource="http://purl.org/dc/dcmitype/StillImage"/>
        <dc:title>静かに; Quiet please</dc:title>
        <dc:source>http://www.ecomo.or.jp/barrierfree/pictogram/data/zukigo_panfu_jis110.pdf</dc:source>
      </cc:Work>
    </rdf:RDF>
  </metadata>
  <path d="m 30.302378,57.607378 c 15.07875,0 27.305,-12.22625 27.305,-27.30625 0,-15.08375 -12.22625,-27.3075003 -27.305,-27.3075003 -15.0825,0 -27.3087503,12.2237503 -27.3087503,27.3075003 0,15.08 12.2262503,27.30625 27.3087503,27.30625" style="fill:#0089cf;fill-opacity:1;fill-rule:nonzero;stroke:none"/>
  <path d="m 27.693627,48.783628 -4.90125,-18.29125 c -0.1725,-0.64375 -0.83375,-1.025 -1.4775,-0.8525 -0.64375,0.1725 -1.025,0.83375 -0.85375,1.4775 l 0,0.0025 1.58,5.90125 -0.35125,0.11125 c -0.17375,-0.64125 -0.83625,-1.025 -1.48,-0.8525 -0.64375,0.17375 -1.02625,0.83375 -0.8525,1.4775 0,0.0025 0,0.0025 0,0.0025 l 0.37875,1.41625 -0.355,0.11375 c -0.17125,-0.64375 -0.8325,-1.025 -1.4775,-0.855 -0.64375,0.1725 -1.02625,0.83625 -0.85375,1.48 l 0.42625,1.59625 -0.3525,0.11375 c -0.17125,-0.64375 -0.83375,-1.025 -1.4775,-0.8525 -0.645,0.17125 -1.02625,0.83375 -0.855,1.4775 0.0013,0 0.0013,0 0.0025,0 l 1.74875,6.53375 11.15125,0" style="fill:#ffffff;fill-opacity:1;fill-rule:nonzero;stroke:none"/>
  <path d="m 45.917379,19.911126 c -0.73125,-6.0175 -6.215,-10.2937503 -12.23,-9.555 -4.4375,0.54375 -7.92625,3.6675 -9.15625,7.685 l -2.74875,8.99375 3.9775,0 c -0.035,0.72875 0.0125,1.44875 0.13375,2.1525 l 6.545,0 0,1.55625 -6.14375,0 c 1.04,2.995 3.49625,5.43875 6.79,6.32 5.27875,1.41375 10.71375,-1.71625 12.12375,-6.9975 0.58875,-2.2025 0.90625,-4.51625 0.90625,-6.90375 0,-1.10125 -0.0675,-2.185 -0.1975,-3.25125" style="fill:#ffffff;fill-opacity:1;fill-rule:nonzero;stroke:none"/>
</svg>
