<?xml version='1.0' encoding='UTF-8' standalone='no'?>
<svg xmlns:cc="http://creativecommons.org/ns#" xmlns:dc="http://purl.org/dc/elements/1.1/" height="60.601002" xmlns:rdf="http://www.w3.org/1999/02/22-rdf-syntax-ns#" xmlns:svg="http://www.w3.org/2000/svg" version="1.1" viewBox="0 0 60.601004 60.601004" width="60.601002" xmlns="http://www.w3.org/2000/svg">
  <defs/>
  <metadata>
    <rdf:RDF>
      <cc:Work rdf:about="">
        <dc:format>image/svg+xml</dc:format>
        <dc:type rdf:resource="http://purl.org/dc/dcmitype/StillImage"/>
        <dc:title>左側にお立ちください; Please stand on the left</dc:title>
        <dc:source>http://www.ecomo.or.jp/barrierfree/pictogram/data/zukigo_panfu_jis110.pdf</dc:source>
      </cc:Work>
    </rdf:RDF>
  </metadata>
  <path d="m 30.300503,57.583003 c 15.0675,0 27.2825,-12.215 27.2825,-27.28125 0,-15.06875 -12.215,-27.2837503 -27.2825,-27.2837503 -15.0675,0 -27.2825003,12.2150003 -27.2825003,27.2837503 0,15.06625 12.2150003,27.28125 27.2825003,27.28125" style="fill:#0089cf;fill-opacity:1;fill-rule:nonzero;stroke:none"/>
  <path d="m 47.304254,46.194253 0,-18.01875 -2.77375,0 0,15.24625 -28.46,0 0,-15.24625 -2.7725,0 0,18.01875 34.00625,0" style="fill:#ffffff;fill-opacity:1;fill-rule:nonzero;stroke:none"/>
  <path d="m 24.280502,14.423001 c 1.31875,0 2.39125,-1.07 2.39125,-2.3925 0,-1.31875 -1.0725,-2.3887503 -2.39125,-2.3887503 -1.32,0 -2.39,1.0700003 -2.39,2.3887503 0,1.3225 1.07,2.3925 2.39,2.3925" style="fill:#ffffff;fill-opacity:1;fill-rule:nonzero;stroke:none"/>
  <path d="m 27.178002,15.195501 c -0.94625,-0.14 -1.9125,-0.21375 -2.8975,-0.21375 -1.53625,0 -3.03125,0.1775 -4.46625,0.51125 -0.155,0.03875 -0.28125,0.145 -0.3475,0.2875 l -4.4925,9.62375 1.92125,0.895 2.93875,-4.9925 1.44125,20.4525 2.59625,0 0,-13.63125 0.815,0 0,13.63125 2.5975,0 0.99,-14.1075 1.4975,0 0.4525,-8.65875 c 0.13125,-1.84875 -1.18,-3.52125 -3.04625,-3.7975" style="fill:#ffffff;fill-opacity:1;fill-rule:nonzero;stroke:none"/>
</svg>
