<?xml version='1.0' encoding='UTF-8' standalone='no'?>
<svg xmlns:cc="http://creativecommons.org/ns#" xmlns:dc="http://purl.org/dc/elements/1.1/" height="60.601002" xmlns:rdf="http://www.w3.org/1999/02/22-rdf-syntax-ns#" xmlns:svg="http://www.w3.org/2000/svg" version="1.1" viewBox="0 0 60.601004 60.601004" width="60.601002" xmlns="http://www.w3.org/2000/svg">
  <defs/>
  <metadata>
    <rdf:RDF>
      <cc:Work rdf:about="">
        <dc:format>image/svg+xml</dc:format>
        <dc:type rdf:resource="http://purl.org/dc/dcmitype/StillImage"/>
        <dc:title>右側にお立ちください; Please stand on the right</dc:title>
        <dc:source>http://www.ecomo.or.jp/barrierfree/pictogram/data/zukigo_panfu_jis110.pdf</dc:source>
      </cc:Work>
    </rdf:RDF>
  </metadata>
  <path d="m 30.300503,57.609878 c -15.0825,0 -27.3100003,-12.22875 -27.3100003,-27.31 0,-15.0825 12.2275003,-27.3087503 27.3100003,-27.3087503 15.0825,0 27.31,12.2262503 27.31,27.3087503 0,15.08125 -12.2275,27.31 -27.31,27.31" style="fill:#1971ff;fill-opacity:1;fill-rule:nonzero;stroke:none"/>
  <path d="m 47.320504,46.209878 0,-18.03875 -2.775,0 0,15.2625 -28.49,0 0,-15.2625 -2.775,0 0,18.03875 34.04,0" style="fill:#ffffff;fill-opacity:1;fill-rule:nonzero;stroke:none"/>
  <path d="m 36.330503,14.421126 c 1.32,0 2.39,-1.07 2.39,-2.39125 0,-1.31875 -1.07,-2.3900003 -2.39,-2.3900003 -1.32125,0 -2.39125,1.0712503 -2.39125,2.3900003 0,1.32125 1.07,2.39125 2.39125,2.39125" style="fill:#ffffff;fill-opacity:1;fill-rule:nonzero;stroke:none"/>
  <path d="m 41.143003,15.778626 c -0.065,-0.1425 -0.1925,-0.24875 -0.3475,-0.28375 -1.435,-0.33375 -2.92875,-0.51375 -4.465,-0.51375 -0.98625,0 -1.95375,0.075 -2.89875,0.215 -1.865,0.275 -3.1775,1.94625 -3.0475,3.79625 l 0.45375,8.6575 1.49625,0 0.99,14.11 2.5975,0 0,-13.63125 0.815,0 0,13.63125 2.59875,0 1.43875,-20.45375 2.94,4.99375 1.9225,-0.8975 -4.49375,-9.62375" style="fill:#ffffff;fill-opacity:1;fill-rule:nonzero;stroke:none"/>
</svg>
