<?xml version='1.0' encoding='UTF-8' standalone='no'?>
<svg xmlns:cc="http://creativecommons.org/ns#" xmlns:dc="http://purl.org/dc/elements/1.1/" height="60.601002" xmlns:rdf="http://www.w3.org/1999/02/22-rdf-syntax-ns#" xmlns:svg="http://www.w3.org/2000/svg" version="1.1" viewBox="0 0 60.601004 60.601004" width="60.601002" xmlns="http://www.w3.org/2000/svg">
  <defs/>
  <metadata>
    <rdf:RDF>
      <cc:Work rdf:about="">
        <dc:format>image/svg+xml</dc:format>
        <dc:type rdf:resource="http://purl.org/dc/dcmitype/StillImage"/>
        <dc:title>一列並び; Line up single line</dc:title>
        <dc:source>http://www.ecomo.or.jp/barrierfree/pictogram/data/zukigo_panfu_jis110.pdf</dc:source>
      </cc:Work>
    </rdf:RDF>
  </metadata>
  <path d="m 30.300503,57.581753 c -15.0675,0 -27.2812503,-12.215 -27.2812503,-27.28125 0,-15.06625 12.2137503,-27.2812503 27.2812503,-27.2812503 15.06625,0 27.28125,12.2150003 27.28125,27.2812503 0,15.06625 -12.215,27.28125 -27.28125,27.28125" style="fill:#0089cf;fill-opacity:1;fill-rule:nonzero;stroke:none"/>
  <path d="m 25.898002,11.735501 c 0,-0.01875 0.005,-0.035 0.005,-0.05375 0,-1.33375 -1.07875,-2.4137503 -2.41,-2.4137503 -1.33125,0 -2.41125,1.0800003 -2.41125,2.4137503 0,1.33 1.08,2.41 2.41125,2.41 0.10875,0 0.21125,-0.01875 0.31625,-0.0325 0.02875,-1.19625 0.92625,-2.17 2.08875,-2.32375" style="fill:#ffffff;fill-opacity:1;fill-rule:nonzero;stroke:none"/>
  <path d="m 28.936803,13.980501 c -1.315,0 -2.38125,1.05625 -2.40625,2.36625 -0.10375,0.01375 -0.2075,0.02125 -0.315,0.02125 -1.08125,0 -1.985,-0.715 -2.2925,-1.695 -0.1425,-0.0025 -0.28625,-0.0175 -0.43,-0.0175 -0.99375,0 -1.97,0.07625 -2.9225,0.21875 -1.8825,0.27875 -3.20625,1.965 -3.07375,3.82875 l 0.45875,8.72875 1.64625,0 0.99625,14.235 2.55375,0 -0.8275,-11.7975 -1.64625,0 -0.45875,-8.73 c -0.1325,-1.865 1.19125,-3.55125 3.0725,-3.82875 0.95375,-0.1425 1.93,-0.2175 2.92375,-0.2175 0.145,0 0.2875,0.01375 0.43,0.01625 0.3075,0.9775 1.21125,1.69625 2.29125,1.69625 0.1075,0 0.21125,-0.02 0.315,-0.03375 0.02625,-1.19875 0.9275,-2.17125 2.09125,-2.325 0,-0.02 0.0062,-0.03625 0.0062,-0.0525 0,-1.33375 -1.08,-2.41375 -2.4125,-2.41375" style="fill:#ffffff;fill-opacity:1;fill-rule:nonzero;stroke:none"/>
  <path d="m 31.485503,51.405503 -0.9975,-14.23375 -1.64625,0 -0.45875,-8.73125 c -0.13125,-1.86375 1.19125,-3.55 3.07375,-3.82875 0.9525,-0.1425 1.92875,-0.21625 2.92375,-0.21625 0.99125,0 1.9675,0.07375 2.9225,0.21625 1.88125,0.27875 3.205,1.965 3.0725,3.82875 l -0.46,8.73125 -1.645,0 -0.9975,14.23375 -5.7875,0" style="fill:#ffffff;fill-opacity:1;fill-rule:nonzero;stroke:none"/>
  <path d="m 34.380503,18.850501 c -1.31875,0 -2.3825,1.055 -2.4075,2.365 -0.10375,0.015 -0.20875,0.02375 -0.31625,0.02375 -1.07875,0 -1.98375,-0.7175 -2.29,-1.695 -0.14375,-0.0025 -0.285,-0.0175 -0.43,-0.0175 -0.99375,0 -1.96875,0.07625 -2.92375,0.21875 -1.88125,0.27625 -3.20375,1.9625 -3.0725,3.82875 l 0.46,8.72875 1.645,0 0.9975,14.2325 2.55,0 -0.8275,-11.8 -1.645,0 -0.45875,-8.72625 c -0.1325,-1.86625 1.19125,-3.5525 3.07125,-3.8325 0.955,-0.13875 1.93,-0.215 2.92375,-0.215 0.145,0 0.2875,0.01125 0.4325,0.01625 0.305,0.97875 1.20875,1.69375 2.29125,1.69375 1.33,0 2.40875,-1.0775 2.40875,-2.41125 0,-1.3325 -1.07875,-2.41 -2.40875,-2.41" style="fill:#ffffff;fill-opacity:1;fill-rule:nonzero;stroke:none"/>
</svg>
