<?xml version='1.0' encoding='UTF-8' standalone='no'?>
<svg xmlns:cc="http://creativecommons.org/ns#" xmlns:dc="http://purl.org/dc/elements/1.1/" height="60.601002" xmlns:rdf="http://www.w3.org/1999/02/22-rdf-syntax-ns#" xmlns:svg="http://www.w3.org/2000/svg" version="1.1" viewBox="0 0 60.601004 60.601004" width="60.601002" xmlns="http://www.w3.org/2000/svg">
  <defs/>
  <metadata>
    <rdf:RDF>
      <cc:Work rdf:about="">
        <dc:format>image/svg+xml</dc:format>
        <dc:type rdf:resource="http://purl.org/dc/dcmitype/StillImage"/>
        <dc:title>二列並び; Line up in twos</dc:title>
        <dc:source>http://www.ecomo.or.jp/barrierfree/pictogram/data/zukigo_panfu_jis110.pdf</dc:source>
      </cc:Work>
    </rdf:RDF>
  </metadata>
  <path d="m 30.299878,57.581753 c -15.06625,0 -27.2800003,-12.215 -27.2800003,-27.28125 0,-15.06875 12.2137503,-27.2812503 27.2800003,-27.2812503 15.0675,0 27.28125,12.2125003 27.28125,27.2812503 0,15.06625 -12.21375,27.28125 -27.28125,27.28125" style="fill:#0089cf;fill-opacity:1;fill-rule:nonzero;stroke:none"/>
  <path d="m 32.558578,14.185501 c 0,-0.01625 0.005,-0.03125 0.005,-0.0475 0,-1.15875 -0.94,-2.09875 -2.09875,-2.09875 -1.1575,0 -2.09625,0.94 -2.09625,2.09875 0,1.1575 0.93875,2.0975 2.09625,2.0975 0.095,0 0.18375,-0.01625 0.27375,-0.0275 0.02375,-1.0425 0.8075,-1.89 1.82,-2.0225" style="fill:#ffffff;fill-opacity:1;fill-rule:nonzero;stroke:none"/>
  <path d="m 37.414878,48.670503 -0.86875,-12.38125 -1.4325,0 -0.39875,-7.59375 c -0.115,-1.6225 1.03625,-3.08875 2.67375,-3.3325 0.83,-0.12375 1.67875,-0.1875 2.54375,-0.1875 0.86375,0 1.7125,0.06375 2.5425,0.1875 1.63625,0.24375 2.7875,1.71 2.6725,3.3325 l -0.3975,7.59375 -1.4325,0 -0.86875,12.38125 -5.03375,0" style="fill:#ffffff;fill-opacity:1;fill-rule:nonzero;stroke:none"/>
  <path d="m 21.079877,14.185501 c 0.0025,-0.01625 0.0063,-0.03125 0.0063,-0.0475 0,-1.15875 -0.93875,-2.09875 -2.0975,-2.09875 -1.15875,0 -2.09875,0.94 -2.09875,2.09875 0,1.1575 0.94,2.0975 2.09875,2.0975 0.0925,0 0.1825,-0.01625 0.2725,-0.0275 0.02375,-1.0425 0.80625,-1.89 1.81875,-2.0225" style="fill:#ffffff;fill-opacity:1;fill-rule:nonzero;stroke:none"/>
  <path d="m 16.536077,29.938002 -0.39875,-7.595 c -0.11375,-1.62125 1.0375,-3.0875 2.6725,-3.33125 0.83125,-0.12375 1.68,-0.1875 2.545,-0.1875 0.125,0 0.24875,0.01 0.37375,0.015 0.26625,0.85 1.05125,1.4725 1.9925,1.4725 0.09375,0 0.1825,-0.01375 0.27375,-0.02875 0.02375,-1.04125 0.80625,-1.89 1.81875,-2.0225 0.09,-0.01375 0.18,-0.0275 0.27375,-0.0275 1.15375,0 2.0875,0.93 2.0975,2.08125 0.47625,-0.68 1.2175,-1.1725 2.10375,-1.3025 0.83,-0.12375 1.68,-0.1875 2.54375,-0.1875 0.12625,0 0.2475,0.01 0.3725,0.015 0.2675,0.85 1.05375,1.4725 1.9925,1.4725 0.09375,0 0.18375,-0.01375 0.27375,-0.02875 0.02375,-1.04125 0.8075,-1.89 1.82125,-2.0225 0,-0.01625 0.005,-0.03 0.005,-0.0475 0,-1.1575 -0.94,-2.0975 -2.1,-2.0975 -1.14,0 -2.065,0.91375 -2.09125,2.04875 -0.09,0.01125 -0.18,0.03 -0.27375,0.03 -0.94,0 -1.725,-0.6225 -1.9925,-1.4725 -0.12625,-0.005 -0.2475,-0.015 -0.375,-0.015 -0.86375,0 -1.7125,0.065 -2.54375,0.1875 -0.885,0.13 -1.62625,0.625 -2.10375,1.3025 -0.0075,-1.15125 -0.94375,-2.08125 -2.09625,-2.08125 -1.1425,0 -2.06625,0.91375 -2.0925,2.04875 -0.09,0.01125 -0.18,0.03 -0.27375,0.03 -0.94,0 -1.72625,-0.6225 -1.9925,-1.4725 -0.12625,-0.005 -0.24875,-0.015 -0.37375,-0.015 -0.86375,0 -1.71375,0.065 -2.54375,0.1875 -1.6375,0.24375 -2.7875,1.71 -2.6725,3.3325 l 0.39875,7.595 1.43125,0 0.8675,12.3825 2.21875,0 -0.71875,-10.26625 -1.43375,0" style="fill:#ffffff;fill-opacity:1;fill-rule:nonzero;stroke:none"/>
  <path d="m 39.932378,20.349251 c -1.1425,0 -2.065,0.915 -2.0925,2.04875 -0.0925,0.01125 -0.18,0.03125 -0.275,0.03125 -0.94,0 -1.725,-0.62375 -1.9925,-1.47375 -0.12625,-0.005 -0.2475,-0.01625 -0.375,-0.01625 -0.8625,0 -1.7125,0.06625 -2.54125,0.19 -0.88625,0.1325 -1.6275,0.6225 -2.105,1.3025 -0.01,-1.15125 -0.94375,-2.0825 -2.09625,-2.0825 -1.14125,0 -2.06625,0.915 -2.09375,2.04875 -0.09,0.01125 -0.18,0.03125 -0.27375,0.03125 -0.93875,0 -1.725,-0.62375 -1.9925,-1.47375 -0.12625,-0.005 -0.2475,-0.01625 -0.37375,-0.01625 -0.86375,0 -1.7125,0.06625 -2.5425,0.19 -1.6375,0.24125 -2.7875,1.70875 -2.67375,3.33125 l 0.39875,7.595 1.4325,0 0.8675,12.38125 2.21875,0 -0.72,-10.26375 -1.43125,0 -0.4,-7.595 c -0.11375,-1.6225 1.0375,-3.08875 2.67375,-3.3325 0.82875,-0.1225 1.68,-0.18875 2.5425,-0.18875 0.12625,0 0.25,0.01375 0.37375,0.01625 0.26875,0.85 1.05375,1.4725 1.99375,1.4725 0.6125,0 1.16,-0.2675 1.54375,-0.68625 -0.025,0.19625 -0.03125,0.3975 -0.01625,0.60125 l 0.0425,0.79375 c -0.51875,-0.045 -1.04,-0.07875 -1.57,-0.07875 -0.865,0 -1.71375,0.06375 -2.54375,0.1875 -1.63625,0.24375 -2.7875,1.71 -2.67375,3.3325 l 0.4,7.59375 1.43125,0 0.86875,12.38125 5.035,0 0.8675,-12.38125 1.43125,0 0.39875,-7.59375 c 0.08,-1.11375 -0.4375,-2.15125 -1.29625,-2.77375 0.1875,-1.345 1.23625,-2.465 2.64875,-2.67625 0.83,-0.1225 1.6775,-0.18875 2.5425,-0.18875 0.125,0 0.24875,0.01375 0.37375,0.01625 0.2675,0.85 1.05375,1.4725 1.99375,1.4725 1.1575,0 2.0975,-0.94 2.0975,-2.0975 0,-1.15875 -0.94,-2.09875 -2.0975,-2.09875" style="fill:#ffffff;fill-opacity:1;fill-rule:nonzero;stroke:none"/>
</svg>
