<?xml version='1.0' encoding='UTF-8' standalone='no'?>
<svg xmlns:cc="http://creativecommons.org/ns#" xmlns:dc="http://purl.org/dc/elements/1.1/" height="60.601002" xmlns:rdf="http://www.w3.org/1999/02/22-rdf-syntax-ns#" xmlns:svg="http://www.w3.org/2000/svg" version="1.1" viewBox="0 0 60.601004 60.601004" width="60.601002" xmlns="http://www.w3.org/2000/svg">
  <defs/>
  <metadata>
    <rdf:RDF>
      <cc:Work rdf:about="">
        <dc:format>image/svg+xml</dc:format>
        <dc:type rdf:resource="http://purl.org/dc/dcmitype/StillImage"/>
        <dc:title>三列並び; Line up in threes</dc:title>
        <dc:source>http://www.ecomo.or.jp/barrierfree/pictogram/data/zukigo_panfu_jis110.pdf</dc:source>
      </cc:Work>
    </rdf:RDF>
  </metadata>
  <path d="m 30.296128,57.581753 c -15.0625,0 -27.2787503,-12.215 -27.2787503,-27.28125 0,-15.06875 12.2162503,-27.2812503 27.2787503,-27.2812503 15.0625,0 27.2875,12.2125003 27.2875,27.2812503 0,15.06625 -12.225,27.28125 -27.2875,27.28125" style="fill:#1971ff;fill-opacity:1;fill-rule:nonzero;stroke:none"/>
  <path d="m 41.646128,16.563001 c 0,-0.015 0,-0.02875 0,-0.045 0,-1.16 -0.9375,-2.09875 -2.1,-2.09875 -1.1625,0 -2.1,0.93875 -2.1,2.09875 0,1.1575 0.9375,2.0975 2.1,2.0975 0.1,0 0.1875,-0.01625 0.275,-0.0275 0.025,-1.045 0.8125,-1.89 1.825,-2.025" style="fill:#ffffff;fill-opacity:1;fill-rule:nonzero;stroke:none"/>
  <path d="m 18.683627,16.563001 c 0,-0.015 0.0125,-0.02875 0.0125,-0.045 0,-1.16 -0.95,-2.09875 -2.1,-2.09875 -1.1625,0 -2.1,0.93875 -2.1,2.09875 0,1.1575 0.9375,2.0975 2.1,2.0975 0.0875,0 0.175,-0.01625 0.275,-0.0275 0.025,-1.045 0.8,-1.89 1.8125,-2.025" style="fill:#ffffff;fill-opacity:1;fill-rule:nonzero;stroke:none"/>
  <path d="m 30.158628,16.563001 c 0,-0.015 0.0125,-0.02875 0.0125,-0.045 0,-1.16 -0.9375,-2.09875 -2.1,-2.09875 -1.1625,0 -2.1,0.93875 -2.1,2.09875 0,1.1575 0.9375,2.0975 2.1,2.0975 0.0875,0 0.1875,-0.01625 0.275,-0.0275 0.025,-1.045 0.8,-1.89 1.8125,-2.025" style="fill:#ffffff;fill-opacity:1;fill-rule:nonzero;stroke:none"/>
  <path d="m 41.758628,46.974253 -0.8625,-12.3825 -1.4375,0 -0.3875,-7.5925 c -0.125,-1.625 1.0375,-3.09 2.6625,-3.3325 0.8375,-0.1225 1.6875,-0.18875 2.55,-0.18875 0.8625,0 1.7125,0.06625 2.5375,0.18875 1.6375,0.2425 2.7875,1.7075 2.675,3.3325 l -0.4,7.5925 -1.425,0 -0.875,12.3825 -5.0375,0" style="fill:#ffffff;fill-opacity:1;fill-rule:nonzero;stroke:none"/>
  <path d="m 44.283628,18.65425 c -1.15,0 -2.075,0.91125 -2.1,2.0475 -0.0875,0.0125 -0.175,0.03125 -0.275,0.03125 -0.9375,0 -1.725,-0.6225 -1.9875,-1.475 -0.125,-0.0025 -0.25,-0.015 -0.375,-0.015 -0.8625,0 -1.7125,0.0675 -2.5375,0.19 -0.8875,0.13 -1.625,0.6225 -2.1125,1.3025 0,-1.15125 -0.9375,-2.08125 -2.0875,-2.08125 -1.15,0 -2.075,0.91125 -2.1,2.0475 -0.0875,0.0125 -0.175,0.03125 -0.275,0.03125 -0.9375,0 -1.725,-0.6225 -1.9875,-1.475 -0.125,-0.0025 -0.25,-0.015 -0.375,-0.015 -0.8625,0 -1.7125,0.0675 -2.5375,0.19 -0.8875,0.13 -1.6375,0.6225 -2.1125,1.3025 -0.0125,-1.15125 -0.9375,-2.08125 -2.0875,-2.08125 -1.15,0 -2.075,0.91125 -2.1,2.0475 -0.0875,0.0125 -0.175,0.03125 -0.275,0.03125 -0.9375,0 -1.725,-0.6225 -1.9875,-1.475 -0.125,-0.0025 -0.25,-0.015 -0.375,-0.015 -0.8625,0 -1.7125,0.0675 -2.55,0.19 -1.6375,0.24125 -2.7875,1.7075 -2.675,3.3325 l 0.4,7.59125 1.4375,0 0.8625,12.38375 2.225,0 -0.725,-10.26625 -1.425,0 -0.4,-7.5925 c -0.1125,-1.62125 1.0375,-3.0875 2.675,-3.33125 0.825,-0.12375 1.675,-0.19 2.5375,-0.19 0.125,0 0.25,0.0125 0.375,0.015 0.2625,0.8525 1.05,1.4725 2,1.4725 0.6,0 1.15,-0.265 1.5375,-0.685 -0.025,0.1975 -0.025,0.39875 -0.0125,0.6025 l 0.0375,0.7925 c -0.5125,-0.0475 -1.0375,-0.08 -1.5625,-0.08 -0.875,0 -1.725,0.06625 -2.55,0.18875 -1.6375,0.2425 -2.7875,1.7075 -2.675,3.3325 l 0.4,7.5925 1.4375,0 0.8625,12.3825 5.0375,0 0.8625,-12.3825 1.4375,0 0.4,-7.5925 c 0.075,-1.1125 -0.4375,-2.15 -1.3,-2.7725 0.1875,-1.34625 1.2375,-2.46875 2.65,-2.67625 0.825,-0.12375 1.675,-0.19 2.5375,-0.19 0.125,0 0.25,0.0125 0.375,0.015 0.2625,0.8525 1.05,1.4725 2,1.4725 0.6125,0 1.15,-0.265 1.5375,-0.685 -0.025,0.1975 -0.025,0.39875 -0.0125,0.6025 l 0.0375,0.7925 c -0.5125,-0.0475 -1.0375,-0.08 -1.5625,-0.08 -0.875,0 -1.7125,0.06625 -2.55,0.18875 -1.6375,0.2425 -2.7875,1.7075 -2.675,3.3325 l 0.4,7.5925 1.4375,0 0.8625,12.3825 5.0375,0 0.875,-12.3825 1.425,0 0.4,-7.5925 c 0.075,-1.1125 -0.4375,-2.15 -1.3,-2.7725 0.1875,-1.34625 1.2375,-2.46875 2.65,-2.67625 0.825,-0.12375 1.675,-0.19 2.5375,-0.19 0.1375,0 0.25,0.0125 0.375,0.015 0.275,0.8525 1.0625,1.4725 2,1.4725 1.1625,0 2.1,-0.9375 2.1,-2.09625 0,-1.16 -0.9375,-2.0975 -2.1,-2.0975" style="fill:#ffffff;fill-opacity:1;fill-rule:nonzero;stroke:none"/>
</svg>
