<?xml version='1.0' encoding='UTF-8' standalone='no'?>
<svg xmlns:cc="http://creativecommons.org/ns#" xmlns:dc="http://purl.org/dc/elements/1.1/" height="60.601002" xmlns:rdf="http://www.w3.org/1999/02/22-rdf-syntax-ns#" xmlns:svg="http://www.w3.org/2000/svg" version="1.1" viewBox="0 0 60.601004 60.601004" width="60.601002" xmlns="http://www.w3.org/2000/svg">
  <defs/>
  <metadata>
    <rdf:RDF>
      <cc:Work rdf:about="">
        <dc:format>image/svg+xml</dc:format>
        <dc:type rdf:resource="http://purl.org/dc/dcmitype/StillImage"/>
        <dc:title>四列並び; Line up in fours</dc:title>
        <dc:source>http://www.ecomo.or.jp/barrierfree/pictogram/data/zukigo_panfu_jis110.pdf</dc:source>
      </cc:Work>
    </rdf:RDF>
  </metadata>
  <path d="m 30.306753,57.581753 c -15.075,0 -27.2875003,-12.215 -27.2875003,-27.28125 0,-15.06875 12.2125003,-27.2812503 27.2875003,-27.2812503 15.0625,0 27.275,12.2125003 27.275,27.2812503 0,15.06625 -12.2125,27.28125 -27.275,27.28125" style="fill:#1971ff;fill-opacity:1;fill-rule:nonzero;stroke:none"/>
  <path d="m 44.231753,19.324251 c 0.025,-0.1375 0.05,-0.2775 0.05,-0.42375 0,-0.94 -0.75,-1.7025 -1.7,-1.7025 -0.9375,0 -1.7,0.7625 -1.7,1.7025 0,0.9375 0.7625,1.7 1.7,1.7 0.1625,0 0.3125,-0.02875 0.45,-0.06875 0.15,-0.5875 0.6125,-1.04625 1.2,-1.2075" style="fill:#ffffff;fill-opacity:1;fill-rule:nonzero;stroke:none"/>
  <path d="m 34.569253,19.324251 c 0.0375,-0.1375 0.05,-0.2775 0.05,-0.42375 0,-0.94 -0.75,-1.7025 -1.7,-1.7025 -0.9375,0 -1.7,0.7625 -1.7,1.7025 0,0.9375 0.7625,1.7 1.7,1.7 0.1625,0 0.3125,-0.02875 0.45,-0.06875 0.15,-0.5875 0.6125,-1.04625 1.2,-1.2075" style="fill:#ffffff;fill-opacity:1;fill-rule:nonzero;stroke:none"/>
  <path d="m 24.906752,19.324251 c 0.0375,-0.1375 0.0625,-0.2775 0.0625,-0.42375 0,-0.94 -0.7625,-1.7025 -1.7,-1.7025 -0.95,0 -1.7125,0.7625 -1.7125,1.7025 0,0.9375 0.7625,1.7 1.7125,1.7 0.15,0 0.3,-0.02875 0.45,-0.06875 0.15,-0.5875 0.6,-1.04625 1.1875,-1.2075" style="fill:#ffffff;fill-opacity:1;fill-rule:nonzero;stroke:none"/>
  <path d="m 15.644252,19.324251 c 0.0375,-0.1375 0.0625,-0.2775 0.0625,-0.42375 0,-0.94 -0.7625,-1.7025 -1.7,-1.7025 -0.9375,0 -1.7,0.7625 -1.7,1.7025 0,0.9375 0.7625,1.7 1.7,1.7 0.1625,0 0.3125,-0.02875 0.45,-0.06875 0.15,-0.5875 0.6125,-1.04625 1.1875,-1.2075" style="fill:#ffffff;fill-opacity:1;fill-rule:nonzero;stroke:none"/>
  <path d="m 44.731753,44.291752 -0.7125,-10.04625 -1.1625,0 -0.325,-6.15875 c -0.0875,-1.3175 0.85,-2.50875 2.175,-2.705 0.675,-0.09875 1.3625,-0.15125 2.0625,-0.15125 0.7,0 1.3875,0.0525 2.0625,0.15125 1.325,0.19625 2.2625,1.3875 2.175,2.705 l -0.325,6.15875 -1.1625,0 -0.7125,10.04625 -4.075,0" style="fill:#ffffff;fill-opacity:1;fill-rule:nonzero;stroke:none"/>
  <path d="m 46.769254,21.315501 c -0.7875,0 -1.45,0.545 -1.6375,1.27875 -0.15,0.04 -0.3,0.06625 -0.45,0.06625 -0.8875,0 -1.6,-0.675 -1.6875,-1.53375 -0.1375,-0.005 -0.275,-0.015 -0.4125,-0.015 -0.7,0 -1.3875,0.0525 -2.0625,0.1525 -0.7875,0.1175 -1.425,0.58625 -1.8,1.21875 -0.225,-0.6775 -0.8625,-1.1675 -1.6125,-1.1675 -0.7875,0 -1.45,0.545 -1.6375,1.27875 -0.15,0.04 -0.3,0.06625 -0.45,0.06625 -0.8875,0 -1.6,-0.675 -1.6875,-1.53375 -0.1375,-0.005 -0.275,-0.015 -0.4125,-0.015 -0.7,0 -1.3875,0.0525 -2.0625,0.1525 -0.7875,0.115 -1.425,0.58625 -1.8,1.21875 -0.225,-0.6775 -0.8625,-1.1675 -1.6125,-1.1675 -0.7875,0 -1.45,0.545 -1.6375,1.27875 -0.15,0.04 -0.3,0.06625 -0.45,0.06625 -0.8875,0 -1.6,-0.675 -1.6875,-1.53375 -0.1375,-0.005 -0.275,-0.015 -0.4,-0.015 -0.7125,0 -1.4,0.0525 -2.075,0.1525 -0.775,0.115 -1.425,0.58625 -1.8,1.21875 -0.225,-0.6775 -0.8625,-1.1675 -1.6125,-1.1675 -0.7875,0 -1.45,0.545 -1.6375,1.27875 -0.15,0.04 -0.3,0.06625 -0.45,0.06625 -0.8875,0 -1.6,-0.675 -1.6875,-1.53375 -0.1375,-0.005 -0.2625,-0.015 -0.4,-0.015 -0.7125,0 -1.4,0.0525 -2.0625,0.1525 -1.3375,0.19625 -2.2625003,1.3875 -2.1750003,2.70375 l 0.325,6.16 1.1625003,0 0.7,10.045 1.95,0 -0.5625,-7.985 -1.1625,0 -0.325,-6.1625 c -0.0875,-1.31625 0.85,-2.505 2.175,-2.70125 0.675,-0.1 1.3625,-0.15375 2.0625,-0.15375 0.1375,0 0.275,0.01125 0.4,0.01625 0.0875,0.86 0.8125,1.5325 1.6875,1.5325 0.5,0 0.95,-0.22125 1.2625,-0.56125 l 0.0625,1.14125 c -0.4375,-0.04 -0.875,-0.06875 -1.325,-0.06875 -0.7,0 -1.3875,0.0525 -2.0625,0.15125 -1.325,0.19625 -2.2625,1.3875 -2.1625,2.705 l 0.325,6.15875 1.1625,0 0.7,10.04625 4.0875,0 0.7,-10.04625 1.1625,0 0.325,-6.15875 c 0.05,-0.83125 -0.3,-1.61125 -0.9,-2.125 -0.05,-1.2875 0.8625,-2.44625 2.175,-2.6375 0.675,-0.1 1.3625,-0.15375 2.0625,-0.15375 0.1375,0 0.275,0.01125 0.4,0.01625 0.0875,0.86 0.8125,1.5325 1.6875,1.5325 0.5,0 0.95,-0.22125 1.2625,-0.56125 l 0.05,1.14125 c -0.425,-0.04 -0.8625,-0.06875 -1.3125,-0.06875 -0.7,0 -1.3875,0.0525 -2.0625,0.15125 -1.325,0.19625 -2.2625,1.3875 -2.1625,2.705 l 0.3125,6.15875 1.1625,0 0.7125,10.04625 4.0875,0 0.7,-10.04625 1.1625,0 0.325,-6.15875 c 0.05,-0.83125 -0.3,-1.61125 -0.9,-2.125 -0.05,-1.2875 0.8625,-2.44625 2.175,-2.6375 0.675,-0.1 1.3625,-0.15375 2.0625,-0.15375 0.1375,0 0.2625,0.01125 0.4,0.01625 0.0875,0.86 0.8125,1.5325 1.6875,1.5325 0.5,0 0.95,-0.22125 1.2625,-0.56125 l 0.05,1.14125 c -0.425,-0.04 -0.8625,-0.06875 -1.3125,-0.06875 -0.7,0 -1.3875,0.0525 -2.0625,0.15125 -1.325,0.19625 -2.2625,1.3875 -2.1625,2.705 l 0.3125,6.15875 1.1625,0 0.7125,10.04625 4.0875,0 0.7,-10.04625 1.1625,0 0.325,-6.15875 c 0.05,-0.83125 -0.3,-1.61125 -0.9,-2.125 -0.0625,-1.2875 0.8625,-2.44625 2.175,-2.6375 0.675,-0.1 1.3625,-0.15375 2.0625,-0.15375 0.1375,0 0.2625,0.01125 0.4,0.01625 0.0875,0.86 0.8,1.5325 1.6875,1.5325 0.9375,0 1.7,-0.7625 1.7,-1.70375 0,-0.94 -0.7625,-1.7 -1.7,-1.7" style="fill:#ffffff;fill-opacity:1;fill-rule:nonzero;stroke:none"/>
</svg>
