<?xml version="1.0" encoding="UTF-8"?>
<svg width="60.601" height="60.601" version="1.1" viewBox="0 0 60.601 60.601" xmlns="http://www.w3.org/2000/svg" xmlns:cc="http://creativecommons.org/ns#" xmlns:dc="http://purl.org/dc/elements/1.1/" xmlns:rdf="http://www.w3.org/1999/02/22-rdf-syntax-ns#">
 <title>シートベルトを締める; Fasten seat belt</title>
 <metadata>
  <rdf:RDF>
   <cc:Work rdf:about="">
    <dc:format>image/svg+xml</dc:format>
    <dc:type rdf:resource="http://purl.org/dc/dcmitype/StillImage"/>
    <dc:title>シートベルトを締める; Fasten seat belt</dc:title>
    <dc:source>http://www.ecomo.or.jp/barrierfree/pictogram/data/zukigo_panfu_20170719.pdf</dc:source>
   </cc:Work>
  </rdf:RDF>
 </metadata>
 <path d="m30.307 57.582c-15.075 0-27.288-12.215-27.288-27.281 0-15.069 12.213-27.281 27.288-27.281 15.062 0 27.275 12.213 27.275 27.281 0 15.066-12.212 27.281-27.275 27.281" style="fill:#1971ff"/>
 <path d="m40.253 32.069h-5.7764v-8.1853h5.7764zm2.5693-9.7917v-2.0847c0-0.26576-0.21855-0.47835-0.48434-0.47835h-9.9463c-0.26578 0-0.48432 0.2126-0.48432 0.47835v15.562c0 0.27167 0.21854 0.48428 0.48432 0.48428h9.9463c0.26579 0 0.48434-0.21261 0.48434-0.48428v-2.0847h10.59v-11.392z" style="fill:#fff"/>
 <path d="m39.29 24.847h-3.851v6.2601h3.851z" style="fill:#fff"/>
 <path d="m26.432 31.107h-3.2072v-6.2601h3.2072zm-8.6646 3.5316h-0.96274v-13.323h0.96274zm10.431-12.361h-7.5424l-0.54929-2.2028c-0.0532-0.2067-0.24217-0.36025-0.46662-0.36025h-3.9573c-0.26578 0-0.48433 0.2126-0.48433 0.47835v2.0847h-8.0208v11.392h8.0208v2.0906c0 0.26576 0.21855 0.47837 0.48433 0.47837h3.9573c0.22445 0 0.41345-0.15356 0.46662-0.36026l0.54929-2.2087h7.5424c0.26578 0 0.47842-0.21261 0.47842-0.47837v-10.43c0-0.26576-0.21264-0.48427-0.47842-0.48427" style="fill:#fff"/>
 <path d="m19.256 39.133 4.6306 4.6301h-9.84v2.315h9.84l-4.6306 4.6301h2.9l5.7882-5.7876-5.7882-5.7876z" style="fill:#fff"/>
 <path d="m41.34 39.133h-2.8941l-5.7942 5.7876 5.7942 5.7876h2.8941l-4.6306-4.6301h9.84v-2.315h-9.84z" style="fill:#fff"/>
</svg>
