<?xml version="1.0" encoding="UTF-8"?>
<svg width="60.601" height="60.601" version="1.1" viewBox="0 0 60.601 60.601" xmlns="http://www.w3.org/2000/svg" xmlns:cc="http://creativecommons.org/ns#" xmlns:dc="http://purl.org/dc/elements/1.1/" xmlns:rdf="http://www.w3.org/1999/02/22-rdf-syntax-ns#">
 <title>洪水／内水氾濫; Flood from rivers/Flood from inland waters</title>
 <metadata>
  <rdf:RDF>
   <cc:Work rdf:about="">
    <dc:format>image/svg+xml</dc:format>
    <dc:type rdf:resource="http://purl.org/dc/dcmitype/StillImage"/>
    <dc:title>洪水／内水氾濫; Flood from rivers/Flood from inland waters</dc:title>
    <dc:source>http://www.ecomo.or.jp/barrierfree/pictogram/data/zukigo_panfu_jis110.pdf</dc:source>
   </cc:Work>
  </rdf:RDF>
 </metadata>
 <path d="m4.6024 4.603v51.395h51.396v-51.395h-51.396z" style="fill:#fff"/>
 <path d="m51.717 20.379c0 0.07714-0.01444 0.14947-0.0337 0.21697-0.12059 0.25071-0.27964 0.47731-0.46768 0.67016-0.92571 0.93053-2.0298 1.7936-4.0692 1.7936-4.1367 0-4.6285-4.2476-8.4422-4.2476-3.8041 0-4.2573 4.2476-8.3989 4.2476-4.1319 0-4.59-4.2476-8.394-4.2476-3.8137 0-4.3103 4.2476-8.4423 4.2476-2.0394 0-3.1435-0.86303-4.0644-1.7936-0.19286-0.19286-0.35195-0.41946-0.47249-0.67016-0.02407-0.06751-0.0337-0.13983-0.0337-0.21697l-0.0049-11.489h42.828zm0.0049 11.166c0 0.0723-0.01444 0.14464-0.0337 0.21696-0.12059 0.25072-0.27482 0.47732-0.46768 0.67018-0.92088 0.93053-2.0298 1.7936-4.0644 1.7936-4.1416 0-4.6333-4.2476-8.4422-4.2476-3.8089 0-4.2621 4.2476-8.4037 4.2476-4.1319 0-4.59-4.2476-8.3989-4.2476-3.8089 0-4.3007 4.2476-8.4374 4.2476-2.0394 0-3.1436-0.86302-4.0644-1.7936-0.19286-0.19286-0.35197-0.41946-0.46768-0.67018-0.02407-0.0723-0.03851-0.14464-0.03851-0.21696v-4.7925c0 0.07232 0.3134 0.46285 0.50625 0.65571 0.92088 0.93534 2.025 1.7936 4.0644 1.7936 4.1367 0 4.6285-4.2428 8.4374-4.2428 3.8089 0 4.2669 4.2428 8.3989 4.2428 4.1416 0 4.5948-4.2428 8.4037-4.2428 3.8089 0 4.3007 4.2428 8.4422 4.2428 2.0346 0 3.1436-0.85821 4.0644-1.7936 0.19286-0.19286 0.50142-0.59304 0.50142-0.65571zm-47.12 24.454h51.396v-51.396h-51.396z"/>
</svg>
