<?xml version="1.0" encoding="UTF-8"?>
<svg width="60.601" height="60.601" version="1.1" viewBox="0 0 60.601 60.601" xmlns="http://www.w3.org/2000/svg" xmlns:cc="http://creativecommons.org/ns#" xmlns:dc="http://purl.org/dc/elements/1.1/" xmlns:rdf="http://www.w3.org/1999/02/22-rdf-syntax-ns#">
 <title>土石流; Debris flow</title>
 <metadata>
  <rdf:RDF>
   <cc:Work rdf:about="">
    <dc:format>image/svg+xml</dc:format>
    <dc:type rdf:resource="http://purl.org/dc/dcmitype/StillImage"/>
    <dc:title>土石流; Debris flow</dc:title>
    <dc:source>http://www.ecomo.or.jp/barrierfree/pictogram/data/zukigo_panfu_jis110.pdf</dc:source>
   </cc:Work>
  </rdf:RDF>
 </metadata>
 <path d="m4.6024 4.603v51.395h51.396v-51.395h-51.396z" style="fill:#fff"/>
 <path d="m28.982 46.908-2.798-0.69712-2.268 1.9052 2.9174 2.9222 2.3826-1.485z"/>
 <path d="m19.743 41.116-3.1227 4.1445 1.1078 3.0272 4.4835 1.8144 1.06-6.6895z"/>
 <path d="m30.892 38.055-2.6882 3.987 1.59 3.9344 3.8676-1.7237 0.86424-2.8124z"/>
 <path d="m51.71 21.396-9.8838-8.2938c-0.7401-0.62549-1.6998-1.0027-2.7503-1.0027-1.0457 0-2.0054 0.37722-2.7503 1.0027l-8.2365 6.9092-4.2639-3.5763c-0.59685-0.50136-1.3656-0.80217-2.2012-0.80217-0.84037 0-1.6091 0.30081-2.206 0.80217l-10.533 8.8429v-16.392h42.825zm-12.687 30.32 0.44405-2.5354-4.4788-2.3826-2.5116 3.4617 1.2224 1.4563h-24.815l5.7632-5.0088 1.2176-5.725 6.6943-2.7073 3.9679-6.5988c-1.8335-1.59-3.3662-2.7837-4.0729-3.2994-3.3424-2.4208-1.1746-4.6459 2.6739-5.7489l0.23874 0.16712c-2.6596 1.2415-3.3567 2.9652 0.59685 4.3928 2.0579 0.74488 8.0312 2.8935 10.462 5.1281l0.30081 3.3997 5.2427 5.8253 3.3806 0.84514-2.9938 2.0961 0.95496 3.8389 4.2352 1.1364 1.4468-3.5763 2.7169 5.8348zm-34.422 4.283h51.396v-51.391h-51.396z"/>
 <path d="m37.128 39.707c-1.6043-4.6698-3.3185-6.8041-5.5961-7.5442l-0.12892 0.12892c1.972 2.4208 2.989 5.5388 3.667 7.5108 0.721 2.1057 2.0006 5.1234 5.4194 7.2386l0.14324-0.14325c-2.0579-2.798-3.1896-6.2741-3.5047-7.1909"/>
 <path d="m26.365 29.48-0.19577 0.19099c2.416 1.5136 3.0415 3.1896 0.64937 6.9617-1.7953 2.8171-2.2871 5.3812-1.0361 7.4869l0.19099-0.03337c0.26739-2.268 1.356-4.3546 2.6261-6.3457 3.7673-5.916-0.89766-7.6301-2.2346-8.2604"/>
</svg>
