<?xml version="1.0" encoding="UTF-8"?>
<svg width="60.601" height="60.601" version="1.1" viewBox="0 0 60.601 60.601" xmlns="http://www.w3.org/2000/svg" xmlns:cc="http://creativecommons.org/ns#" xmlns:dc="http://purl.org/dc/elements/1.1/" xmlns:rdf="http://www.w3.org/1999/02/22-rdf-syntax-ns#">
 <title>大規模な火事; Fire disasters</title>
 <metadata>
  <rdf:RDF>
   <cc:Work rdf:about="">
    <dc:format>image/svg+xml</dc:format>
    <dc:type rdf:resource="http://purl.org/dc/dcmitype/StillImage"/>
    <dc:title>大規模な火事; Fire disasters</dc:title>
    <dc:source>http://www.ecomo.or.jp/barrierfree/pictogram/data/zukigo_panfu_jis110.pdf</dc:source>
   </cc:Work>
  </rdf:RDF>
 </metadata>
 <path d="m4.6024 4.603v51.395h51.396v-51.395h-51.396z" style="fill:#fff"/>
 <path d="m11.042 40.055v-0.44839l11.991-5.9785 11.996 5.9785v0.44839h-2.1455v8.7797h-19.7v-8.7797z"/>
 <path d="m51.73 8.9037h-42.828v42.824h42.828zm-47.129-4.3007h51.396v51.396h-51.396z"/>
 <path d="m48.326 18.349c-1.0125 3.7944-5.7857 6.6294-6.0701 6.3932 2.3528-2.43 3.4473-7.9264 3.6691-9.8549l-0.10602-0.03851c-1.1861 3.7751-4.9323 4.4598-8.2976 6.1617 1.7887-1.3259 4.8696-6.9862 5.5687-9.9465l-0.12059-0.04344c-1.2536 2.2227-3.3075 4.1946-14.594 7.4683-11.914 3.4521-12.034 11.152-12.155 16.513 2.4252-4.0548 5.9641-5.183 8.4133-5.3903 3.293-0.27481 6.8898-1.1812 9.2956-3.8668-0.83891 2.5023-2.7675 5.0769-4.5514 6.3932 3.4569 0.97874 8.2253-0.58339 11.007-3.2159 0.99321 1.8466 1.0848 3.9487 0.37607 5.6458 5.8098-0.84375 7.1067-8.9533 7.6564-16.19z"/>
 <path d="m42.295 39.601-11.976-5.9737-2.9218 1.4609 1.7984 0.89196 1.1234-0.55929 8.2301 4.1078v7.7046h-3.563v1.6055h5.1685v-8.7797h2.1407z"/>
 <path d="m49.58 39.601-11.981-5.9737-2.9218 1.4609 1.8032 0.89196 1.1186-0.55929 8.2301 4.1078v7.7046h-3.563v1.6055h5.1734v-8.7797h2.1407z"/>
</svg>
