<?xml version='1.0' encoding='UTF-8' standalone='no'?>
<svg xmlns:cc="http://creativecommons.org/ns#" xmlns:dc="http://purl.org/dc/elements/1.1/" height="60.601002" xmlns:rdf="http://www.w3.org/1999/02/22-rdf-syntax-ns#" xmlns:svg="http://www.w3.org/2000/svg" version="1.1" viewBox="0 0 60.601004 60.601004" width="60.601002" xmlns="http://www.w3.org/2000/svg">
  <defs/>
  <metadata>
    <rdf:RDF>
      <cc:Work rdf:about="">
        <dc:format>image/svg+xml</dc:format>
        <dc:type rdf:resource="http://purl.org/dc/dcmitype/StillImage"/>
        <dc:title>新聞・雑誌; Newspapers, magazines</dc:title>
        <dc:source>http://www.ecomo.or.jp/barrierfree/pictogram/data/zukigo_panfu_jis110.pdf</dc:source>
      </cc:Work>
    </rdf:RDF>
  </metadata>
  <path d="m 7.7911277,56.024253 c -1.7775,0 -3.215,-1.44 -3.215,-3.215 l 0,-45.0175003 c 0,-1.77625 1.4375,-3.215 3.215,-3.215 l 45.0175003,0 c 1.77625,0 3.21625,1.43875 3.21625,3.215 l 0,45.0175003 c 0,1.775 -1.44,3.215 -3.21625,3.215 l -45.0175003,0 z" style="fill:#ffffff;fill-opacity:1;stroke:#000;stroke-width:0.60625005;stroke-linecap:butt;stroke-linejoin:miter;stroke-miterlimit:4;stroke-dasharray:none;stroke-opacity:1"/>
  <path d="m 16.801129,19.119251 1.89375,0 1.8875,4.7875 0.01625,0 -0.025,-4.7875 1.36,0 0,7.05 -1.84625,0 -1.95125,-4.8175 -0.01625,0 0.04875,4.8175 -1.3675,0 0,-7.05" style="fill:#000;fill-opacity:1;fill-rule:nonzero;stroke:none"/>
  <path d="m 22.716129,19.119251 3.93375,0 0,1.33375 -2.44625,0 0,1.4525 2.31,0 0,1.33375 -2.31,0 0,1.595 2.53375,0 0,1.335 -4.02125,0 0,-7.05" style="fill:#000;fill-opacity:1;fill-rule:nonzero;stroke:none"/>
  <path d="m 26.944879,19.119251 1.51875,0 0.71875,5.41375 0.01625,0 0.7525,-5.41375 1.885,0 0.78375,5.41375 0.01625,0 0.7275,-5.41375 1.44625,0 -1.245,7.05 -1.91125,0 -0.79125,-5.415 -0.01625,0 -0.73625,5.415 -1.92625,0 -1.23875,-7.05" style="fill:#000;fill-opacity:1;fill-rule:nonzero;stroke:none"/>
  <path d="m 35.16988,24.430501 c 0.38375,0.26375 0.92,0.46625 1.535,0.46625 0.47375,0 0.92,-0.1225 0.92,-0.6875 0,-1.3125 -2.6375,-0.48625 -2.6375,-3.05 0,-1.69625 1.31,-2.16125 2.43,-2.16125 0.535,0 1.06375,0.10125 1.44,0.26375 l -0.0975,1.4525 c -0.3825,-0.22125 -0.81375,-0.3225 -1.2375,-0.3225 -0.3775,0 -1,0.04 -1,0.65625 0,1.14125 2.63875,0.37375 2.63875,2.92 0,1.8275 -1.215,2.3225 -2.45625,2.3225 -0.51875,0 -1.165,-0.1025 -1.6625,-0.30375 l 0.1275,-1.55625" style="fill:#000;fill-opacity:1;fill-rule:nonzero;stroke:none"/>
  <path d="m 46.369881,47.295503 c -2.60375,0.28 -5.11125,1.0775 -7.39375,2.35375 l 0,-14.7075 c 2.23,-1.4925 4.74,-2.42 7.39375,-2.74125 l 0,15.095 z m -9.64375,2.355 c -2.2825,-1.2775 -4.79125,-2.075 -7.39375,-2.355 l 0,-15.095 c 2.6525,0.32125 5.1625,1.25375 7.39375,2.75 l 0,14.7 z m 11.7325,-19.825 c -1.81125,0 -3.595,0.2525 -5.30875,0.73625 l 0,-16.34125 -5.44875,0 0,-4.7150003 -25.09,4.7150003 0,35.36375 2.57125,0 0,-32.7925 25.39625,0 0,14.7 c -0.9425,0.41625 -1.85625,0.90875 -2.7275,1.4775 -3.15625,-2.05625 -6.8225,-3.14375 -10.6075,-3.14375 l -0.16,0 0,19.60875 0.16,0 c 3.84125,0 7.47375,1.25 10.50375,3.6125 l 0.09625,0.07625 0.1,-0.07625 c 3.02875,-2.3625 6.66375,-3.6125 10.515,-3.6125 l 0.16125,0 0,-19.60875 -0.16125,0" style="fill:#000;fill-opacity:1;fill-rule:nonzero;stroke:none"/>
</svg>
