<?xml version='1.0' encoding='UTF-8' standalone='no'?>
<svg xmlns:cc="http://creativecommons.org/ns#" xmlns:dc="http://purl.org/dc/elements/1.1/" height="60.601002" xmlns:rdf="http://www.w3.org/1999/02/22-rdf-syntax-ns#" xmlns:svg="http://www.w3.org/2000/svg" version="1.1" viewBox="0 0 60.601004 60.601004" width="60.601002" xmlns="http://www.w3.org/2000/svg">
  <defs/>
  <metadata>
    <rdf:RDF>
      <cc:Work rdf:about="">
        <dc:format>image/svg+xml</dc:format>
        <dc:type rdf:resource="http://purl.org/dc/dcmitype/StillImage"/>
        <dc:title>薬局; Pharmacy</dc:title>
        <dc:source>http://www.ecomo.or.jp/barrierfree/pictogram/data/zukigo_panfu_jis110.pdf</dc:source>
      </cc:Work>
    </rdf:RDF>
  </metadata>
  <path d="m 7.7661277,56.053628 c -1.7775,0 -3.21875,-1.4425 -3.21875,-3.21875 l 0,-45.0675003 c 0,-1.77875 1.44125,-3.22 3.21875,-3.22 l 45.0662503,0 c 1.77875,0 3.22125,1.44125 3.22125,3.22 l 0,45.0675003 c 0,1.77625 -1.4425,3.21875 -3.22125,3.21875 l -45.0662503,0 z" style="fill:#ffffff;fill-opacity:1;stroke:#000;stroke-width:0.60625005;stroke-linecap:butt;stroke-linejoin:miter;stroke-miterlimit:4;stroke-dasharray:none;stroke-opacity:1"/>
  <path d="m 15.512378,10.681125 0,6.248751 8.82625,0 0,-6.248751 -8.82625,0 z" style="fill:#000;fill-opacity:1;fill-rule:nonzero;stroke:none"/>
  <path d="m 25.874878,32.278627 -3.96625,0 0,3.965 -3.965,0 0,-3.965 -3.965,0 0,-3.96625 3.965,0 0,-3.965 3.965,0 0,3.965 3.96625,0 0,3.96625 z m -1.155,-14.3825 -9.5875,0 c -2.37625,3.0975 -3.79,6.9725 -3.79,11.17875 l 0,20.845 17.1675,0 0,-20.845 c 0,-4.20625 -1.415,-8.08125 -3.79,-11.17875" style="fill:#000;fill-opacity:1;fill-rule:nonzero;stroke:none"/>
  <path d="m 48.93488,47.693628 c 0,0.7275 -0.5925,1.3175 -1.31875,1.3175 l -13.7675,0 c -0.72875,0 -1.31875,-0.59 -1.31875,-1.3175 l 0,-27.70125 c 0,-0.7275 0.59,-1.31875 1.31875,-1.31875 l 13.7675,0 c 0.72625,0 1.31875,0.59125 1.31875,1.31875 l 0,27.70125 z m -1.31875,-29.985 -13.7675,0 c -1.26125,0 -2.285,1.0225 -2.285,2.28375 l 0,27.70125 c 0,1.26 1.02375,2.2825 2.285,2.2825 l 13.7675,0 c 1.25875,0 2.2825,-1.0225 2.2825,-2.2825 l 0,-27.70125 c 0,-1.26125 -1.02375,-2.28375 -2.2825,-2.28375" style="fill:#000;fill-opacity:1;fill-rule:nonzero;stroke:none"/>
  <path d="m 40.567379,44.183627 -3.59375,0 c -0.8375,0 -1.51875,-0.68125 -1.51875,-1.5175 0,-0.40625 0.15625,-0.78625 0.4425,-1.075 0.28875,-0.285 0.67,-0.44375 1.07625,-0.44375 0,0 3.235,-0.0012 3.59375,-0.0012 0.22,0.47375 0.335,0.995 0.335,1.52 0,0.5225 -0.115,1.04375 -0.335,1.5175 z m 3.93,-3.99625 -7.53125,0.0013 c -1.36625,0 -2.4775,1.10875 -2.4775,2.4775 0,1.3675 1.11125,2.475 2.4775,2.475 l 7.53125,0 c 1.36875,0 2.4775,-1.10875 2.4775,-2.47625 0,-1.3675 -1.10875,-2.4775 -2.4775,-2.4775" style="fill:#000;fill-opacity:1;fill-rule:nonzero;stroke:none"/>
  <path d="m 40.567379,35.361127 -3.59375,0 c -0.8375,0 -1.51875,-0.68125 -1.51875,-1.51875 0,-0.405 0.15625,-0.78625 0.4425,-1.07375 0.28875,-0.28625 0.67,-0.44375 1.07625,-0.44375 0,0 3.235,0 3.59375,0 0.22,0.47125 0.335,0.9925 0.335,1.5175 0,0.52375 -0.115,1.045 -0.335,1.51875 z m 3.93,-3.99625 -7.53125,0.0012 c -1.36625,0 -2.4775,1.10875 -2.4775,2.47625 0,1.36875 1.11125,2.47625 2.4775,2.47625 l 7.53125,0 c 1.36875,0 2.4775,-1.10875 2.4775,-2.47625 0,-1.36875 -1.10875,-2.4775 -2.4775,-2.4775" style="fill:#000;fill-opacity:1;fill-rule:nonzero;stroke:none"/>
  <path d="m 40.567379,26.537376 -3.59375,0.0013 c -0.8375,0 -1.51875,-0.68125 -1.51875,-1.51875 0,-0.40625 0.15625,-0.7875 0.4425,-1.07375 0.28875,-0.28625 0.67,-0.445 1.07625,-0.445 0,0 3.235,0 3.59375,0 0.22,0.47375 0.335,0.99375 0.335,1.5175 0,0.52625 -0.115,1.04625 -0.335,1.51875 z m 3.93,-3.99375 -7.53125,0 c -1.36625,0 -2.4775,1.1075 -2.4775,2.47625 0,1.36875 1.11125,2.47625 2.4775,2.47625 l 7.53125,0 c 1.36875,0 2.4775,-1.10875 2.4775,-2.4775 0,-1.3675 -1.10875,-2.475 -2.4775,-2.475" style="fill:#000;fill-opacity:1;fill-rule:nonzero;stroke:none"/>
</svg>
