<?xml version='1.0' encoding='UTF-8' standalone='no'?>
<svg xmlns:cc="http://creativecommons.org/ns#" xmlns:dc="http://purl.org/dc/elements/1.1/" height="60.601002" xmlns:rdf="http://www.w3.org/1999/02/22-rdf-syntax-ns#" xmlns:svg="http://www.w3.org/2000/svg" version="1.1" viewBox="0 0 60.601004 60.601004" width="60.601002" xmlns="http://www.w3.org/2000/svg">
  <defs/>
  <metadata>
    <rdf:RDF>
      <cc:Work rdf:about="">
        <dc:format>image/svg+xml</dc:format>
        <dc:type rdf:resource="http://purl.org/dc/dcmitype/StillImage"/>
        <dc:title>理容／美容; Barber/Beauty salon</dc:title>
        <dc:source>http://www.ecomo.or.jp/barrierfree/pictogram/data/zukigo_panfu_jis110.pdf</dc:source>
      </cc:Work>
    </rdf:RDF>
  </metadata>
  <path d="m 7.7780027,56.039878 c -1.77625,0 -3.2175,-1.44125 -3.2175,-3.21625 l 0,-45.0450003 c 0,-1.7775 1.44125,-3.2175 3.2175,-3.2175 l 45.0437503,0 c 1.77625,0 3.21875,1.44 3.21875,3.2175 l 0,45.0450003 c 0,1.775 -1.4425,3.21625 -3.21875,3.21625 l -45.0437503,0 z" style="fill:#ffffff;fill-opacity:1;stroke:#000;stroke-width:0.60625005;stroke-linecap:butt;stroke-linejoin:miter;stroke-miterlimit:4;stroke-dasharray:none;stroke-opacity:1"/>
  <path d="m 34.160505,9.4661257 c -0.33875,0 -0.6125,0.27375 -0.6125,0.6112503 0,0.33875 0.27375,0.61375 0.6125,0.61375 l 4.1675,0 0,1.20875 -4.1675,0 c -0.33875,0 -0.6125,0.27375 -0.6125,0.6125 0,0.33875 0.27375,0.61375 0.6125,0.61375 l 4.1675,0 0,1.20875 -4.1675,0 c -0.33875,0 -0.6125,0.27375 -0.6125,0.61125 0,0.33875 0.27375,0.6125 0.6125,0.6125 l 4.1675,0 0,1.20875 -4.1675,0 c -0.33875,0 -0.6125,0.275 -0.6125,0.6125 0,0.34 0.27375,0.61375 0.6125,0.61375 l 4.1675,0 0,1.20875 -4.1675,0 c -0.33875,0 -0.6125,0.27375 -0.6125,0.6125 0,0.33875 0.27375,0.6125 0.6125,0.6125 l 4.1675,0 0,1.20875 -4.1675,0 c -0.33875,0 -0.6125,0.27375 -0.6125,0.6125 0,0.33875 0.27375,0.61375 0.6125,0.61375 l 4.1675,0 0,1.20875 -4.1675,0 c -0.33875,0 -0.6125,0.27375 -0.6125,0.61125 0,0.34 0.27375,0.61375 0.6125,0.61375 l 4.1675,0 0,1.20875 -4.1675,0 c -0.33875,0 -0.6125,0.27375 -0.6125,0.6125 0,0.33875 0.27375,0.6125 0.6125,0.6125 l 4.1675,0 0,1.20875 -4.1675,0 c -0.33875,0 -0.6125,0.275 -0.6125,0.61375 0,0.33875 0.27375,0.6125 0.6125,0.6125 l 4.1675,0 0,1.2075 -4.1675,0 c -0.33875,0 -0.6125,0.27625 -0.6125,0.615 0,0.3375 0.27375,0.61125 0.6125,0.61125 l 0.7775,0 c 1.87125,0 3.41375,1.39625 3.64625,3.205 l 1.21375,14.59625 1.47125,0 0,-39.69875 c 0,-0.67625 -0.54875,-1.2250003 -1.22625,-1.2250003 l -5.8825,-0.01" style="fill:#000;fill-opacity:1;fill-rule:nonzero;stroke:none"/>
  <path d="m 21.081754,45.534877 c 0,1.555 -1.26375,2.82125 -2.8175,2.82125 -0.7525,0 -1.46125,-0.29625 -1.99375,-0.82875 -0.5325,-0.53125 -0.825,-1.23875 -0.825,-1.9925 0,-0.7525 0.2925,-1.46125 0.825,-1.9925 0.5325,-0.5325 1.24125,-0.825 1.99375,-0.825 0.7525,0 1.46,0.2925 1.9925,0.825 0.53375,0.53125 0.825,1.24 0.825,1.9925 z m 1.64,-10.9575 c -0.3725,-0.37 -0.8425,-0.60875 -1.35125,-0.6875 -0.05,0.21 -0.07625,0.41125 -0.14875,0.6125 l -2.4225,6.7775 c -0.175,-0.02125 -0.35375,-0.03375 -0.535,-0.03375 -2.36875,0 -4.29,1.92125 -4.29,4.28875 0,2.37 1.92125,4.28875 4.29,4.28875 2.36875,0 4.28875,-1.91875 4.28875,-4.28875 0,-1.49875 -0.77,-2.81875 -1.93625,-3.58625 l 2.4925,-6.8675 c -0.105,-0.18125 -0.235,-0.35 -0.3875,-0.50375" style="fill:#000;fill-opacity:1;fill-rule:nonzero;stroke:none"/>
  <path d="m 29.540505,48.356128 c -0.75375,0 -1.4625,-0.29625 -1.99375,-0.82875 -0.53375,-0.53125 -0.825,-1.23875 -0.825,-1.9925 0,-0.7525 0.29125,-1.46125 0.825,-1.9925 0.53125,-0.5325 1.24,-0.825 1.99375,-0.825 0.7525,0 1.46,0.2925 1.9925,0.825 0.5325,0.53125 0.825,1.24 0.825,1.9925 0,1.555 -1.26375,2.82125 -2.8175,2.82125 z m 2.9425,2.03 c -0.3375,-0.33625 -0.57875,-0.74375 -0.70875,-1.18875 1.2325,-0.75375 2.055,-2.1125 2.055,-3.6625 0,-2.3675 -1.92125,-4.28875 -4.28875,-4.28875 -0.25625,0 -0.50625,0.0225 -0.74875,0.06625 l -2.44125,-6.82 c -0.1975,-0.5525 -0.3175,-1.14125 -0.34875,-1.7525 l -0.78,-23.2262503 c -0.44375,-0.18875 -0.93125,-0.29375 -1.4425,-0.29375 -0.5075,0 -0.9925,0.10375 -1.43125,0.29 l -0.775,23.1712503 c 1.28,0.20375 2.34,1.07 2.8175,2.23625 l 2.615,7.1575 c -1.06375,0.78125 -1.75625,2.03875 -1.75625,3.46 0,2.37 1.92125,4.28875 4.29125,4.28875 0.295,0 0.5825,-0.03 0.8625,-0.08625 0.56375,1.71125 2.17375,2.945 4.0725,2.945 l 0,-1.47125 c -0.7525,0 -1.46,-0.2925 -1.9925,-0.825" style="fill:#000;fill-opacity:1;fill-rule:nonzero;stroke:none"/>
</svg>
