<?xml version='1.0' encoding='UTF-8' standalone='no'?>
<svg xmlns:cc="http://creativecommons.org/ns#" xmlns:dc="http://purl.org/dc/elements/1.1/" height="60.601002" xmlns:rdf="http://www.w3.org/1999/02/22-rdf-syntax-ns#" xmlns:svg="http://www.w3.org/2000/svg" version="1.1" viewBox="0 0 60.601004 60.601004" width="60.601002" xmlns="http://www.w3.org/2000/svg">
  <defs/>
  <metadata>
    <rdf:RDF>
      <cc:Work rdf:about="">
        <dc:format>image/svg+xml</dc:format>
        <dc:type rdf:resource="http://purl.org/dc/dcmitype/StillImage"/>
        <dc:title>手荷物託配; Baggage delivery service</dc:title>
        <dc:source>http://www.ecomo.or.jp/barrierfree/pictogram/data/zukigo_panfu_jis110.pdf</dc:source>
      </cc:Work>
    </rdf:RDF>
  </metadata>
  <path d="m 7.7886277,56.027378 c -1.77625,0 -3.215,-1.4375 -3.215,-3.215 l 0,-45.0225002 c 0,-1.77625 1.43875,-3.2162502 3.215,-3.2162502 l 45.0225003,0 c 1.7775,0 3.21625,1.4400002 3.21625,3.2162502 l 0,45.0225002 c 0,1.7775 -1.43875,3.215 -3.21625,3.215 l -45.0225003,0 z" style="fill:#ffffff;stroke:#000;stroke-width:0.60625005;stroke-linecap:butt;stroke-linejoin:miter;stroke-miterlimit:4;stroke-dasharray:none;stroke-opacity:1;fill-opacity:1"/>
  <path d="m 33.339877,28.728626 -6.07875,0 0.001,-2.22625 c 0.99875,-0.18375 2.01625,-0.2775 3.0375,-0.2775 1.01625,0 2.035,0.09375 3.04,0.28 l 0,2.22375 z m -16.591249,-0.0012 c -1.02125,0 -1.8475,0.82875 -1.8475,1.85 l -10e-4,17.8625 c 0,1.02125 0.8275,1.85 1.8475,1.85 l 3.21125,0 0,-21.56125 -3.21,-0.0012 z m 27.103749,21.56375 c 1.02,0 1.84875,-0.8275 1.84875,-1.84875 l -0.006,-17.86375 c 0,-1.02125 -0.82625,-1.84875 -1.8475,-1.84875 l -3.20375,0 0,21.56 3.20875,0.0012 z m -4.98,-0.0012 0,-21.56 -3.76125,-0.0012 10e-4,-3.65 -0.545,-0.1275 c -1.40125,-0.33 -2.83625,-0.49625 -4.2675,-0.49625 -1.43875,0 -2.87375,0.16625 -4.266249,0.49625 l -0.54125,0.13 0,3.6475 -3.7625,0 0,21.56125 17.142499,0" style="fill:#000;fill-opacity:1;fill-rule:nonzero;stroke:none"/>
  <path d="m 20.744878,15.142376 3.47,0 0,-4.03625 -1.2575,0 c -0.25625,0 -0.485,0.15125 -0.5875,0.38625 l -0.001,0.0038 -10e-4,0.0025 -1.6225,3.64375 z m 20.621249,5.58875 -2.55625,0 0,0.17 c 0,1.01 -0.81875,1.82875 -1.82875,1.82875 -1.01,0 -1.82875,-0.81875 -1.82875,-1.82875 l 0,-0.17 -10.081249,0 0,0.17 c 0,1.01 -0.82,1.82875 -1.82875,1.82875 -1.01,0 -1.83,-0.81875 -1.83,-1.82875 l 0,-0.17 -3.06625,0 0,-3.33125 0.055,-0.125 2.7975,-6.295 -10e-4,0.0062 c 0.30375,-0.70375 0.995,-1.1575002 1.76,-1.1575002 l 16.491249,0 c 0.51125,0 0.99375,0.2000002 1.35625,0.5612502 0.36,0.3625 0.56125,0.8425 0.56125,1.35625 l 0,8.985" style="fill:#000;fill-opacity:1;fill-rule:nonzero;stroke:none"/>
</svg>
