<?xml version='1.0' encoding='UTF-8' standalone='no'?>
<svg xmlns:cc="http://creativecommons.org/ns#" xmlns:dc="http://purl.org/dc/elements/1.1/" height="60.601002" xmlns:rdf="http://www.w3.org/1999/02/22-rdf-syntax-ns#" xmlns:svg="http://www.w3.org/2000/svg" version="1.1" viewBox="0 0 60.601004 60.601004" width="60.601002" xmlns="http://www.w3.org/2000/svg">
  <defs/>
  <metadata>
    <rdf:RDF>
      <cc:Work rdf:about="">
        <dc:format>image/svg+xml</dc:format>
        <dc:type rdf:resource="http://purl.org/dc/dcmitype/StillImage"/>
        <dc:title>公園; Park</dc:title>
        <dc:source>http://www.ecomo.or.jp/barrierfree/pictogram/data/zukigo_panfu_jis110.pdf</dc:source>
      </cc:Work>
    </rdf:RDF>
  </metadata>
  <path d="m 7.7861277,56.032378 c -1.7775,0 -3.2175,-1.44 -3.2175,-3.21625 l 0,-45.0300003 c 0,-1.77625 1.44,-3.2175 3.2175,-3.2175 l 45.0300003,0 c 1.77625,0 3.21625,1.44125 3.21625,3.2175 l 0,45.0300003 c 0,1.77625 -1.44,3.21625 -3.21625,3.21625 l -45.0300003,0 z" style="fill:#ffffff;fill-opacity:1;stroke:#000;stroke-width:0.60625005;stroke-linecap:butt;stroke-linejoin:miter;stroke-miterlimit:4;stroke-dasharray:none;stroke-opacity:1"/>
  <path d="m 37.081129,39.983627 -0.60875,2.0975 9.9275,0 0.61,-2.0975 -9.92875,0 z m -2.32875,2.1 1.82625,-6.6875 13.3575,0 -1.8275,6.6875 1.9525,7.2825 -1.78125,0 -1.49125,-5.5625 -3.5925,0 -1.49,5.5625 -1.7825,0 1.49125,-5.5625 -4.42125,0 1.49125,5.5625 -1.7825,0 -1.48875,-5.5625 -3.59375,0 -1.49125,5.5625 -1.78125,0 1.9525,-7.2825 4.4525,0" style="fill:#000;fill-opacity:1;fill-rule:nonzero;stroke:none"/>
  <path d="m 23.733628,34.772377 -0.42,-3.995 c 0.55125,-0.05625 1.08875,-0.15375 1.6125,-0.29125 0.3,0.4075 0.65,0.775 1.04,1.0975 l -2.2325,3.18875 z m -4.8625,-0.4475 c 0.68125,-0.26 1.31875,-0.61 1.89375,-1.0375 l -0.36625,3.44875 -1.5275,-2.41125 z m 14.02625,-12.8975 c 0.0575,-0.4575 0.08875,-0.9225 0.08875,-1.39375 0,-5.96875 -4.83875,-10.8087503 -10.8075,-10.8087503 -5.9675,0 -10.8075,4.8400003 -10.8075,10.8087503 0,0.07875 0.0025,0.15625 0.0038,0.235 -2.0562503,1.45375 -3.4000003,3.8475 -3.4000003,6.55625 0,4.43375 3.5962503,8.02875 8.0287503,8.02875 0.53,0 1.0475,-0.0525 1.55,-0.15 l 2.49625,5.3525 -0.95875,9.31 6.17625,0 -1.205,-11.46 2.98125,-5.605 c 0.85375,0.44625 1.82375,0.7 2.855,0.7 3.41,0 6.175,-2.765 6.175,-6.17625 0,-2.32125 -1.2825,-4.34375 -3.17625,-5.3975" style="fill:#000;fill-opacity:1;fill-rule:nonzero;stroke:none"/>
</svg>
