<?xml version='1.0' encoding='UTF-8' standalone='no'?>
<svg xmlns:cc="http://creativecommons.org/ns#" xmlns:dc="http://purl.org/dc/elements/1.1/" height="60.601002" xmlns:rdf="http://www.w3.org/1999/02/22-rdf-syntax-ns#" xmlns:svg="http://www.w3.org/2000/svg" version="1.1" viewBox="0 0 60.601004 60.601004" width="60.601002" xmlns="http://www.w3.org/2000/svg">
  <defs/>
  <metadata>
    <rdf:RDF>
      <cc:Work rdf:about="">
        <dc:format>image/svg+xml</dc:format>
        <dc:type rdf:resource="http://purl.org/dc/dcmitype/StillImage"/>
        <dc:title>博物館／美術館; Museum</dc:title>
        <dc:source>http://www.ecomo.or.jp/barrierfree/pictogram/data/zukigo_panfu_jis110.pdf</dc:source>
      </cc:Work>
    </rdf:RDF>
  </metadata>
  <path d="m 7.7842527,56.033003 c -1.77625,0 -3.21625,-1.44 -3.21625,-3.2175 l 0,-45.0300003 c 0,-1.77625 1.44,-3.2175 3.21625,-3.2175 l 45.0312503,0 c 1.7775,0 3.2175,1.44125 3.2175,3.2175 l 0,45.0300003 c 0,1.7775 -1.44,3.2175 -3.2175,3.2175 l -45.0312503,0 z" style="fill:#ffffff;fill-opacity:1;stroke:#000;stroke-width:0.60625005;stroke-linecap:butt;stroke-linejoin:miter;stroke-miterlimit:4;stroke-dasharray:none;stroke-opacity:1"/>
  <path d="m 30.300505,14.494251 8.99625,5.19375 -17.9925,0 8.99625,-5.19375 z m 16.71625,5.19375 -16.71625,-9.65 -16.71625,9.65 -3.8700003,0 0,3.85875 41.1712503,0 0,-3.85875 -3.86875,0" style="fill:#000;fill-opacity:1;fill-rule:nonzero;stroke:none"/>
  <path d="m 17.803004,28.093001 c 0,-0.0125 -0.0025,-0.02875 -0.0025,-0.04375 0,-0.71125 0.57625,-1.28625 1.285,-1.28625 l 0.27875,0 0,-1.93 -7.075,0 0,1.93 0.2775,0 c 0.70875,0 1.28625,0.575 1.28625,1.28625 0,0.015 -0.0013,0.03125 -0.0013,0.04375 l -0.5725,16.36125 -1.3125,0 0,2.25125 7.72,0 0,-2.25125 -1.3125,0 -0.57125,-16.36125" style="fill:#000;fill-opacity:1;fill-rule:nonzero;stroke:none"/>
  <path d="m 27.451754,28.093001 c 0,-0.0125 -0.0013,-0.02875 -0.0013,-0.04375 0,-0.71125 0.575,-1.28625 1.28625,-1.28625 l 0.27625,0 0,-1.93 -7.07625,0 0,1.93 0.2775,0 c 0.71,0 1.2875,0.575 1.2875,1.28625 0,0.015 -0.0012,0.03125 -0.0037,0.04375 l -0.57125,16.36125 -1.31,0 0,2.25125 7.71875,0 0,-2.25125 -1.3125,0 -0.57125,-16.36125" style="fill:#000;fill-opacity:1;fill-rule:nonzero;stroke:none"/>
  <path d="m 37.101755,28.093001 c -0.0012,-0.0125 -0.0037,-0.02875 -0.0037,-0.04375 0,-0.71125 0.57875,-1.28625 1.2875,-1.28625 l 0.27875,0 0,-1.93 -7.07625,0 0,1.93 0.275,0 c 0.7125,0 1.2875,0.575 1.2875,1.28625 0,0.015 -0.0025,0.03125 -0.0025,0.04375 l -0.57,16.36125 -1.3125,0 0,2.25125 7.71875,0 0,-2.25125 -1.3125,0 -0.57,-16.36125" style="fill:#000;fill-opacity:1;fill-rule:nonzero;stroke:none"/>
  <path d="m 47.321756,44.454252 -0.57125,-16.36125 c -0.0012,-0.0125 -0.0025,-0.02875 -0.0025,-0.04375 0,-0.71125 0.57625,-1.28625 1.28625,-1.28625 l 0.2775,0 0,-1.93 -7.07625,0 0,1.93 0.27875,0 c 0.71,0 1.285,0.575 1.285,1.28625 0,0.015 -0.0012,0.03125 -0.0012,0.04375 l -0.5725,16.36125 -1.31125,0 0,2.25125 7.72,0 0,-2.25125 -1.3125,0" style="fill:#000;fill-opacity:1;fill-rule:nonzero;stroke:none"/>
  <path d="m 9.714253,47.991753 0,1.92875 41.171253,0 0,-1.92875 -41.171253,0 z" style="fill:#000;fill-opacity:1;fill-rule:nonzero;stroke:none"/>
</svg>
