<?xml version='1.0' encoding='UTF-8' standalone='no'?>
<svg xmlns:cc="http://creativecommons.org/ns#" xmlns:dc="http://purl.org/dc/elements/1.1/" height="60.601002" xmlns:rdf="http://www.w3.org/1999/02/22-rdf-syntax-ns#" xmlns:svg="http://www.w3.org/2000/svg" version="1.1" viewBox="0 0 60.601004 60.601004" width="60.601002" xmlns="http://www.w3.org/2000/svg">
  <defs/>
  <metadata>
    <rdf:RDF>
      <cc:Work rdf:about="">
        <dc:format>image/svg+xml</dc:format>
        <dc:type rdf:resource="http://purl.org/dc/dcmitype/StillImage"/>
        <dc:title>歴史的建造物１; Historical monument 1</dc:title>
        <dc:source>http://www.ecomo.or.jp/barrierfree/pictogram/data/zukigo_panfu_jis110.pdf</dc:source>
      </cc:Work>
    </rdf:RDF>
  </metadata>
  <path d="m 7.7848777,56.031128 c -1.77625,0 -3.21625,-1.43875 -3.21625,-3.21625 l 0,-45.0287503 c 0,-1.7775 1.44,-3.21625 3.21625,-3.21625 l 45.0312503,0 c 1.77625,0 3.21625,1.43875 3.21625,3.21625 l 0,45.0287503 c 0,1.7775 -1.44,3.21625 -3.21625,3.21625 l -45.0312503,0 z" style="fill:#ffffff;fill-opacity:1;stroke:#000;stroke-width:0.60625005;stroke-linecap:butt;stroke-linejoin:miter;stroke-miterlimit:4;stroke-dasharray:none;stroke-opacity:1"/>
  <path d="m 54.204881,27.279876 c -4.61,-1.60375 -8.39875,-4.83875 -10.6675,-9.08875 l 0.6675,-2.4425 -27.81,0 0.6625,2.43625 c -2.26875,4.25 -6.06,7.48625 -10.6687503,9.08875 2.23125,2 5.1387503,3.22375 8.3712503,3.22375 l 0,12.055 5.89375,0 0,-12.0525 3.21625,0 0,12.0525 3.21625,0 0,-12.0525 6.4325,0 0,12.0525 3.21625,0 0,-12.0525 3.2175,0 0,12.0525 5.8925,0 0,-12.0525 -0.01,0 c 3.23125,0 6.13875,-1.22125 8.37,-3.22" style="fill:#000;fill-opacity:1;fill-rule:nonzero;stroke:none"/>
  <path d="m 14.759879,44.159877 0,1.6075 31.085001,0 0,-1.6075 -31.085001,0 z" style="fill:#000;fill-opacity:1;fill-rule:nonzero;stroke:none"/>
</svg>
