<?xml version='1.0' encoding='UTF-8' standalone='no'?>
<svg xmlns:cc="http://creativecommons.org/ns#" xmlns:dc="http://purl.org/dc/elements/1.1/" height="60.601002" xmlns:rdf="http://www.w3.org/1999/02/22-rdf-syntax-ns#" xmlns:svg="http://www.w3.org/2000/svg" version="1.1" viewBox="0 0 60.601004 60.601004" width="60.601002" xmlns="http://www.w3.org/2000/svg">
  <defs/>
  <metadata>
    <rdf:RDF>
      <cc:Work rdf:about="">
        <dc:format>image/svg+xml</dc:format>
        <dc:type rdf:resource="http://purl.org/dc/dcmitype/StillImage"/>
        <dc:title>歴史的建造物３; Historical monument 3</dc:title>
        <dc:source>http://www.ecomo.or.jp/barrierfree/pictogram/data/zukigo_panfu_jis110.pdf</dc:source>
      </cc:Work>
    </rdf:RDF>
  </metadata>
  <path d="m 7.7842527,56.031128 c -1.77625,0 -3.21625,-1.43875 -3.21625,-3.215 l 0,-45.0300003 c 0,-1.77625 1.44,-3.21625 3.21625,-3.21625 l 45.0300003,0 c 1.77625,0 3.21875,1.44 3.21875,3.21625 l 0,45.0300003 c 0,1.77625 -1.4425,3.215 -3.21875,3.215 l -45.0300003,0 z" style="fill:#ffffff;fill-opacity:1;stroke:#000;stroke-width:0.60625005;stroke-linecap:butt;stroke-linejoin:miter;stroke-miterlimit:4;stroke-dasharray:none;stroke-opacity:1"/>
  <path d="m 35.126755,23.712376 0,3.21625 -1.60875,0 0,-3.21625 1.60875,0 z m 0,3.21625 z m 0,7.07625 0,3.21625 -1.60875,0 0,-3.21625 1.60875,0 z m 0,3.21625 z m -4.02125,-13.50875 0,3.21625 -1.608875,0 0,-3.21625 1.608875,0 z m 0,3.21625 z m 0,7.07625 0,3.21625 -1.608875,0 0,-3.21625 1.608875,0 z m 0,3.21625 z m -4.02,-13.50875 0,3.21625 -1.60875,0 0,-3.21625 1.60875,0 z m 0,3.21625 z m 0,7.07625 0,3.21625 -1.60875,0 0,-3.21625 1.60875,0 z m 0,3.21625 z m 11.25625,0 0,-3.97125 c 2.385,-0.1975 4.60875,-1.1125 6.29625,-2.6425 -2.6075,-0.7975 -4.98125,-2.07625 -7.1,-3.67875 l 0,-3.945 c 2.15625,-0.28375 4.03,-1.20625 5.4925,-2.66875 -4.58375,-0.93375 -8.68875,-3.1525 -11.925,-6.2825 l -0.4825,-6.5950003 -0.6425,0 -0.48375,6.5950003 c -3.235,3.125 -7.345,5.35 -11.92375,6.2825 1.46375,1.4625 3.3375,2.385 5.49125,2.66875 l 0,3.945 c -2.11625,1.6025 -4.49125,2.88125 -7.09875,3.67875 1.68625,1.53 3.91125,2.445 6.295,2.6425 l 0,3.97125 c -2.1175,1.6025 -4.4925,2.88125 -7.1,3.6775 1.6875,1.5325 3.9125,2.445 6.29625,2.64375 l 0,7.2625 17.69,0 0,-7.2625 c 2.38375,-0.19875 4.60875,-1.11125 6.295,-2.64375 -2.6075,-0.79625 -4.98125,-2.075 -7.1,-3.6775" style="fill:#000;fill-opacity:1;fill-rule:nonzero;stroke:none"/>
</svg>
