<?xml version='1.0' encoding='UTF-8' standalone='no'?>
<svg xmlns:cc="http://creativecommons.org/ns#" xmlns:dc="http://purl.org/dc/elements/1.1/" height="60.601002" xmlns:rdf="http://www.w3.org/1999/02/22-rdf-syntax-ns#" xmlns:svg="http://www.w3.org/2000/svg" version="1.1" viewBox="0 0 60.601004 60.601004" width="60.601002" xmlns="http://www.w3.org/2000/svg">
  <defs/>
  <metadata>
    <rdf:RDF>
      <cc:Work rdf:about="">
        <dc:format>image/svg+xml</dc:format>
        <dc:type rdf:resource="http://purl.org/dc/dcmitype/StillImage"/>
        <dc:title>飲食禁止; Do not eat or drink here</dc:title>
        <dc:source>http://www.ecomo.or.jp/barrierfree/pictogram/data/zukigo_panfu_jis110.pdf</dc:source>
      </cc:Work>
    </rdf:RDF>
  </metadata>
  <path d="m 16.169876,44.688003 c 0,1.09875 0.8925,1.99125 1.9925,1.99125 l 11.9475,0 c 1.1,0 1.9925,-0.8925 1.9925,-1.99125 l 0,-1.66 -15.9325,0 0,1.66" style="fill:#000;fill-opacity:1;fill-rule:nonzero;stroke:none"/>
  <path d="m 32.627377,19.803002 -2.375,-8.94875 -2.115,0.56625 2.22625,8.3825 -4.86625,0 1.45625,10.36125 c -0.87625,-0.21375 -1.825,-0.33125 -2.8175,-0.33125 -4.40125,0 -7.96625,2.30125 -7.96625,5.1425 l 15.9325,0 c 0,-1.5725 -1.0925,-2.97625 -2.8125,-3.92125 l -1.27375,-9.06 13.3725,0 -2.95625,21.03375 -5.05875,0 0,2.1875 6.9625,0 3.57125,-25.4125 -11.28,0" style="fill:#000;fill-opacity:1;fill-rule:nonzero;stroke:none"/>
  <path d="m 20.991126,36.703003 c 0.47,0 0.92375,0.07 1.315,0.205 0.5525,0.195 1.18625,0.29875 1.83,0.29875 0.645,0 1.28,-0.10375 1.83125,-0.29875 0.39125,-0.135 0.845,-0.205 1.315,-0.205 0.45875,0 0.9075,0.07 1.29125,0.20125 0.56125,0.19875 1.19875,0.3025 1.845,0.3025 0.5875,0 1.1675,-0.085 1.68375,-0.24875 l 0,-1.165 c -0.1225,0.03125 -0.24125,0.06625 -0.35625,0.10625 -0.3975,0.14 -0.855,0.21375 -1.3275,0.21375 -0.4725,0 -0.935,-0.07625 -1.34375,-0.22 -0.5475,-0.1875 -1.1675,-0.285 -1.7925,-0.285 -0.64,0 -1.2675,0.1 -1.8175,0.29125 -0.3975,0.1375 -0.85625,0.21375 -1.32875,0.21375 -0.47125,0 -0.93125,-0.07625 -1.3275,-0.21375 -0.55125,-0.19125 -1.17875,-0.29125 -1.8175,-0.29125 -0.62625,0 -1.24625,0.0975 -1.79375,0.285 -0.4075,0.14375 -0.87,0.22 -1.3425,0.22 -0.4725,0 -0.93125,-0.07375 -1.32875,-0.21375 -0.115,-0.04 -0.23375,-0.075 -0.35625,-0.10625 l 0,1.165 c 0.51625,0.16375 1.09625,0.24875 1.685,0.24875 0.645,0 1.2825,-0.10375 1.84375,-0.3025 0.385,-0.13125 0.83375,-0.20125 1.2925,-0.20125" style="fill:#000;fill-opacity:1;fill-rule:nonzero;stroke:none"/>
  <path d="m 15.742376,37.839253 c -0.14,0.36 -0.2175,0.7525 -0.2175,1.1625 0,0.41 0.0775,0.80125 0.2175,1.1625 l 16.7875,0 c 0.13875,-0.36125 0.21625,-0.7525 0.21625,-1.1625 0,-0.41 -0.0775,-0.8025 -0.21625,-1.1625 l -16.7875,0" style="fill:#000;fill-opacity:1;fill-rule:nonzero;stroke:none"/>
  <path d="m 17.853626,41.891753 c 0.47375,0 0.93625,0.075 1.34375,0.22 0.5475,0.18625 1.1675,0.28375 1.7925,0.28375 0.63875,0 1.2675,-0.09875 1.81875,-0.29125 0.39625,-0.1375 0.85625,-0.2125 1.3275,-0.2125 0.4725,0 0.93125,0.075 1.32875,0.2125 0.55,0.1925 1.1775,0.29125 1.8175,0.29125 0.625,0 1.24375,-0.0975 1.7925,-0.28375 0.40875,-0.145 0.87125,-0.22 1.34375,-0.22 0.4725,0 0.93,0.0725 1.3275,0.2125 0.115,0.04 0.23375,0.07625 0.35625,0.10625 l 0,-1.165 c -0.51625,-0.16375 -1.09625,-0.25125 -1.68375,-0.25125 -0.6475,0 -1.285,0.1075 -1.845,0.30625 -0.38375,0.13 -0.8325,0.20125 -1.29125,0.20125 -0.47125,0 -0.925,-0.07125 -1.315,-0.20625 -0.5525,-0.19375 -1.1875,-0.29875 -1.83125,-0.29875 -0.64375,0 -1.27875,0.105 -1.83,0.29875 -0.39125,0.135 -0.845,0.20625 -1.31625,0.20625 -0.4575,0 -0.90625,-0.07125 -1.29125,-0.20125 -0.56125,-0.19875 -1.19875,-0.30625 -1.845,-0.30625 -0.58875,0 -1.1675,0.0875 -1.68625,0.25125 l 0,1.165 c 0.12375,-0.03 0.2425,-0.06625 0.3575,-0.10625 0.39875,-0.14 0.85625,-0.2125 1.32875,-0.2125" style="fill:#000;fill-opacity:1;fill-rule:nonzero;stroke:none"/>
  <path d="m 47.236128,44.138003 -30.775,-30.77125 c 3.775,-3.1075 8.61375,-4.9737503 13.88375,-4.9737503 12.07125,0 21.86125,9.7875003 21.86125,21.8637503 0,5.27125 -1.86625,10.1075 -4.97,13.88125 z m -16.89125,7.98375 c -12.07625,0 -21.8650003,-9.7875 -21.8650003,-21.865 0,-5.2275 1.8375003,-10.025 4.8987503,-13.7875 l 30.75375,30.75 c -3.76125,3.0625 -8.56,4.9025 -13.7875,4.9025 z M 30.301128,2.9705027 c -15.09375,0 -27.3300003,12.2362503 -27.3300003,27.3312503 0,15.0925 12.2362503,27.32875 27.3300003,27.32875 15.0925,0 27.32875,-12.23625 27.32875,-27.32875 0,-15.095 -12.23625,-27.3312503 -27.32875,-27.3312503" style="fill:#ed1c24;fill-opacity:1;fill-rule:nonzero;stroke:none"/>
</svg>
