<?xml version='1.0' encoding='UTF-8' standalone='no'?>
<svg xmlns:cc="http://creativecommons.org/ns#" xmlns:dc="http://purl.org/dc/elements/1.1/" height="60.601002" xmlns:rdf="http://www.w3.org/1999/02/22-rdf-syntax-ns#" xmlns:svg="http://www.w3.org/2000/svg" version="1.1" viewBox="0 0 60.601004 60.601004" width="60.601002" xmlns="http://www.w3.org/2000/svg">
  <defs/>
  <metadata>
    <rdf:RDF>
      <cc:Work rdf:about="">
        <dc:format>image/svg+xml</dc:format>
        <dc:type rdf:resource="http://purl.org/dc/dcmitype/StillImage"/>
        <dc:title>ペット持ち込み禁止; No uncaged animals</dc:title>
        <dc:source>http://www.ecomo.or.jp/barrierfree/pictogram/data/zukigo_panfu_jis110.pdf</dc:source>
      </cc:Work>
    </rdf:RDF>
  </metadata>
  <path d="m 49.006128,26.054252 c 0.28125,0.16125 0.47,0.4625 0.47,0.8075 0,0.1425 -0.0325,0.275 -0.08875,0.39375 l -3.4225,7.34625 -1.225,-1.88375 -1.16375,0.75625 -1.1625,-1.79125 -1.16375,0.75875 -1.095,-1.68375 -1.71625,2.97375 0.915,10.45375 -6.23125,0 -1.10625,-6.98125 -6.62875,0 c -1.50625,0 -2.77375,1.025 -3.14625,2.415 l -1.2225,4.56625 -6.17,0 1.67625,-15.9475 c -0.71,-0.8475 -1.1375,-1.94 -1.1375,-3.13375 0,-0.90875 0.25,-1.76125 0.68375,-2.49125 l 3.06375,3.655 13.58625,0 7.28875,-10.40875 c 0.08375,-0.11875 0.22375,-0.19875 0.38,-0.19875 0.2575,0 0.465,0.20875 0.465,0.46625 l 0,5.26 8.15125,4.6675" style="fill:#000;fill-opacity:1;fill-rule:nonzero;stroke:none"/>
  <path d="m 47.233628,44.140503 -30.7725,-30.7725 c 3.775,-3.10625 8.61125,-4.9725003 13.8825,-4.9725003 12.07375,0 21.8625,9.7875003 21.8625,21.8625003 0,5.27125 -1.865,10.1075 -4.9725,13.8825 z m -16.89,7.9825 c -12.075,0 -21.8637503,-9.7875 -21.8637503,-21.865 0,-5.22625 1.8375003,-10.025 4.8987503,-13.7875 l 30.75375,30.75 c -3.76125,3.0625 -8.56,4.9025 -13.78875,4.9025 z M 30.299878,2.9692527 c -15.0925,0 -27.3287503,12.2387503 -27.3287503,27.3337503 0,15.0925 12.2362503,27.32875 27.3287503,27.32875 15.09375,0 27.33,-12.23625 27.33,-27.32875 0,-15.095 -12.23625,-27.3337503 -27.33,-27.3337503" style="fill:#ed1c24;fill-opacity:1;fill-rule:nonzero;stroke:none"/>
</svg>
