<?xml version='1.0' encoding='UTF-8' standalone='no'?>
<svg xmlns:cc="http://creativecommons.org/ns#" xmlns:dc="http://purl.org/dc/elements/1.1/" height="60.601002" xmlns:rdf="http://www.w3.org/1999/02/22-rdf-syntax-ns#" xmlns:svg="http://www.w3.org/2000/svg" version="1.1" viewBox="0 0 60.601004 60.601004" width="60.601002" xmlns="http://www.w3.org/2000/svg">
  <defs/>
  <metadata>
    <rdf:RDF>
      <cc:Work rdf:about="">
        <dc:format>image/svg+xml</dc:format>
        <dc:type rdf:resource="http://purl.org/dc/dcmitype/StillImage"/>
        <dc:title>自然保護; Nature reserve</dc:title>
        <dc:source>http://www.ecomo.or.jp/barrierfree/pictogram/data/zukigo_panfu_jis110.pdf</dc:source>
      </cc:Work>
    </rdf:RDF>
  </metadata>
  <path d="m 56.043629,56.043629 0,-51.486253 -51.486253,0 0,51.486253 51.486253,0 z" style="fill:#ffffff;fill-opacity:1;stroke:#000;stroke-width:0.60625005;stroke-linecap:butt;stroke-linejoin:miter;stroke-miterlimit:4;stroke-dasharray:none;stroke-opacity:1"/>
  <path d="m 47.154879,29.464878 c -0.015,-0.3675 -0.09125,-0.75375 -0.17,-1.05875 1.08875,-0.09 2.215,-0.86875 2.52375,-1.79375 0.07875,-0.23875 -0.04875,-0.495 -0.28875,-0.575 -0.23625,-0.08 -0.495,0.04875 -0.5725,0.2875 -0.20875,0.6225 -1.0975,1.19125 -1.86625,1.19125 l -1.16375,0 c -0.72625,-0.22125 -1.67,-0.7825 -2.16,-2.21 -0.08125,-0.2375 -0.34,-0.365 -0.57625,-0.2825 -0.2375,0.08125 -0.36375,0.33875 -0.2825,0.57625 0.30125,0.88125 0.75625,1.4875 1.2325,1.91625 l -1.465,0 c -1.245,0 -3.12375,-1.07 -3.12375,-2.68125 0,-0.25125 -0.2025,-0.455 -0.45375,-0.455 -0.25125,0 -0.455,0.20375 -0.455,0.455 0,2.22375 2.34875,3.58875 4.0325,3.58875 l 4.15375,0 c 0.07875,0.29 0.165,0.68375 0.18375,1.04125 -1.33375,0 -2.8625,0 -3.3425,0 -0.0525,1.27625 2.12875,1.735 2.12875,1.735 l -2.54125,3.7725 c 0,0 -9.85875,0 -10.38625,0 -0.525,0 -0.935,0.17875 -1.13375,0.39125 -0.20125,0.21375 -2.4325,2.54125 -2.4325,2.54125 l 0.81625,0.955 0.055,1.30625 0.91,1.30625 -1.93,2.005 0,8.155 1.30875,0 0,-6.81125 1.18875,-0.90875 3.2925,7.72 1.40125,0 -2.8225,-8.23 0.73875,-1.66875 c 1.995,0 6.5175,0 8.14375,0 l -1.8425,9.89875 1.28625,0 1.7125,-8.3875 2.38,8.4075 1.40375,0 -2.7525,-10.12375 c 0.69125,-0.48125 1.22375,-1.75125 1.47375,-2.40875 0.36875,-0.975 2.495,-6.30375 2.495,-6.30375 l 3.83125,-2.34 0,-1.01125 c 0,0 -3.04375,0 -4.93125,0" style="fill:#000;fill-opacity:1;fill-rule:nonzero;stroke:none"/>
  <path d="m 20.728677,34.092378 c -0.43,-1.41 -1.6025,-3.1725 -2.8175,-4.66875 0.815,0.4575 1.75875,0.7325 2.8175,0.7325 1.05875,0 2.00125,-0.275 2.81625,-0.7325 -1.21375,1.49625 -2.3875,3.25875 -2.81625,4.66875 z m 12.4875,-17.7875 c 0,-2.65125 -1.77625,-5.67625 -6.58375,-5.67625 -0.24625,0 -0.48625,0.0125 -0.725,0.035 -0.54125,-1.9274997 -2.29375,-3.1387497 -5.17875,-3.1387497 -2.88625,0 -4.63625,1.21125 -5.18,3.1387497 -0.2375,-0.0225 -0.48,-0.035 -0.725,-0.035 -4.81,0 -6.5837497,3.025 -6.5837497,5.67625 0,1.3475 0.54625,2.58375 1.4575,3.55625 -0.91125,0.97375 -1.4575,2.21125 -1.4575,3.55875 0,3.135 2.9462497,5.67625 6.5837497,5.67625 0.16,0 0.31125,-0.025 0.4675,-0.03375 1.185,1.60875 2.71125,3.915 3.3175,5.63625 l 0,17.105 4.24,0 0,-17.105 c 0.60625,-1.72125 2.13125,-4.0275 3.315,-5.63625 0.1575,0.0087 0.30875,0.03375 0.46875,0.03375 3.635,0 6.58375,-2.54125 6.58375,-5.67625 0,-1.3475 -0.54625,-2.585 -1.45625,-3.55875 0.91,-0.9725 1.45625,-2.20875 1.45625,-3.55625" style="fill:#000;fill-opacity:1;fill-rule:nonzero;stroke:none"/>
</svg>
