<?xml version='1.0' encoding='UTF-8' standalone='no'?>
<svg xmlns:cc="http://creativecommons.org/ns#" xmlns:dc="http://purl.org/dc/elements/1.1/" height="60.601002" xmlns:rdf="http://www.w3.org/1999/02/22-rdf-syntax-ns#" xmlns:svg="http://www.w3.org/2000/svg" version="1.1" viewBox="0 0 60.601004 60.601004" width="60.601002" xmlns="http://www.w3.org/2000/svg">
  <defs/>
  <metadata>
    <rdf:RDF>
      <cc:Work rdf:about="">
        <dc:format>image/svg+xml</dc:format>
        <dc:type rdf:resource="http://purl.org/dc/dcmitype/StillImage"/>
        <dc:title>スポーツ活動; Sporting activities</dc:title>
        <dc:source>http://www.ecomo.or.jp/barrierfree/pictogram/data/zukigo_panfu_jis110.pdf</dc:source>
      </cc:Work>
    </rdf:RDF>
  </metadata>
  <path d="m 56.044254,56.043629 0,-51.4862528 -51.4875029,0 0,51.4862528 51.4875029,0 z" style="fill:#ffffff;stroke:#000;stroke-width:0.60625005;stroke-linecap:butt;stroke-linejoin:miter;stroke-miterlimit:4;stroke-dasharray:none;stroke-opacity:1;fill-opacity:1"/>
  <path d="m 34.369253,46.624879 c -0.8375,-0.05875 -1.4375,0.24125 -1.3125,1.195 0.0625,0.47625 0.4625,2.1975 0.65,2.58625 0.25,0.47875 0.9625,0.71625 1.675,0.71625 1.1875,0 5.725,0 7.5125,0 1.8,0 2.3875,-1.63375 2.6875,-3.4825 0.325,-1.975 5.825,-39.0762498 5.825,-39.0762498 l -1.625,0 c 0,0 -5.0125,33.8387498 -5.3375,35.6162498 -0.4125,2.3275 -0.7625,2.98375 -2.625,2.9225 -1.55,-0.05 -6.375,-0.4 -7.45,-0.4775" style="fill:#000;fill-opacity:1;fill-rule:nonzero;stroke:none"/>
  <path d="m 40.119253,37.656128 c -0.25,-0.21375 -0.5375,-0.45 -0.85,-0.67875 0.0375,-0.59 0.1,-1.9975 0.025,-2.995 0.2875,-0.71 0.5125,-1.4725 0.6875,-2.20625 0.2875,0.02375 0.6125,0.05 0.875,0.0825 0.125,0.60375 0.2,1.22625 0.2,1.86125 0,1.41625 -0.35,2.75 -0.9375,3.93625 z m -4.5375,4.235 -0.625,-0.605 c 0.6375,-0.665 1.3,-1.5525 1.8125,-2.55 0.4625,-0.23 1.3375,-0.67625 1.975,-1.0975 0.375,0.27 0.7,0.545 0.95,0.77 -0.975,1.5475 -2.4125,2.77625 -4.1125,3.4825 z m -10.675,-3.1925 c 0.3625,-0.19375 0.7375,-0.5375 1.1875,-0.735 0.675,0.54375 1.7125,1.10625 2.6375,1.2075 0.4375,0.88875 1.0375,1.75125 1.6375,2.355 -0.2125,0.235 -0.4625,0.4625 -0.725,0.6575 -1.375,-0.415 -2.6375,-1.16625 -3.675,-2.2125 -0.4,-0.395 -0.75,-0.8225 -1.0625,-1.2725 z m -1.425,-6.3175 c 0.3125,-0.14375 0.625,-0.2875 0.8875,-0.3925 0.375,0.78875 0.9125,1.6775 1.5,2.35375 -0.25,0.89625 -0.3875,1.90125 -0.2375,2.8475 -0.3875,0.21125 -0.8375,0.49375 -1.1625,0.78875 -0.7125,-1.29 -1.1,-2.7425 -1.1,-4.25875 0,-0.4525 0.05,-0.9 0.1125,-1.33875 z m 11.15,-2.67375 0.6625,-1.42375 c 0.85,0.05 1.725,0.13375 2.6125,0.23625 0.4875,0.7225 1.05,1.68875 1.3625,2.4625 -0.1125,0.6925 -0.3125,1.44375 -0.5625,2.165 -0.575,-0.025 -1.3125,0.0125 -1.8875,0.02375 -0.45,-1.0625 -1.2875,-2.525 -2.1875,-3.46375 z m 0.0875,6.67875 c -1.125,0.06 -2.4375,0.06 -3.5375,0.01 -0.625,-0.82375 -1.05,-1.81625 -1.4,-2.86625 0.2625,-0.93875 0.825,-2.24625 1.3375,-3.14875 l 2.95,-0.04125 c 0.7625,0.80375 1.5,2.08625 1.9375,3.05125 -0.175,0.74875 -0.5375,2.0675 -1.2875,2.995 z m -8.5625,-7.455 c 1.125,-0.25125 2.3,-0.435 3.5375,-0.55375 0.2375,0.41875 0.55,0.985 0.8,1.41125 -0.5625,0.93375 -1.15,2.2775 -1.4625,3.30125 -0.75,0.2075 -1.825,0.5025 -2.55,0.6775 -0.6,-0.71 -1.2,-1.745 -1.5625,-2.595 0.325,-0.76 0.85,-1.71625 1.2375,-2.24125 z m 5.6375,-2.84625 c -0.6375,0.295 -1.525,0.93875 -2.125,1.45 -1.15,0.10875 -2.275,0.27375 -3.3375,0.4975 -0.0125,-0.26375 -0.025,-0.57375 0,-0.89625 1.4875,-1.335 3.35,-2.11125 5.35,-2.23 l 0.1125,1.17875 z m 5.6625,1.54 c -0.9,-0.09 -1.8,-0.16375 -2.6625,-0.20375 -0.5375,-0.39625 -1.6375,-1.19875 -2.1,-1.33625 0,-0.4175 -0.1625,-1.19 -0.1625,-1.19 1.8,0.0625 3.5125,0.66875 4.95,1.74 0.025,0.3375 0.0125,0.7025 -0.025,0.99 z m -3.6125,13.5575 c -0.85,0.075 -1.9375,0.04625 -2.6375,-0.01875 -0.5375,-0.46625 -1.1875,-1.32125 -1.675,-2.26375 0.425,-0.39625 0.9,-1.07375 1.2875,-1.68375 1.1625,0.0675 2.625,0.0775 3.875,0.01375 0.375,0.3425 0.9,0.84 1.275,1.205 -0.6375,1.215 -1.5,2.205 -2.125,2.7475 z m 5.3,-14.3875 c -1.85,-1.85 -4.3125,-2.86875 -6.925,-2.86875 -5.4,0 -9.8,4.39375 -9.8,9.79375 0,2.6175 1.025,5.07625 2.875,6.92625 1.85,1.84875 4.3,2.86875 6.925,2.86875 2.6125,0 5.075,-1.02 6.925,-2.86875 1.85,-1.85 2.8625,-4.30875 2.8625,-6.92625 0,-2.615 -1.0125,-5.075 -2.8625,-6.925" style="fill:#000;fill-opacity:1;fill-rule:nonzero;stroke:none"/>
  <path d="m 18.406752,51.803629 0,-12.05 c 0,0 -0.275,-0.085 -0.425,-0.26875 -0.1875,-0.23375 -0.1875,-0.63625 -0.1875,-1.085 0,-2.3375 0,-9.01625 0,-9.4175 0,-0.965 0.2375,-1.36125 2.1875,-2.395 0.7125,-0.37875 1.4125,-0.8425 2.0125,-1.4475 1.7,-1.6925 2.6625,-4.14875 2.6625,-6.74 0,-4.90875 -3.45,-8.9012498 -7.6875,-8.9012498 -4.2375,0 -7.6749998,3.9924998 -7.6749998,8.9012498 0,2.59125 0.9624998,5.0475 2.6624998,6.74 0.6,0.605 1.2875,1.06875 2.0125,1.4475 1.95,1.03375 2.1875,1.43 2.1875,2.395 0,0.40125 0,7.08 0,9.4175 0,0.44875 0,0.85125 -0.1875,1.085 -0.15,0.18375 -0.425,0.26875 -0.425,0.26875 l 0,12.05 2.8625,0" style="fill:#000;fill-opacity:1;fill-rule:nonzero;stroke:none"/>
  <path d="m 16.969252,25.868627 c 1.4625,0 2.8875,-0.62 4.0125,-1.7425 1.425,-1.42375 2.25,-3.5125 2.25,-5.72625 0,-2.21625 -0.825,-4.3025 -2.25,-5.72875 -1.125,-1.1225 -2.55,-1.74 -4.0125,-1.74 -1.4625,0 -2.8875,0.6175 -4.0125,1.74 -1.4125,1.42625 -2.2375,3.5125 -2.2375,5.72875 0,2.21375 0.825,4.3025 2.2375,5.72625 1.125,1.1225 2.55,1.7425 4.0125,1.7425" style="fill:#ffffff;fill-opacity:1;fill-rule:nonzero;stroke:none"/>
</svg>
