<?xml version='1.0' encoding='UTF-8' standalone='no'?>
<svg xmlns:cc="http://creativecommons.org/ns#" xmlns:dc="http://purl.org/dc/elements/1.1/" height="60.601002" xmlns:rdf="http://www.w3.org/1999/02/22-rdf-syntax-ns#" xmlns:svg="http://www.w3.org/2000/svg" version="1.1" viewBox="0 0 60.601004 60.601004" width="60.601002" xmlns="http://www.w3.org/2000/svg">
  <defs/>
  <metadata>
    <rdf:RDF>
      <cc:Work rdf:about="">
        <dc:format>image/svg+xml</dc:format>
        <dc:type rdf:resource="http://purl.org/dc/dcmitype/StillImage"/>
        <dc:title>腰掛け式リフト; Chair lift</dc:title>
        <dc:source>http://www.ecomo.or.jp/barrierfree/pictogram/data/zukigo_panfu_jis110.pdf</dc:source>
      </cc:Work>
    </rdf:RDF>
  </metadata>
  <path d="m 56.043629,56.044254 0,-51.4875028 -51.4862526,0 0,51.4875028 51.4862526,0 z" style="fill:#ffffff;fill-opacity:1;stroke:#000;stroke-width:0.60625005;stroke-linecap:butt;stroke-linejoin:miter;stroke-miterlimit:4;stroke-dasharray:none;stroke-opacity:1"/>
  <path d="m 6.5486259,25.729252 20.3562501,-7.21125 0,2.0125 c 0,0.52875 -0.585,0.8075 -1.8275,1.27375 -1.3625,0.5125 -3.23125,1.21375 -3.23125,3.295 l 0,17.90375 c 0,3.66625 2.7975,5.335 5.39625,5.335 l 6.1525,0 0,-1.69625 -6.1525,0 c -1.7075,0 -3.69875,-0.95125 -3.69875,-3.63875 l 0,-17.90375 c 0,-0.8175 0.68125,-1.16375 2.13125,-1.7075 1.30375,-0.49 2.92625,-1.09875 2.92625,-2.86125 l 0,-2.615 24.91375,-8.8224998 0.01125,-1.5025 -46.9825001,16.6374998 0.005,1.50125" style="fill:#000;fill-opacity:1;fill-rule:nonzero;stroke:none"/>
  <path d="m 30.118628,27.503002 c 0,1.3925 -1.13,2.52125 -2.52375,2.52125 -1.39375,0 -2.5225,-1.12875 -2.5225,-2.52125 0,-1.395 1.12875,-2.52375 2.5225,-2.52375 1.39375,0 2.52375,1.12875 2.52375,2.52375" style="fill:#000;fill-opacity:1;fill-rule:nonzero;stroke:none"/>
  <path d="m 36.076128,41.730503 c -0.0025,0 -0.0037,0 -0.005,0 l -5.81375,0 0,-1.9425 3.94375,0 c 0.705,0 1.275,-0.57 1.275,-1.27125 0,-0.705 -0.57,-1.27375 -1.275,-1.27375 l -3.94375,0 0,-3.61625 c 0,-1.46875 -1.1925,-2.6625 -2.6625,-2.6625 -1.47,0 -2.6625,1.19375 -2.6625,2.6625 l 0,8.78625 c 0,1.4725 1.1925,2.6625 2.6625,2.6625 l 7.20875,0 0,6.925 c 0,0.7025 0.57,1.2725 1.2725,1.2725 0.70125,0 1.27125,-0.57 1.27125,-1.2725 l 0,-8.9975 c 0,-0.7025 -0.57,-1.2725 -1.27125,-1.2725" style="fill:#000;fill-opacity:1;fill-rule:nonzero;stroke:none"/>
</svg>
