<?xml version='1.0' encoding='UTF-8' standalone='no'?>
<svg xmlns:cc="http://creativecommons.org/ns#" xmlns:dc="http://purl.org/dc/elements/1.1/" height="60.601002" xmlns:rdf="http://www.w3.org/1999/02/22-rdf-syntax-ns#" xmlns:svg="http://www.w3.org/2000/svg" version="1.1" viewBox="0 0 60.601004 60.601004" width="60.601002" xmlns="http://www.w3.org/2000/svg">
  <defs/>
  <metadata>
    <rdf:RDF>
      <cc:Work rdf:about="">
        <dc:format>image/svg+xml</dc:format>
        <dc:type rdf:resource="http://purl.org/dc/dcmitype/StillImage"/>
        <dc:title>安全バーを閉める; Close overhead safety bar</dc:title>
        <dc:source>http://www.ecomo.or.jp/barrierfree/pictogram/data/zukigo_panfu_jis110.pdf</dc:source>
      </cc:Work>
    </rdf:RDF>
  </metadata>
  <path d="m 56.043629,56.043629 0,-51.4862527 -51.4862523,0 0,51.4862527 51.4862523,0 z" style="fill:#ffffff;fill-opacity:1;stroke:#000;stroke-width:0.60625005;stroke-linecap:butt;stroke-linejoin:miter;stroke-miterlimit:4;stroke-dasharray:none;stroke-opacity:1"/>
  <path d="m 28.786127,21.906127 c 0,1.72375 -1.3975,3.12125 -3.12,3.12125 -1.72375,0 -3.1225,-1.3975 -3.1225,-3.12125 0,-1.72375 1.39875,-3.12125 3.1225,-3.12125 1.7225,0 3.12,1.3975 3.12,3.12125" style="fill:#000;fill-opacity:1;fill-rule:nonzero;stroke:none"/>
  <path d="m 36.172378,38.806128 -6.4825,0 0,-9.51625 c 0,-0.5375 -0.13125,-1.04375 -0.35625,-1.49375 l 4.74125,-3.87875 c 0.43875,-0.36 0.59375,-0.96375 0.37875,-1.4925 l -2.8225,-6.9575 c -0.27,-0.6625 -1.025,-0.9825 -1.68875,-0.7125 -0.505,0.20375 -0.81,0.68875 -0.81,1.2 0,0.16375 0.03125,0.3275 0.09625,0.48875 0,0 1.9175,4.72125 2.46375,6.07125 -0.735,0.60125 -2.87625,2.35375 -4.36125,3.56625 -0.31625,-0.09625 -0.65375,-0.15125 -1.00375,-0.15125 -1.855,0 -3.36,1.50625 -3.36,3.36 l 0,10.13125 c 0,1.85625 1.505,3.36 3.36,3.36 l 8.5675,0 0,7.71375 c 0,0.89 0.72,1.61 1.60875,1.61 0.89,0 1.61,-0.72 1.61,-1.61 l 0,-9.75 c 0,-1.07 -0.86875,-1.93875 -1.94125,-1.93875" style="fill:#000;fill-opacity:1;fill-rule:nonzero;stroke:none"/>
  <path d="m 46.078628,24.026127 c -1.58875,-6.53875 -4.3725,-9.2525 -6.70625,-11.52375 l -0.1775,-0.17 -4.13,4.23625 0.17875,0.1725 c 1.995,1.945 3.90625,3.80625 5.07625,8.60375 l -3.19,0.37625 7.39875,4.51125 4.57875,-7.2575 -3.02875,1.05125" style="fill:#000;fill-opacity:1;fill-rule:nonzero;stroke:none"/>
  <path d="m 23.838627,15.099877 0,-8.9637497 -2.25375,0 0,9.7912497 c 0.66625,-0.2425 1.42875,-0.52375 2.25375,-0.8275" style="fill:#000;fill-opacity:1;fill-rule:nonzero;stroke:none"/>
  <path d="m 21.559877,39.037378 0,-20.34 c -0.84625,0.31 -1.6125,0.59 -2.255,0.82375 l 0,10.58625 -3.00875,-8.2675 c -0.3275,-0.9 -0.4275,-1.46375 -0.305,-1.72375 0.15125,-0.3225 0.91,-0.625 1.555,-0.855 1.97875,-0.70125 17.3275,-6.35625 17.48125,-6.4125 l -0.58375,-1.5875 c -0.155,0.0575 -15.4925,5.7075 -17.4625,6.40875 -1.265,0.4475 -2.1275,0.8925 -2.51875,1.72625 -0.40125,0.85 -0.1925,1.82125 0.245,3.02125 l 4.5975,12.6325 0,3.9875 c 0,4.68 2.4025,7.25875 6.765,7.25875 l 7.3275,0 0,-2.255 -7.3275,0 c -3.07625,0 -4.51,-1.59125 -4.51,-5.00375" style="fill:#000;fill-opacity:1;fill-rule:nonzero;stroke:none"/>
</svg>
