<?xml version='1.0' encoding='UTF-8' standalone='no'?>
<svg xmlns:cc="http://creativecommons.org/ns#" xmlns:dc="http://purl.org/dc/elements/1.1/" height="60.601002" xmlns:rdf="http://www.w3.org/1999/02/22-rdf-syntax-ns#" xmlns:svg="http://www.w3.org/2000/svg" version="1.1" viewBox="0 0 60.601004 60.601004" width="60.601002" xmlns="http://www.w3.org/2000/svg">
  <defs/>
  <metadata>
    <rdf:RDF>
      <cc:Work rdf:about="">
        <dc:format>image/svg+xml</dc:format>
        <dc:type rdf:resource="http://purl.org/dc/dcmitype/StillImage"/>
        <dc:title>安全バーを開ける; Open overhead safety bar</dc:title>
        <dc:source>http://www.ecomo.or.jp/barrierfree/pictogram/data/zukigo_panfu_jis110.pdf</dc:source>
      </cc:Work>
    </rdf:RDF>
  </metadata>
  <path d="m 56.043629,56.043629 0,-51.4862528 -51.4862528,0 0,51.4862528 51.4862528,0 z" style="fill:#ffffff;fill-opacity:1;stroke:#000;stroke-width:0.60625005;stroke-linecap:butt;stroke-linejoin:miter;stroke-miterlimit:4;stroke-dasharray:none;stroke-opacity:1"/>
  <path d="m 45.743627,17.561127 c 4.345,5.13625 5.0875,9.0725 5.3875,13.25 l -5.85875,0.04 -0.03375,-0.24625 c -0.39375,-2.75875 -0.77,-5.4 -3.955,-9.1725 l -2.18625,2.3525 0.72125,-8.635 8.5625,0.58 -2.6375,1.83125" style="fill:#000;fill-opacity:1;fill-rule:nonzero;stroke:none"/>
  <path d="m 29.038627,20.151127 c 0,1.725 -1.39875,3.12125 -3.12125,3.12125 -1.72375,0 -3.12125,-1.39625 -3.12125,-3.12125 0,-1.72375 1.3975,-3.12125 3.12125,-3.12125 1.7225,0 3.12125,1.3975 3.12125,3.12125" style="fill:#000;fill-opacity:1;fill-rule:nonzero;stroke:none"/>
  <path d="m 16.616127,6.1361262 0,31.1462498 c 0,4.68 2.4025,7.25625 6.76375,7.25625 l 7.3275,0 0,-2.25375 -7.3275,0 c -3.07625,0 -4.50875,-1.5875 -4.50875,-5.0025 l 0,-31.1462498 -2.255,0" style="fill:#000;fill-opacity:1;fill-rule:nonzero;stroke:none"/>
  <path d="m 32.847378,23.557377 c -0.88875,-1.00625 -1.62375,-1.64125 -2.54375,-1.69375 -0.9375,-0.0525 -1.76125,0.505 -2.71125,1.36 l -8.58125,7.68 1.13125,1.255 8.58,-7.6775 c 0.7125,-0.64 1.19875,-0.945 1.48375,-0.92875 0.35625,0.02125 0.9225,0.61125 1.375,1.1225 1.39125,1.575 12.37375,13.695 12.485,13.81625 l 1.2525,-1.135 c -0.11125,-0.1225 -11.0875,-12.23375 -12.47125,-13.79875" style="fill:#000;fill-opacity:1;fill-rule:nonzero;stroke:none"/>
  <path d="m 25.223627,24.574877 c -0.4725,-0.2525 -1.01125,-0.4 -1.585,-0.4 -1.8575,0 -3.36125,1.50375 -3.36125,3.36125 l 0,1.465 4.94625,-4.42625" style="fill:#000;fill-opacity:1;fill-rule:nonzero;stroke:none"/>
  <path d="m 36.959877,31.216128 c 0,0 -5.7175,-0.39375 -6.5475,-0.4475 -0.39625,-0.40375 -2.275,-2.3025 -3.425,-3.465 -0.01125,-0.15125 -0.035,-0.30125 -0.06375,-0.445 l -6.64625,5.94875 0,4.85875 c 0,1.855 1.50375,3.36125 3.36125,3.36125 l 8.56625,0 0,7.7125 c 0,0.89 0.72125,1.61 1.61,1.61 0.89,0 1.61,-0.72 1.61,-1.61 l 0,-9.75 c 0,-1.07 -0.87,-1.93875 -1.94125,-1.93875 l -6.48375,0 0,-6.12875 1.945,1.97 c 0.2175,0.2175 0.5075,0.35 0.815,0.37125 l 7.02625,0.48375 c 0.69875,0.0475 1.305,-0.48125 1.35375,-1.18 0.0012,-0.0275 0.0038,-0.05875 0.0038,-0.0875 0,-0.66 -0.51375,-1.21875 -1.18375,-1.26375" style="fill:#000;fill-opacity:1;fill-rule:nonzero;stroke:none"/>
</svg>
