<?xml version='1.0' encoding='UTF-8' standalone='no'?>
<svg xmlns:cc="http://creativecommons.org/ns#" xmlns:dc="http://purl.org/dc/elements/1.1/" height="60.601002" xmlns:rdf="http://www.w3.org/1999/02/22-rdf-syntax-ns#" xmlns:svg="http://www.w3.org/2000/svg" version="1.1" viewBox="0 0 60.601004 60.601004" width="60.601002" xmlns="http://www.w3.org/2000/svg">
  <defs/>
  <metadata>
    <rdf:RDF>
      <cc:Work rdf:about="">
        <dc:format>image/svg+xml</dc:format>
        <dc:type rdf:resource="http://purl.org/dc/dcmitype/StillImage"/>
        <dc:title>徒歩客は降りる; Foot passenger have to get off</dc:title>
        <dc:source>http://www.ecomo.or.jp/barrierfree/pictogram/data/zukigo_panfu_jis110.pdf</dc:source>
      </cc:Work>
    </rdf:RDF>
  </metadata>
  <path d="m 56.043629,56.043629 0,-51.4862528 -51.4862528,0 0,51.4862528 51.4862528,0 z" style="fill:#ffffff;fill-opacity:1;stroke:#000;stroke-width:0.60625005;stroke-linecap:butt;stroke-linejoin:miter;stroke-miterlimit:4;stroke-dasharray:none;stroke-opacity:1"/>
  <path d="m 16.462377,6.1298762 0,3.12875 c 0,0.7549998 -0.08625,0.8899998 -0.70875,1.1149998 -0.79375,0.28875 -1.7875,0.7075 -3.12875,1.31625 l -0.25,0.11125 c -0.9125,0.39375 -2.8087498,1.215 -2.8087498,3.4725 l 0,18.28375 c 0,2.98 3.0587498,6.25 5.8462498,6.25 l 8.10125,0 0,-2.2325 -8.10125,0 c -1.45875,0 -3.61375,-2.1175 -3.61375,-4.0175 l 0,-18.28375 c 0,-0.67 0.38375,-0.9575 1.46375,-1.42375 l 0.28625,-0.1275 c 1.2875,-0.5825 2.22875,-0.98125 2.9675,-1.24875 1.93125,-0.7025 2.17875,-2.08625 2.17875,-3.2149998 l 0,-3.12875 -2.2325,0" style="fill:#000;fill-opacity:1;fill-rule:nonzero;stroke:none"/>
  <path d="m 44.042378,13.319877 c 0,1.72625 -1.39625,3.12625 -3.1225,3.12625 -1.725,0 -3.12375,-1.4 -3.12375,-3.12625 0,-1.72375 1.39875,-3.12375 3.12375,-3.12375 1.72625,0 3.1225,1.4 3.1225,3.12375" style="fill:#000;fill-opacity:1;fill-rule:nonzero;stroke:none"/>
  <path d="m 49.404879,25.167377 c 0,0 -5.69,0 -6.865,0 -0.33125,-0.56125 -1.47375,-2.49375 -2.455,-4.15375 0.20625,-1.68875 -0.88625,-3.29875 -2.58125,-3.69625 -1.81875,-0.42875 -3.6375,0.69875 -4.065,2.515 l -2.30875,8.8425 c -0.22,0.9375 -0.025,1.8725 0.4625,2.61875 -0.78125,3.11 -2.015,8.0025 -2.18625,8.6825 -0.79875,0.625 -7.3675,5.7875 -7.3675,5.7875 -0.41875,0.32875 -0.64,0.82125 -0.64,1.31625 0,0.3625 0.1175,0.7275 0.35875,1.035 0.57,0.7275 1.62375,0.8525 2.35125,0.2825 l 7.81625,-6.14125 c 0.29125,-0.23 0.49875,-0.55 0.58875,-0.90875 l 1.8225,-7.23 c 1.61875,2.8175 3.6575,6.375 3.9025,6.80125 0,0.81875 0,9.8825 0,9.8825 0,0.925 0.75,1.67625 1.675,1.67625 0.92375,0 1.675,-0.75125 1.675,-1.67625 l 0,-10.32875 c 0,-0.29125 -0.07625,-0.58 -0.22125,-0.8325 l -4.50625,-7.85375 c 0.40625,-0.42125 0.71,-0.95125 0.8525,-1.5625 l 1.49875,-5.7475 1.5275,2.58625 c 0.2275,0.38375 0.64,0.6175 1.0825,0.6175 l 7.5825,0 c 0.695,0 1.2575,-0.56375 1.2575,-1.2575 0,-0.69375 -0.5625,-1.255 -1.2575,-1.255" style="fill:#000;fill-opacity:1;fill-rule:nonzero;stroke:none"/>
  <path d="m 28.884877,30.162378 -5.55125,-5.55125 0,2.67375 c -4.985,0.06875 -8.0775,3.43125 -8.0775,8.81375 l 5.585,0 c 0,-3.07625 1.44125,-3.2275 2.4925,-3.235 l 0,2.85125 5.55125,-5.5525" style="fill:#000;fill-opacity:1;fill-rule:nonzero;stroke:none"/>
</svg>
