<?xml version='1.0' encoding='UTF-8' standalone='no'?>
<svg xmlns:cc="http://creativecommons.org/ns#" xmlns:dc="http://purl.org/dc/elements/1.1/" height="60.601002" xmlns:rdf="http://www.w3.org/1999/02/22-rdf-syntax-ns#" xmlns:svg="http://www.w3.org/2000/svg" version="1.1" viewBox="0 0 60.601004 60.601004" width="60.601002" xmlns="http://www.w3.org/2000/svg">
  <defs/>
  <metadata>
    <rdf:RDF>
      <cc:Work rdf:about="">
        <dc:format>image/svg+xml</dc:format>
        <dc:type rdf:resource="http://purl.org/dc/dcmitype/StillImage"/>
        <dc:title>スキーリフト; Ski lift</dc:title>
        <dc:source>http://www.ecomo.or.jp/barrierfree/pictogram/data/zukigo_panfu_jis110.pdf</dc:source>
      </cc:Work>
    </rdf:RDF>
  </metadata>
  <path d="m 56.044254,56.044254 0,-51.4875028 -51.4875028,0 0,51.4875028 51.4875028,0 z" style="fill:#ffffff;stroke:#000;stroke-width:0.60625005;stroke-linecap:butt;stroke-linejoin:miter;stroke-miterlimit:4;stroke-dasharray:none;stroke-opacity:1;fill-opacity:1"/>
  <path d="m 19.894252,17.363002 c 1.5375,0 2.7875,-1.245 2.7875,-2.78375 0,-1.53875 -1.25,-2.78625 -2.7875,-2.78625 -1.5375,0 -2.7875,1.2475 -2.7875,2.78625 0,1.53875 1.25,2.78375 2.7875,2.78375" style="fill:#000;fill-opacity:1;fill-rule:nonzero;stroke:none"/>
  <path d="m 50.294254,37.805503 -1.425,0.115 c 0.2125,2.61125 -0.5875,3.3875 -2.35,4.05375 -0.9125,0.3475 -6.15,2.16875 -11.95,4.17125 l -12.7625,-14.67375 c 0.5,-0.635 0.8125,-1.47625 0.8125,-2.4075 l 0,-7.12875 c 0,-0.2175 -0.025,-0.4275 -0.05,-0.63375 l 9.35,1.14375 -8.95,9.31125 1.0375,0.9875 9.6875,-10.08125 0.2,0.02375 c 0.625,0.07625 1.1875,-0.36875 1.2625,-0.99125 0.025,-0.17875 0,-0.3475 -0.05,-0.505 l 13.1625,-13.7024998 -1.975,0 -12.4,12.9062498 -12.8625,-1.57375 c -0.4375,-0.285 -0.95,-0.44875 -1.4875,-0.44875 -1.7,0 -3.075,1.595 -3.075,3.56375 l 0,8.20625 c 0,2.08125 1.2,3.37875 2.7375,3.545 l 11.8875,13.66 c -6.9125,2.385 -13.55,4.6625 -13.675,4.70875 l 0.4625,1.345 c 1.1,-0.3775 26.9625,-9.26375 29.15,-10.0925 2.5875,-0.98375 3.5,-2.525 3.2625,-5.5025" style="fill:#000;fill-opacity:1;fill-rule:nonzero;stroke:none"/>
  <path d="m 21.444252,37.404253 -1.4125,1.23375 -2.6875,-3.035 1.4125,-1.23625 2.6875,3.0375" style="fill:#000;fill-opacity:1;fill-rule:nonzero;stroke:none"/>
</svg>
