<?xml version='1.0' encoding='UTF-8' standalone='no'?>
<svg xmlns:cc="http://creativecommons.org/ns#" xmlns:dc="http://purl.org/dc/elements/1.1/" height="60.601002" xmlns:rdf="http://www.w3.org/1999/02/22-rdf-syntax-ns#" xmlns:svg="http://www.w3.org/2000/svg" version="1.1" viewBox="0 0 60.601004 60.601004" width="60.601002" xmlns="http://www.w3.org/2000/svg">
  <defs/>
  <metadata>
    <rdf:RDF>
      <cc:Work rdf:about="">
        <dc:format>image/svg+xml</dc:format>
        <dc:type rdf:resource="http://purl.org/dc/dcmitype/StillImage"/>
        <dc:title>歴史的建造物２; Historical monument 2</dc:title>
        <dc:source>http://www.ecomo.or.jp/barrierfree/pictogram/data/zukigo_panfu_jis110.pdf</dc:source>
      </cc:Work>
    </rdf:RDF>
  </metadata>
  <path d="m 7.7867527,56.031128 c -1.77625,0 -3.2175,-1.43875 -3.2175,-3.21625 l 0,-45.0287503 c 0,-1.7775 1.44125,-3.21625 3.2175,-3.21625 l 45.0300003,0 c 1.775,0 3.215,1.43875 3.215,3.21625 l 0,45.0287503 c 0,1.7775 -1.44,3.21625 -3.215,3.21625 l -45.0300003,0 z" style="fill:#ffffff;fill-opacity:1;stroke:#000;stroke-width:0.60625005;stroke-linecap:butt;stroke-linejoin:miter;stroke-miterlimit:4;stroke-dasharray:none;stroke-opacity:1"/>
  <path d="m 37.834255,29.464877 0,3.58125 -1.68,0 0,-3.58125 1.68,0 z m 0,3.58125 z m -12.96,-8.705 c 1.93875,-1.5075 3.6675,-3.22375 5.19,-5.14625 l 0.47625,-0.0038 c 1.5225,1.92375 3.2525,3.64125 5.19125,5.15 l -10.8575,0 z m 8.49875,5.12375 0,3.58125 -1.68,0 0,-3.58125 1.68,0 z m 0,3.58125 z m -4.45875,-3.58125 0,3.58125 -1.680125,0 0,-3.58125 1.680125,0 z m 0,3.58125 z m -4.46,-3.58125 0,3.58125 -1.68125,0 0,-3.58125 1.68125,0 z m 0,3.58125 z m 22.18375,3.685 c -2.255,-0.83375 -4.28625,-2.09125 -6.025,-3.685 l 0,-3.58125 c 1.305,-0.06875 2.46625,-0.60125 3.35875,-1.43875 -2.25375,-0.8325 -4.28625,-2.09125 -6.0225,-3.685 l 0,-2.72875 c 1.54875,-0.12125 2.9675,-0.69625 4.1175,-1.605 -1.1275,-0.4625 -2.205,-1.0525 -3.205,-1.7075 l 0,-4.86375 c 0,-0.955 -0.39,-1.82125 -1.01875,-2.445 l -0.81375,0 0,2.445 -13.45125,0 0,-2.445 -0.815,0 c -0.62875,0.62375 -1.01875,1.49 -1.01875,2.445 l 0,4.86375 c -1,0.655 -2.07625,1.245 -3.20375,1.7075 1.15125,0.90875 2.56875,1.48375 4.11875,1.605 l 0,2.72875 c -1.73875,1.59375 -3.77,2.8525 -6.025,3.685 0.89125,0.8375 2.05375,1.37 3.35875,1.43875 l 0,3.58125 c -1.73625,1.59375 -3.77,2.85125 -6.0225,3.685 1.35875,1.14 3.05625,1.8925 4.91625,2.08875 -0.11125,4.2725 -1.09875,8.32375 -2.79125,11.985 l 28.415,0 c -1.69125,-3.66125 -2.67875,-7.7125 -2.79,-11.985 1.86125,-0.19625 3.55625,-0.94875 4.9175,-2.08875" style="fill:#000;fill-opacity:1;fill-rule:nonzero;stroke:none"/>
</svg>
