<?xml version='1.0' encoding='UTF-8' standalone='no'?>
<svg xmlns:cc="http://creativecommons.org/ns#" xmlns:dc="http://purl.org/dc/elements/1.1/" height="60.601002" xmlns:rdf="http://www.w3.org/1999/02/22-rdf-syntax-ns#" xmlns:svg="http://www.w3.org/2000/svg" version="1.1" viewBox="0 0 60.601004 60.601004" width="60.601002" xmlns="http://www.w3.org/2000/svg">
  <defs/>
  <metadata>
    <rdf:RDF>
      <cc:Work rdf:about="">
        <dc:format>image/svg+xml</dc:format>
        <dc:type rdf:resource="http://purl.org/dc/dcmitype/StillImage"/>
        <dc:title>スカッシュコート; Squash court</dc:title>
        <dc:source>http://www.ecomo.or.jp/barrierfree/pictogram/data/zukigo_panfu_jis110.pdf</dc:source>
      </cc:Work>
    </rdf:RDF>
  </metadata>
  <path d="m 56.044254,56.043629 0,-51.4862528 -51.4875023,0 0,51.4862528 51.4875023,0 z" style="fill:#ffffff;stroke:#000;stroke-width:0.60625005;stroke-linecap:butt;stroke-linejoin:miter;stroke-miterlimit:4;stroke-dasharray:none;stroke-opacity:1;fill-opacity:1"/>
  <path d="m 36.394253,18.169877 c 0,1.64 -1.3375,2.96875 -2.975,2.96875 -1.6375,0 -2.975,-1.32875 -2.975,-2.96875 0,-1.63875 1.3375,-2.97 2.975,-2.97 1.6375,0 2.975,1.33125 2.975,2.97" style="fill:#000;fill-opacity:1;fill-rule:nonzero;stroke:none"/>
  <path d="m 48.531754,16.063627 c 0,0.87875 -0.7125,1.59125 -1.6,1.59125 -0.875,0 -1.5875,-0.7125 -1.5875,-1.59125 0,-0.8775 0.7125,-1.59125 1.5875,-1.59125 0.8875,0 1.6,0.71375 1.6,1.59125" style="fill:#000;fill-opacity:1;fill-rule:nonzero;stroke:none"/>
  <path d="m 20.294252,27.718627 0,-4.22875 3.4875,-1.145 c 1.05,-0.24875 1.6875,0.39 1.4375,1.23625 -0.1,0.3075 -0.2625,0.615 -0.4,0.8525 l 0,-0.0013 -2.8125,4.3625 -1.7125,-1.07625 z m 24,0.295 c -0.1875,-0.8425 -0.0125,-1.77625 0.4875,-2.56375 0.5,-0.78625 1.275,-1.345 2.1125,-1.53375 0.6875,-0.155 1.375,-0.04625 1.9375,0.30625 0.775,0.48875 1.175,1.35875 1.175,2.30125 0,0.62875 -0.175,1.28625 -0.55,1.88375 -0.95,1.49125 -2.7625,2.04125 -4.05,1.22625 -0.5625,-0.3525 -0.95,-0.92875 -1.1125,-1.62 z m 9.25,21.8225 0,-1.15375 -25.0125,-15.77375 3.35,-5.21375 c 0.125,-0.185 0.45,-0.39375 0.775,-0.3375 0.325,0.06 0.775,0.125 0.775,1.1975 0,1.07125 0,4.85875 0,4.85875 0,0.42875 0.225,0.82875 0.5875,1.06 l 6.15,3.98125 c 0.5875,0.38 1.375,0.2125 1.75,-0.37375 0.1375,-0.21125 0.2,-0.4475 0.2,-0.685 0,-0.3425 -0.1375,-0.67875 -0.4,-0.92375 l 3.7375,-5.87 c 1.6125,0.6625 3.625,-0.0425 4.7,-1.745 1.2,-1.885 0.8,-4.2825 -0.875,-5.345 -0.75,-0.47375 -1.6625,-0.62375 -2.575,-0.41875 -1.05,0.2375 -2.0125,0.9325 -2.6375,1.905 -0.6125,0.97625 -0.825,2.14 -0.5875,3.2 0.15,0.715 0.5125,1.335 1.025,1.80125 l -3.725,5.845 c -1.35,-0.87625 -4.1125,-2.66125 -4.8125,-3.12 0,-1.11375 0,-6.25875 0,-6.25875 0,-0.89375 -0.05,-2.07375 -0.9875,-2.60125 l -6.2,-3.83625 c -1.6,-0.9825 -2.15,-1.18 -3.3375,-0.88375 l -5.15,1.69125 0,-14.1187498 -0.975,0 0,14.4412498 -8.4,2.7575 c -0.6625,0.21625 -1.0250003,0.93125 -0.8,1.595 0.2125,0.66125 0.925,1.02375 1.5875,0.805 l 7.6125,-2.50375 0,3.88375 -12.9125003,0 0,0.9825 13.5750003,0 1.4875,0.94375 -12.1375003,18.8825 c -0.475,0.74875 -0.2625,1.7475 0.4875,2.23 0.7500003,0.48 1.7500003,0.26375 2.2250003,-0.48625 l 8.8125,-13.7 c 0.175,-0.2625 0.475,-0.4375 0.825,-0.4375 0.175,0 0.35,0.045 0.5,0.13 1.2625,0.73875 6.0625,3.55 7.25,4.23875 0,1.51125 0,8.68625 0,8.68625 0,0.89 0.7125,1.61375 1.6125,1.61375 0.8875,0 1.6125,-0.72375 1.6125,-1.61375 l 0,-9.61375 c 0,-0.57375 -0.3,-1.1025 -0.8,-1.39375 l -4.875,-2.84875 1.0125,-1.5775 25.55,16.10375" style="fill:#000;fill-opacity:1;fill-rule:nonzero;stroke:none"/>
</svg>
