<?xml version='1.0' encoding='UTF-8' standalone='no'?>
<svg xmlns:cc="http://creativecommons.org/ns#" xmlns:dc="http://purl.org/dc/elements/1.1/" height="60.601002" xmlns:rdf="http://www.w3.org/1999/02/22-rdf-syntax-ns#" xmlns:svg="http://www.w3.org/2000/svg" version="1.1" viewBox="0 0 60.601004 60.601004" width="60.601002" xmlns="http://www.w3.org/2000/svg">
  <defs/>
  <metadata>
    <rdf:RDF>
      <cc:Work rdf:about="">
        <dc:format>image/svg+xml</dc:format>
        <dc:type rdf:resource="http://purl.org/dc/dcmitype/StillImage"/>
        <dc:title>非常口; Emergency exit</dc:title>
        <dc:source>http://www.ecomo.or.jp/barrierfree/pictogram/data/zukigo_panfu_jis110.pdf</dc:source>
      </cc:Work>
    </rdf:RDF>
  </metadata>
  <path d="m 4.5630022,4.5605012 0,51.4687528 51.4625028,0 0,-51.4687528 -51.4625028,0 z" style="fill:#ffffff;fill-opacity:1;fill-rule:nonzero;stroke:none"/>
  <path d="m 27.150503,51.406754 4.625,4.63375 -5.6,0 -6.05,-5.985 3.6125,0 c 1.2875,0 2.5125,0.515 3.4125,1.35125 z m -1.6125,-40.92625 c 1.9875,0 3.6625,1.67375 3.6625,3.6675 0,1.995 -1.675,3.60375 -3.6625,3.60375 -2,0 -3.6,-1.60875 -3.6,-3.60375 0,-1.99375 1.6,-3.6675 3.6,-3.6675 z m 24.0625,33.26875 -1.2875,-3.41 c -0.575,-1.41625 -1.8625,-2.38125 -3.475,-2.38125 l -0.575,0 0,-29.4074998 -27.925,0 0,16.2799998 3.6625,0 4.1875,-5.2125 c 0.8375,-0.965 2.125,-1.60875 3.5375,-1.60875 l 8.95,0 c 1.4125,0 2.6375,0.77125 3.275,1.995 l 2.6375,5.01875 c 0.1375,0.19375 0.2,0.45125 0.2,0.7725 0,0.90125 -0.775,1.67375 -1.675,1.67375 -0.7125,0 -1.225,-0.3225 -1.55,-0.90125 l -2.375,-4.56875 -3.8625,0 2.9625,7.4 0.9,9.46 7.65,0 c 1.225,0 2.1875,0.77125 2.6375,1.80125 l 0.8375,2.18875 -13.125,0 c -0.9625,0 -1.8,-0.70875 -1.8625,-1.67375 l -0.9,-8.30125 -7.0875,14.67125 c -0.375,0.8375 -1.275,1.41625 -2.3125,1.41625 l -3.4125,0 8.6875,-17.95375 -2.7,-6.75625 -2.575,3.1525 c -0.6375,0.8375 -1.7375,1.41625 -2.9,1.41625 l -3.7875,0 0,21.235 6.05,5.985 -17.8249998,0 0,-51.4799998 51.4749998,0 0,51.4799998 -5.7875,0 -5.9875,-5.985 0,-6.30625 5.3375,0" style="fill:#00a650;fill-opacity:1;fill-rule:nonzero;stroke:none"/>
</svg>
