<?xml version='1.0' encoding='UTF-8' standalone='no'?>
<svg xmlns:cc="http://creativecommons.org/ns#" xmlns:dc="http://purl.org/dc/elements/1.1/" height="60.601002" xmlns:rdf="http://www.w3.org/1999/02/22-rdf-syntax-ns#" xmlns:svg="http://www.w3.org/2000/svg" version="1.1" viewBox="0 0 60.601004 60.601004" width="60.601002" xmlns="http://www.w3.org/2000/svg">
  <defs/>
  <metadata>
    <rdf:RDF>
      <cc:Work rdf:about="">
        <dc:format>image/svg+xml</dc:format>
        <dc:type rdf:resource="http://purl.org/dc/dcmitype/StillImage"/>
        <dc:title>スキーの先を上げる; Raise ski tips</dc:title>
        <dc:source>http://www.ecomo.or.jp/barrierfree/pictogram/data/zukigo_panfu_jis110.pdf</dc:source>
      </cc:Work>
    </rdf:RDF>
  </metadata>
  <path d="m 56.043629,56.043629 0,-51.4862528 -51.4862528,0 0,51.4862528 51.4862528,0 z" style="fill:#ffffff;fill-opacity:1;stroke:#000;stroke-width:0.60625005;stroke-linecap:butt;stroke-linejoin:miter;stroke-miterlimit:4;stroke-dasharray:none;stroke-opacity:1"/>
  <path d="m 23.397377,16.134877 c 0,1.74625 -1.41875,3.16125 -3.16375,3.16125 -1.74625,0 -3.16375,-1.415 -3.16375,-3.16125 0,-1.7475 1.4175,-3.16625 3.16375,-3.16625 1.745,0 3.16375,1.41875 3.16375,3.16625" style="fill:#000;fill-opacity:1;fill-rule:nonzero;stroke:none"/>
  <path d="m 10.837377,33.496128 c 0,4.74375 2.435,7.355 6.855,7.355 l 7.4275,0 0,-2.285 -7.4275,0 c -3.11875,0 -4.57,-1.61 -4.57,-5.07 l 0,-27.2387498 -2.285,0 0,27.2387498" style="fill:#000;fill-opacity:1;fill-rule:nonzero;stroke:none"/>
  <path d="m 46.372379,40.844878 c 0,2.94125 -1.30875,3.38625 -3.16125,3.69375 l -13.56125,2.22375 0,-11.535 c 0,-1.0875 -0.88375,-1.9675 -1.97125,-1.9675 l -6.3175,0 0,-2.40875 4.7275,0 c 0.705,0 1.27625,-0.57125 1.27625,-1.27625 0,-0.70375 -0.57125,-1.275 -1.27625,-1.275 l -4.7275,0 0,-4.68375 c 0,-1.8775 -1.525,-3.405 -3.40625,-3.405 -1.88,0 -3.40625,1.5275 -3.40625,3.405 l 0,10.26875 c 0,1.88 1.52625,3.405 3.40625,3.405 l 8.43,0 0,10.01 -14.7125,2.41375 0.23,1.3975 31.54125,-5.175 c 2.26,-0.37375 4.3475,-1.2525 4.3475,-5.09125 l -1.41875,0" style="fill:#000;fill-opacity:1;fill-rule:nonzero;stroke:none"/>
  <path d="m 53.307379,33.329878 -6.33125,-6.3275 -6.32875,6.33 3.105,0 0,5.45625 6.4475,0 0,-5.45875 3.1075,0" style="fill:#000;fill-opacity:1;fill-rule:nonzero;stroke:none"/>
</svg>
