<?xml version='1.0' encoding='UTF-8' standalone='no'?>
<svg xmlns:cc="http://creativecommons.org/ns#" xmlns:dc="http://purl.org/dc/elements/1.1/" height="60.601002" xmlns:rdf="http://www.w3.org/1999/02/22-rdf-syntax-ns#" xmlns:svg="http://www.w3.org/2000/svg" version="1.1" viewBox="0 0 60.601004 60.601004" width="60.601002" xmlns="http://www.w3.org/2000/svg">
  <defs/>
  <metadata>
    <rdf:RDF>
      <cc:Work rdf:about="">
        <dc:format>image/svg+xml</dc:format>
        <dc:type rdf:resource="http://purl.org/dc/dcmitype/StillImage"/>
        <dc:title>スキーヤーは降りる; Skiers have to get off</dc:title>
        <dc:source>http://www.ecomo.or.jp/barrierfree/pictogram/data/zukigo_panfu_jis110.pdf</dc:source>
      </cc:Work>
    </rdf:RDF>
  </metadata>
  <path d="m 56.043629,56.043629 0,-51.4862528 -51.4862528,0 0,51.4862528 51.4862528,0 z" style="fill:#ffffff;fill-opacity:1;stroke:#000;stroke-width:0.60625005;stroke-linecap:butt;stroke-linejoin:miter;stroke-miterlimit:4;stroke-dasharray:none;stroke-opacity:1"/>
  <path d="m 45.598628,14.858627 c 0,1.8025 -1.46,3.26375 -3.2625,3.26375 -1.8025,0 -3.265,-1.46125 -3.265,-3.26375 0,-1.805 1.4625,-3.265 3.265,-3.265 1.8025,0 3.2625,1.46 3.2625,3.265" style="fill:#000;fill-opacity:1;fill-rule:nonzero;stroke:none"/>
  <path d="m 45.338628,51.882379 c -1.125,-0.315 -6.335,-1.80375 -12.07875,-3.4475 l 7.59125,-7.915 c 0.33625,-0.35 0.5175,-0.81625 0.50625,-1.3025 -0.0125,-0.4825 -0.21625,-0.94 -0.5675,-1.27125 l -5.48625,-5.49375 c 0.05,-0.08375 3.8,-7.645 3.8,-7.645 l 2.435,3.11125 c 0.25125,0.32 0.63625,0.5075 1.045,0.5075 l 6.9425,0 -9.74125,20.3425 1.005,0.4825 9.97625,-20.825 c 0.72875,0 1.32625,-0.5925 1.32625,-1.32375 0,-0.7325 -0.5975,-1.32625 -1.32625,-1.32625 0,0 -6.12625,0 -7.22375,0 -0.3975,-0.51125 -2.0175,-2.57875 -3.28375,-4.19625 -0.035,-1.225 -0.7275,-2.3925 -1.9025,-2.9725 -1.69,-0.83625 -3.74125,-0.14375 -4.58,1.54875 l -4.45875,9.00875 c -0.495,0.995 -0.69125,2.695 0.8875,4.1325 0.17375,0.15625 5.25375,4.60125 6.76375,6.02875 -1.64,1.7075 -6.5375,6.82125 -7.6475,7.98125 -6.92125,-1.985 -13.45875,-3.86 -13.59125,-3.89625 l -0.385,1.34125 c 0.26875,0.075 26.89125,7.7125 29.61625,8.475 2.93875,0.8225 4.75,0.735 7.1125,-1.99125 l -1.055,-0.91375 c -1.99125,2.29625 -3.25875,2.2375 -5.68,1.56" style="fill:#000;fill-opacity:1;fill-rule:nonzero;stroke:none"/>
  <path d="m 14.948627,5.9498762 0,3.11625 0.0013,0.20375 c 0.0075,1.1649998 -0.06625,1.2649998 -0.585,1.4212498 l -0.03875,0.0088 -3.86875,1.445 0.05,-0.01625 c -1.4774998,0.47625 -3.1737498,1.38 -3.1737498,4.15375 l 0,18.64375 c 0,2.92 2.7624998,5.4775 5.9124998,5.4775 l 7.99875,0 0,-2.3725 -7.99875,0 c -1.85125,0 -3.5412498,-1.48 -3.5412498,-3.105 l 0,-18.64375 c 0,-1.11625 0.3162498,-1.50375 1.5299998,-1.895 l 0.02625,-0.0087 3.85875,-1.44 -0.07375,0.02375 c 2.29125,-0.6875 2.2825,-2.65 2.27625,-3.7037498 l 0,-3.30875 -2.37375,0" style="fill:#000;fill-opacity:1;fill-rule:nonzero;stroke:none"/>
  <path d="m 26.652427,30.838628 -5.5525,-5.5525 0,2.67375 c -4.985,0.07 -8.07625,3.43375 -8.07625,8.81625 l 5.5825,0 c 0,-3.07875 1.445,-3.2275 2.49375,-3.235 l 0,2.85125 5.5525,-5.55375" style="fill:#000;fill-opacity:1;fill-rule:nonzero;stroke:none"/>
</svg>
