<?xml version="1.0" encoding="UTF-8"?>
<svg width="54.275" height="80.6" version="1.1" viewBox="0 0 54.275 80.6" xmlns="http://www.w3.org/2000/svg" xmlns:cc="http://creativecommons.org/ns#" xmlns:dc="http://purl.org/dc/elements/1.1/" xmlns:rdf="http://www.w3.org/1999/02/22-rdf-syntax-ns#">
 <metadata>
   <rdf:RDF>
     <cc:Work rdf:about="">
       <dc:format>image/svg+xml</dc:format>
       <dc:type rdf:resource="http://purl.org/dc/dcmitype/StillImage"/>
       <dc:title>ヘルプマーク; Help mark</dc:title>
     </cc:Work>
   </rdf:RDF>
 </metadata>
 <path d="m49.275 72.041c0 1.9653-1.5933 3.5587-3.5587 3.5587h-37.159c-1.964 0-3.5573-1.5933-3.5573-3.5587v-63.483c0-1.9653 1.5933-3.5587 3.5573-3.5587h37.159c1.9653 0 3.5587 1.5933 3.5587 3.5587z" style="fill:#ff4b00"/>
 <path d="m30.934 23.202h6.08c0.196 0 0.35467 0.15733 0.35467 0.352v6.144c0 0.19467-0.15867 0.35333-0.35467 0.35333h-6.08c-0.236 0-0.372 0.14533-0.372 0.36v6.0933c0 0.19333-0.15867 0.352-0.352 0.352h-6.1453c-0.19467 0-0.352-0.15867-0.352-0.352v-6.0733c0-0.256-0.15867-0.38-0.39467-0.38h-6.0587c-0.196 0-0.35333-0.15867-0.35333-0.35333v-6.144c0-0.19467 0.15733-0.352 0.35333-0.352h6.0587c0.19733 0 0.39467-0.14933 0.39467-0.38533v-6.068c0-0.19467 0.15733-0.35333 0.352-0.35333h6.1453c0.19333 0 0.352 0.15867 0.352 0.35333v6.068c0 0.196 0.136 0.38533 0.372 0.38533" style="fill:#fff"/>
 <path d="m36.864 47.751c-2.1507-2.3387-5.7907-2.492-8.1293-0.34133-0.256 0.23467-0.84933 0.78133-1.5973 1.4693-0.74933-0.688-1.3413-1.2347-1.5973-1.4693-2.34-2.1507-5.9787-1.9973-8.1293 0.34133-2.1507 2.3387-1.9973 5.9773 0.34133 8.1293 1.1347 1.0427 8.7627 8.076 8.7627 8.076 0.208 0.188 0.44 0.264 0.62267 0.264 0.18133 0 0.41333-0.076 0.62133-0.264 0 0 7.628-7.0333 8.764-8.076 2.3387-2.152 2.4907-5.7907 0.34133-8.1293" style="fill:#fff"/>
</svg>
