<?xml version="1.0" encoding="UTF-8" standalone="no"?>
<svg
   xmlns:dc="http://purl.org/dc/elements/1.1/"
   xmlns:cc="http://creativecommons.org/ns#"
   xmlns:rdf="http://www.w3.org/1999/02/22-rdf-syntax-ns#"
   xmlns:svg="http://www.w3.org/2000/svg"
   xmlns="http://www.w3.org/2000/svg"
   width="60.601002"
   viewBox="0 0 60.601004 60.601004"
   version="1.1"
   height="60.601002">
  <title>加熱式たばこ専用喫煙室; Designated heated tobacco smoking room</title>
  <metadata>
    <rdf:RDF>
      <cc:Work
         rdf:about="">
        <dc:format>image/svg+xml</dc:format>
        <dc:type
           rdf:resource="http://purl.org/dc/dcmitype/StillImage" />
        <dc:title>加熱式たばこ専用喫煙室; Designated heated tobacco smoking room</dc:title>
        <dc:source></dc:source>
      </cc:Work>
    </rdf:RDF>
  </metadata>
  <path
     style="fill:#ffffff;fill-opacity:1;stroke:#000;stroke-width:0.60625005;stroke-linecap:butt;stroke-linejoin:miter;stroke-miterlimit:4;stroke-dasharray:none;stroke-opacity:1"
     d="m 7.7673777,56.052378 c -1.77625,0 -3.21875,-1.44125 -3.21875,-3.21875 l 0,-45.0662503 c 0,-1.77625 1.4425,-3.21875 3.21875,-3.21875 l 45.0662503,0 c 1.77875,0 3.21875,1.4425 3.21875,3.21875 l 0,45.0662503 c 0,1.7775 -1.44,3.21875 -3.21875,3.21875 l -45.0662503,0 z" />
  <path
     style="fill:#000"
     d="m 22.835368,17.628474 h -3.01355 v -1.870479 h 3.01355 z m -7.162897,0.02442 -0.219782,-1.85749 c 0.208871,-0.02494 0.421897,-0.03741 0.633885,-0.03741 h 2.176511 v 1.870479 h -2.176511 c -0.140286,0 -0.278493,0.0083 -0.414103,0.02442 m -2.663355,1.825277 -1.651738,-0.878087 c 0.519058,-0.975247 1.313493,-1.756692 2.297053,-2.258604 l 0.850029,1.665766 c -0.640639,0.327334 -1.157619,0.836001 -1.495344,1.470925 m -0.40579,3.78824 h -1.87048 v -2.154688 c 0,-0.347078 0.03377,-0.694156 0.09976,-1.032921 l 1.835668,0.359028 c -0.04313,0.220821 -0.06495,0.447357 -0.06495,0.673893 z m -0.0769,4.441869 -1.83307,-0.370458 c 0.0265,-0.130934 0.03949,-0.265505 0.03949,-0.400075 v -2.112603 h 1.87048 v 2.111044 c 5.19e-4,0.25875 -0.02546,0.518539 -0.0769,0.772092 M 8.722598,30.817432 H 8.500219 v -1.87048 h 0.222379 c 0.571536,0 1.118131,-0.244721 1.499501,-0.671294 l 1.394027,1.246987 c -0.735722,0.82301 -1.790464,1.294787 -2.893528,1.294787"/>
  <path
     style="fill:#000"
     d="M 16.4482,44.223056 H 8.500221 V 38.924403 H 16.4482 Z"/>
  <path
     style="fill:#000"
     d="m 19.503317,45.65761 h -2.135984 v -8.168281 h 2.135984 z"/>
  <path
     style="fill:#000"
     d="m 27.045506,43.099885 c -0.843275,0 -1.526519,-0.683245 -1.526519,-1.526519 0,-0.842755 0.683244,-1.526 1.526519,-1.526 0.842755,0 1.526519,0.683245 1.526519,1.526 0,0.843274 -0.683764,1.526519 -1.526519,1.526519 m -6.623576,2.557881 h 31.678649 v -8.16828 H 20.42193 Z" />
  <path
     style="fill:#000"
     d="m 28.844283,18.102849 h -1.870479 v -2.857677 h 1.870479 z m -1.14307,4.8461 -1.319208,-1.325962 c 0.38189,-0.380331 0.592319,-0.886399 0.592319,-1.424682 v -0.536724 h 1.869959 v 0.536724 c 5.2e-4,1.039675 -0.40527,2.016481 -1.14307,2.750644 m -2.737135,1.129562 h -2.369274 v -1.86996 h 2.369274 c 0.17198,0 0.341882,-0.02182 0.505029,-0.06391 l 0.470218,1.810209 c -0.316423,0.08209 -0.644796,0.123659 -0.975247,0.123659 M 19.12974,24.722266 17.758575,23.44982 c 0.732085,-0.789238 1.769162,-1.241271 2.845207,-1.241271 h 0.432289 v 1.86996 h -0.432289 c -0.56582,0 -1.089035,0.228614 -1.474042,0.643757 m -0.536723,3.57937 h -1.87048 v -2.212362 c 0,-0.28265 0.03065,-0.56582 0.09145,-0.841196 l 1.826835,0.402673 c -0.03169,0.143403 -0.0478,0.290963 -0.0478,0.438523 z M 17.51853,33.346735 16.024225,32.22133 c 0.457228,-0.606347 0.698312,-1.330119 0.698312,-2.092859 v -0.268102 h 1.87048 v 0.268102 c 0,1.171648 -0.371498,2.284583 -1.074487,3.218264 m -6.160632,2.135464 H 8.500221 V 33.61172 h 2.857677 z m 1.881391,0 h -0.322658 v -1.86996 h 0.322658 c 0.673892,0 1.327001,-0.192763 1.889704,-0.556987 l 1.016293,1.570683 c -0.865616,0.560624 -1.870479,0.856264 -2.905997,0.856264"/>
</svg>
